<svg width="305" height="48" viewBox="0 0 305 48" fill="none" xmlns="http://www.w3.org/2000/svg">
<path d="M63.608 32.216C62.328 32.216 61.096 32.048 59.912 31.712C58.728 31.36 57.744 30.88 56.96 30.272L58.16 27.608C59.792 28.744 61.624 29.312 63.656 29.312C64.712 29.312 65.52 29.144 66.08 28.808C66.656 28.456 66.944 27.976 66.944 27.368C66.944 26.824 66.68 26.4 66.152 26.096C65.64 25.792 64.72 25.496 63.392 25.208C61.904 24.904 60.712 24.536 59.816 24.104C58.936 23.672 58.288 23.144 57.872 22.52C57.472 21.88 57.272 21.096 57.272 20.168C57.272 19.144 57.552 18.232 58.112 17.432C58.688 16.632 59.488 16.008 60.512 15.56C61.536 15.096 62.72 14.864 64.064 14.864C65.264 14.864 66.416 15.04 67.52 15.392C68.64 15.744 69.528 16.216 70.184 16.808L68.984 19.472C67.432 18.336 65.8 17.768 64.088 17.768C63.112 17.768 62.344 17.96 61.784 18.344C61.224 18.712 60.944 19.224 60.944 19.88C60.944 20.264 61.048 20.584 61.256 20.84C61.48 21.08 61.84 21.296 62.336 21.488C62.848 21.68 63.568 21.88 64.496 22.088C66.672 22.568 68.232 23.184 69.176 23.936C70.136 24.688 70.616 25.728 70.616 27.056C70.616 28.656 70 29.92 68.768 30.848C67.536 31.76 65.816 32.216 63.608 32.216Z" fill="#383838"/>
<path d="M83.6328 26.792H75.9528C76.0648 27.736 76.3688 28.424 76.8648 28.856C77.3768 29.272 78.0968 29.48 79.0248 29.48C79.6328 29.48 80.2328 29.384 80.8248 29.192C81.4328 28.984 81.9848 28.696 82.4808 28.328L83.4408 30.752C82.8648 31.2 82.1608 31.552 81.3288 31.808C80.5128 32.064 79.6888 32.192 78.8568 32.192C76.8728 32.192 75.3048 31.648 74.1528 30.56C73.0168 29.456 72.4488 27.96 72.4488 26.072C72.4488 24.872 72.6968 23.808 73.1928 22.88C73.6888 21.952 74.3768 21.232 75.2568 20.72C76.1368 20.192 77.1368 19.928 78.2568 19.928C79.9048 19.928 81.2088 20.464 82.1688 21.536C83.1448 22.608 83.6328 24.064 83.6328 25.904V26.792ZM78.3528 22.424C77.6648 22.424 77.1128 22.648 76.6968 23.096C76.2968 23.528 76.0488 24.16 75.9528 24.992H80.5848C80.5368 24.144 80.3208 23.504 79.9368 23.072C79.5688 22.64 79.0408 22.424 78.3528 22.424Z" fill="#383838"/>
<path d="M93.2137 19.928C94.6217 19.928 95.6697 20.344 96.3577 21.176C97.0457 21.992 97.3897 23.232 97.3897 24.896V32H93.7657V25.064C93.7657 24.264 93.6137 23.68 93.3097 23.312C93.0217 22.944 92.5657 22.76 91.9417 22.76C91.1897 22.76 90.5817 23 90.1177 23.48C89.6697 23.96 89.4457 24.6 89.4457 25.4V32H85.8217V20.216H89.3497V21.896C89.7657 21.256 90.3017 20.768 90.9577 20.432C91.6297 20.096 92.3817 19.928 93.2137 19.928Z" fill="#383838"/>
<path d="M100.095 32V20.216H103.719V32H100.095ZM99.9751 14.552H103.863V17.936H99.9751V14.552Z" fill="#383838"/>
<path d="M112.158 32.192C110.91 32.192 109.814 31.944 108.87 31.448C107.926 30.936 107.198 30.224 106.686 29.312C106.174 28.384 105.918 27.296 105.918 26.048C105.918 24.8 106.174 23.72 106.686 22.808C107.198 21.88 107.926 21.168 108.87 20.672C109.814 20.176 110.91 19.928 112.158 19.928C113.406 19.928 114.502 20.176 115.446 20.672C116.39 21.168 117.118 21.88 117.63 22.808C118.142 23.72 118.398 24.8 118.398 26.048C118.398 27.296 118.142 28.384 117.63 29.312C117.118 30.224 116.39 30.936 115.446 31.448C114.502 31.944 113.406 32.192 112.158 32.192ZM112.158 29.432C113.918 29.432 114.798 28.304 114.798 26.048C114.798 24.912 114.566 24.064 114.102 23.504C113.654 22.944 113.006 22.664 112.158 22.664C110.398 22.664 109.518 23.792 109.518 26.048C109.518 28.304 110.398 29.432 112.158 29.432Z" fill="#383838"/>
<path d="M129.027 22.904L126.987 23.12C125.979 23.216 125.267 23.504 124.851 23.984C124.435 24.448 124.227 25.072 124.227 25.856V32H120.603V20.216H124.083V22.208C124.675 20.848 125.899 20.104 127.755 19.976L128.811 19.904L129.027 22.904Z" fill="#383838"/>
<path d="M134.655 32.192C133.567 32.192 132.567 32.072 131.655 31.832C130.759 31.576 129.983 31.216 129.327 30.752L130.287 28.256C130.927 28.688 131.631 29.024 132.399 29.264C133.167 29.504 133.943 29.624 134.727 29.624C135.287 29.624 135.719 29.536 136.023 29.36C136.343 29.168 136.503 28.912 136.503 28.592C136.503 28.304 136.391 28.08 136.167 27.92C135.959 27.76 135.559 27.616 134.967 27.488L133.047 27.056C131.911 26.8 131.071 26.408 130.527 25.88C129.999 25.336 129.735 24.6 129.735 23.672C129.735 22.936 129.943 22.288 130.359 21.728C130.791 21.168 131.391 20.728 132.159 20.408C132.943 20.088 133.831 19.928 134.823 19.928C135.671 19.928 136.495 20.056 137.295 20.312C138.095 20.568 138.815 20.928 139.455 21.392L138.495 23.792C137.247 22.928 136.015 22.496 134.799 22.496C134.239 22.496 133.799 22.592 133.479 22.784C133.159 22.976 132.999 23.248 132.999 23.6C132.999 23.856 133.095 24.056 133.287 24.2C133.479 24.344 133.815 24.48 134.295 24.608L136.287 25.064C137.487 25.336 138.359 25.752 138.903 26.312C139.463 26.856 139.743 27.6 139.743 28.544C139.743 29.68 139.287 30.576 138.375 31.232C137.479 31.872 136.239 32.192 134.655 32.192Z" fill="#383838"/>
<path d="M148.805 15.08H155.381C157.221 15.08 158.805 15.416 160.133 16.088C161.461 16.76 162.477 17.728 163.181 18.992C163.885 20.256 164.237 21.768 164.237 23.528C164.237 25.288 163.885 26.808 163.181 28.088C162.493 29.352 161.485 30.32 160.157 30.992C158.829 31.664 157.237 32 155.381 32H148.805V15.08ZM155.117 28.976C158.717 28.976 160.517 27.16 160.517 23.528C160.517 19.912 158.717 18.104 155.117 18.104H152.549V28.976H155.117Z" fill="#383838"/>
<path d="M166.822 32V20.216H170.446V32H166.822ZM166.702 14.552H170.59V17.936H166.702V14.552Z" fill="#383838"/>
<path d="M177.756 32.192C176.668 32.192 175.668 32.072 174.756 31.832C173.86 31.576 173.084 31.216 172.428 30.752L173.388 28.256C174.028 28.688 174.732 29.024 175.5 29.264C176.268 29.504 177.044 29.624 177.828 29.624C178.388 29.624 178.82 29.536 179.124 29.36C179.444 29.168 179.604 28.912 179.604 28.592C179.604 28.304 179.492 28.08 179.268 27.92C179.06 27.76 178.66 27.616 178.068 27.488L176.148 27.056C175.012 26.8 174.172 26.408 173.628 25.88C173.1 25.336 172.836 24.6 172.836 23.672C172.836 22.936 173.044 22.288 173.46 21.728C173.892 21.168 174.492 20.728 175.26 20.408C176.044 20.088 176.932 19.928 177.924 19.928C178.772 19.928 179.596 20.056 180.396 20.312C181.196 20.568 181.916 20.928 182.556 21.392L181.596 23.792C180.348 22.928 179.116 22.496 177.9 22.496C177.34 22.496 176.9 22.592 176.58 22.784C176.26 22.976 176.1 23.248 176.1 23.6C176.1 23.856 176.196 24.056 176.388 24.2C176.58 24.344 176.916 24.48 177.396 24.608L179.388 25.064C180.588 25.336 181.46 25.752 182.004 26.312C182.564 26.856 182.844 27.6 182.844 28.544C182.844 29.68 182.388 30.576 181.476 31.232C180.58 31.872 179.34 32.192 177.756 32.192Z" fill="#383838"/>
<path d="M190.531 32.192C188.611 32.192 187.099 31.648 185.995 30.56C184.891 29.472 184.339 27.992 184.339 26.12C184.339 24.888 184.603 23.808 185.131 22.88C185.659 21.936 186.403 21.208 187.363 20.696C188.323 20.184 189.435 19.928 190.699 19.928C191.563 19.928 192.395 20.064 193.195 20.336C193.995 20.592 194.643 20.944 195.139 21.392L194.179 23.864C193.715 23.496 193.203 23.216 192.643 23.024C192.099 22.816 191.563 22.712 191.035 22.712C190.091 22.712 189.355 22.992 188.827 23.552C188.315 24.112 188.059 24.944 188.059 26.048C188.059 27.152 188.315 27.992 188.827 28.568C189.355 29.128 190.091 29.408 191.035 29.408C191.563 29.408 192.099 29.312 192.643 29.12C193.203 28.912 193.715 28.624 194.179 28.256L195.139 30.752C194.611 31.2 193.939 31.552 193.123 31.808C192.307 32.064 191.443 32.192 190.531 32.192Z" fill="#383838"/>
<path d="M202.439 32.192C201.191 32.192 200.095 31.944 199.151 31.448C198.207 30.936 197.479 30.224 196.967 29.312C196.455 28.384 196.199 27.296 196.199 26.048C196.199 24.8 196.455 23.72 196.967 22.808C197.479 21.88 198.207 21.168 199.151 20.672C200.095 20.176 201.191 19.928 202.439 19.928C203.687 19.928 204.783 20.176 205.727 20.672C206.671 21.168 207.399 21.88 207.911 22.808C208.423 23.72 208.679 24.8 208.679 26.048C208.679 27.296 208.423 28.384 207.911 29.312C207.399 30.224 206.671 30.936 205.727 31.448C204.783 31.944 203.687 32.192 202.439 32.192ZM202.439 29.432C204.199 29.432 205.079 28.304 205.079 26.048C205.079 24.912 204.847 24.064 204.383 23.504C203.935 22.944 203.287 22.664 202.439 22.664C200.679 22.664 199.799 23.792 199.799 26.048C199.799 28.304 200.679 29.432 202.439 29.432Z" fill="#383838"/>
<path d="M222.236 20.216V32H218.708V30.32C218.34 30.928 217.852 31.392 217.244 31.712C216.652 32.032 215.98 32.192 215.228 32.192C213.74 32.192 212.628 31.784 211.892 30.968C211.172 30.136 210.812 28.888 210.812 27.224V20.216H214.436V27.296C214.436 28 214.58 28.52 214.868 28.856C215.172 29.192 215.628 29.36 216.236 29.36C216.94 29.36 217.508 29.12 217.94 28.64C218.388 28.16 218.612 27.528 218.612 26.744V20.216H222.236Z" fill="#383838"/>
<path d="M232.409 19.928C233.817 19.928 234.865 20.344 235.553 21.176C236.241 21.992 236.585 23.232 236.585 24.896V32H232.961V25.064C232.961 24.264 232.809 23.68 232.505 23.312C232.217 22.944 231.761 22.76 231.137 22.76C230.385 22.76 229.777 23 229.313 23.48C228.865 23.96 228.641 24.6 228.641 25.4V32H225.017V20.216H228.545V21.896C228.961 21.256 229.497 20.768 230.153 20.432C230.825 20.096 231.577 19.928 232.409 19.928Z" fill="#383838"/>
<path d="M245.818 29.528C246.186 29.528 246.57 29.504 246.97 29.456L246.778 32.096C246.314 32.16 245.85 32.192 245.386 32.192C243.594 32.192 242.282 31.8 241.45 31.016C240.634 30.232 240.226 29.04 240.226 27.44V22.928H237.994V20.216H240.226V16.76H243.85V20.216H246.802V22.928H243.85V27.416C243.85 28.824 244.506 29.528 245.818 29.528Z" fill="#383838"/>
<path d="M263.507 32.216C261.795 32.216 260.299 31.856 259.019 31.136C257.755 30.416 256.779 29.4 256.091 28.088C255.419 26.776 255.083 25.256 255.083 23.528C255.083 21.8 255.419 20.28 256.091 18.968C256.779 17.656 257.755 16.648 259.019 15.944C260.299 15.224 261.795 14.864 263.507 14.864C264.627 14.864 265.699 15.04 266.723 15.392C267.747 15.728 268.587 16.2 269.243 16.808L268.043 19.472C267.307 18.912 266.571 18.504 265.835 18.248C265.115 17.992 264.363 17.864 263.579 17.864C262.075 17.864 260.915 18.344 260.099 19.304C259.299 20.264 258.899 21.672 258.899 23.528C258.899 25.384 259.299 26.8 260.099 27.776C260.915 28.736 262.075 29.216 263.579 29.216C264.363 29.216 265.115 29.088 265.835 28.832C266.571 28.576 267.307 28.168 268.043 27.608L269.243 30.272C268.587 30.88 267.747 31.36 266.723 31.712C265.699 32.048 264.627 32.216 263.507 32.216Z" fill="#383838"/>
<path d="M271.54 32V15.08H275.164V32H271.54Z" fill="#383838"/>
<path d="M289.291 20.216V32H285.763V30.32C285.395 30.928 284.907 31.392 284.299 31.712C283.707 32.032 283.035 32.192 282.283 32.192C280.795 32.192 279.683 31.784 278.947 30.968C278.227 30.136 277.867 28.888 277.867 27.224V20.216H281.491V27.296C281.491 28 281.635 28.52 281.923 28.856C282.227 29.192 282.683 29.36 283.291 29.36C283.995 29.36 284.563 29.12 284.995 28.64C285.443 28.16 285.667 27.528 285.667 26.744V20.216H289.291Z" fill="#383838"/>
<path d="M299.368 19.928C300.392 19.928 301.296 20.176 302.08 20.672C302.864 21.168 303.472 21.88 303.904 22.808C304.352 23.72 304.576 24.784 304.576 26C304.576 27.216 304.352 28.296 303.904 29.24C303.472 30.168 302.856 30.896 302.056 31.424C301.272 31.936 300.376 32.192 299.368 32.192C298.552 32.192 297.816 32.024 297.16 31.688C296.504 31.336 296 30.856 295.648 30.248V32H292.072V15.08H295.696V21.8C296.048 21.208 296.544 20.752 297.184 20.432C297.84 20.096 298.568 19.928 299.368 19.928ZM298.312 29.432C299.16 29.432 299.816 29.136 300.28 28.544C300.744 27.936 300.976 27.088 300.976 26C300.976 24.928 300.744 24.112 300.28 23.552C299.816 22.976 299.16 22.688 298.312 22.688C297.464 22.688 296.808 22.984 296.344 23.576C295.88 24.152 295.648 24.976 295.648 26.048C295.648 27.136 295.88 27.976 296.344 28.568C296.808 29.144 297.464 29.432 298.312 29.432Z" fill="#383838"/>
<mask id="mask0" mask-type="alpha" maskUnits="userSpaceOnUse" x="0" y="0" width="48" height="48">
<rect width="48" height="48" fill="#C4C4C4"/>
</mask>
<g mask="url(#mask0)">
<path fill-rule="evenodd" clip-rule="evenodd" d="M26.1583 45.9843C38.2502 44.7947 47.0882 34.0279 45.8986 21.936C44.709 9.84412 33.9422 1.00609 21.8503 2.19571C9.75843 3.38533 0.920393 14.1521 2.11001 26.244C3.29964 38.3359 14.0664 47.1739 26.1583 45.9843ZM26.3541 47.9747C39.5453 46.6769 49.1868 34.9313 47.889 21.7402C46.5912 8.54904 34.8456 -1.09245 21.6545 0.205317C8.46334 1.50309 -1.17815 13.2487 0.119624 26.4398C1.41739 39.631 13.163 49.2725 26.3541 47.9747Z" fill="#2E3192"/>
<path d="M35.2902 8.87667C34.2808 7.50922 32.6868 6.67088 30.9597 6.65726L21.6518 6.58385C19.7817 6.5691 18.0342 7.52564 17.0199 9.11919L6.44174 26.2454C4.80547 28.8161 5.12 32.2028 7.65471 33.8623L20.8606 42.5084C23.3953 44.1679 26.7766 43.4292 28.4128 40.8585L39.4048 23.7749C40.4191 22.1814 40.5591 20.1723 39.7759 18.4499L35.9781 10.5868L35.3387 9.3763C35.3097 9.44985 34.6631 10.4553 34.089 11.3429C34.0932 11.3743 34.0968 11.4059 34.0999 11.4376C34.2394 12.8752 33.2034 14.1551 31.786 14.2966C30.3686 14.438 29.1066 13.3873 28.9671 11.9498C28.8277 10.5123 29.8637 9.2323 31.281 9.09087C32.0476 9.01439 32.7687 9.28657 33.2913 9.78003L35.2902 8.87667Z" fill="#2E3192"/>
<path d="M13.3994 26.2549L12.6115 28.1373L10.8237 27.1999L11.7882 28.978L9.96109 29.8027L11.9349 30.1591L11.4097 32.1059L12.9302 30.7752L14.1265 32.396L14.0283 30.4008L16.0339 30.451L14.4339 29.2605L15.7087 27.7032L13.7854 28.2444L13.3994 26.2549Z" fill="white"/>
<path fill-rule="evenodd" clip-rule="evenodd" d="M31.5794 20.5333L31.8135 19.9937L31.9207 20.5697L32.4713 20.414L32.1021 20.8601L32.5675 21.2034L31.9903 21.1869L32.0192 21.7659L31.6779 21.3004L31.2374 21.6824L31.3846 21.1223L30.8277 21.0176L31.3423 20.779L31.0728 20.2647L31.5794 20.5333ZM28.0402 23.204L27.806 23.7435L27.2995 23.4749L27.569 23.9892L27.0555 24.2167L27.6124 24.3213L27.4652 24.8815L27.9057 24.4994L28.2471 24.965L28.2181 24.386L28.7953 24.4025L28.3288 24.0704L28.6991 23.6131L28.1485 23.7688L28.0402 23.204ZM30.8992 28.805L30.6662 29.3334L30.1597 29.0648L30.4292 29.5791L29.9146 29.8177L30.4715 29.9224L30.3243 30.4825L30.7648 30.1005L31.1061 30.566L31.0772 29.987L31.6544 30.0035L31.189 29.6602L31.5582 29.2141L31.0076 29.3699L30.8992 28.805ZM34.5388 23.017L34.3168 23.5466L33.7981 23.2879L34.0798 23.7923L33.5541 24.0297L34.1221 24.1355L33.9749 24.6957L34.4043 24.3125L34.7457 24.778L34.7167 24.199L35.2939 24.2155L34.8396 23.8734L35.2087 23.4272L34.6471 23.5818L34.5388 23.017ZM33.111 25.8341L32.6596 25.7859L32.5715 25.3474L32.3843 25.7565L31.9328 25.7083L32.2782 26.0275L32.0887 26.459L32.4799 26.2297L32.8155 26.5365L32.7187 26.0745L33.111 25.8341Z" fill="white"/>
<mask id="mask1" mask-type="alpha" maskUnits="userSpaceOnUse" x="5" y="6" width="37" height="38">
<path d="M41.2309 7.18593C41.0297 6.7281 40.5007 6.52234 40.0493 6.72635L35.2899 8.87734C34.2805 7.50988 32.6865 6.67155 30.9594 6.65792L21.6515 6.58451C19.7814 6.56976 18.0338 7.5263 17.0195 9.11985L6.44141 26.2461C4.80515 28.8168 5.11967 32.2034 7.65438 33.8629L20.8603 42.509C23.395 44.1686 26.7762 43.4299 28.4125 40.8592L39.4044 23.7756C40.4187 22.182 40.5588 20.173 39.7756 18.4506L36.1616 10.4705L33.3995 12.3254C33.348 12.4562 33.2834 12.5838 33.2053 12.7066C32.5533 13.7309 31.206 14.0253 30.196 13.364C29.186 12.7027 28.8957 11.3363 29.5477 10.3119C30.1998 9.28756 31.5471 8.99321 32.5571 9.65448C32.6899 9.74141 32.8102 9.84053 32.9176 9.94945L30.9912 10.8201C30.5398 11.0241 30.3369 11.5606 30.538 12.0184C30.7392 12.4763 31.2682 12.682 31.7196 12.478L40.7777 8.38428C41.2292 8.18027 41.432 7.64375 41.2309 7.18593Z" fill="#2E3192"/>
</mask>
<g mask="url(#mask1)">
<path d="M25.8801 22.492L25.8801 6.40318L22.3649 6.40318L0.385284 20.7692L1.94131 22.492L3.09359 22.492L25.8801 22.492Z" fill="white"/>
<path d="M11.2604 9.51873L11.2604 12.5009L6.94057 12.5009L0.385925 16.3657L11.2604 16.3657L11.2604 22.492L15.0063 22.492L15.0063 16.3657L25.8808 16.3657L25.8808 12.5009L15.0063 12.5009L15.0063 6.40318L11.2604 9.51873Z" fill="#ED1C24"/>
<path d="M0.294556 22.4808L1.92183 22.5093L9.77762 17.2167L8.09424 17.2167L0.294556 22.4808Z" fill="#ED1C24"/>
<path d="M25.8822 21.3999L25.8822 22.5097L18.0544 17.217L19.7659 17.217L25.8822 21.3999Z" fill="#ED1C24"/>
<path d="M25.8823 6.48967L25.6593 5.73535L24.255 6.48967L16.3711 11.7538L18.0545 11.7538L25.8823 6.48967Z" fill="#ED1C24"/>
<path d="M3.12717 22.59L10.4218 22.59L10.4218 17.634L3.12717 22.59Z" fill="#2E3192"/>
<path d="M25.8808 20.8137L25.8808 17.2901L20.7745 17.2901L25.8808 20.8137Z" fill="#2E3192"/>
<path d="M23.0472 22.5897L15.7526 22.5897L15.7526 17.6337L23.0472 22.5897Z" fill="#2E3192"/>
<path d="M25.8808 8.26593L25.8808 11.7896L20.7745 11.7896L25.8808 8.26593Z" fill="#2E3192"/>
</g>
<path d="M39.3449 1.24211C39.7298 0.754313 40.4329 0.676287 40.9153 1.06784C41.3978 1.45939 41.4769 2.17225 41.092 2.66005L33.286 12.5536C32.9011 13.0414 32.198 13.1195 31.7156 12.7279C31.2331 12.3364 31.154 11.6235 31.5389 11.1357L39.3449 1.24211Z" fill="white"/>
<path d="M37.3452 2.54288C37.6859 2.11117 38.3081 2.04212 38.7351 2.38864C39.1621 2.73517 39.2321 3.36606 38.8915 3.79777L32.8765 11.4213C32.5359 11.853 31.9136 11.9221 31.4866 11.5755C31.0597 11.229 30.9897 10.5981 31.3303 10.1664L37.3452 2.54288Z" fill="#2E3192"/>
</g>
</svg>
