<svg width="225" height="30" viewBox="0 0 225 30" fill="none" xmlns="http://www.w3.org/2000/svg">
<mask id="mask0" mask-type="alpha" maskUnits="userSpaceOnUse" x="71" y="0" width="155" height="30">
<path d="M71.0374 0H225.001V29.9997H71.0374V0Z" fill="white"/>
</mask>
<g mask="url(#mask0)">
<path fill-rule="evenodd" clip-rule="evenodd" d="M71.0374 29.4337H86.7036V26.2803H74.685V0.566069H71.0374V29.4337ZM88.3604 4.44755H91.842V0.566069H88.3604V4.44755ZM88.3604 29.4337H91.842V7.76296H88.3604V29.4337ZM96.4832 29.4337H99.9648V10.4313H103.778V7.76296H99.9648V5.21517C99.9648 3.71947 100.711 3.1534 102.203 3.1534H103.819V0.243014H101.29C97.9344 0.243014 96.4832 1.94026 96.4832 5.21517V7.76296H93.2507V10.4313H96.4832V29.4337ZM118.781 19.0033V17.6282C118.781 12.9376 118.159 7.19689 111.362 7.19689C104.523 7.19689 103.445 13.5037 103.445 18.8809C103.445 26.3613 105.683 29.9997 111.154 29.9997C117.247 29.9997 118.615 24.6226 118.615 22.3178H115.134C115.134 23.9755 114.678 27.3314 111.362 27.3314C107.093 27.3314 107.093 22.3583 107.093 19.0033H118.781ZM107.218 16.334V15.5259C107.218 14.2318 107.632 9.86523 111.279 9.86523C114.388 9.86523 115.134 12.7361 115.134 15.1614V16.334H107.218ZM135.026 19.5279C134.902 23.0459 134.281 27.0894 129.846 27.0894C124.79 27.0894 124.126 21.6717 124.126 15.0004C124.126 8.32903 124.79 2.91135 129.846 2.91135C133.617 2.91135 134.653 5.70119 134.778 8.9761H138.591C138.425 3.31541 135.856 0 129.846 0C121.681 0 120.313 7.72246 120.313 15.0004C120.313 22.2773 121.433 29.9997 129.846 29.9997C136.311 29.9997 138.508 24.9861 138.84 19.5279H135.026ZM140.124 29.4337H143.606V14.4748C143.606 11.3609 146.133 10.1073 147.999 10.1073C151.148 10.1073 151.273 12.8171 151.273 14.4748V29.4337H154.754V14.0698C154.754 11.4824 154.796 7.19689 149.035 7.19689C147.046 7.19689 144.6 8.45054 143.689 10.2297H143.606V0.566069H140.124V29.4337ZM156.246 18.5983C156.246 24.7036 157.821 29.9997 164.245 29.9997C170.627 29.9997 172.244 24.7036 172.244 18.5983C172.244 12.4931 170.669 7.19689 164.245 7.19689C157.821 7.19689 156.246 12.4931 156.246 18.5983ZM164.161 27.3314C160.599 27.3314 159.893 23.2889 159.893 18.5983C159.893 13.9078 160.639 9.86523 164.161 9.86523C167.933 9.86523 168.597 13.9078 168.597 18.5983C168.597 23.2889 167.85 27.3314 164.161 27.3314ZM173.113 4.44755H176.595V0.566069H173.113V4.44755ZM173.113 29.4337H176.595V7.76296H173.113V29.4337ZM193.421 14.3533C193.421 11.8865 192.426 7.19689 186.334 7.19689C179.495 7.19689 178.418 13.5037 178.418 18.8809C178.418 26.3613 180.656 29.9997 186.126 29.9997C191.681 29.9997 193.421 25.3101 193.421 21.9137H189.939C189.939 24.259 189.277 27.3314 186.292 27.3314C182.107 27.3314 182.066 21.6312 182.066 18.8404C182.066 10.9164 184.263 9.86523 186.417 9.86523C189.069 9.86523 189.939 12.25 189.939 14.3533H193.421ZM209.626 19.0033V17.6282C209.626 12.9376 209.004 7.19689 202.207 7.19689C195.368 7.19689 194.291 13.5037 194.291 18.8809C194.291 26.3613 196.53 29.9997 202 29.9997C208.093 29.9997 209.461 24.6226 209.461 22.3178H205.979C205.979 23.9755 205.522 27.3314 202.207 27.3314C197.938 27.3314 197.938 22.3583 197.938 19.0033H209.626ZM198.063 16.334V15.5259C198.063 14.2318 198.477 9.86523 202.124 9.86523C205.233 9.86523 205.979 12.7361 205.979 15.1614V16.334H198.063ZM224.463 14.1103C224.463 11.5634 224.172 7.19689 217.707 7.19689C213.853 7.19689 210.619 9.13715 210.619 13.1806C210.619 17.6282 213.397 18.4363 216.09 19.3264C218.744 20.175 221.521 20.8221 221.521 23.7334C221.521 26.8058 218.951 27.3314 217.832 27.3314C214.392 27.3314 213.687 24.9456 213.687 22.3178H210.206C210.206 24.5416 210.289 29.9997 217.832 29.9997C221.977 29.9997 225.001 27.7355 225.001 23.2079C225.001 18.8809 222.226 17.9512 219.572 17.1026C216.836 16.253 214.102 15.768 214.102 13.1806C214.102 10.1478 216.588 9.86523 217.707 9.86523C220.235 9.86523 220.981 11.3609 220.981 14.1103H224.463Z" fill="black"/>
</g>
<mask id="mask1" mask-type="alpha" maskUnits="userSpaceOnUse" x="0" y="0" width="71" height="30">
<path d="M0 0.566406H70.1669V30.0001H0V0.566406Z" fill="white"/>
</mask>
<g mask="url(#mask1)">
<path fill-rule="evenodd" clip-rule="evenodd" d="M7.50174 29.434H14.465V18.0731L21.966 0.566406H14.5055L11.1079 11.2812H11.0249L7.70834 0.566406H-0.000244141L7.50174 18.0731V29.434ZM27.396 30.0001C35.1461 30.0001 36.6378 24.9865 36.6378 18.4366C36.6378 11.8868 35.5603 6.99471 27.396 6.99471C19.6459 6.99471 18.1532 12.0083 18.1532 18.5581C18.1532 25.108 19.1892 30.0001 27.396 30.0001ZM29.9237 18.5176C29.9237 23.8948 29.5095 25.7145 27.4375 25.7145C25.4476 25.7145 24.8673 23.8138 24.8673 18.4771C24.8673 13.181 25.4476 11.2812 27.4375 11.2812C29.5095 11.2812 29.9237 13.1 29.9237 18.5176ZM55.412 7.56078H48.6979V21.8736C48.6979 24.0163 47.5799 24.9865 46.2938 24.9865C45.0097 24.9865 44.3464 24.0568 44.3464 22.4801V7.56078H37.6323V23.9353C37.6323 28.1399 39.6637 30.0001 43.4765 30.0001C45.9626 30.0001 47.911 28.7869 48.864 26.8467H48.947V29.434H55.412V7.56078ZM57.1528 29.434H63.8669V17.022C63.8669 14.1106 65.6078 13.0595 68.3015 13.0595C68.9648 13.0595 69.5036 13.1 70.1669 13.2215V7.07572C69.9593 7.03522 69.7527 6.99471 69.5856 6.99471H69.0894C66.2711 6.99471 64.5718 8.69292 63.7019 10.6341H63.6188V7.56078H57.1528V29.434Z" fill="#ED1B33"/>
</g>
</svg>
