<svg width="30" height="25" viewBox="0 0 30 25" fill="none" xmlns="http://www.w3.org/2000/svg">
<path d="M15.6245 1.72833C16.2934 2.37781 16.6692 3.25859 16.6692 4.17696C16.6692 5.09533 16.2934 5.97611 15.6245 6.62559L12.7953 9.37208H25.7179C26.6641 9.37208 27.5716 9.73697 28.2407 10.3865C28.9098 11.036 29.2857 11.9169 29.2857 12.8355C29.2857 13.754 28.9098 14.635 28.2407 15.2845C27.5716 15.934 26.6641 16.2989 25.7179 16.2989H12.7953L15.6245 19.0454C15.9653 19.3649 16.2371 19.747 16.4241 20.1696C16.6111 20.5921 16.7095 21.0466 16.7136 21.5065C16.7177 21.9664 16.6275 22.4224 16.4481 22.8481C16.2687 23.2737 16.0038 23.6604 15.6688 23.9856C15.3338 24.3108 14.9354 24.5679 14.497 24.7421C14.0585 24.9162 13.5887 25.0039 13.1149 24.9999C12.6412 24.9959 12.173 24.9003 11.7378 24.7188C11.3025 24.5373 10.9088 24.2734 10.5797 23.9427L1.82584 15.445C0.34376 14.0063 0.34376 11.6647 1.82584 10.226L10.5797 1.72833C11.2487 1.07904 12.156 0.714287 13.1021 0.714287C14.0482 0.714287 14.9555 1.07904 15.6245 1.72833Z" fill="white"/>
</svg>
