<svg width="30" height="25" viewBox="0 0 30 25" fill="none" xmlns="http://www.w3.org/2000/svg">
<path d="M14.3755 23.986C13.7066 23.3365 13.3308 22.4557 13.3308 21.5373C13.3308 20.619 13.7066 19.7382 14.3755 19.0887L17.2047 16.3422L4.28211 16.3422C3.33587 16.3422 2.42838 15.9773 1.75928 15.3278C1.09019 14.6783 0.714296 13.7973 0.714297 12.8788C0.714297 11.9602 1.09019 11.0793 1.75929 10.4298C2.42838 9.78028 3.33587 9.41538 4.28211 9.41538L17.2047 9.41538L14.3755 6.6689C14.0347 6.34941 13.7629 5.96724 13.5759 5.54469C13.3889 5.12214 13.2905 4.66767 13.2864 4.2078C13.2823 3.74793 13.3725 3.29187 13.5519 2.86623C13.7313 2.44059 13.9962 2.05389 14.3312 1.7287C14.6662 1.40351 15.0646 1.14635 15.5031 0.972201C15.9415 0.798058 16.4113 0.710423 16.8851 0.714419C17.3588 0.718415 17.827 0.813958 18.2622 0.995471C18.6975 1.17699 19.0912 1.44084 19.4203 1.77163L28.1742 10.2693C29.6562 11.708 29.6562 14.0496 28.1742 15.4883L19.4203 23.986C18.7513 24.6353 17.844 25 16.8979 25C15.9518 25 15.0445 24.6353 14.3755 23.986Z" fill="white"/>
</svg>
