<svg width="130" height="70" viewBox="0 0 130 70" fill="none" xmlns="http://www.w3.org/2000/svg">
<g clip-path="url(#clip0)">
<rect width="130" height="70" rx="10" fill="#D02D99"/>
<rect width="130" height="65" rx="10" fill="#FA3CBA"/>
<path opacity="0.2" d="M0 10V30C0 17 6 0 30 0H10C4.47715 0 0 4.47715 0 10Z" fill="white"/>
<path opacity="0.2" d="M130 55L130 12C130 30 96.8421 65 10 65L120 65C125.523 65 130 60.5228 130 55Z" fill="white"/>
<path d="M53.762 20.3564L59.2649 21.3135C54.3431 29.9495 50.4466 37.7653 47.5755 44.7607L42.3118 44.4189L45.9349 36.7969L43.0638 23.0566L49.7288 19.9805C49.6604 21.0286 49.6149 22.3389 49.5921 23.9111C49.5693 25.4834 49.6491 27.0557 49.8313 28.6279L53.762 20.3564ZM65.4487 25.9619C65.2664 26.6227 65.1069 27.2721 64.9702 27.9102L64.5942 29.79L70.063 28.6279L69.7554 33.3447C67.1577 33.8005 65.1183 34.1992 63.6372 34.541C63.5461 34.9967 63.4663 35.4525 63.3979 35.9082L63.1587 37.2412L69.5161 36.3184L69.0718 42.6758C65.7905 42.9492 61.632 43.7354 56.5962 45.0342L60.6636 20.5273L72.0454 18.8867L71.6011 25.21C69.368 25.415 67.3172 25.6657 65.4487 25.9619ZM88.5856 26.9189C87.8565 27.1924 86.9906 27.5228 85.988 27.9102L83.4245 28.9014C83.4245 27.8304 83.1283 27.2949 82.5358 27.2949C81.6927 27.2949 80.8496 27.7734 80.0065 28.7305C79.4141 29.4368 79.1634 30.1204 79.2546 30.7812C79.323 31.2142 79.7559 31.4307 80.5534 31.4307C80.9864 31.4307 81.556 31.3623 82.2624 31.2256C83.2422 31.0205 84.1081 30.918 84.8601 30.918C86.7741 30.918 87.8907 31.5788 88.2097 32.9004C88.3008 33.3105 88.3464 33.7435 88.3464 34.1992C88.3464 35.6576 87.7995 37.2298 86.7058 38.916C85.293 41.1263 83.3106 42.9834 80.7585 44.4873C79.4141 45.2848 78.0925 45.6836 76.7937 45.6836C75.6088 45.6836 74.4466 45.3532 73.3073 44.6924C73.877 43.3252 74.7884 41.3086 76.0417 38.6426C76.7709 39.1439 77.5456 39.3945 78.3659 39.3945C78.7305 39.3945 79.1065 39.3376 79.4938 39.2236C80.2002 39.0413 80.8724 38.7793 81.5105 38.4375C82.4219 37.9362 82.8776 37.4235 82.8776 36.8994C82.8776 36.3298 82.4105 36.0449 81.4763 36.0449C80.8382 36.0449 79.904 36.1816 78.6735 36.4551C77.4659 36.7057 76.543 36.8311 75.905 36.8311C75.0619 36.8311 74.4125 36.6715 73.9567 36.3525C73.0681 35.7601 72.7035 34.8372 72.863 33.584C73.1592 31.0547 74.7884 28.1266 77.7507 24.7998C80.7813 21.3818 83.3903 19.5931 85.5778 19.4336C87.697 19.2969 88.7565 20.8919 88.7565 24.2188C88.7565 25.0163 88.6996 25.9163 88.5856 26.9189Z" fill="white"/>
</g>
<defs>
<clipPath id="clip0">
<rect width="130" height="70" fill="white"/>
</clipPath>
</defs>
</svg>
