<svg width="50" height="50" viewBox="0 0 50 50" fill="none" xmlns="http://www.w3.org/2000/svg">
<rect width="50" height="50" rx="10" fill="#1DCA4D"/>
<rect opacity="0.2" width="50" height="45" rx="10" fill="white"/>
<path d="M13 22.75C13 22.4545 13.0582 22.1619 13.1713 21.889C13.2843 21.616 13.4501 21.3679 13.659 21.159C13.8679 20.9501 14.116 20.7843 14.389 20.6713C14.6619 20.5582 14.9545 20.5 15.25 20.5C15.5455 20.5 15.8381 20.5582 16.111 20.6713C16.384 20.7843 16.6321 20.9501 16.841 21.159C17.0499 21.3679 17.2157 21.616 17.3287 21.889C17.4418 22.1619 17.5 22.4545 17.5 22.75V31.75C17.5 32.3467 17.2629 32.919 16.841 33.341C16.419 33.7629 15.8467 34 15.25 34C14.6533 34 14.081 33.7629 13.659 33.341C13.2371 32.919 13 32.3467 13 31.75V22.75ZM19 22.4995V30.6445C18.9997 31.202 19.1548 31.7485 19.4479 32.2228C19.7409 32.6971 20.1603 33.0803 20.659 33.3295L20.734 33.367C21.5663 33.783 22.484 33.9997 23.4145 34H31.5385C32.2323 34.0003 32.9047 33.7601 33.4413 33.3203C33.9779 32.8805 34.3455 32.2683 34.4815 31.588L36.2815 22.588C36.3685 22.1528 36.3578 21.7037 36.2503 21.2732C36.1428 20.8426 35.9411 20.4412 35.6597 20.098C35.3783 19.7548 35.0243 19.4783 34.6232 19.2884C34.2221 19.0986 33.7838 19 33.34 19H28V13C28 12.2044 27.6839 11.4413 27.1213 10.8787C26.5587 10.3161 25.7956 10 25 10C24.6022 10 24.2206 10.158 23.9393 10.4393C23.658 10.7206 23.5 11.1022 23.5 11.5V12.5005C23.5 13.7987 23.0789 15.0619 22.3 16.1005L20.2 18.8995C19.4211 19.9381 19 21.2013 19 22.4995Z" fill="white"/>
</svg>
