<svg width="130" height="70" viewBox="0 0 130 70" fill="none" xmlns="http://www.w3.org/2000/svg">
<g clip-path="url(#clip0)">
<rect width="130" height="70" rx="10" fill="#555555"/>
<rect width="130" height="65" rx="10" fill="#676767"/>
<path opacity="0.2" d="M0 10V30C0 17 6 0 30 0H10C4.47715 0 0 4.47715 0 10Z" fill="white"/>
<path opacity="0.2" d="M130 55L130 12C130 30 96.8421 65 10 65L120 65C125.523 65 130 60.5228 130 55Z" fill="white"/>
<path d="M50.3212 20.9717L56.2343 19.7754C56.1887 20.4818 56.1659 21.4844 56.1659 22.7832C56.1659 25.8822 56.2685 28.6051 56.4735 30.9521C56.5875 32.2965 56.7584 33.3789 56.9862 34.1992L59.3104 20.8691L65.1894 19.7754C62.8196 28.9128 61.2701 36.8311 60.5409 43.5303L55.1405 45.0342C55.1177 44.9886 54.9696 44.5898 54.6962 43.8379L52.9188 38.7793C52.6226 37.959 52.4517 37.4349 52.4062 37.207C51.9276 39.8958 51.5517 42.5049 51.2782 45.0342L45.8095 46.6748L50.3212 20.9717ZM78.0382 18.2715C80.4535 18.2715 82.1625 19.6159 83.1651 22.3047C83.6892 23.6947 83.9513 25.2214 83.9513 26.8848C83.9513 28.4798 83.712 30.2116 83.2335 32.0801C82.3904 35.2702 80.9321 38.2096 78.8585 40.8984C76.3292 44.1797 73.6518 45.8203 70.8263 45.8203C68.3881 45.8203 66.6563 44.4759 65.631 41.7871C65.1297 40.4655 64.879 38.9844 64.879 37.3438C64.879 35.7259 65.1297 33.9714 65.631 32.0801C66.4741 28.8672 67.921 25.9163 69.9718 23.2275C72.5011 19.9235 75.1899 18.2715 78.0382 18.2715ZM76.8077 26.748C75.5545 26.748 74.2784 27.7734 72.9796 29.8242C71.9314 31.4421 71.2022 33.0257 70.7921 34.5752C70.587 35.3955 70.4845 36.1361 70.4845 36.7969C70.4845 37.7311 70.7123 38.4945 71.1681 39.0869C71.6922 39.7477 72.4213 40.0781 73.3556 40.0781C74.6316 40.0781 75.7823 39.4059 76.8077 38.0615C77.628 36.9906 78.2205 35.7259 78.5851 34.2676C79.018 32.5586 79.1091 30.8724 78.8585 29.209C78.5851 27.5684 77.9015 26.748 76.8077 26.748Z" fill="white"/>
</g>
<defs>
<clipPath id="clip0">
<rect width="130" height="70" fill="white"/>
</clipPath>
</defs>
</svg>
