<svg width="50" height="50" viewBox="0 0 50 50" fill="none" xmlns="http://www.w3.org/2000/svg">
<rect width="50" height="50" rx="10" fill="#ED1B33"/>
<rect opacity="0.2" width="50" height="45" rx="10" fill="white"/>
<path d="M37 21.25C37 21.5455 36.9418 21.8381 36.8287 22.111C36.7157 22.384 36.5499 22.6321 36.341 22.841C36.1321 23.0499 35.884 23.2157 35.611 23.3287C35.3381 23.4418 35.0455 23.5 34.75 23.5C34.4545 23.5 34.1619 23.4418 33.889 23.3287C33.616 23.2157 33.3679 23.0499 33.159 22.841C32.9501 22.6321 32.7843 22.384 32.6713 22.111C32.5582 21.8381 32.5 21.5455 32.5 21.25L32.5 12.25C32.5 11.6533 32.7371 11.081 33.159 10.659C33.581 10.2371 34.1533 10 34.75 10C35.3467 10 35.919 10.2371 36.341 10.659C36.7629 11.081 37 11.6533 37 12.25L37 21.25ZM31 21.5005L31 13.3555C31.0003 12.798 30.8452 12.2515 30.5521 11.7772C30.2591 11.3029 29.8397 10.9197 29.341 10.6705L29.266 10.633C28.4337 10.217 27.516 10.0003 26.5855 10L18.4615 10C17.7677 9.99972 17.0953 10.2399 16.5587 10.6797C16.0221 11.1195 15.6545 11.7317 15.5185 12.412L13.7185 21.412C13.6315 21.8472 13.6422 22.2963 13.7497 22.7268C13.8572 23.1574 14.0589 23.5588 14.3403 23.902C14.6217 24.2452 14.9757 24.5217 15.3768 24.7116C15.7779 24.9014 16.2162 25 16.66 25L22 25L22 31C22 31.7956 22.3161 32.5587 22.8787 33.1213C23.4413 33.6839 24.2044 34 25 34C25.3978 34 25.7794 33.842 26.0607 33.5607C26.342 33.2794 26.5 32.8978 26.5 32.5L26.5 31.4995C26.5 30.2013 26.9211 28.9381 27.7 27.8995L29.8 25.1005C30.5789 24.0619 31 22.7987 31 21.5005Z" fill="white"/>
</svg>
