<svg width="200" height="70" viewBox="0 0 200 70" fill="none" xmlns="http://www.w3.org/2000/svg">
<g clip-path="url(#clip0)">
<rect width="200" height="70" rx="10" fill="#D1941C"/>
<rect width="200" height="65" rx="10" fill="#FAB837"/>
<path opacity="0.2" d="M0 10V30C0 17 6 0 30 0H10C4.47715 0 0 4.47715 0 10Z" fill="white"/>
<path opacity="0.2" d="M200 55L200 12C200 30 147.5 65 10 65L190 65C195.523 65 200 60.5228 200 55Z" fill="white"/>
<path d="M26.9874 20.835L26.6972 19.878L25.5629 20.222L26.093 21.2822L26.9874 20.835ZM40.2149 22.4414L39.2152 22.4201L39.2151 22.4255L40.2149 22.4414ZM29.3458 35.8057L28.806 34.9639L28.439 35.1992L28.3617 35.6282L29.3458 35.8057ZM28.2521 43.5303L28.5188 44.4941L29.1816 44.3106L29.2475 43.626L28.2521 43.5303ZM22.8175 45.0342L21.8267 44.8991L21.6216 46.4027L23.0842 45.998L22.8175 45.0342ZM23.6378 40.4541L24.6207 40.6384L24.621 40.6366L23.6378 40.4541ZM25.1417 32.3535L26.1249 32.5361L26.1258 32.5311L25.1417 32.3535ZM31.294 26.3037L30.9947 25.3496L30.4599 25.5174L30.3239 26.0612L31.294 26.3037ZM30.8497 28.2178L29.8718 28.0082L29.8691 28.0217L30.8497 28.2178ZM30.4737 30.0977L29.4932 29.9015L29.0943 31.8956L30.9171 30.994L30.4737 30.0977ZM34.5753 26.7822L35.4591 27.2501L35.4645 27.2398L35.4697 27.2294L34.5753 26.7822ZM27.2776 21.7919C30.7671 20.7338 33.5539 20.2285 35.669 20.2285V18.2285C33.2725 18.2285 30.2715 18.7942 26.6972 19.878L27.2776 21.7919ZM35.669 20.2285C37.1236 20.2285 38.0251 20.4877 38.5355 20.8484C38.9765 21.1601 39.2322 21.6218 39.2152 22.4201L41.2147 22.4627C41.2433 21.1191 40.7641 19.9744 39.6898 19.2151C38.6849 18.5048 37.2906 18.2285 35.669 18.2285V20.2285ZM39.2151 22.4255C39.1555 26.1773 35.959 30.3769 28.806 34.9639L29.8856 36.6474C37.0881 32.0287 41.1376 27.3188 41.2148 22.4573L39.2151 22.4255ZM28.3617 35.6282C27.8564 38.4304 27.4876 41.0329 27.2566 43.4346L29.2475 43.626C29.4723 41.2881 29.8326 38.7408 30.3299 35.9831L28.3617 35.6282ZM27.9853 42.5665L22.5508 44.0704L23.0842 45.998L28.5188 44.4941L27.9853 42.5665ZM23.8083 45.1693C23.8724 44.6992 24.1397 43.2036 24.6207 40.6384L22.6549 40.2698C22.1789 42.8088 21.8993 44.3666 21.8267 44.8991L23.8083 45.1693ZM24.621 40.6366L26.1249 32.5361L24.1585 32.171L22.6546 40.2716L24.621 40.6366ZM26.1258 32.5311C26.7983 28.8039 27.2896 25.9734 27.5988 24.0437C27.7532 23.0804 27.8637 22.3321 27.9286 21.8054C27.9608 21.5441 27.9837 21.3223 27.9941 21.15C27.9992 21.0657 28.0026 20.9739 27.9997 20.8865C27.9982 20.8431 27.9947 20.7838 27.9848 20.7179C27.9774 20.669 27.9557 20.5355 27.8818 20.3877L26.093 21.2822C26.0262 21.1487 26.0102 21.0365 26.0071 21.0159C26.0015 20.9784 26.0008 20.9545 26.0008 20.9535C26.0007 20.951 26.0012 20.9723 25.9978 21.0294C25.9911 21.1398 25.9741 21.3135 25.9436 21.5607C25.8832 22.0509 25.7773 22.7708 25.624 23.7273C25.318 25.6371 24.8295 28.452 24.1576 32.176L26.1258 32.5311ZM30.3239 26.0612C30.1617 26.7101 30.011 27.3591 29.8719 28.0082L31.8275 28.4273C31.9618 27.8004 32.1074 27.1734 32.2642 26.5462L30.3239 26.0612ZM29.8691 28.0217L29.4932 29.9015L31.4543 30.2938L31.8303 28.4139L29.8691 28.0217ZM30.9171 30.994C33.0928 29.9178 34.6941 28.6951 35.4591 27.2501L33.6915 26.3143C33.226 27.1936 32.0929 28.1811 30.0304 29.2013L30.9171 30.994ZM35.4697 27.2294C35.5837 27.0015 35.712 26.6854 35.712 26.3379H33.712C33.712 26.3004 33.7157 26.2731 33.7183 26.2584C33.7208 26.2436 33.723 26.2372 33.7221 26.2403C33.7211 26.2433 33.718 26.2529 33.7111 26.2696C33.7042 26.2861 33.6945 26.3078 33.6809 26.335L35.4697 27.2294ZM35.712 26.3379C35.712 25.8613 35.5145 25.3838 35.0607 25.0752C34.6759 24.8135 34.2244 24.7568 33.8575 24.7568V26.7568C33.9464 26.7568 33.9939 26.7647 34.0103 26.7684C34.0269 26.7722 33.9922 26.7672 33.9361 26.729C33.8733 26.6864 33.8064 26.6172 33.7607 26.5238C33.7172 26.435 33.712 26.3639 33.712 26.3379H35.712ZM33.8575 24.7568C33.1456 24.7568 32.1646 24.9825 30.9947 25.3496L31.5934 27.2579C32.7477 26.8957 33.4757 26.7568 33.8575 26.7568V24.7568ZM42.5706 20.8691L42.3877 19.886L41.7045 20.0131L41.5854 20.6977L42.5706 20.8691ZM48.4495 19.7754L49.4174 20.027L49.8131 18.5045L48.2666 18.7923L48.4495 19.7754ZM44.6556 37.2412L43.6692 37.0768L43.4421 38.4391L44.8072 38.2296L44.6556 37.2412ZM50.6712 36.3184L51.668 36.3987L51.7696 35.1382L50.5196 35.3299L50.6712 36.3184ZM50.1585 42.6758L50.2464 43.6719L51.0874 43.5977L51.1553 42.7562L50.1585 42.6758ZM38.3665 45.0342L37.3813 44.8628L37.1116 46.4129L38.6296 45.9989L38.3665 45.0342ZM42.7535 21.8523L48.6324 20.7585L48.2666 18.7923L42.3877 19.886L42.7535 21.8523ZM47.4817 19.5238C45.835 25.8588 44.5636 31.7102 43.6692 37.0768L45.642 37.4056C46.5249 32.1081 47.7827 26.3157 49.4174 20.027L47.4817 19.5238ZM44.8072 38.2296L50.8228 37.3068L50.5196 35.3299L44.5039 36.2528L44.8072 38.2296ZM49.6744 36.238L49.1617 42.5954L51.1553 42.7562L51.668 36.3987L49.6744 36.238ZM50.0706 41.6797C46.8885 41.9604 42.894 42.7629 38.1034 44.0694L38.6296 45.9989C43.3638 44.7078 47.2306 43.938 50.2464 43.6719L50.0706 41.6797ZM39.3517 45.2056L43.5558 21.0405L41.5854 20.6977L37.3813 44.8628L39.3517 45.2056ZM49.8823 45.4443L48.9513 45.0794L48.3183 46.6942L50.033 46.4329L49.8823 45.4443ZM58.0171 20.7324L57.8516 19.7462L57.2134 19.8533L57.0496 20.4794L58.0171 20.7324ZM68.4077 18.9893L69.3933 19.1584L69.6316 17.77L68.2423 18.003L68.4077 18.9893ZM66.8013 43.4961L67.0265 44.4704L67.8109 44.2891L67.8012 43.484L66.8013 43.4961ZM59.5552 45.1709L58.5623 45.0518L58.3926 46.466L59.7804 46.1452L59.5552 45.1709ZM60.0679 40.8984L61.0607 41.0176L61.2242 39.6554L59.8774 39.9167L60.0679 40.8984ZM57.7778 41.3428L57.5874 40.3611L56.9547 40.4838L56.8051 41.1107L57.7778 41.3428ZM57.0601 44.3506L57.2107 45.3392L57.8764 45.2377L58.0327 44.5827L57.0601 44.3506ZM60.6147 36.3184L60.7954 37.3019L61.5186 37.1691L61.6074 36.4392L60.6147 36.3184ZM62.187 23.3984L63.1797 23.5192L63.3161 22.3984H62.187V23.3984ZM62.1528 23.3984V22.3984H61.3667L61.1811 23.1624L62.1528 23.3984ZM58.9399 36.626L57.9682 36.3899L57.6043 37.888L59.1206 37.6095L58.9399 36.626ZM50.8133 45.8093C54.1756 37.2321 56.9 28.9573 58.9846 20.9854L57.0496 20.4794C54.9871 28.3669 52.2882 36.5668 48.9513 45.0794L50.8133 45.8093ZM58.1825 21.7186L68.5732 19.9755L68.2423 18.003L57.8516 19.7462L58.1825 21.7186ZM67.4221 18.8201C66.2241 25.8007 65.6869 34.0332 65.8013 43.5082L67.8012 43.484C67.6878 34.0918 68.2215 25.9864 69.3933 19.1584L67.4221 18.8201ZM66.5761 42.5218L59.33 44.1966L59.7804 46.1452L67.0265 44.4704L66.5761 42.5218ZM60.5481 45.29L61.0607 41.0176L59.075 40.7793L58.5623 45.0518L60.5481 45.29ZM59.8774 39.9167L57.5874 40.3611L57.9683 42.3245L60.2584 41.8801L59.8774 39.9167ZM56.8051 41.1107L56.0874 44.1185L58.0327 44.5827L58.7505 41.5749L56.8051 41.1107ZM56.9094 43.362L49.7317 44.4557L50.033 46.4329L57.2107 45.3392L56.9094 43.362ZM61.6074 36.4392L63.1797 23.5192L61.1943 23.2776L59.6221 36.1976L61.6074 36.4392ZM62.187 22.3984H62.1528V24.3984H62.187V22.3984ZM61.1811 23.1624L57.9682 36.3899L59.9117 36.862L63.1246 23.6345L61.1811 23.1624ZM59.1206 37.6095L60.7954 37.3019L60.4341 35.3348L58.7593 35.6424L59.1206 37.6095ZM82.2819 20.3564L82.4533 19.3712L81.7048 19.2411L81.3787 19.9272L82.2819 20.3564ZM87.7849 21.3135L88.6537 21.8086L89.3584 20.5721L87.9562 20.3283L87.7849 21.3135ZM76.0954 44.7607L76.0306 45.7586L76.7477 45.8052L77.0205 45.1404L76.0954 44.7607ZM70.8317 44.4189L69.9286 43.9896L69.2956 45.3213L70.7669 45.4168L70.8317 44.4189ZM74.4548 36.7969L75.3579 37.2262L75.5025 36.922L75.4336 36.5923L74.4548 36.7969ZM71.5837 23.0566L71.1646 22.1487L70.4421 22.4822L70.6048 23.2612L71.5837 23.0566ZM78.2487 19.9805L79.2466 20.0455L79.356 18.368L77.8297 19.0725L78.2487 19.9805ZM78.3513 28.6279L77.3579 28.7431L77.7592 32.2038L79.2545 29.0571L78.3513 28.6279ZM82.1106 21.3417L87.6135 22.2987L87.9562 20.3283L82.4533 19.3712L82.1106 21.3417ZM86.9161 20.8183C81.9791 29.4808 78.0618 37.3359 75.1703 44.3811L77.0205 45.1404C79.8712 38.1947 83.7468 30.4183 88.6537 21.8086L86.9161 20.8183ZM76.1602 43.7628L70.8965 43.421L70.7669 45.4168L76.0306 45.7586L76.1602 43.7628ZM71.7349 44.8482L75.3579 37.2262L73.5516 36.3676L69.9286 43.9896L71.7349 44.8482ZM75.4336 36.5923L72.5626 22.8521L70.6048 23.2612L73.4759 37.0014L75.4336 36.5923ZM72.0028 23.9646L78.6678 20.8884L77.8297 19.0725L71.1646 22.1487L72.0028 23.9646ZM77.2509 19.9154C77.181 20.9864 77.135 22.3149 77.1121 23.8966L79.1119 23.9256C79.1346 22.3628 79.1797 21.0708 79.2466 20.0455L77.2509 19.9154ZM77.1121 23.8966C77.0887 25.5125 77.1707 27.1281 77.3579 28.7431L79.3446 28.5128C79.1673 26.9832 79.0898 25.4543 79.1119 23.9256L77.1121 23.8966ZM79.2545 29.0571L83.1851 20.7857L81.3787 19.9272L77.4481 28.1987L79.2545 29.0571ZM92.2228 45.4443L91.2917 45.0794L90.6587 46.6942L92.3734 46.4329L92.2228 45.4443ZM100.358 20.7324L100.192 19.7462L99.5538 19.8533L99.3901 20.4794L100.358 20.7324ZM110.748 18.9893L111.734 19.1584L111.972 17.77L110.583 18.003L110.748 18.9893ZM109.142 43.4961L109.367 44.4704L110.151 44.2891L110.142 43.484L109.142 43.4961ZM101.896 45.1709L100.903 45.0518L100.733 46.466L102.121 46.1452L101.896 45.1709ZM102.408 40.8984L103.401 41.0176L103.565 39.6554L102.218 39.9167L102.408 40.8984ZM100.118 41.3428L99.9278 40.3611L99.2952 40.4838L99.1456 41.1107L100.118 41.3428ZM99.4005 44.3506L99.5511 45.3392L100.217 45.2377L100.373 44.5827L99.4005 44.3506ZM102.955 36.3184L103.136 37.3019L103.859 37.1691L103.948 36.4392L102.955 36.3184ZM104.527 23.3984L105.52 23.5192L105.657 22.3984H104.527V23.3984ZM104.493 23.3984V22.3984H103.707L103.522 23.1624L104.493 23.3984ZM101.28 36.626L100.309 36.3899L99.9448 37.888L101.461 37.6095L101.28 36.626ZM93.1538 45.8093C96.5161 37.2321 99.2404 28.9573 101.325 20.9854L99.3901 20.4794C97.3275 28.3669 94.6287 36.5668 91.2917 45.0794L93.1538 45.8093ZM100.523 21.7186L110.914 19.9755L110.583 18.003L100.192 19.7462L100.523 21.7186ZM109.763 18.8201C108.565 25.8007 108.027 34.0332 108.142 43.5082L110.142 43.484C110.028 34.0918 110.562 25.9864 111.734 19.1584L109.763 18.8201ZM108.917 42.5218L101.67 44.1966L102.121 46.1452L109.367 44.4704L108.917 42.5218ZM102.888 45.29L103.401 41.0176L101.415 40.7793L100.903 45.0518L102.888 45.29ZM102.218 39.9167L99.9278 40.3611L100.309 42.3245L102.599 41.8801L102.218 39.9167ZM99.1456 41.1107L98.4278 44.1185L100.373 44.5827L101.091 41.5749L99.1456 41.1107ZM99.2498 43.362L92.0721 44.4557L92.3734 46.4329L99.5511 45.3392L99.2498 43.362ZM103.948 36.4392L105.52 23.5192L103.535 23.2776L101.963 36.1976L103.948 36.4392ZM104.527 22.3984H104.493V24.3984H104.527V22.3984ZM103.522 23.1624L100.309 36.3899L102.252 36.862L105.465 23.6345L103.522 23.1624ZM101.461 37.6095L103.136 37.3019L102.775 35.3348L101.1 35.6424L101.461 37.6095ZM112.762 41.9238L113.695 41.5638L113.692 41.5567L113.689 41.5496L112.762 41.9238ZM112.694 32.5244L113.661 32.7783L113.663 32.7719L112.694 32.5244ZM116.966 23.9453L117.751 24.565L117.753 24.5624L116.966 23.9453ZM130.057 23.2275L130.788 23.9096L131.21 23.4575L130.994 22.8782L130.057 23.2275ZM126.263 27.2949L125.431 27.8496L126.132 28.9013L126.994 27.977L126.263 27.2949ZM120.076 29.585L119.234 29.0469L119.232 29.0496L120.076 29.585ZM117.786 34.9512L118.753 35.2071L118.755 35.199L117.786 34.9512ZM118.197 39.292L118.969 38.6572L118.962 38.6488L118.197 39.292ZM123.358 38.7793L122.63 38.0939L122.626 38.0982L123.358 38.7793ZM125.135 35.8398L126.068 36.1988L126.723 34.4977L124.936 34.8598L125.135 35.8398ZM120.452 36.8994L119.475 36.6881L119.134 38.266L120.699 37.8686L120.452 36.8994ZM121.546 31.8408L121.339 30.8624L120.706 30.9964L120.569 31.6295L121.546 31.8408ZM130.604 29.9268L131.603 29.896L131.567 28.7012L130.397 28.9484L130.604 29.9268ZM129.647 35.0195L130.586 35.3623L130.589 35.3559L129.647 35.0195ZM127.357 39.668L128.195 40.213L128.197 40.2101L127.357 39.668ZM117.889 44.8203C116.871 44.8203 116.06 44.5508 115.401 44.05C114.732 43.5415 114.149 42.7401 113.695 41.5638L111.829 42.2839C112.378 43.7052 113.151 44.852 114.191 45.6424C115.241 46.4404 116.491 46.8203 117.889 46.8203V44.8203ZM113.689 41.5496C113.22 40.3867 112.976 39.0581 112.976 37.5488H110.976C110.976 39.2752 111.256 40.8633 111.835 42.298L113.689 41.5496ZM112.976 37.5488C112.976 36.1251 113.199 34.5369 113.661 32.7783L111.726 32.2705C111.231 34.1578 110.976 35.9192 110.976 37.5488H112.976ZM113.663 32.7719C114.424 29.7895 115.784 27.0559 117.751 24.565L116.181 23.3257C114.046 26.0301 112.558 29.0159 111.725 32.2769L113.663 32.7719ZM117.753 24.5624C120.134 21.5265 122.517 20.1943 124.896 20.1943V18.1943C121.669 18.1943 118.766 20.0295 116.179 23.3282L117.753 24.5624ZM124.896 20.1943C125.919 20.1943 126.735 20.4718 127.399 20.9906C128.075 21.5186 128.663 22.3524 129.12 23.5769L130.994 22.8782C130.448 21.4138 129.675 20.2311 128.63 19.4147C127.574 18.5891 126.311 18.1943 124.896 18.1943V20.1943ZM129.326 22.5454L125.532 26.6128L126.994 27.977L130.788 23.9096L129.326 22.5454ZM127.095 26.7402C126.483 25.8218 125.552 25.3721 124.451 25.3721V27.3721C124.946 27.3721 125.223 27.5376 125.431 27.8496L127.095 26.7402ZM124.451 25.3721C122.385 25.3721 120.664 26.8064 119.234 29.0469L120.919 30.123C122.224 28.0797 123.419 27.3721 124.451 27.3721V25.3721ZM119.232 29.0496C118.147 30.761 117.343 32.6477 116.818 34.7033L118.755 35.199C119.232 33.3354 119.955 31.6446 120.921 30.1203L119.232 29.0496ZM116.82 34.6953C116.599 35.5298 116.479 36.313 116.479 37.0361H118.479C118.479 36.5288 118.564 35.922 118.753 35.2071L116.82 34.6953ZM116.479 37.0361C116.479 38.1438 116.766 39.1431 117.431 39.9352L118.962 38.6488C118.671 38.3016 118.479 37.797 118.479 37.0361H116.479ZM117.424 39.9267C118.164 40.8282 119.195 41.249 120.384 41.249V39.249C119.705 39.249 119.277 39.0318 118.969 38.6573L117.424 39.9267ZM120.384 41.249C121.799 41.249 123.04 40.5894 124.09 39.4604L122.626 38.0982C121.853 38.9289 121.111 39.249 120.384 39.249V41.249ZM124.086 39.4647C124.919 38.5791 125.575 37.4819 126.068 36.1988L124.202 35.4809C123.784 36.5676 123.254 37.43 122.63 38.0939L124.086 39.4647ZM124.936 34.8598C123.237 35.2043 121.66 35.561 120.206 35.9302L120.699 37.8686C122.116 37.5086 123.661 37.159 125.334 36.8199L124.936 34.8598ZM121.43 37.1107L122.524 32.0522L120.569 31.6295L119.475 36.6881L121.43 37.1107ZM121.753 32.8192L130.811 30.9052L130.397 28.9484L121.339 30.8624L121.753 32.8192ZM129.604 29.9575C129.645 31.2767 129.361 32.846 128.705 34.6832L130.589 35.3559C131.3 33.3649 131.654 31.539 131.603 29.896L129.604 29.9575ZM128.707 34.6768C128.116 36.2977 127.385 37.7797 126.516 39.1258L128.197 40.2101C129.151 38.7307 129.947 37.1137 130.586 35.3623L128.707 34.6768ZM126.518 39.123C123.967 43.0485 121.085 44.8203 117.889 44.8203V46.8203C121.984 46.8203 125.415 44.4906 128.195 40.213L126.518 39.123ZM128.482 45.4443L127.551 45.0794L126.918 46.6942L128.633 46.4329L128.482 45.4443ZM136.617 20.7324L136.451 19.7462L135.813 19.8533L135.649 20.4794L136.617 20.7324ZM147.007 18.9893L147.993 19.1584L148.231 17.77L146.842 18.003L147.007 18.9893ZM145.401 43.4961L145.626 44.4704L146.411 44.2891L146.401 43.484L145.401 43.4961ZM138.155 45.1709L137.162 45.0518L136.992 46.466L138.38 46.1452L138.155 45.1709ZM138.667 40.8984L139.66 41.0176L139.824 39.6554L138.477 39.9167L138.667 40.8984ZM136.377 41.3428L136.187 40.3611L135.554 40.4838L135.405 41.1107L136.377 41.3428ZM135.66 44.3506L135.81 45.3392L136.476 45.2377L136.632 44.5827L135.66 44.3506ZM139.214 36.3184L139.395 37.3019L140.118 37.1691L140.207 36.4392L139.214 36.3184ZM140.787 23.3984L141.779 23.5192L141.916 22.3984H140.787V23.3984ZM140.752 23.3984V22.3984H139.966L139.781 23.1624L140.752 23.3984ZM137.54 36.626L136.568 36.3899L136.204 37.888L137.72 37.6095L137.54 36.626ZM129.413 45.8093C132.775 37.2321 135.5 28.9573 137.584 20.9854L135.649 20.4794C133.587 28.3669 130.888 36.5668 127.551 45.0794L129.413 45.8093ZM136.782 21.7186L147.173 19.9755L146.842 18.003L136.451 19.7462L136.782 21.7186ZM146.022 18.8201C144.824 25.8007 144.287 34.0332 144.401 43.5082L146.401 43.484C146.287 34.0918 146.821 25.9864 147.993 19.1584L146.022 18.8201ZM145.176 42.5218L137.93 44.1966L138.38 46.1452L145.626 44.4704L145.176 42.5218ZM139.148 45.29L139.66 41.0176L137.675 40.7793L137.162 45.0518L139.148 45.29ZM138.477 39.9167L136.187 40.3611L136.568 42.3245L138.858 41.8801L138.477 39.9167ZM135.405 41.1107L134.687 44.1185L136.632 44.5827L137.35 41.5749L135.405 41.1107ZM135.509 43.362L128.331 44.4557L128.633 46.4329L135.81 45.3392L135.509 43.362ZM140.207 36.4392L141.779 23.5192L139.794 23.2776L138.222 36.1976L140.207 36.4392ZM140.787 22.3984H140.752V24.3984H140.787V22.3984ZM139.781 23.1624L136.568 36.3899L138.511 36.862L141.724 23.6345L139.781 23.1624ZM137.72 37.6095L139.395 37.3019L139.034 35.3348L137.359 35.6424L137.72 37.6095ZM152.781 20.8691L152.598 19.886L151.915 20.0131L151.796 20.6977L152.781 20.8691ZM158.66 19.7754L159.628 20.0264L160.023 18.5047L158.477 18.7923L158.66 19.7754ZM154.011 43.5303L154.278 44.4941L154.932 44.3131L155.006 43.6385L154.011 43.5303ZM148.577 45.0342L147.592 44.8628L147.321 46.4193L148.844 45.998L148.577 45.0342ZM152.964 21.8523L158.843 20.7585L158.477 18.7923L152.598 19.886L152.964 21.8523ZM157.692 19.5243C155.314 28.6916 153.753 36.6599 153.017 43.4221L155.006 43.6385C155.728 37.0022 157.266 29.1339 159.628 20.0264L157.692 19.5243ZM153.745 42.5665L148.31 44.0704L148.844 45.998L154.278 44.4941L153.745 42.5665ZM149.562 45.2056L153.766 21.0405L151.796 20.6977L147.592 44.8628L149.562 45.2056ZM162.861 20.9717L162.663 19.9915L161.994 20.1268L161.876 20.7988L162.861 20.9717ZM168.774 19.7754L169.772 19.8398L169.856 18.5362L168.576 18.7952L168.774 19.7754ZM169.014 30.9521L170.01 30.8677L170.01 30.8651L169.014 30.9521ZM169.526 34.1992L168.563 34.4669L170.511 34.371L169.526 34.1992ZM171.85 20.8691L171.668 19.886L170.985 20.0131L170.865 20.6974L171.85 20.8691ZM177.729 19.7754L178.697 20.0264L179.092 18.5047L177.546 18.7923L177.729 19.7754ZM173.081 43.5303L173.349 44.4936L174.002 44.3119L174.075 43.6385L173.081 43.5303ZM167.681 45.0342L166.786 45.4814L167.155 46.2187L167.949 45.9975L167.681 45.0342ZM167.236 43.8379L166.293 44.1694L166.296 44.1796L167.236 43.8379ZM165.459 38.7793L166.402 38.4478L166.399 38.4397L165.459 38.7793ZM164.946 37.207L165.927 37.0109L163.962 37.0318L164.946 37.207ZM163.818 45.0342L164.106 45.992L164.741 45.8013L164.812 45.1417L163.818 45.0342ZM158.35 46.6748L157.365 46.5019L157.084 48.0984L158.637 47.6326L158.35 46.6748ZM163.06 21.9518L168.973 20.7555L168.576 18.7952L162.663 19.9915L163.06 21.9518ZM167.776 19.711C167.729 20.4496 167.706 21.4774 167.706 22.7832H169.706C169.706 21.4913 169.729 20.5139 169.772 19.8398L167.776 19.711ZM167.706 22.7832C167.706 25.9028 167.809 28.6559 168.017 31.0392L170.01 30.8651C169.808 28.5544 169.706 25.8616 169.706 22.7832H167.706ZM168.017 31.0366C168.134 32.4115 168.312 33.5624 168.563 34.4669L170.49 33.9316C170.285 33.1954 170.121 32.1816 170.01 30.8677L168.017 31.0366ZM170.511 34.371L172.836 21.0409L170.865 20.6974L168.541 34.0275L170.511 34.371ZM172.033 21.8523L177.912 20.7585L177.546 18.7923L171.668 19.886L172.033 21.8523ZM176.761 19.5243C174.384 28.6916 172.823 36.6599 172.087 43.4221L174.075 43.6385C174.797 37.0022 176.335 29.1339 178.697 20.0264L176.761 19.5243ZM172.813 42.5669L167.412 44.0708L167.949 45.9975L173.349 44.4936L172.813 42.5669ZM168.575 44.587C168.596 44.6296 168.603 44.6518 168.573 44.5748C168.554 44.5246 168.526 44.4512 168.49 44.3527C168.417 44.1566 168.313 43.8715 168.176 43.4961L166.296 44.1796C166.433 44.5562 166.54 44.8465 166.615 45.0491C166.674 45.2082 166.743 45.3956 166.786 45.4814L168.575 44.587ZM168.18 43.5064L166.402 38.4478L164.515 39.1108L166.293 44.1694L168.18 43.5064ZM166.399 38.4397C166.095 37.596 165.955 37.1497 165.927 37.0109L163.966 37.4031C164.029 37.7201 164.231 38.322 164.518 39.1189L166.399 38.4397ZM163.962 37.0318C163.479 39.7415 163.1 42.3731 162.824 44.9267L164.812 45.1417C165.083 42.6366 165.456 40.0502 165.931 37.3822L163.962 37.0318ZM163.531 44.0764L158.062 45.717L158.637 47.6326L164.106 45.992L163.531 44.0764ZM159.334 46.8477L163.846 21.1446L161.876 20.7988L157.365 46.5019L159.334 46.8477Z" fill="#D1941C"/>
<path d="M26.9874 20.835C30.5193 19.764 33.4132 19.2285 35.669 19.2285C38.7452 19.2285 40.2605 20.2995 40.2149 22.4414C40.1466 26.748 36.5235 31.2028 29.3458 35.8057C28.8445 38.5856 28.4799 41.1605 28.2521 43.5303L22.8175 45.0342C22.8858 44.5329 23.1593 43.0062 23.6378 40.4541L25.1417 32.3535C26.4861 24.9023 27.1013 21.0628 26.9874 20.835ZM31.294 26.3037C31.1345 26.9417 30.9864 27.5798 30.8497 28.2178L30.4737 30.0977C32.5929 29.0495 33.9601 27.9443 34.5753 26.7822C34.6664 26.5999 34.712 26.4518 34.712 26.3379C34.712 25.9505 34.4272 25.7568 33.8575 25.7568C33.3106 25.7568 32.4562 25.9391 31.294 26.3037ZM42.5706 20.8691L48.4495 19.7754C46.8089 26.0872 45.5442 31.9092 44.6556 37.2412L50.6712 36.3184L50.1585 42.6758C47.0595 42.9492 43.1289 43.7354 38.3665 45.0342L42.5706 20.8691ZM49.8823 45.4443C53.2319 36.8994 55.9435 28.6621 58.0171 20.7324L68.4077 18.9893C67.2228 25.8936 66.6873 34.0625 66.8013 43.4961L59.5552 45.1709L60.0679 40.8984L57.7778 41.3428L57.0601 44.3506L49.8823 45.4443ZM60.6147 36.3184L62.187 23.3984H62.1528L58.9399 36.626L60.6147 36.3184ZM82.2819 20.3564L87.7849 21.3135C82.863 29.9495 78.9665 37.7653 76.0954 44.7607L70.8317 44.4189L74.4548 36.7969L71.5837 23.0566L78.2487 19.9805C78.1804 21.0286 78.1348 22.3389 78.112 23.9111C78.0892 25.4834 78.169 27.0557 78.3513 28.6279L82.2819 20.3564ZM92.2228 45.4443C95.5724 36.8994 98.284 28.6621 100.358 20.7324L110.748 18.9893C109.563 25.8936 109.028 34.0625 109.142 43.4961L101.896 45.1709L102.408 40.8984L100.118 41.3428L99.4005 44.3506L92.2228 45.4443ZM102.955 36.3184L104.527 23.3984H104.493L101.28 36.626L102.955 36.3184ZM117.889 45.8203C115.474 45.8203 113.765 44.5215 112.762 41.9238C112.238 40.625 111.976 39.1667 111.976 37.5488C111.976 36.0221 112.215 34.3473 112.694 32.5244C113.491 29.4027 114.915 26.543 116.966 23.9453C119.45 20.778 122.093 19.1943 124.896 19.1943C127.334 19.1943 129.054 20.5387 130.057 23.2275L126.263 27.2949C125.853 26.6797 125.249 26.3721 124.451 26.3721C122.902 26.3721 121.444 27.443 120.076 29.585C119.051 31.2028 118.288 32.9915 117.786 34.9512C117.581 35.7259 117.479 36.4209 117.479 37.0361C117.479 37.9704 117.718 38.7223 118.197 39.292C118.721 39.93 119.45 40.249 120.384 40.249C121.455 40.249 122.446 39.7591 123.358 38.7793C124.087 38.0046 124.679 37.0247 125.135 35.8398C123.449 36.1816 121.888 36.5348 120.452 36.8994L121.546 31.8408L130.604 29.9268C130.649 31.4079 130.33 33.1055 129.647 35.0195C129.032 36.7057 128.268 38.2552 127.357 39.668C124.691 43.7695 121.535 45.8203 117.889 45.8203ZM128.482 45.4443C131.832 36.8994 134.543 28.6621 136.617 20.7324L147.007 18.9893C145.822 25.8936 145.287 34.0625 145.401 43.4961L138.155 45.1709L138.667 40.8984L136.377 41.3428L135.66 44.3506L128.482 45.4443ZM139.214 36.3184L140.787 23.3984H140.752L137.54 36.626L139.214 36.3184ZM152.781 20.8691L158.66 19.7754C156.29 28.9128 154.741 36.8311 154.011 43.5303L148.577 45.0342L152.781 20.8691ZM162.861 20.9717L168.774 19.7754C168.729 20.4818 168.706 21.4844 168.706 22.7832C168.706 25.8822 168.809 28.6051 169.014 30.9521C169.128 32.2965 169.298 33.3789 169.526 34.1992L171.85 20.8691L177.729 19.7754C175.36 28.9128 173.81 36.8311 173.081 43.5303L167.681 45.0342C167.658 44.9886 167.51 44.5898 167.236 43.8379L165.459 38.7793C165.163 37.959 164.992 37.4349 164.946 37.207C164.468 39.8958 164.092 42.5049 163.818 45.0342L158.35 46.6748L162.861 20.9717Z" fill="white"/>

</g>
<defs>
<clipPath id="clip0">
<path d="M0 0H200V70H0V0Z" fill="white"/>
</clipPath>
</defs>
</svg>
