<svg width="200" height="70" viewBox="0 0 200 70" fill="none" xmlns="http://www.w3.org/2000/svg">
<g clip-path="url(#clip0)">
<rect width="200" height="70" rx="10" fill="#EA37AE"/>
<rect width="200" height="65" rx="10" fill="#FA3CBA"/>
<path opacity="0.2" d="M0 10V30C0 17 6 0 30 0H10C4.47715 0 0 4.47715 0 10Z" fill="white"/>
<path opacity="0.2" d="M200 55L200 12C200 30 147.5 65 10 65L190 65C195.523 65 200 60.5228 200 55Z" fill="white"/>
<path d="M75.3448 26.9189C74.6157 27.1924 73.7498 27.5228 72.7472 27.9102L70.1837 28.9014C70.1837 27.8304 69.8875 27.2949 69.295 27.2949C68.4519 27.2949 67.6088 27.7734 66.7657 28.7305C66.1733 29.4368 65.9226 30.1204 66.0138 30.7812C66.0821 31.2142 66.5151 31.4307 67.3126 31.4307C67.7455 31.4307 68.3152 31.3623 69.0216 31.2256C70.0014 31.0205 70.8673 30.918 71.6192 30.918C73.5333 30.918 74.6498 31.5788 74.9688 32.9004C75.06 33.3105 75.1056 33.7435 75.1056 34.1992C75.1056 35.6576 74.5587 37.2298 73.4649 38.916C72.0522 41.1263 70.0698 42.9834 67.5177 44.4873C66.1733 45.2848 64.8517 45.6836 63.5528 45.6836C62.3679 45.6836 61.2058 45.3532 60.0665 44.6924C60.6362 43.3252 61.5476 41.3086 62.8009 38.6426C63.53 39.1439 64.3048 39.3945 65.1251 39.3945C65.4897 39.3945 65.8657 39.3376 66.253 39.2236C66.9594 39.0413 67.6316 38.7793 68.2696 38.4375C69.1811 37.9362 69.6368 37.4235 69.6368 36.8994C69.6368 36.3298 69.1697 36.0449 68.2355 36.0449C67.5974 36.0449 66.6632 36.1816 65.4327 36.4551C64.225 36.7057 63.3022 36.8311 62.6642 36.8311C61.8211 36.8311 61.1716 36.6715 60.7159 36.3525C59.8272 35.7601 59.4627 34.8372 59.6222 33.584C59.9184 31.0547 61.5476 28.1266 64.5099 24.7998C67.5405 21.3818 70.1495 19.5931 72.337 19.4336C74.4562 19.2969 75.5157 20.8919 75.5157 24.2188C75.5157 25.0163 75.4588 25.9163 75.3448 26.9189ZM93.7649 19.4336L93.5599 25.791C91.9648 25.8822 90.4495 25.9961 89.014 26.1328C87.5101 32.4447 86.4961 38.2438 85.972 43.5303L80.1956 45.0342L83.3401 26.8506C82.7249 26.9417 82.1097 27.0443 81.4944 27.1582L79.6829 27.5L79.2728 21.1084L93.7649 19.4336ZM89.5923 45.4443C92.9419 36.8994 95.6535 28.6621 97.7271 20.7324L108.118 18.9893C106.933 25.8936 106.397 34.0625 106.511 43.4961L99.2651 45.1709L99.7778 40.8984L97.4878 41.3428L96.77 44.3506L89.5923 45.4443ZM100.325 36.3184L101.897 23.3984H101.863L98.6499 36.626L100.325 36.3184ZM113.003 20.835C116.58 19.764 119.508 19.2285 121.787 19.2285C124.863 19.2285 126.39 20.2995 126.367 22.4414C126.344 25.5176 124.407 28.6051 120.556 31.7041C120.875 32.57 122.197 35.293 124.521 39.873C123.336 40.9668 121.548 42.5732 119.155 44.6924L115.498 35.2588H115.464C114.917 38.2438 114.507 41.001 114.233 43.5303L108.833 45.0342C108.878 44.5329 109.129 43.0176 109.585 40.4883L113.003 20.835ZM117.309 26.2354C117.104 27.0101 116.922 27.7848 116.762 28.5596L116.284 30.8838C117.081 30.4736 117.868 29.9382 118.642 29.2773C119.531 28.5026 120.123 27.762 120.42 27.0557C120.534 26.8506 120.591 26.6569 120.591 26.4746C120.591 25.9733 120.26 25.7227 119.599 25.7227C119.075 25.7227 118.312 25.8936 117.309 26.2354ZM142.531 19.4336L142.326 25.791C140.731 25.8822 139.216 25.9961 137.78 26.1328C136.276 32.4447 135.262 38.2438 134.738 43.5303L128.962 45.0342L132.106 26.8506C131.491 26.9417 130.876 27.0443 130.261 27.1582L128.449 27.5L128.039 21.1084L142.531 19.4336Z" fill="white"/>
</g>
<defs>
<clipPath id="clip0">
<rect width="200" height="70" fill="white"/>
</clipPath>
</defs>
</svg>
