<svg width="270" height="70" viewBox="0 0 270 70" fill="none" xmlns="http://www.w3.org/2000/svg">
<rect width="270" height="70" rx="10" fill="#D1941C"/>
<rect width="270" height="65" rx="10" fill="#FAB837"/>
<path opacity="0.2" d="M0 10V30C0 17 6 0 30 0H10C4.47715 0 0 4.47715 0 10Z" fill="white"/>
<path opacity="0.2" d="M270 55L270 12C270 30 217.5 65 80 65L260 65C265.523 65 270 60.5228 270 55Z" fill="white"/>
<path d="M111.124 23.3934L111.342 23.1544L111.214 22.8577C110.63 21.5128 109.868 20.467 108.907 19.7577C107.941 19.0445 106.807 18.6943 105.525 18.6943C102.601 18.6943 99.9635 20.3359 97.6081 23.4373C95.6515 25.9997 94.3216 28.8334 93.6219 31.9347C93.273 33.4468 93.0967 34.8858 93.0967 36.25C93.0967 38.1111 93.4384 39.8109 94.131 41.3409C94.7037 42.652 95.4588 43.6714 96.4139 44.3626C97.3743 45.0576 98.505 45.3975 99.7832 45.3975C102.303 45.3975 104.718 44.0357 107.025 41.4722L107.207 41.2702L107.136 41.0079L106.042 36.9405L105.774 35.9408L105.158 36.7728C103.878 38.5017 102.766 39.2021 101.834 39.2021C101.502 39.2021 101.191 39.1291 100.897 38.9824C99.9891 38.5182 99.4971 37.6713 99.4971 36.2842C99.4971 35.76 99.5706 35.1597 99.724 34.4802L99.7241 34.4803L99.7251 34.4754C100.029 33.0664 100.695 31.5255 101.745 29.8505L101.745 29.8504C102.379 28.8384 102.984 28.1092 103.554 27.6375C104.122 27.1675 104.628 26.9746 105.081 26.9746C105.613 26.9746 106.091 27.1807 106.532 27.6409L106.902 28.0272L107.262 27.6317L111.124 23.3934ZM113.771 20.3776L113.429 20.4411L113.37 20.7834L109.166 44.9485L109.031 45.7236L109.79 45.5166C114.538 44.2216 118.437 43.4436 121.494 43.1738L121.915 43.1367L121.949 42.716L122.461 36.3586L122.512 35.7283L121.887 35.8241L116.556 36.642C117.435 31.5134 118.657 25.9333 120.225 19.9012L120.423 19.14L119.65 19.2838L113.771 20.3776ZM143.054 32.2078L143.055 32.2041C143.542 30.3032 143.788 28.5293 143.788 26.8848C143.788 25.1686 143.518 23.5816 142.971 22.1291C142.447 20.726 141.724 19.631 140.778 18.8868C139.825 18.1376 138.682 17.7715 137.375 17.7715C134.309 17.7715 131.49 19.5554 128.912 22.9236L128.911 22.9243C126.822 25.6644 125.345 28.6746 124.485 31.9522C123.975 33.8768 123.716 35.6748 123.716 37.3438C123.716 39.0354 123.975 40.5779 124.501 41.9644L124.501 41.9653C125.036 43.3692 125.772 44.4636 126.729 45.207C127.693 45.9549 128.847 46.3203 130.163 46.3203C133.206 46.3203 136.014 44.5482 138.592 41.2038C140.705 38.4638 142.193 35.4643 143.054 32.2078ZM132.736 30.0961L132.739 30.0917C134.028 28.0569 135.174 27.248 136.145 27.248C136.548 27.248 136.85 27.3904 137.094 27.6834C137.355 27.9969 137.572 28.5122 137.702 29.2874C137.941 30.8807 137.855 32.4985 137.438 34.1448L137.437 34.1463C137.087 35.5459 136.522 36.7467 135.748 37.7575L135.747 37.7583C134.783 39.0224 133.765 39.5781 132.693 39.5781C131.894 39.5781 131.317 39.3045 130.899 38.7791C130.528 38.2943 130.322 37.6472 130.322 36.7969C130.322 36.1873 130.416 35.4895 130.614 34.6997C131.008 33.2115 131.712 31.6771 132.736 30.0961ZM160.107 27.3871L160.393 27.2796L160.428 26.9754C160.544 25.9587 160.602 25.0393 160.602 24.2188C160.602 22.5209 160.335 21.1709 159.724 20.2507C159.083 19.2854 158.106 18.8563 156.891 18.9346L156.887 18.9349C155.674 19.0233 154.39 19.5588 153.043 20.4824C151.694 21.4075 150.254 22.7408 148.722 24.4681C145.738 27.8194 144.027 30.8416 143.712 33.5233C143.625 34.2102 143.677 34.8421 143.897 35.3998C144.119 35.9616 144.5 36.4177 145.02 36.7655C145.593 37.1641 146.357 37.3311 147.251 37.3311C147.941 37.3311 148.904 37.1971 150.121 36.9446L150.121 36.9447L150.128 36.9432C151.35 36.6716 152.241 36.5449 152.822 36.5449C153.254 36.5449 153.495 36.6138 153.613 36.6854C153.69 36.7326 153.723 36.7802 153.723 36.8994C153.723 37.0052 153.68 37.1511 153.508 37.3448C153.332 37.5421 153.045 37.7627 152.618 37.9981C152.016 38.3202 151.382 38.5673 150.715 38.7395L150.706 38.7416L150.698 38.7439C150.352 38.8458 150.024 38.8945 149.712 38.8945C149 38.8945 148.323 38.6793 147.671 38.2306L147.185 37.897L146.935 38.4299C145.681 41.0974 144.765 43.1222 144.191 44.5001L144.023 44.9049L144.402 45.1249C145.609 45.8249 146.857 46.1836 148.139 46.1836C149.544 46.1836 150.953 45.7514 152.359 44.9177C154.969 43.3795 157.012 41.4706 158.472 39.1867C159.598 37.4496 160.192 35.7838 160.192 34.1992C160.192 33.7101 160.143 33.2406 160.043 32.7919L160.043 32.7919L160.041 32.7831C159.852 31.998 159.414 31.3861 158.733 30.9833C158.07 30.5905 157.213 30.418 156.206 30.418C155.411 30.418 154.511 30.526 153.509 30.7354C152.818 30.869 152.285 30.9307 151.899 30.9307C151.534 30.9307 151.316 30.8791 151.2 30.8211C151.114 30.7782 151.101 30.7448 151.095 30.7082C151.031 30.2366 151.199 29.6933 151.731 29.0564C152.527 28.155 153.243 27.7949 153.881 27.7949C153.952 27.7949 153.99 27.8099 154.012 27.8236C154.036 27.8377 154.071 27.8676 154.11 27.9386C154.197 28.0957 154.27 28.3956 154.27 28.9014V29.6308L154.95 29.3677L157.514 28.3766C158.515 27.9896 159.38 27.6598 160.107 27.3871ZM174.212 35.8235L168.541 36.6467L168.658 35.9965L168.659 35.9895L168.66 35.9824C168.712 35.6404 168.769 35.2984 168.834 34.9563C170.273 34.6335 172.197 34.2605 174.61 33.8372L174.997 33.7693L175.022 33.3773L175.33 28.6605L175.373 28.0016L174.727 28.1389L170.001 29.143L170.227 28.0149C170.227 28.0138 170.227 28.0127 170.228 28.0116C170.341 27.4848 170.469 26.9495 170.614 26.4058C172.384 26.1332 174.317 25.9005 176.415 25.7079L176.838 25.669L176.868 25.245L177.312 18.9218L177.355 18.3034L176.742 18.3918L165.36 20.0325L164.998 20.0846L164.938 20.4455L160.871 44.9523L160.745 45.7102L161.489 45.5183C166.511 44.223 170.639 43.4442 173.881 43.1741L174.309 43.1384L174.338 42.7106L174.783 36.3532L174.826 35.7344L174.212 35.8235Z" fill="white" stroke="#D1941C"/>
</svg>
