<svg width="280" height="70" viewBox="0 0 280 70" fill="none" xmlns="http://www.w3.org/2000/svg">
<rect width="280" height="70" rx="10" fill="#D1941C"/>
<rect width="280" height="65" rx="10" fill="#FAB837"/>
<path opacity="0.2" d="M0 10V30C0 17 6 0 30 0H10C4.47715 0 0 4.47715 0 10Z" fill="white"/>
<path opacity="0.2" d="M280 55L280 12C280 30 227.5 65 90 65L270 65C275.523 65 280 60.5228 280 55Z" fill="white"/>
<mask id="path-5-outside-1" maskUnits="userSpaceOnUse" x="32.7131" y="16.2715" width="216" height="34" fill="black">
<rect fill="white" x="32.7131" y="16.2715" width="216" height="34"/>
<path d="M39.2249 20.9717L45.1379 19.7754C45.0924 20.4818 45.0696 21.4844 45.0696 22.7832C45.0696 25.8822 45.1721 28.6051 45.3772 30.9521C45.4911 32.2965 45.662 33.3789 45.8899 34.1992L48.2141 20.8691L54.093 19.7754C51.7232 28.9128 50.1737 36.8311 49.4446 43.5303L44.0442 45.0342C44.0214 44.9886 43.8733 44.5898 43.5999 43.8379L41.8225 38.7793C41.5263 37.959 41.3554 37.4349 41.3098 37.207C40.8313 39.8958 40.4553 42.5049 40.1819 45.0342L34.7131 46.6748L39.2249 20.9717Z"/>
<path d="M62.0541 25.9619C61.8719 26.6227 61.7124 27.2721 61.5756 27.9102L61.1997 29.79L66.6684 28.6279L66.3608 33.3447C63.7631 33.8005 61.7237 34.1992 60.2426 34.541C60.1515 34.9967 60.0717 35.4525 60.0034 35.9082L59.7641 37.2412L66.1215 36.3184L65.6772 42.6758C62.3959 42.9492 58.2374 43.7354 53.2016 45.0342L57.269 20.5273L68.6508 18.8867L68.2065 25.21C65.9734 25.415 63.9226 25.6657 62.0541 25.9619Z"/>
<path d="M82.7301 42.6074L77.2956 45.9912L76.6803 42.6758C76.4752 41.5592 76.2702 40.4313 76.0651 39.292L74.4245 42.2656C73.8776 43.2682 73.3421 44.248 72.818 45.2051L66.8708 44.6924L74.5954 32.4902C73.7067 28.776 72.7838 25.4606 71.8268 22.5439L76.6461 18.9209L78.526 26.2695L82.9694 19.2969L87.4127 20.8691C84.9974 24.3327 82.5592 28.1494 80.0983 32.3193L82.7301 42.6074Z"/>
<path d="M102.244 19.4336L102.039 25.791C100.444 25.8822 98.9286 25.9961 97.493 26.1328C95.9891 32.4447 94.9751 38.2438 94.451 43.5303L88.6747 45.0342L91.8192 26.8506C91.204 26.9417 90.5887 27.0443 89.9735 27.1582L88.162 27.5L87.7518 21.1084L102.244 19.4336Z"/>
<path d="M124.011 18.2715C126.404 18.2715 128.113 19.6159 129.138 22.3047C129.662 23.6947 129.924 25.21 129.924 26.8506C129.924 30.861 128.739 34.8258 126.369 38.7451C126.483 39.7021 126.916 41.6618 127.668 44.624L122.746 47.7344L121.994 43.8037C120.171 45.1481 118.44 45.8203 116.799 45.8203C114.361 45.8203 112.641 44.4759 111.638 41.7871C111.114 40.4199 110.852 38.916 110.852 37.2754C110.852 35.6803 111.091 33.9486 111.57 32.0801C112.413 28.89 113.871 25.9391 115.945 23.2275C118.497 19.9235 121.185 18.2715 124.011 18.2715ZM120.115 34.0967L125.002 31.5332C125.071 30.3483 125.002 29.266 124.797 28.2861C124.455 26.8278 123.829 26.0986 122.917 26.0986C121.687 26.0986 120.388 27.2266 119.021 29.4824C117.927 31.2826 117.175 32.9801 116.765 34.5752C116.56 35.3955 116.457 36.1361 116.457 36.7969C116.457 37.7311 116.685 38.4945 117.141 39.0869C117.665 39.7477 118.394 40.0781 119.328 40.0781C119.921 40.0781 120.525 39.8958 121.14 39.5312L120.115 34.0967Z"/>
<path d="M135.493 20.8691L141.337 19.7754C139.765 25.7454 138.603 31.1003 137.851 35.8398L141.098 34.4727L143.491 20.8691L149.335 19.7754C146.966 29.1178 145.428 37.0361 144.721 43.5303L139.252 45.0342L139.936 41.2402C138.022 42.0833 135.128 43.348 131.254 45.0342L135.493 20.8691Z"/>
<path d="M157.399 25.9619C157.217 26.6227 157.057 27.2721 156.921 27.9102L156.545 29.79L162.013 28.6279L161.706 33.3447C159.108 33.8005 157.069 34.1992 155.588 34.541C155.496 34.9967 155.417 35.4525 155.348 35.9082L155.109 37.2412L161.466 36.3184L161.022 42.6758C157.741 42.9492 153.582 43.7354 148.547 45.0342L152.614 20.5273L163.996 18.8867L163.551 25.21C161.318 25.415 159.268 25.6657 157.399 25.9619Z"/>
<path d="M180.536 26.9189C179.807 27.1924 178.941 27.5228 177.938 27.9102L175.375 28.9014C175.375 27.8304 175.079 27.2949 174.486 27.2949C173.643 27.2949 172.8 27.7734 171.957 28.7305C171.364 29.4368 171.114 30.1204 171.205 30.7812C171.273 31.2142 171.706 31.4307 172.504 31.4307C172.937 31.4307 173.506 31.3623 174.213 31.2256C175.193 31.0205 176.058 30.918 176.81 30.918C178.724 30.918 179.841 31.5788 180.16 32.9004C180.251 33.3105 180.297 33.7435 180.297 34.1992C180.297 35.6576 179.75 37.2298 178.656 38.916C177.243 41.1263 175.261 42.9834 172.709 44.4873C171.364 45.2848 170.043 45.6836 168.744 45.6836C167.559 45.6836 166.397 45.3532 165.258 44.6924C165.827 43.3252 166.739 41.3086 167.992 38.6426C168.721 39.1439 169.496 39.3945 170.316 39.3945C170.681 39.3945 171.057 39.3376 171.444 39.2236C172.151 39.0413 172.823 38.7793 173.461 38.4375C174.372 37.9362 174.828 37.4235 174.828 36.8994C174.828 36.3298 174.361 36.0449 173.427 36.0449C172.789 36.0449 171.854 36.1816 170.624 36.4551C169.416 36.7057 168.493 36.8311 167.855 36.8311C167.012 36.8311 166.363 36.6715 165.907 36.3525C165.018 35.7601 164.654 34.8372 164.813 33.584C165.11 31.0547 166.739 28.1266 169.701 24.7998C172.732 21.3818 175.341 19.5931 177.528 19.4336C179.647 19.2969 180.707 20.8919 180.707 24.2188C180.707 25.0163 180.65 25.9163 180.536 26.9189Z"/>
<path d="M198.956 19.4336L198.751 25.791C197.156 25.8822 195.641 25.9961 194.205 26.1328C192.701 32.4447 191.687 38.2438 191.163 43.5303L185.387 45.0342L188.531 26.8506C187.916 26.9417 187.301 27.0443 186.686 27.1582L184.874 27.5L184.464 21.1084L198.956 19.4336Z"/>
<path d="M202.337 20.8691L208.216 19.7754C205.846 28.9128 204.297 36.8311 203.568 43.5303L198.133 45.0342L202.337 20.8691Z"/>
<path d="M221.407 18.2715C223.822 18.2715 225.531 19.6159 226.534 22.3047C227.058 23.6947 227.32 25.2214 227.32 26.8848C227.32 28.4798 227.081 30.2116 226.602 32.0801C225.759 35.2702 224.301 38.2096 222.227 40.8984C219.698 44.1797 217.02 45.8203 214.195 45.8203C211.757 45.8203 210.025 44.4759 208.999 41.7871C208.498 40.4655 208.248 38.9844 208.248 37.3438C208.248 35.7259 208.498 33.9714 208.999 32.0801C209.843 28.8672 211.29 25.9163 213.34 23.2275C215.87 19.9235 218.558 18.2715 221.407 18.2715ZM220.176 26.748C218.923 26.748 217.647 27.7734 216.348 29.8242C215.3 31.4421 214.571 33.0257 214.161 34.5752C213.956 35.3955 213.853 36.1361 213.853 36.7969C213.853 37.7311 214.081 38.4945 214.537 39.0869C215.061 39.7477 215.79 40.0781 216.724 40.0781C218 40.0781 219.151 39.4059 220.176 38.0615C220.997 36.9906 221.589 35.7259 221.954 34.2676C222.387 32.5586 222.478 30.8724 222.227 29.209C221.954 27.5684 221.27 26.748 220.176 26.748Z"/>
<path d="M232.136 20.9717L238.049 19.7754C238.004 20.4818 237.981 21.4844 237.981 22.7832C237.981 25.8822 238.084 28.6051 238.289 30.9521C238.403 32.2965 238.574 33.3789 238.801 34.1992L241.126 20.8691L247.005 19.7754C244.635 28.9128 243.085 36.8311 242.356 43.5303L236.956 45.0342C236.933 44.9886 236.785 44.5898 236.511 43.8379L234.734 38.7793C234.438 37.959 234.267 37.4349 234.221 37.207C233.743 39.8958 233.367 42.5049 233.093 45.0342L227.625 46.6748L232.136 20.9717Z"/>
</mask>
<path d="M39.2249 20.9717L45.1379 19.7754C45.0924 20.4818 45.0696 21.4844 45.0696 22.7832C45.0696 25.8822 45.1721 28.6051 45.3772 30.9521C45.4911 32.2965 45.662 33.3789 45.8899 34.1992L48.2141 20.8691L54.093 19.7754C51.7232 28.9128 50.1737 36.8311 49.4446 43.5303L44.0442 45.0342C44.0214 44.9886 43.8733 44.5898 43.5999 43.8379L41.8225 38.7793C41.5263 37.959 41.3554 37.4349 41.3098 37.207C40.8313 39.8958 40.4553 42.5049 40.1819 45.0342L34.7131 46.6748L39.2249 20.9717Z" fill="white"/>
<path d="M62.0541 25.9619C61.8719 26.6227 61.7124 27.2721 61.5756 27.9102L61.1997 29.79L66.6684 28.6279L66.3608 33.3447C63.7631 33.8005 61.7237 34.1992 60.2426 34.541C60.1515 34.9967 60.0717 35.4525 60.0034 35.9082L59.7641 37.2412L66.1215 36.3184L65.6772 42.6758C62.3959 42.9492 58.2374 43.7354 53.2016 45.0342L57.269 20.5273L68.6508 18.8867L68.2065 25.21C65.9734 25.415 63.9226 25.6657 62.0541 25.9619Z" fill="white"/>
<path d="M82.7301 42.6074L77.2956 45.9912L76.6803 42.6758C76.4752 41.5592 76.2702 40.4313 76.0651 39.292L74.4245 42.2656C73.8776 43.2682 73.3421 44.248 72.818 45.2051L66.8708 44.6924L74.5954 32.4902C73.7067 28.776 72.7838 25.4606 71.8268 22.5439L76.6461 18.9209L78.526 26.2695L82.9694 19.2969L87.4127 20.8691C84.9974 24.3327 82.5592 28.1494 80.0983 32.3193L82.7301 42.6074Z" fill="white"/>
<path d="M102.244 19.4336L102.039 25.791C100.444 25.8822 98.9286 25.9961 97.493 26.1328C95.9891 32.4447 94.9751 38.2438 94.451 43.5303L88.6747 45.0342L91.8192 26.8506C91.204 26.9417 90.5887 27.0443 89.9735 27.1582L88.162 27.5L87.7518 21.1084L102.244 19.4336Z" fill="white"/>
<path d="M124.011 18.2715C126.404 18.2715 128.113 19.6159 129.138 22.3047C129.662 23.6947 129.924 25.21 129.924 26.8506C129.924 30.861 128.739 34.8258 126.369 38.7451C126.483 39.7021 126.916 41.6618 127.668 44.624L122.746 47.7344L121.994 43.8037C120.171 45.1481 118.44 45.8203 116.799 45.8203C114.361 45.8203 112.641 44.4759 111.638 41.7871C111.114 40.4199 110.852 38.916 110.852 37.2754C110.852 35.6803 111.091 33.9486 111.57 32.0801C112.413 28.89 113.871 25.9391 115.945 23.2275C118.497 19.9235 121.185 18.2715 124.011 18.2715ZM120.115 34.0967L125.002 31.5332C125.071 30.3483 125.002 29.266 124.797 28.2861C124.455 26.8278 123.829 26.0986 122.917 26.0986C121.687 26.0986 120.388 27.2266 119.021 29.4824C117.927 31.2826 117.175 32.9801 116.765 34.5752C116.56 35.3955 116.457 36.1361 116.457 36.7969C116.457 37.7311 116.685 38.4945 117.141 39.0869C117.665 39.7477 118.394 40.0781 119.328 40.0781C119.921 40.0781 120.525 39.8958 121.14 39.5312L120.115 34.0967Z" fill="white"/>
<path d="M135.493 20.8691L141.337 19.7754C139.765 25.7454 138.603 31.1003 137.851 35.8398L141.098 34.4727L143.491 20.8691L149.335 19.7754C146.966 29.1178 145.428 37.0361 144.721 43.5303L139.252 45.0342L139.936 41.2402C138.022 42.0833 135.128 43.348 131.254 45.0342L135.493 20.8691Z" fill="white"/>
<path d="M157.399 25.9619C157.217 26.6227 157.057 27.2721 156.921 27.9102L156.545 29.79L162.013 28.6279L161.706 33.3447C159.108 33.8005 157.069 34.1992 155.588 34.541C155.496 34.9967 155.417 35.4525 155.348 35.9082L155.109 37.2412L161.466 36.3184L161.022 42.6758C157.741 42.9492 153.582 43.7354 148.547 45.0342L152.614 20.5273L163.996 18.8867L163.551 25.21C161.318 25.415 159.268 25.6657 157.399 25.9619Z" fill="white"/>
<path d="M180.536 26.9189C179.807 27.1924 178.941 27.5228 177.938 27.9102L175.375 28.9014C175.375 27.8304 175.079 27.2949 174.486 27.2949C173.643 27.2949 172.8 27.7734 171.957 28.7305C171.364 29.4368 171.114 30.1204 171.205 30.7812C171.273 31.2142 171.706 31.4307 172.504 31.4307C172.937 31.4307 173.506 31.3623 174.213 31.2256C175.193 31.0205 176.058 30.918 176.81 30.918C178.724 30.918 179.841 31.5788 180.16 32.9004C180.251 33.3105 180.297 33.7435 180.297 34.1992C180.297 35.6576 179.75 37.2298 178.656 38.916C177.243 41.1263 175.261 42.9834 172.709 44.4873C171.364 45.2848 170.043 45.6836 168.744 45.6836C167.559 45.6836 166.397 45.3532 165.258 44.6924C165.827 43.3252 166.739 41.3086 167.992 38.6426C168.721 39.1439 169.496 39.3945 170.316 39.3945C170.681 39.3945 171.057 39.3376 171.444 39.2236C172.151 39.0413 172.823 38.7793 173.461 38.4375C174.372 37.9362 174.828 37.4235 174.828 36.8994C174.828 36.3298 174.361 36.0449 173.427 36.0449C172.789 36.0449 171.854 36.1816 170.624 36.4551C169.416 36.7057 168.493 36.8311 167.855 36.8311C167.012 36.8311 166.363 36.6715 165.907 36.3525C165.018 35.7601 164.654 34.8372 164.813 33.584C165.11 31.0547 166.739 28.1266 169.701 24.7998C172.732 21.3818 175.341 19.5931 177.528 19.4336C179.647 19.2969 180.707 20.8919 180.707 24.2188C180.707 25.0163 180.65 25.9163 180.536 26.9189Z" fill="white"/>
<path d="M198.956 19.4336L198.751 25.791C197.156 25.8822 195.641 25.9961 194.205 26.1328C192.701 32.4447 191.687 38.2438 191.163 43.5303L185.387 45.0342L188.531 26.8506C187.916 26.9417 187.301 27.0443 186.686 27.1582L184.874 27.5L184.464 21.1084L198.956 19.4336Z" fill="white"/>
<path d="M202.337 20.8691L208.216 19.7754C205.846 28.9128 204.297 36.8311 203.568 43.5303L198.133 45.0342L202.337 20.8691Z" fill="white"/>
<path d="M221.407 18.2715C223.822 18.2715 225.531 19.6159 226.534 22.3047C227.058 23.6947 227.32 25.2214 227.32 26.8848C227.32 28.4798 227.081 30.2116 226.602 32.0801C225.759 35.2702 224.301 38.2096 222.227 40.8984C219.698 44.1797 217.02 45.8203 214.195 45.8203C211.757 45.8203 210.025 44.4759 208.999 41.7871C208.498 40.4655 208.248 38.9844 208.248 37.3438C208.248 35.7259 208.498 33.9714 208.999 32.0801C209.843 28.8672 211.29 25.9163 213.34 23.2275C215.87 19.9235 218.558 18.2715 221.407 18.2715ZM220.176 26.748C218.923 26.748 217.647 27.7734 216.348 29.8242C215.3 31.4421 214.571 33.0257 214.161 34.5752C213.956 35.3955 213.853 36.1361 213.853 36.7969C213.853 37.7311 214.081 38.4945 214.537 39.0869C215.061 39.7477 215.79 40.0781 216.724 40.0781C218 40.0781 219.151 39.4059 220.176 38.0615C220.997 36.9906 221.589 35.7259 221.954 34.2676C222.387 32.5586 222.478 30.8724 222.227 29.209C221.954 27.5684 221.27 26.748 220.176 26.748Z" fill="white"/>
<path d="M232.136 20.9717L238.049 19.7754C238.004 20.4818 237.981 21.4844 237.981 22.7832C237.981 25.8822 238.084 28.6051 238.289 30.9521C238.403 32.2965 238.574 33.3789 238.801 34.1992L241.126 20.8691L247.005 19.7754C244.635 28.9128 243.085 36.8311 242.356 43.5303L236.956 45.0342C236.933 44.9886 236.785 44.5898 236.511 43.8379L234.734 38.7793C234.438 37.959 234.267 37.4349 234.221 37.207C233.743 39.8958 233.367 42.5049 233.093 45.0342L227.625 46.6748L232.136 20.9717Z" fill="white"/>
<path d="M39.2249 20.9717L45.1379 19.7754C45.0924 20.4818 45.0696 21.4844 45.0696 22.7832C45.0696 25.8822 45.1721 28.6051 45.3772 30.9521C45.4911 32.2965 45.662 33.3789 45.8899 34.1992L48.2141 20.8691L54.093 19.7754C51.7232 28.9128 50.1737 36.8311 49.4446 43.5303L44.0442 45.0342C44.0214 44.9886 43.8733 44.5898 43.5999 43.8379L41.8225 38.7793C41.5263 37.959 41.3554 37.4349 41.3098 37.207C40.8313 39.8958 40.4553 42.5049 40.1819 45.0342L34.7131 46.6748L39.2249 20.9717Z" stroke="#D1941C" stroke-width="2" mask="url(#path-5-outside-1)"/>
<path d="M62.0541 25.9619C61.8719 26.6227 61.7124 27.2721 61.5756 27.9102L61.1997 29.79L66.6684 28.6279L66.3608 33.3447C63.7631 33.8005 61.7237 34.1992 60.2426 34.541C60.1515 34.9967 60.0717 35.4525 60.0034 35.9082L59.7641 37.2412L66.1215 36.3184L65.6772 42.6758C62.3959 42.9492 58.2374 43.7354 53.2016 45.0342L57.269 20.5273L68.6508 18.8867L68.2065 25.21C65.9734 25.415 63.9226 25.6657 62.0541 25.9619Z" stroke="#D1941C" stroke-width="2" mask="url(#path-5-outside-1)"/>
<path d="M82.7301 42.6074L77.2956 45.9912L76.6803 42.6758C76.4752 41.5592 76.2702 40.4313 76.0651 39.292L74.4245 42.2656C73.8776 43.2682 73.3421 44.248 72.818 45.2051L66.8708 44.6924L74.5954 32.4902C73.7067 28.776 72.7838 25.4606 71.8268 22.5439L76.6461 18.9209L78.526 26.2695L82.9694 19.2969L87.4127 20.8691C84.9974 24.3327 82.5592 28.1494 80.0983 32.3193L82.7301 42.6074Z" stroke="#D1941C" stroke-width="2" mask="url(#path-5-outside-1)"/>
<path d="M102.244 19.4336L102.039 25.791C100.444 25.8822 98.9286 25.9961 97.493 26.1328C95.9891 32.4447 94.9751 38.2438 94.451 43.5303L88.6747 45.0342L91.8192 26.8506C91.204 26.9417 90.5887 27.0443 89.9735 27.1582L88.162 27.5L87.7518 21.1084L102.244 19.4336Z" stroke="#D1941C" stroke-width="2" mask="url(#path-5-outside-1)"/>
<path d="M124.011 18.2715C126.404 18.2715 128.113 19.6159 129.138 22.3047C129.662 23.6947 129.924 25.21 129.924 26.8506C129.924 30.861 128.739 34.8258 126.369 38.7451C126.483 39.7021 126.916 41.6618 127.668 44.624L122.746 47.7344L121.994 43.8037C120.171 45.1481 118.44 45.8203 116.799 45.8203C114.361 45.8203 112.641 44.4759 111.638 41.7871C111.114 40.4199 110.852 38.916 110.852 37.2754C110.852 35.6803 111.091 33.9486 111.57 32.0801C112.413 28.89 113.871 25.9391 115.945 23.2275C118.497 19.9235 121.185 18.2715 124.011 18.2715ZM120.115 34.0967L125.002 31.5332C125.071 30.3483 125.002 29.266 124.797 28.2861C124.455 26.8278 123.829 26.0986 122.917 26.0986C121.687 26.0986 120.388 27.2266 119.021 29.4824C117.927 31.2826 117.175 32.9801 116.765 34.5752C116.56 35.3955 116.457 36.1361 116.457 36.7969C116.457 37.7311 116.685 38.4945 117.141 39.0869C117.665 39.7477 118.394 40.0781 119.328 40.0781C119.921 40.0781 120.525 39.8958 121.14 39.5312L120.115 34.0967Z" stroke="#D1941C" stroke-width="2" mask="url(#path-5-outside-1)"/>
<path d="M135.493 20.8691L141.337 19.7754C139.765 25.7454 138.603 31.1003 137.851 35.8398L141.098 34.4727L143.491 20.8691L149.335 19.7754C146.966 29.1178 145.428 37.0361 144.721 43.5303L139.252 45.0342L139.936 41.2402C138.022 42.0833 135.128 43.348 131.254 45.0342L135.493 20.8691Z" stroke="#D1941C" stroke-width="2" mask="url(#path-5-outside-1)"/>
<path d="M157.399 25.9619C157.217 26.6227 157.057 27.2721 156.921 27.9102L156.545 29.79L162.013 28.6279L161.706 33.3447C159.108 33.8005 157.069 34.1992 155.588 34.541C155.496 34.9967 155.417 35.4525 155.348 35.9082L155.109 37.2412L161.466 36.3184L161.022 42.6758C157.741 42.9492 153.582 43.7354 148.547 45.0342L152.614 20.5273L163.996 18.8867L163.551 25.21C161.318 25.415 159.268 25.6657 157.399 25.9619Z" stroke="#D1941C" stroke-width="2" mask="url(#path-5-outside-1)"/>
<path d="M180.536 26.9189C179.807 27.1924 178.941 27.5228 177.938 27.9102L175.375 28.9014C175.375 27.8304 175.079 27.2949 174.486 27.2949C173.643 27.2949 172.8 27.7734 171.957 28.7305C171.364 29.4368 171.114 30.1204 171.205 30.7812C171.273 31.2142 171.706 31.4307 172.504 31.4307C172.937 31.4307 173.506 31.3623 174.213 31.2256C175.193 31.0205 176.058 30.918 176.81 30.918C178.724 30.918 179.841 31.5788 180.16 32.9004C180.251 33.3105 180.297 33.7435 180.297 34.1992C180.297 35.6576 179.75 37.2298 178.656 38.916C177.243 41.1263 175.261 42.9834 172.709 44.4873C171.364 45.2848 170.043 45.6836 168.744 45.6836C167.559 45.6836 166.397 45.3532 165.258 44.6924C165.827 43.3252 166.739 41.3086 167.992 38.6426C168.721 39.1439 169.496 39.3945 170.316 39.3945C170.681 39.3945 171.057 39.3376 171.444 39.2236C172.151 39.0413 172.823 38.7793 173.461 38.4375C174.372 37.9362 174.828 37.4235 174.828 36.8994C174.828 36.3298 174.361 36.0449 173.427 36.0449C172.789 36.0449 171.854 36.1816 170.624 36.4551C169.416 36.7057 168.493 36.8311 167.855 36.8311C167.012 36.8311 166.363 36.6715 165.907 36.3525C165.018 35.7601 164.654 34.8372 164.813 33.584C165.11 31.0547 166.739 28.1266 169.701 24.7998C172.732 21.3818 175.341 19.5931 177.528 19.4336C179.647 19.2969 180.707 20.8919 180.707 24.2188C180.707 25.0163 180.65 25.9163 180.536 26.9189Z" stroke="#D1941C" stroke-width="2" mask="url(#path-5-outside-1)"/>
<path d="M198.956 19.4336L198.751 25.791C197.156 25.8822 195.641 25.9961 194.205 26.1328C192.701 32.4447 191.687 38.2438 191.163 43.5303L185.387 45.0342L188.531 26.8506C187.916 26.9417 187.301 27.0443 186.686 27.1582L184.874 27.5L184.464 21.1084L198.956 19.4336Z" stroke="#D1941C" stroke-width="2" mask="url(#path-5-outside-1)"/>
<path d="M202.337 20.8691L208.216 19.7754C205.846 28.9128 204.297 36.8311 203.568 43.5303L198.133 45.0342L202.337 20.8691Z" stroke="#D1941C" stroke-width="2" mask="url(#path-5-outside-1)"/>
<path d="M221.407 18.2715C223.822 18.2715 225.531 19.6159 226.534 22.3047C227.058 23.6947 227.32 25.2214 227.32 26.8848C227.32 28.4798 227.081 30.2116 226.602 32.0801C225.759 35.2702 224.301 38.2096 222.227 40.8984C219.698 44.1797 217.02 45.8203 214.195 45.8203C211.757 45.8203 210.025 44.4759 208.999 41.7871C208.498 40.4655 208.248 38.9844 208.248 37.3438C208.248 35.7259 208.498 33.9714 208.999 32.0801C209.843 28.8672 211.29 25.9163 213.34 23.2275C215.87 19.9235 218.558 18.2715 221.407 18.2715ZM220.176 26.748C218.923 26.748 217.647 27.7734 216.348 29.8242C215.3 31.4421 214.571 33.0257 214.161 34.5752C213.956 35.3955 213.853 36.1361 213.853 36.7969C213.853 37.7311 214.081 38.4945 214.537 39.0869C215.061 39.7477 215.79 40.0781 216.724 40.0781C218 40.0781 219.151 39.4059 220.176 38.0615C220.997 36.9906 221.589 35.7259 221.954 34.2676C222.387 32.5586 222.478 30.8724 222.227 29.209C221.954 27.5684 221.27 26.748 220.176 26.748Z" stroke="#D1941C" stroke-width="2" mask="url(#path-5-outside-1)"/>
<path d="M232.136 20.9717L238.049 19.7754C238.004 20.4818 237.981 21.4844 237.981 22.7832C237.981 25.8822 238.084 28.6051 238.289 30.9521C238.403 32.2965 238.574 33.3789 238.801 34.1992L241.126 20.8691L247.005 19.7754C244.635 28.9128 243.085 36.8311 242.356 43.5303L236.956 45.0342C236.933 44.9886 236.785 44.5898 236.511 43.8379L234.734 38.7793C234.438 37.959 234.267 37.4349 234.221 37.207C233.743 39.8958 233.367 42.5049 233.093 45.0342L227.625 46.6748L232.136 20.9717Z" stroke="#D1941C" stroke-width="2" mask="url(#path-5-outside-1)"/>
</svg>
