<svg width="120" height="120" viewBox="0 0 120 120" fill="none" xmlns="http://www.w3.org/2000/svg">
<path d="M60 10L32.5 55H87.5L60 10ZM60 29.2L69.65 45H50.3L60 29.2ZM87.5 65C75.05 65 65 75.05 65 87.5C65 99.95 75.05 110 87.5 110C99.95 110 110 99.95 110 87.5C110 75.05 99.95 65 87.5 65ZM87.5 100C84.1848 100 81.0054 98.683 78.6612 96.3388C76.317 93.9946 75 90.8152 75 87.5C75 84.1848 76.317 81.0054 78.6612 78.6612C81.0054 76.317 84.1848 75 87.5 75C90.8152 75 93.9946 76.317 96.3388 78.6612C98.683 81.0054 100 84.1848 100 87.5C100 90.8152 98.683 93.9946 96.3388 96.3388C93.9946 98.683 90.8152 100 87.5 100ZM15 107.5H55V67.5H15V107.5ZM25 77.5H45V97.5H25V77.5Z" fill="white"/>
</svg>
