<svg width="27" height="27" viewBox="0 0 27 27" fill="none" xmlns="http://www.w3.org/2000/svg">
<path d="M25.5106 6.03327C26.6264 4.91748 26.6264 3.10844 25.5106 1.99266L24.3548 0.836839C23.239 -0.278945 21.43 -0.278946 20.3142 0.836837L13.2452 7.90582L6.17621 0.836838C5.06043 -0.278946 3.25138 -0.278946 2.1356 0.836838L0.979783 1.99265C-0.136 3.10844 -0.136002 4.91748 0.979782 6.03327L8.04876 13.1022L0.979782 20.1712C-0.136002 21.287 -0.136002 23.0961 0.979782 24.2118L2.1356 25.3677C3.25138 26.4834 5.06043 26.4834 6.17621 25.3677L13.2452 18.2987L20.3142 25.3677C21.43 26.4834 23.239 26.4834 24.3548 25.3677L25.5106 24.2118C26.6264 23.0961 26.6264 21.287 25.5106 20.1712L18.4416 13.1022L25.5106 6.03327Z" fill="white"/>
</svg>
