<svg width="22" height="31" viewBox="0 0 22 31" fill="none" xmlns="http://www.w3.org/2000/svg">
<path d="M10.7143 7.14284C10.5248 7.14284 10.3432 7.21809 10.2092 7.35205C10.0753 7.486 10 7.66768 10 7.85712C10 8.04656 10.0753 8.22824 10.2092 8.3622C10.3432 8.49615 10.5248 8.57141 10.7143 8.57141C12.2614 8.57141 13.52 9.82998 13.52 11.3771C13.52 11.5666 13.5953 11.7482 13.7292 11.8822C13.8632 12.0162 14.0448 12.0914 14.2343 12.0914C14.4237 12.0914 14.6054 12.0162 14.7394 11.8822C14.8733 11.7482 14.9486 11.5666 14.9486 11.3771C14.9471 10.2546 14.5005 9.17845 13.7067 8.3847C12.913 7.59094 11.8368 7.14435 10.7143 7.14284ZM10.7143 0.714264C4.80571 0.714264 0 5.51998 0 11.4285C0 13.5514 0.628572 15.6028 1.82 17.3785L1.93429 17.5714C4.54143 21.2943 5 22.4714 5 23.5714V27.8571C5 28.236 5.15051 28.5994 5.41842 28.8673C5.68633 29.1352 6.04969 29.2857 6.42857 29.2857H9.28571C9.28571 29.6571 9.44286 30.0285 9.7 30.3C9.97143 30.5571 10.3429 30.7143 10.7143 30.7143C11.0857 30.7143 11.4571 30.5571 11.7286 30.3C11.9857 30.0285 12.1429 29.6571 12.1429 29.2857H15C15.3789 29.2857 15.7422 29.1352 16.0102 28.8673C16.2781 28.5994 16.4286 28.236 16.4286 27.8571V23.5714C16.4286 22.4543 16.8843 21.2714 19.4743 17.5728C20.7451 15.7759 21.4278 13.6294 21.4286 11.4285C21.4286 5.51998 16.6229 0.714264 10.7143 0.714264ZM13.5714 26.4286H7.85714V25H13.5714V26.4286ZM17.1357 15.9328C15.0414 18.9228 14.0743 20.6314 13.7286 22.1428H12.1429V19.2857C12.1429 18.9068 11.9923 18.5434 11.7244 18.2755C11.4565 18.0076 11.0932 17.8571 10.7143 17.8571C10.3354 17.8571 9.97204 18.0076 9.70413 18.2755C9.43622 18.5434 9.28571 18.9068 9.28571 19.2857V22.1428H7.69571C7.35286 20.6714 6.41286 19 4.40143 16.1143L4.29143 15.93C3.35898 14.6141 2.85784 13.0413 2.85714 11.4285C2.85714 7.09569 6.38143 3.57141 10.7143 3.57141C15.0471 3.57141 18.5714 7.09569 18.5714 11.4285C18.5701 13.0423 18.0685 14.616 17.1357 15.9328Z" fill="white"/>
</svg>
