<svg width="18" height="26" viewBox="0 0 18 26" fill="none" xmlns="http://www.w3.org/2000/svg">
<path d="M8.97423 5.54762C8.81594 5.54762 8.66414 5.61033 8.55221 5.72196C8.44028 5.83359 8.3774 5.98499 8.3774 6.14286C8.3774 6.30072 8.44028 6.45212 8.55221 6.56375C8.66414 6.67538 8.81594 6.73809 8.97423 6.73809C10.267 6.73809 11.3186 7.7869 11.3186 9.07619C11.3186 9.23406 11.3815 9.38546 11.4934 9.49709C11.6053 9.60871 11.7571 9.67143 11.9154 9.67143C12.0737 9.67143 12.2255 9.60871 12.3374 9.49709C12.4494 9.38546 12.5122 9.23406 12.5122 9.07619C12.511 8.14074 12.1378 7.24397 11.4746 6.5825C10.8114 5.92104 9.91218 5.54888 8.97423 5.54762ZM8.97423 0.190475C4.03726 0.190475 0.0217896 4.19524 0.0217896 9.11905C0.0217896 10.8881 0.547 12.5976 1.54251 14.0774L1.638 14.2381C3.81643 17.3405 4.1996 18.3214 4.1996 19.2381V22.8095C4.1996 23.1253 4.32536 23.4281 4.54921 23.6513C4.77307 23.8746 5.07668 24 5.39326 24H7.78057C7.78057 24.3095 7.91188 24.619 8.12673 24.8452C8.35353 25.0595 8.66388 25.1905 8.97423 25.1905C9.28458 25.1905 9.59494 25.0595 9.82173 24.8452C10.0366 24.619 10.1679 24.3095 10.1679 24H12.5552C12.8718 24 13.1754 23.8746 13.3993 23.6513C13.6231 23.4281 13.7489 23.1253 13.7489 22.8095V19.2381C13.7489 18.3071 14.1296 17.3214 16.2938 14.2393C17.3556 12.7419 17.9261 10.9531 17.9267 9.11905C17.9267 4.19524 13.9112 0.190475 8.97423 0.190475ZM11.3616 21.619H6.58691V20.4286H11.3616V21.619ZM14.3397 12.8726C12.5898 15.3643 11.7817 16.7881 11.4929 18.0476H10.1679V15.6667C10.1679 15.3509 10.0421 15.0481 9.81828 14.8249C9.59442 14.6016 9.29081 14.4762 8.97423 14.4762C8.65765 14.4762 8.35404 14.6016 8.13019 14.8249C7.90633 15.0481 7.78057 15.3509 7.78057 15.6667V18.0476H6.45203C6.16555 16.8214 5.38013 15.4286 3.69945 13.0238L3.60754 12.8702C2.82842 11.7737 2.40969 10.463 2.40911 9.11905C2.40911 5.50833 5.35386 2.57143 8.97423 2.57143C12.5946 2.57143 15.5394 5.50833 15.5394 9.11905C15.5382 10.4638 15.1191 11.7752 14.3397 12.8726Z" fill="#FAB837"/>
</svg>
