<svg width="313" height="128" viewBox="0 0 313 128" fill="none" xmlns="http://www.w3.org/2000/svg">
<g filter="url(#filter0_d)">
<path fill-rule="evenodd" clip-rule="evenodd" d="M31.292 14.265C29.7739 14.7634 28.7086 16.1229 28.5947 17.7075C28.595 17.7039 28.5939 17.712 28.591 17.7336C28.5794 17.8208 28.5386 18.1283 28.4379 18.7783C28.326 19.5008 28.1627 20.5094 27.9466 21.8103L24.8676 39.4004L24.8674 39.4016C24.394 42.1 24.086 43.97 24.0162 44.7327C23.9079 45.9171 24.3465 47.0863 25.2088 47.9112C26.071 48.736 27.2636 49.1274 28.4507 48.975C29.9321 48.7848 31.3718 48.4723 32.7689 48.041C31.9854 48.8126 31.532 49.9036 31.6078 51.0773L32.0702 58.2353C32.1425 59.3559 32.6952 60.3919 33.588 61.0805C34.102 61.4769 34.7002 61.7362 35.3272 61.8453L32.6977 76.953C32.4692 78.2657 32.9274 79.6039 33.9143 80.5057C34.9011 81.4076 36.2815 81.7498 37.5791 81.4141L44.09 79.7299C44.2621 79.6854 44.4292 79.6299 44.5906 79.5643C44.8209 79.9653 45.1237 80.3278 45.4905 80.6316C46.4862 81.4563 47.8262 81.7424 49.075 81.3969L55.1622 79.7127C55.5548 79.604 55.9207 79.4381 56.251 79.2252C56.7877 80.132 57.6751 80.795 58.7214 81.0473C59.9763 81.3498 61.3007 81.023 62.2674 80.1723L62.6357 79.8481C62.8058 80.0928 63.0052 80.3202 63.2321 80.5246C64.2339 81.4271 65.6311 81.7569 66.9343 81.3986L73.06 79.7144C73.2218 79.6699 73.379 79.6157 73.5311 79.5525C73.7253 79.976 73.9964 80.3672 74.3374 80.7047C75.2514 81.6088 76.5524 82.0121 77.8217 81.7845L88.0697 79.9472C88.3387 79.8989 88.5983 79.8239 88.8454 79.7248C89.0324 80.0168 89.2596 80.2863 89.5241 80.5246C90.5259 81.4271 91.9231 81.7569 93.2263 81.3986L95.3476 80.8154C96.23 81.7157 97.5019 82.1468 98.7678 81.9552L106.542 80.7781C107.489 81.5667 108.756 81.8706 109.965 81.593L118.133 79.7174C119.939 79.3025 121.211 77.6934 121.189 75.8511C121.062 65.4483 121.659 56.549 122.943 49.116C123.159 47.8644 122.752 46.5862 121.85 45.6866C120.948 44.7869 119.663 44.3773 118.402 44.5874L106.69 46.5395C106.583 46.5574 106.477 46.5796 106.373 46.6058C105.454 45.6635 104.119 45.2393 102.818 45.4799L98.1299 46.3464C98.0737 46.299 98.0163 46.2532 97.9578 46.2091C101.111 38.5849 105.413 30.0063 110.887 20.4635C111.523 19.3543 111.576 18.0069 111.028 16.852C110.48 15.6972 109.401 14.8797 108.135 14.6609L101.932 13.5891C100.996 13.4274 100.063 13.6089 99.282 14.0573C99.1747 13.9657 99.0618 13.8793 98.9436 13.7986C97.7968 13.0162 96.3201 12.8917 95.057 13.4709L87.9136 16.7466C87.9003 15.7854 87.5311 14.8487 86.8548 14.1277C85.9347 13.1469 84.5739 12.7013 83.2472 12.9466L77.6643 13.9786C76.7498 13.1022 75.4617 12.7141 74.2043 12.9466L67.5777 14.1715C67.4916 14.1874 67.4065 14.2061 67.3224 14.2274C67.133 13.8342 66.8766 13.4702 66.5588 13.1533C65.6567 12.2536 64.3718 11.844 63.1112 12.0541L51.3992 14.0063C50.1698 14.2112 49.1294 14.976 48.5631 16.0416C48.4302 15.893 48.2932 15.7464 48.1521 15.6019C48.1383 15.5877 48.1243 15.5736 48.1102 15.5596C45.9317 13.3951 43.0198 12.6125 40.0424 12.6125C37.4098 12.6125 34.4617 13.2244 31.292 14.265Z" fill="#1FBBCC"/>
</g>
<g filter="url(#filter1_d)">
<path d="M51.8801 48.9506L51.6489 56.0703C49.851 56.1724 48.143 56.3 46.5249 56.4531C44.8297 63.5218 43.6868 70.0163 43.096 75.9366L36.5851 77.6209L40.1295 57.257C39.436 57.359 38.7426 57.4739 38.0491 57.6015L36.0072 57.9842L35.5449 50.8262L51.8801 48.9506Z" fill="white"/>
<path d="M52.7169 50.52C56.7493 49.3206 60.0498 48.7209 62.6182 48.7209C66.0856 48.7209 67.8064 49.9203 67.7807 52.3191C67.755 55.7641 65.5719 59.2219 61.2312 62.6924C61.5908 63.6622 63.0805 66.7116 65.7003 71.8409C64.3647 73.0658 62.3485 74.8649 59.6516 77.2381L55.5293 66.6734H55.4908C54.8744 70.0163 54.412 73.1041 54.1038 75.9366L48.0167 77.6209C48.068 77.0595 48.3505 75.3625 48.8642 72.5299L52.7169 50.52ZM57.5712 56.568C57.3401 57.4356 57.1346 58.3032 56.9548 59.1709L56.4154 61.7738C57.3144 61.3144 58.2005 60.7147 59.0737 59.9747C60.0754 59.1071 60.7432 58.2777 61.0771 57.4866C61.2055 57.257 61.2698 57.04 61.2698 56.8359C61.2698 56.2745 60.8973 55.9938 60.1525 55.9938C59.5618 55.9938 58.7013 56.1852 57.5712 56.568Z" fill="white"/>
<path d="M70.6209 50.5583L77.2475 49.3334C74.5763 59.5664 72.8298 68.4341 72.0079 75.9366L65.8821 77.6209L70.6209 50.5583Z" fill="white"/>
<path d="M95.5753 49.3334C92.5188 57.6525 89.7835 66.5713 87.3691 76.0898L77.1211 77.9271C77.7632 74.3034 78.1613 69.8887 78.3154 64.6829C78.3925 60.2426 78.4695 55.8024 78.5466 51.3621L86.2519 49.6396L82.9386 74.061H82.9771L88.602 50.5966L95.5753 49.3334Z" fill="white"/>
<path d="M96.9129 50.5583L103.539 49.3334C100.868 59.5664 99.1218 68.4341 98.2999 75.9366L92.1742 77.6209L96.9129 50.5583Z" fill="white"/>
<path d="M98.1735 78.0802C101.949 68.5107 105.006 59.2857 107.343 50.4052L119.055 48.453C117.719 56.1852 117.116 65.3336 117.244 75.8984L109.076 77.774L109.654 72.9892L107.073 73.4869L106.264 76.8553L98.1735 78.0802ZM110.271 67.86L112.043 53.3909H112.004L108.383 68.2045L110.271 67.86Z" fill="white"/>
</g>
<g filter="url(#filter2_d)">
<path d="M32.5298 17.9867C35.4835 17.017 37.9877 16.5321 40.0424 16.5321C42.354 16.5321 44.1134 17.1318 45.3206 18.3312C46.99 20.0409 47.8248 22.1207 47.8248 24.5705C47.8248 25.4637 47.7092 26.4079 47.4781 27.4031C46.4764 31.8944 44.1134 35.8243 40.3892 39.1927C36.665 42.5357 32.5169 44.5006 27.9451 45.0876C27.9965 44.5262 28.2662 42.8547 28.7542 40.0731L31.8363 22.4652C32.2729 19.8368 32.5041 18.344 32.5298 17.9867ZM38.0391 24.3026C36.8576 29.3042 35.9586 34.038 35.3422 38.5037C36.8833 37.0492 38.2574 35.3649 39.4645 33.451C40.9542 31.1033 41.6991 29.0873 41.6991 27.4031C41.6991 25.234 40.4791 24.2005 38.0391 24.3026Z" fill="white"/>
<path d="M42.8826 45.5469C46.6582 35.9774 49.7146 26.7524 52.0519 17.8719L63.764 15.9197C62.4284 23.6518 61.8248 32.8003 61.9532 43.3651L53.7856 45.2407L54.3635 40.4559L51.7822 40.9535L50.9732 44.322L42.8826 45.5469ZM54.9799 35.3267L56.7521 20.8575H56.7136L53.0921 35.6712L54.9799 35.3267Z" fill="white"/>
<path d="M68.2993 18.025L74.9258 16.8001C72.2547 27.0331 70.5081 35.9008 69.6862 43.4033L63.5605 45.0876L68.2993 18.025Z" fill="white"/>
<path d="M77.3422 18.025L83.9688 16.8001C82.1195 23.8688 80.694 30.3888 79.6923 36.3602L86.473 35.3267L85.8951 42.4464C82.402 42.7526 77.9715 43.633 72.6035 45.0876L77.3422 18.025Z" fill="white"/>
<path d="M101.256 17.4508L107.459 18.5226C101.911 28.1942 97.5193 36.9471 94.2831 44.7813L88.35 44.3986L92.4338 35.8626L89.1976 20.4748L96.7103 17.0297C96.6332 18.2036 96.5818 19.6709 96.5562 21.4317C96.5305 23.1925 96.6204 24.9533 96.8258 26.7141L101.256 17.4508Z" fill="white"/>
</g>
<path fill-rule="evenodd" clip-rule="evenodd" d="M208.583 57.3042H197.094V35.429H199.769V54.9146H208.583V57.3042ZM212.351 38.3702H209.798V35.429H212.351V38.3702ZM212.351 57.3042H209.798V40.8826H212.351V57.3042ZM218.307 57.3042H215.754V42.9046H213.384V40.8826H215.754V38.9519C215.754 36.4703 216.818 35.1842 219.28 35.1842H221.134V37.3896H219.949C218.855 37.3896 218.307 37.8185 218.307 38.9519V40.8826H221.103V42.9046H218.307V57.3042ZM232.106 48.3582V49.4003H223.535C223.535 51.9426 223.535 55.7111 226.665 55.7111C229.097 55.7111 229.431 53.1681 229.431 51.9119H231.984C231.984 53.6584 230.981 57.7331 226.513 57.7331C222.501 57.7331 220.86 54.976 220.86 49.3075C220.86 45.2328 221.65 40.4536 226.665 40.4536C231.65 40.4536 232.106 44.8038 232.106 48.3582ZM223.626 46.7652V47.3775H229.431V46.489C229.431 44.6511 228.884 42.4756 226.604 42.4756C223.93 42.4756 223.626 45.7845 223.626 46.7652ZM240.22 55.5277C243.472 55.5277 243.928 52.4636 244.019 49.7978H246.816C246.572 53.9339 244.961 57.7331 240.22 57.7331C234.051 57.7331 233.229 51.8812 233.229 46.3669C233.229 40.8519 234.233 35 240.22 35C244.627 35 246.511 37.5123 246.633 41.8019H243.837C243.746 39.3202 242.986 37.2062 240.22 37.2062C236.512 37.2062 236.025 41.3115 236.025 46.3669C236.025 51.4223 236.512 55.5277 240.22 55.5277ZM250.311 57.3042H247.757V35.429H250.311V42.7519H250.372C251.04 41.4036 252.833 40.4536 254.292 40.4536C258.487 40.4536 258.487 43.6554 258.486 45.62V45.6617V57.3042H255.933V45.9687C255.933 44.7125 255.842 42.6591 253.532 42.6591C252.164 42.6591 250.311 43.609 250.311 45.9687V57.3042ZM265.446 57.7331C260.735 57.7331 259.58 53.7198 259.58 49.0934C259.58 44.4669 260.735 40.4536 265.446 40.4536C270.157 40.4536 271.312 44.4669 271.312 49.0934C271.312 53.7198 270.126 57.7331 265.446 57.7331ZM262.254 49.0934C262.254 52.6478 262.772 55.7111 265.385 55.7111C268.09 55.7111 268.637 52.6478 268.637 49.0934C268.637 45.539 268.151 42.4756 265.385 42.4756C262.802 42.4756 262.254 45.539 262.254 49.0934ZM274.503 38.3702H271.95V35.429H274.503V38.3702ZM274.503 57.3042H271.95V40.8826H274.503V57.3042ZM281.645 40.4536C286.112 40.4536 286.842 44.0073 286.842 45.8766H284.289C284.289 44.2828 283.651 42.4756 281.706 42.4756C280.126 42.4756 278.514 43.2722 278.514 49.2768C278.514 51.3916 278.545 55.7111 281.614 55.7111C283.803 55.7111 284.289 53.3829 284.289 51.6057H286.842C286.842 54.1794 285.566 57.7331 281.492 57.7331C277.481 57.7331 275.84 54.976 275.84 49.3075C275.84 45.2328 276.63 40.4536 281.645 40.4536ZM298.725 48.3582V49.4003H290.155C290.155 51.9426 290.155 55.7111 293.285 55.7111C295.716 55.7111 296.051 53.1681 296.051 51.9119H298.604C298.604 53.6584 297.601 57.7331 293.133 57.7331C289.122 57.7331 287.48 54.976 287.48 49.3075C287.48 45.2328 288.27 40.4536 293.285 40.4536C298.269 40.4536 298.725 44.8038 298.725 48.3582ZM290.246 46.7652V47.3775H296.051V46.489C296.051 44.6511 295.504 42.4756 293.224 42.4756C290.55 42.4756 290.246 45.7845 290.246 46.7652ZM304.652 40.4536C309.393 40.4536 309.606 43.7625 309.606 45.6924H307.053C307.053 43.609 306.505 42.4756 304.652 42.4756C303.831 42.4756 302.008 42.6898 302.008 44.988C302.008 46.7307 303.592 47.2148 305.353 47.753C305.574 47.8203 305.797 47.8884 306.02 47.96C307.965 48.603 310 49.3075 310 52.5864C310 56.0173 307.783 57.7331 304.743 57.7331C299.212 57.7331 299.151 53.597 299.151 51.9119H301.703C301.703 53.9032 302.22 55.7111 304.743 55.7111C305.564 55.7111 307.448 55.3128 307.448 52.9846C307.448 50.9354 305.691 50.3666 303.882 49.7806C303.743 49.7358 303.604 49.6908 303.466 49.6451L303.326 49.5974C301.396 48.9402 299.454 48.2787 299.454 44.988C299.454 41.9239 301.825 40.4536 304.652 40.4536ZM155.608 57.3043H150.501V48.6952L145 35.4291H150.653L153.085 43.5485H153.146L155.638 35.4291H161.109L155.608 48.6952V57.3043ZM171.868 48.9707C171.868 53.934 170.774 57.7332 165.091 57.7332C159.072 57.7332 158.312 54.0261 158.312 49.0628C158.312 44.0995 159.407 40.3003 165.091 40.3003C171.078 40.3003 171.868 44.0074 171.868 48.9707ZM165.121 54.4857C166.64 54.4857 166.944 53.1068 166.944 49.0321C166.944 44.9267 166.64 43.5485 165.121 43.5485C163.662 43.5485 163.236 44.9881 163.236 49.0014C163.236 53.0454 163.662 54.4857 165.121 54.4857ZM180.712 40.7293H185.636V57.3043H180.895V55.3436H180.834C180.135 56.8139 178.706 57.7332 176.883 57.7332C174.087 57.7332 172.597 56.3236 172.597 53.1375V40.7293H177.521V52.0348C177.521 53.2296 178.007 53.934 178.949 53.934C179.892 53.934 180.712 53.1989 180.712 51.5751V40.7293ZM191.836 57.3043H186.912V40.7293H191.654V43.0582H191.715C192.353 41.5872 193.599 40.3003 195.666 40.3003H196.03C196.151 40.3003 196.302 40.3306 196.453 40.3611L196.456 40.3617V45.0188C195.969 44.9267 195.574 44.896 195.088 44.896C193.112 44.896 191.836 45.6926 191.836 47.8987V57.3043Z" fill="white"/>
<defs>
<filter id="filter0_d" x="0.0916343" y="0.749004" width="155.255" height="126.255" filterUnits="userSpaceOnUse" color-interpolation-filters="sRGB">
<feFlood flood-opacity="0" result="BackgroundImageFix"/>
<feColorMatrix in="SourceAlpha" type="matrix" values="0 0 0 0 0 0 0 0 0 0 0 0 0 0 0 0 0 0 127 0"/>
<feOffset dx="4.21912" dy="16.8765"/>
<feGaussianBlur stdDeviation="14.0637"/>
<feColorMatrix type="matrix" values="0 0 0 0 0 0 0 0 0 0 0 0 0 0 0 0 0 0 0.15 0"/>
<feBlend mode="normal" in2="BackgroundImageFix" result="effect1_dropShadow"/>
<feBlend mode="normal" in="SourceGraphic" in2="effect1_dropShadow" result="shape"/>
</filter>
<filter id="filter1_d" x="29.9194" y="48.453" width="94.761" height="40.8782" filterUnits="userSpaceOnUse" color-interpolation-filters="sRGB">
<feFlood flood-opacity="0" result="BackgroundImageFix"/>
<feColorMatrix in="SourceAlpha" type="matrix" values="0 0 0 0 0 0 0 0 0 0 0 0 0 0 0 0 0 0 127 0"/>
<feOffset dy="5.6255"/>
<feGaussianBlur stdDeviation="2.81275"/>
<feColorMatrix type="matrix" values="0 0 0 0 0 0 0 0 0 0 0 0 0 0 0 0 0 0 0.25 0"/>
<feBlend mode="normal" in2="BackgroundImageFix" result="effect1_dropShadow"/>
<feBlend mode="normal" in="SourceGraphic" in2="effect1_dropShadow" result="shape"/>
</filter>
<filter id="filter2_d" x="22.3196" y="15.9197" width="90.765" height="40.8782" filterUnits="userSpaceOnUse" color-interpolation-filters="sRGB">
<feFlood flood-opacity="0" result="BackgroundImageFix"/>
<feColorMatrix in="SourceAlpha" type="matrix" values="0 0 0 0 0 0 0 0 0 0 0 0 0 0 0 0 0 0 127 0"/>
<feOffset dy="5.6255"/>
<feGaussianBlur stdDeviation="2.81275"/>
<feColorMatrix type="matrix" values="0 0 0 0 0 0 0 0 0 0 0 0 0 0 0 0 0 0 0.25 0"/>
<feBlend mode="normal" in2="BackgroundImageFix" result="effect1_dropShadow"/>
<feBlend mode="normal" in="SourceGraphic" in2="effect1_dropShadow" result="shape"/>
</filter>
</defs>
</svg>
