<svg width="40" height="40" viewBox="0 0 40 40" fill="none" xmlns="http://www.w3.org/2000/svg">
<path d="M22.828 20L28.486 14.344C28.6718 14.1582 28.8192 13.9376 28.9198 13.6948C29.0204 13.452 29.0721 13.1918 29.0721 12.929C29.0721 12.6662 29.0204 12.406 28.9198 12.1632C28.8192 11.9204 28.6718 11.6998 28.486 11.514C28.3002 11.3282 28.0796 11.1808 27.8368 11.0802C27.594 10.9796 27.3338 10.9279 27.071 10.9279C26.8082 10.9279 26.548 10.9796 26.3052 11.0802C26.0624 11.1808 25.8418 11.3282 25.656 11.514L20 17.172L14.344 11.514C13.9687 11.1387 13.4597 10.9279 12.929 10.9279C12.3983 10.9279 11.8893 11.1387 11.514 11.514C11.1387 11.8893 10.9279 12.3983 10.9279 12.929C10.9279 13.1918 10.9796 13.452 11.0802 13.6948C11.1808 13.9376 11.3282 14.1582 11.514 14.344L17.172 20L11.514 25.656C11.1387 26.0313 10.9279 26.5403 10.9279 27.071C10.9279 27.6017 11.1387 28.1107 11.514 28.486C11.8893 28.8613 12.3983 29.0721 12.929 29.0721C13.4597 29.0721 13.9687 28.8613 14.344 28.486L20 22.828L25.656 28.486C26.0313 28.8613 26.5403 29.0721 27.071 29.0721C27.6017 29.0721 28.1107 28.8613 28.486 28.486C28.8613 28.1107 29.0721 27.6017 29.0721 27.071C29.0721 26.5403 28.8613 26.0313 28.486 25.656L22.828 20ZM20 40C8.954 40 0 31.046 0 20C0 8.954 8.954 0 20 0C31.046 0 40 8.954 40 20C40 31.046 31.046 40 20 40Z" fill="#ED1B33"/>
</svg>
