<svg width="101" height="100" viewBox="0 0 101 100" fill="none" xmlns="http://www.w3.org/2000/svg">
<path d="M74 79H27V75H74V79Z" fill="#CECCBE"/>
<path d="M73.5 67H78.5V85H73.5V67ZM22.5 67H27.5V85H22.5V67Z" fill="#CECCBE"/>
<path d="M85.5 43V64C85.5 65.657 84.157 67 82.5 67H18.5C16.843 67 15.5 65.657 15.5 64V43C15.5 41.343 16.843 40 18.5 40H82.5C84.157 40 85.5 41.343 85.5 43Z" fill="#FEFDEF"/>
<path d="M49.606 67.5L64.556 40.5H52L37 67.5H49.606ZM85.5 43.5V48.6L75.28 67H62.667L77.459 40.5H82.5C84.157 40.5 85.5 41.843 85.5 43.5ZM38 40.5L23.28 67H18.5C16.843 67 15.5 65.657 15.5 64V58.333L25.417 40.5H38Z" fill="#F9E65C"/>
<path d="M50.5 12C48.6615 12 46.841 12.3621 45.1424 13.0657C43.4439 13.7693 41.9005 14.8005 40.6005 16.1005C39.3005 17.4005 38.2693 18.9439 37.5657 20.6424C36.8621 22.341 36.5 24.1615 36.5 26C36.5 27.8385 36.8621 29.659 37.5657 31.3576C38.2693 33.0561 39.3005 34.5995 40.6005 35.8995C41.9005 37.1995 43.4439 38.2307 45.1424 38.9343C46.841 39.6379 48.6615 40 50.5 40C52.3385 40 54.159 39.6379 55.8576 38.9343C57.5561 38.2307 59.0995 37.1995 60.3995 35.8995C61.6995 34.5995 62.7307 33.0561 63.4343 31.3576C64.1379 29.659 64.5 27.8385 64.5 26C64.5 24.1615 64.1379 22.341 63.4343 20.6424C62.7307 18.9439 61.6995 17.4005 60.3995 16.1005C59.0995 14.8005 57.5561 13.7693 55.8576 13.0657C54.159 12.3621 52.3385 12 50.5 12Z" fill="#F15B6C"/>
<path d="M56.5 24.5H44.5C43.672 24.5 43 25.172 43 26C43 26.828 43.672 27.5 44.5 27.5H56.5C57.328 27.5 58 26.828 58 26C58 25.172 57.328 24.5 56.5 24.5Z" fill="white"/>
<path d="M15.9996 59C15.9176 59 15.8336 58.98 15.7576 58.937C15.5156 58.803 15.4286 58.499 15.5636 58.257L23.3426 44.255C23.4766 44.014 23.7816 43.925 24.0226 44.061C24.2646 44.195 24.3516 44.499 24.2166 44.741L16.4376 58.743C16.3456 58.907 16.1746 59 15.9996 59ZM23.1496 67.743C23.0676 67.743 22.9836 67.723 22.9076 67.68C22.6656 67.546 22.5786 67.242 22.7136 67L37.5626 40.257C37.6966 40.016 38.0006 39.928 38.2426 40.063C38.4846 40.197 38.5716 40.501 38.4366 40.743L23.5876 67.485C23.4966 67.65 23.3256 67.743 23.1496 67.743ZM63.2586 67.52C63.1766 67.52 63.0926 67.5 63.0166 67.457C62.7746 67.323 62.6876 67.019 62.8226 66.777L69.2206 55.273C69.3546 55.032 69.6596 54.944 69.9006 55.079C70.1426 55.213 70.2296 55.517 70.0946 55.759L63.6966 67.263C63.6046 67.427 63.4346 67.52 63.2586 67.52ZM70.7766 54C70.6946 54 70.6106 53.98 70.5346 53.937C70.2926 53.803 70.2056 53.499 70.3406 53.257L71.4616 51.239C71.5956 50.997 71.8996 50.91 72.1416 51.045C72.3836 51.179 72.4706 51.483 72.3356 51.725L71.2146 53.743C71.1236 53.907 70.9526 54 70.7766 54ZM73.5426 49.021C73.4606 49.021 73.3766 49.001 73.3006 48.958C73.0586 48.824 72.9716 48.52 73.1066 48.278L73.6756 47.254C73.8096 47.012 74.1146 46.924 74.3556 47.06C74.5976 47.194 74.6846 47.498 74.5496 47.74L73.9806 48.764C73.8896 48.929 73.7186 49.021 73.5426 49.021ZM75.2296 45.984C75.1476 45.984 75.0636 45.964 74.9876 45.921C74.7456 45.787 74.6586 45.483 74.7936 45.241L77.5626 40.257C77.6966 40.016 78.0016 39.928 78.2426 40.063C78.4846 40.197 78.5716 40.501 78.4366 40.743L75.6676 45.727C75.5766 45.892 75.4056 45.984 75.2296 45.984ZM74.9996 68C74.9176 68 74.8336 67.98 74.7576 67.937C74.5156 67.803 74.4286 67.499 74.5636 67.257L84.5636 49.257C84.6966 49.016 85.0016 48.927 85.2436 49.063C85.4856 49.197 85.5726 49.501 85.4376 49.743L75.4376 67.743C75.3456 67.907 75.1746 68 74.9996 68ZM37.2006 67.649C37.1186 67.649 37.0346 67.629 36.9586 67.586C36.7166 67.452 36.6296 67.148 36.7646 66.906L51.5626 40.257C51.6956 40.016 52.0006 39.928 52.2426 40.063C52.4846 40.197 52.5716 40.501 52.4366 40.743L37.6386 67.392C37.5476 67.557 37.3766 67.649 37.2006 67.649ZM49.1956 67.649C49.1136 67.649 49.0296 67.629 48.9536 67.586C48.7116 67.452 48.6246 67.148 48.7596 66.906L53.0186 59.237C53.1526 58.996 53.4576 58.908 53.6986 59.043C53.9406 59.177 54.0276 59.481 53.8926 59.723L49.6336 67.392C49.5416 67.557 49.3716 67.649 49.1956 67.649ZM56.2266 54.99C56.1446 54.99 56.0606 54.97 55.9846 54.927C55.7426 54.793 55.6556 54.489 55.7906 54.247L63.5626 40.257C63.6966 40.016 64.0016 39.928 64.2426 40.063C64.4846 40.197 64.5716 40.501 64.4366 40.743L56.6646 54.733C56.5726 54.897 56.4026 54.99 56.2266 54.99ZM56.4996 28H44.4996C43.3966 28 42.4996 27.103 42.4996 26C42.4996 24.897 43.3966 24 44.4996 24H56.4996C57.6026 24 58.4996 24.897 58.4996 26C58.4996 27.103 57.6026 28 56.4996 28ZM44.4996 25C43.9486 25 43.4996 25.449 43.4996 26C43.4996 26.551 43.9486 27 44.4996 27H56.4996C57.0506 27 57.4996 26.551 57.4996 26C57.4996 25.449 57.0506 25 56.4996 25H44.4996ZM61.9996 78H50.9996C50.7236 78 50.4996 78.224 50.4996 78.5C50.4996 78.776 50.7236 79 50.9996 79H61.9996C62.2756 79 62.4996 78.776 62.4996 78.5C62.4996 78.224 62.2756 78 61.9996 78ZM66.9996 78H64.9996C64.7236 78 64.4996 78.224 64.4996 78.5C64.4996 78.776 64.7236 79 64.9996 79H66.9996C67.2756 79 67.4996 78.776 67.4996 78.5C67.4996 78.224 67.2756 78 66.9996 78Z" fill="#1F212B"/>
<path d="M82.5 39H57.951C62.454 36.409 65.5 31.558 65.5 26C65.5 17.729 58.771 11 50.5 11C42.229 11 35.5 17.729 35.5 26C35.5 31.558 38.546 36.409 43.049 39H18.5C16.294 39 14.5 40.794 14.5 43V64C14.5 66.206 16.294 68 18.5 68H21.5V85C21.5 85.552 21.948 86 22.5 86H27.5C28.052 86 28.5 85.552 28.5 85V79H48C48.276 79 48.5 78.776 48.5 78.5C48.5 78.224 48.276 78 48 78H28.5V75H72.5V78H69C68.724 78 68.5 78.224 68.5 78.5C68.5 78.776 68.724 79 69 79H72.5V85C72.5 85.552 72.948 86 73.5 86H78.5C79.052 86 79.5 85.552 79.5 85V68H82.5C84.706 68 86.5 66.206 86.5 64V43C86.5 40.794 84.706 39 82.5 39ZM37.5 26C37.5 18.832 43.332 13 50.5 13C57.668 13 63.5 18.832 63.5 26C63.5 33.168 57.668 39 50.5 39C43.332 39 37.5 33.168 37.5 26ZM26.5 84H23.5V68H26.5V84ZM72.5 74H28.5V68H72.5V74ZM77.5 84H74.5V68H77.5V84ZM84.5 64C84.5 65.103 83.603 66 82.5 66H78.5H73.5H27.5H22.5H18.5C17.397 66 16.5 65.103 16.5 64V43C16.5 41.897 17.397 41 18.5 41H82.5C83.603 41 84.5 41.897 84.5 43V64Z" fill="#1F212B"/>
</svg>
