<svg width="120" height="120" viewBox="0 0 120 120" fill="none" xmlns="http://www.w3.org/2000/svg">
<path d="M80.4882 68.4847L77.9762 68.8767C78.7533 65.3602 81.1523 62.18 83.9467 60.5667C87.6071 58.4533 90.1095 60.0362 90.0919 63.6366C90.0756 66.9683 87.9376 70.9356 85.2218 72.9725L85.209 75.5788L82.0913 77.3788L82.1209 71.3199C82.4553 71.234 82.9283 71.0413 83.4479 70.7413C85.5726 69.5146 86.9063 67.5523 86.9163 65.5102C86.9259 63.5354 85.6733 63.0395 83.8258 64.1062C82.2438 65.0195 81.0616 66.5996 80.4882 68.4847Z" fill="white"/>
<path d="M85.8329 79.8538C85.826 81.2778 84.8389 82.9864 83.6149 83.6931C82.3909 84.3997 81.415 83.8245 81.422 82.4004C81.4289 80.9764 82.416 79.2678 83.64 78.5611C84.864 77.8544 85.8399 78.4297 85.8329 79.8538Z" fill="white"/>
<path d="M30.04 61.8766L32.566 64.3912C33.119 63.1595 34.2894 62.9394 35.8713 63.8528C37.7188 64.9194 38.9875 66.8686 39.0037 68.8434C39.0205 70.8854 37.7024 71.3144 35.5777 70.0877C35.0581 69.7877 34.584 69.4338 34.2483 69.133L34.298 75.1918L37.4156 76.9918L37.3943 74.3855C40.104 75.482 42.2061 73.9681 42.1788 70.6365C42.1493 67.0361 39.6071 62.5467 35.9467 60.4333C33.1523 58.82 30.7769 59.2402 30.04 61.8766Z" fill="white"/>
<path d="M35.916 83.3059C37.14 84.0126 38.1121 83.4373 38.1004 82.0133C38.0887 80.5893 37.0979 78.8807 35.8739 78.1741C34.6499 77.4674 33.6778 78.0426 33.6895 79.4666C33.7011 80.8907 34.692 82.5992 35.916 83.3059Z" fill="white"/>
<path d="M60.4145 28.0844L58.8813 25.7951C62.0785 24.4693 65.7929 24.9747 68.4426 26.816C71.9135 29.2281 71.8582 32.6908 68.9622 34.8301C66.2823 36.8097 62.0633 37.0381 59.112 35.5294L57.0157 37.078L54.0594 35.0236L58.9329 31.4235C59.164 31.708 59.5481 32.0679 60.0408 32.4103C62.0554 33.8103 64.2763 33.9749 65.9188 32.7616C67.5073 31.5882 67.2972 30.0324 65.5453 28.815C64.0453 27.7726 62.2045 27.5313 60.4145 28.0844Z" fill="white"/>
<path d="M53.8899 40.266C52.7445 41.1121 50.8953 41.1438 49.7347 40.3373C48.5741 39.5308 48.562 38.2055 49.7074 37.3594C50.8528 36.5132 52.702 36.4815 53.8626 37.288C55.0232 38.0946 55.0354 39.4198 53.8899 40.266Z" fill="white"/>
<path fill-rule="evenodd" clip-rule="evenodd" d="M60 5.01038C57.371 5.01038 54.7882 5.70134 52.5105 7.01394L52.5 7.01999L17.5193 27.0089L17.5 27.02C15.65 28.0881 14.0544 29.5361 12.8151 31.2623C12.5135 31.564 12.2458 31.9097 12.022 32.2965C11.8293 32.6297 11.6793 32.9759 11.5703 33.3287C10.5417 35.3962 10.0024 37.6774 10 39.995V80.0052C10.0027 82.6357 10.6971 85.2192 12.0135 87.4965C13.3299 89.7739 15.222 91.665 17.5 92.9802L17.5193 92.9913L52.5 112.98L52.5114 112.987C54.097 113.9 55.8303 114.513 57.6241 114.801C58.3308 115.183 59.14 115.4 60 115.4C60.86 115.4 61.6692 115.183 62.3759 114.801C64.1697 114.513 65.903 113.9 67.4886 112.987L67.5 112.98L102.481 92.9913L102.5 92.9802C104.778 91.665 106.67 89.7739 107.987 87.4965C109.303 85.2192 109.997 82.6357 110 80.0052V39.995C109.998 37.6776 109.458 35.3967 108.43 33.3295C108.321 32.9764 108.171 32.63 107.978 32.2965C107.754 31.9095 107.486 31.5637 107.185 31.2618C105.945 29.5358 104.35 28.088 102.5 27.02L102.481 27.0089L67.5 7.01999L67.4895 7.01394C65.2118 5.70134 62.629 5.01038 60 5.01038ZM97.5 84.32L65 102.891V62.9342L100 42.6879V79.995C99.9991 80.8718 99.7676 81.733 99.3288 82.4921C98.8916 83.2486 98.2637 83.8773 97.5078 84.3155L97.5 84.32ZM55 102.891V62.9341L20 42.6878V79.9973C20.0013 80.8733 20.2327 81.7336 20.6711 82.4921C21.1084 83.2486 21.7363 83.8773 22.4922 84.3155L22.5 84.32L55 102.891ZM94.8051 34.1403L62.5193 15.6913L62.5 15.6802C61.7399 15.2414 60.8777 15.0104 60 15.0104C59.1223 15.0104 58.2601 15.2414 57.5 15.6802L57.4807 15.6913L25.1949 34.1403L60.0001 54.2739L94.8051 34.1403Z" fill="white"/>
</svg>
