<svg width="121" height="120" viewBox="0 0 121 120" fill="none" xmlns="http://www.w3.org/2000/svg">
<path d="M89.1408 28.6589V27.2077C89.1408 25.2507 86.7711 24.2612 85.3888 25.6465L80.7372 30.33C79.8595 31.2095 79.8595 32.6168 80.7372 33.4744L85.4108 38.0479C86.7931 39.4112 89.1408 38.4217 89.1408 36.4648V33.1005C95.3723 34.156 100.112 39.5651 100.112 46.0957C100.112 52.0985 96.1183 57.1339 90.6329 58.739C90.1951 58.8764 89.8134 59.1518 89.5445 59.5243C89.2757 59.8967 89.1341 60.3463 89.1408 60.8059V60.8499C89.1408 62.2791 90.4793 63.3566 91.8397 62.9608C95.4907 61.9078 98.7006 59.6927 100.985 56.6502C103.268 53.6077 104.502 49.903 104.5 46.0957C104.5 37.1244 97.8078 29.7363 89.1408 28.6589Z" fill="#006CAB"/>
<path d="M32.8592 91.3411L32.8592 92.7923C32.8592 94.7493 35.2288 95.7388 36.6112 94.3535L41.2628 89.67C42.1405 88.7905 42.1405 87.3832 41.2628 86.5257L36.5892 81.9521C35.2069 80.5888 32.8592 81.5783 32.8592 83.5352V86.8995C26.6277 85.844 21.8883 80.4349 21.8883 73.9043C21.8883 67.9015 25.8817 62.8661 31.3671 61.261C31.8049 61.1236 32.1866 60.8482 32.4555 60.4757C32.7243 60.1033 32.8659 59.6537 32.8592 59.1941V59.1501C32.8592 57.7209 31.5207 56.6434 30.1603 57.0392C26.5093 58.0922 23.2994 60.3073 21.0155 63.3498C18.7315 66.3923 17.4976 70.097 17.5 73.9043C17.5 82.8756 24.1922 90.2637 32.8592 91.3411Z" fill="#006CAB"/>
<path fill-rule="evenodd" clip-rule="evenodd" d="M70.9211 36.9203H51.0789C50.2019 36.9203 49.3607 37.2677 48.7405 37.886C48.1203 38.5043 47.7719 39.3429 47.7719 40.2174V79.7826C47.7719 80.6571 48.1203 81.4957 48.7405 82.114C49.3607 82.7323 50.2019 83.0797 51.0789 83.0797H70.9211C71.7981 83.0797 72.6393 82.7323 73.2595 82.114C73.8797 81.4957 74.2281 80.6571 74.2281 79.7826V40.2174C74.2281 39.3429 73.8797 38.5043 73.2595 37.886C72.6393 37.2677 71.7981 36.9203 70.9211 36.9203ZM51.0789 33.6232C49.3248 33.6232 47.6425 34.3179 46.4021 35.5546C45.1617 36.7912 44.4649 38.4685 44.4649 40.2174V79.7826C44.4649 81.5315 45.1617 83.2088 46.4021 84.4454C47.6425 85.6821 49.3248 86.3768 51.0789 86.3768H70.9211C72.6752 86.3768 74.3575 85.6821 75.5979 84.4454C76.8383 83.2088 77.5351 81.5315 77.5351 79.7826V40.2174C77.5351 38.4685 76.8383 36.7912 75.5979 35.5546C74.3575 34.3179 72.6752 33.6232 70.9211 33.6232H51.0789Z" fill="#006CAB"/>
<path fill-rule="evenodd" clip-rule="evenodd" d="M61 79.7826C61.8771 79.7826 62.7182 79.4352 63.3384 78.8169C63.9586 78.1986 64.307 77.36 64.307 76.4855C64.307 75.6111 63.9586 74.7724 63.3384 74.1541C62.7182 73.5358 61.8771 73.1884 61 73.1884C60.1229 73.1884 59.2818 73.5358 58.6616 74.1541C58.0414 74.7724 57.693 75.6111 57.693 76.4855C57.693 77.36 58.0414 78.1986 58.6616 78.8169C59.2818 79.4352 60.1229 79.7826 61 79.7826Z" fill="#006CAB"/>
</svg>
