<svg width="24" height="24" viewBox="0 0 24 24" fill="none" xmlns="http://www.w3.org/2000/svg">
<path d="M20.9459 19.7062L15.1027 13.863C16.0094 12.6907 16.4999 11.2575 16.4999 9.74997C16.4999 7.94548 15.7957 6.25349 14.5222 4.97774C13.2487 3.702 11.5522 3 9.74997 3C7.94773 3 6.25124 3.70425 4.97774 4.97774C3.702 6.25124 3 7.94548 3 9.74997C3 11.5522 3.70425 13.2487 4.97774 14.5222C6.25124 15.7979 7.94548 16.4999 9.74997 16.4999C11.2575 16.4999 12.6885 16.0094 13.8607 15.1049L19.7039 20.9459C19.7211 20.9631 19.7414 20.9767 19.7638 20.9859C19.7862 20.9952 19.8102 21 19.8344 21C19.8587 21 19.8827 20.9952 19.9051 20.9859C19.9274 20.9767 19.9478 20.9631 19.9649 20.9459L20.9459 19.9672C20.9631 19.95 20.9767 19.9297 20.9859 19.9073C20.9952 19.8849 21 19.8609 21 19.8367C21 19.8124 20.9952 19.7884 20.9859 19.766C20.9767 19.7437 20.9631 19.7233 20.9459 19.7062ZM13.314 13.314C12.36 14.2657 11.0955 14.7899 9.74997 14.7899C8.40448 14.7899 7.13998 14.2657 6.18599 13.314C5.23424 12.36 4.70999 11.0955 4.70999 9.74997C4.70999 8.40448 5.23424 7.13773 6.18599 6.18599C7.13998 5.23424 8.40448 4.70999 9.74997 4.70999C11.0955 4.70999 12.3622 5.23199 13.314 6.18599C14.2657 7.13998 14.7899 8.40448 14.7899 9.74997C14.7899 11.0955 14.2657 12.3622 13.314 13.314Z" fill="#006CAB"/>
</svg>
