<svg width="36" height="35" viewBox="0 0 36 35" fill="none" xmlns="http://www.w3.org/2000/svg">
<path d="M33.2381 14.5714H30.0362C29.732 13.2877 29.2233 12.0612 28.5295 10.939L30.7952 8.67333C30.9722 8.49644 31.1126 8.28643 31.2083 8.05528C31.3041 7.82413 31.3534 7.57638 31.3534 7.32618C31.3534 7.07598 31.3041 6.82823 31.2083 6.59708C31.1126 6.36594 30.9722 6.15592 30.7952 5.97904L29.4486 4.63237C29.0914 4.27528 28.607 4.07468 28.1019 4.07468C27.5968 4.07468 27.1124 4.27528 26.7552 4.63237L24.4895 6.89809C23.3672 6.20478 22.1408 5.69638 20.8571 5.39237V2.19047C20.8571 1.68529 20.6565 1.20081 20.2993 0.843597C19.942 0.486385 19.4576 0.285706 18.9524 0.285706L17.0476 0.285706C16.5424 0.285706 16.058 0.486385 15.7008 0.843597C15.3435 1.20081 15.1429 1.68529 15.1429 2.19047V5.39237C13.8591 5.69654 12.6326 6.20526 11.5105 6.89904L9.24572 4.63333C8.88852 4.27624 8.40413 4.07564 7.89905 4.07564C7.39398 4.07564 6.90958 4.27624 6.55238 4.63333L5.20477 5.97999C4.84773 6.33735 4.64709 6.82178 4.64691 7.32694C4.64673 7.83209 4.84703 8.31667 5.20381 8.67428L7.46953 10.94C6.77622 12.0619 6.26783 13.2881 5.96381 14.5714H2.76191C2.25673 14.5714 1.77225 14.7721 1.41504 15.1293C1.05783 15.4865 0.857147 15.971 0.857147 16.4762L0.857147 18.3809C0.857147 18.8861 1.05783 19.3706 1.41504 19.7278C1.77225 20.085 2.25673 20.2857 2.76191 20.2857H5.96381C6.26816 21.5691 6.77687 22.7952 7.47048 23.9171L5.20477 26.1828C4.46191 26.9257 4.46191 28.1333 5.20572 28.8771L6.55238 30.2238C7.29524 30.9667 8.50191 30.9667 9.24572 30.2238L11.5114 27.9581C12.6334 28.6523 13.8599 29.161 15.1438 29.4648V32.6667C15.1438 33.1718 15.3445 33.6563 15.7017 34.0135C16.0589 34.3707 16.5434 34.5714 17.0486 34.5714H18.9533C19.4585 34.5714 19.943 34.3707 20.3002 34.0135C20.6574 33.6563 20.8581 33.1718 20.8581 32.6667V29.4648C22.1415 29.1604 23.3676 28.6517 24.4895 27.9581L26.7552 30.2238C27.1124 30.5809 27.5968 30.7815 28.1019 30.7815C28.607 30.7815 29.0914 30.5809 29.4486 30.2238L30.7952 28.8771C30.9722 28.7003 31.1126 28.4902 31.2083 28.2591C31.3041 28.0279 31.3534 27.7802 31.3534 27.53C31.3534 27.2798 31.3041 27.032 31.2083 26.8009C31.1126 26.5697 30.9722 26.3597 30.7952 26.1828L28.5295 23.9171C29.2237 22.7952 29.7324 21.5686 30.0362 20.2848H33.2381C33.7433 20.2848 34.2278 20.0841 34.585 19.7269C34.9422 19.3696 35.1429 18.8852 35.1429 18.38V16.4752C35.1426 15.9702 34.9418 15.486 34.5846 15.129C34.2274 14.772 33.7431 14.5714 33.2381 14.5714ZM18 25.0476C15.9793 25.0476 14.0414 24.2449 12.6125 22.816C11.1837 21.3872 10.381 19.4493 10.381 17.4286C10.381 15.4079 11.1837 13.4699 12.6125 12.0411C14.0414 10.6122 15.9793 9.80952 18 9.80952C20.0207 9.80952 21.9586 10.6122 23.3875 12.0411C24.8163 13.4699 25.6191 15.4079 25.6191 17.4286C25.6191 19.4493 24.8163 21.3872 23.3875 22.816C21.9586 24.2449 20.0207 25.0476 18 25.0476Z" fill="white"/>
</svg>
