<svg width="30" height="31" viewBox="0 0 30 31" fill="none" xmlns="http://www.w3.org/2000/svg">
<path d="M27 14.3677C27 14.6631 26.9418 14.9557 26.8287 15.2287C26.7157 15.5017 26.5499 15.7497 26.341 15.9587C26.1321 16.1676 25.884 16.3333 25.611 16.4464C25.3381 16.5595 25.0455 16.6177 24.75 16.6177C24.4545 16.6177 24.1619 16.5595 23.889 16.4464C23.616 16.3333 23.3679 16.1676 23.159 15.9587C22.9501 15.7497 22.7843 15.5017 22.6713 15.2287C22.5582 14.9557 22.5 14.6631 22.5 14.3677L22.5 5.36768C22.5 4.77094 22.7371 4.19864 23.159 3.77669C23.581 3.35473 24.1533 3.11768 24.75 3.11768C25.3467 3.11768 25.919 3.35473 26.341 3.77669C26.7629 4.19864 27 4.77094 27 5.36768L27 14.3677ZM21 14.6182L21 6.47318C21.0003 5.91568 20.8452 5.36914 20.5521 4.89487C20.2591 4.42061 19.8397 4.03738 19.341 3.78818L19.266 3.75068C18.4337 3.33468 17.516 3.11797 16.5855 3.11767L8.4615 3.11767C7.76771 3.1174 7.09527 3.3576 6.55867 3.79738C6.02207 4.23717 5.65449 4.84934 5.5185 5.52967L3.7185 14.5297C3.63152 14.9649 3.64217 15.4139 3.7497 15.8445C3.85722 16.2751 4.05893 16.6765 4.3403 17.0197C4.62166 17.3629 4.97567 17.6394 5.37681 17.8292C5.77794 18.0191 6.2162 18.1176 6.66 18.1177L12 18.1177L12 24.1177C12 24.9133 12.3161 25.6764 12.8787 26.239C13.4413 26.8016 14.2044 27.1177 15 27.1177C15.3978 27.1177 15.7794 26.9596 16.0607 26.6783C16.342 26.397 16.5 26.0155 16.5 25.6177L16.5 24.6172C16.5 23.319 16.9211 22.0558 17.7 21.0172L19.8 18.2182C20.5789 17.1796 21 15.9164 21 14.6182Z" fill="white"/>
</svg>
