<svg width="30" height="31" viewBox="0 0 30 31" fill="none" xmlns="http://www.w3.org/2000/svg">
<path d="M3 15.8677C3 15.5722 3.0582 15.2796 3.17127 15.0066C3.28434 14.7337 3.45008 14.4856 3.65901 14.2767C3.86794 14.0678 4.11598 13.902 4.38896 13.7889C4.66194 13.6759 4.95453 13.6177 5.25 13.6177C5.54547 13.6177 5.83806 13.6759 6.11104 13.7889C6.38402 13.902 6.63206 14.0678 6.84099 14.2767C7.04992 14.4856 7.21566 14.7337 7.32873 15.0066C7.4418 15.2796 7.5 15.5722 7.5 15.8677V24.8677C7.5 25.4644 7.26295 26.0367 6.84099 26.4587C6.41903 26.8806 5.84674 27.1177 5.25 27.1177C4.65326 27.1177 4.08097 26.8806 3.65901 26.4587C3.23705 26.0367 3 25.4644 3 24.8677V15.8677ZM9 15.6172V23.7622C8.99974 24.3197 9.15483 24.8662 9.44787 25.3405C9.74091 25.8147 10.1603 26.198 10.659 26.4472L10.734 26.4847C11.5663 26.9007 12.484 27.1174 13.4145 27.1177H21.5385C22.2323 27.118 22.9047 26.8777 23.4413 26.438C23.9779 25.9982 24.3455 25.386 24.4815 24.7057L26.2815 15.7057C26.3685 15.2705 26.3578 14.8214 26.2503 14.3908C26.1428 13.9603 25.9411 13.5589 25.6597 13.2157C25.3783 12.8725 25.0243 12.596 24.6232 12.4061C24.2221 12.2162 23.7838 12.1177 23.34 12.1177H18V6.11768C18 5.32203 17.6839 4.55896 17.1213 3.99636C16.5587 3.43375 15.7956 3.11768 15 3.11768C14.6022 3.11768 14.2206 3.27571 13.9393 3.55702C13.658 3.83832 13.5 4.21985 13.5 4.61768V5.61818C13.5 6.9164 13.0789 8.1796 12.3 9.21818L10.2 12.0172C9.42107 13.0558 9 14.319 9 15.6172Z" fill="white"/>
</svg>
