<svg width="165" height="23" viewBox="0 0 165 23" fill="none" xmlns="http://www.w3.org/2000/svg">
<mask id="mask0" mask-type="alpha" maskUnits="userSpaceOnUse" x="52" y="0" width="113" height="23">
<path d="M52.0938 0H165V22.7331H52.0938V0Z" fill="white"/>
</mask>
<g mask="url(#mask0)">
<path fill-rule="evenodd" clip-rule="evenodd" d="M52.0938 22.3041H63.5823V19.9146H54.7687V0.428954H52.0938V22.3041ZM64.7973 3.37025H67.3505V0.428954H64.7973V3.37025ZM64.7973 22.3041H67.3505V5.88259H64.7973V22.3041ZM70.754 22.3041H73.3072V7.90459H76.1032V5.88259H73.3072V3.95193C73.3072 2.81853 73.8545 2.38957 74.9484 2.38957H76.1337V0.184151H74.2793C71.8182 0.184151 70.754 1.47028 70.754 3.95193V5.88259H68.3835V7.90459H70.754V22.3041ZM87.1054 14.4003V13.3582C87.1054 9.80383 86.6494 5.45364 81.6648 5.45364C76.6498 5.45364 75.8596 10.2328 75.8596 14.3075C75.8596 19.976 77.5009 22.7331 81.5126 22.7331C85.981 22.7331 86.9836 18.6584 86.9836 16.9119H84.4311C84.4311 18.1681 84.097 20.7111 81.6648 20.7111C78.5346 20.7111 78.5346 16.9426 78.5346 14.4003H87.1054ZM78.626 12.3776V11.7652C78.626 10.7845 78.9297 7.47564 81.6039 7.47564C83.8838 7.47564 84.4311 9.6511 84.4311 11.489V12.3776H78.626ZM99.0188 14.7978C98.9274 17.4636 98.4722 20.5277 95.2202 20.5277C91.5122 20.5277 91.025 16.4223 91.025 11.3669C91.025 6.31154 91.5122 2.20615 95.2202 2.20615C97.9858 2.20615 98.7455 4.32023 98.8368 6.80188H101.633C101.511 2.51234 99.627 0 95.2202 0C89.2323 0 88.229 5.8519 88.229 11.3669C88.229 16.8812 89.0504 22.7331 95.2202 22.7331C99.9612 22.7331 101.572 18.9339 101.816 14.7978H99.0188ZM102.757 22.3041H105.31V10.9687C105.31 8.60904 107.164 7.65906 108.532 7.65906C110.842 7.65906 110.933 9.71248 110.933 10.9687V22.3041H113.486V10.6617C113.486 8.70112 113.517 5.45364 109.292 5.45364C107.833 5.45364 106.04 6.40362 105.371 7.75186H105.31V0.428954H102.757V22.3041ZM114.58 14.0934C114.58 18.7198 115.735 22.7331 120.446 22.7331C125.126 22.7331 126.312 18.7198 126.312 14.0934C126.312 9.46695 125.157 5.45364 120.446 5.45364C115.735 5.45364 114.58 9.46695 114.58 14.0934ZM120.384 20.7111C117.772 20.7111 117.254 17.6478 117.254 14.0934C117.254 10.539 117.802 7.47564 120.384 7.47564C123.151 7.47564 123.637 10.539 123.637 14.0934C123.637 17.6478 123.09 20.7111 120.384 20.7111ZM126.949 3.37025H129.503V0.428954H126.949V3.37025ZM126.949 22.3041H129.503V5.88259H126.949V22.3041ZM141.841 10.8766C141.841 9.0073 141.112 5.45364 136.644 5.45364C131.629 5.45364 130.839 10.2328 130.839 14.3075C130.839 19.976 132.481 22.7331 136.492 22.7331C140.566 22.7331 141.841 19.1794 141.841 16.6057H139.288C139.288 18.3829 138.803 20.7111 136.614 20.7111C133.545 20.7111 133.514 16.3916 133.514 14.2768C133.514 8.27216 135.126 7.47564 136.705 7.47564C138.65 7.47564 139.288 9.2828 139.288 10.8766H141.841ZM153.725 14.4003V13.3582C153.725 9.80383 153.269 5.45364 148.285 5.45364C143.27 5.45364 142.479 10.2328 142.479 14.3075C142.479 19.976 144.121 22.7331 148.133 22.7331C152.601 22.7331 153.604 18.6584 153.604 16.9119H151.051C151.051 18.1681 150.716 20.7111 148.285 20.7111C145.154 20.7111 145.154 16.9426 145.154 14.4003H153.725ZM145.246 12.3776V11.7652C145.246 10.7845 145.549 7.47564 148.224 7.47564C150.504 7.47564 151.051 9.6511 151.051 11.489V12.3776H145.246ZM164.606 10.6924C164.606 8.7625 164.392 5.45364 159.651 5.45364C156.825 5.45364 154.454 6.92392 154.454 9.98798C154.454 13.3582 156.491 13.9706 158.465 14.6451C160.412 15.2882 162.448 15.7785 162.448 17.9846C162.448 20.3128 160.563 20.7111 159.743 20.7111C157.22 20.7111 156.703 18.9032 156.703 16.9119H154.151C154.151 18.597 154.212 22.7331 159.743 22.7331C162.782 22.7331 165 21.0173 165 17.5864C165 14.3075 162.965 13.603 161.019 12.96C159.013 12.3162 157.008 11.9486 157.008 9.98798C157.008 7.68975 158.831 7.47564 159.651 7.47564C161.505 7.47564 162.052 8.60904 162.052 10.6924H164.606Z" fill="black"/>
</g>
<mask id="mask1" mask-type="alpha" maskUnits="userSpaceOnUse" x="0" y="0" width="52" height="23">
<path d="M0 0.429077H51.4556V22.7332H0V0.429077Z" fill="white"/>
</mask>
<g mask="url(#mask1)">
<path fill-rule="evenodd" clip-rule="evenodd" d="M5.5012 22.3043H10.6076V13.6952L16.1083 0.429077H10.6373L8.14572 8.54851H8.08483L5.65271 0.429077H-0.000244141L5.5012 13.6952V22.3043ZM20.0903 22.7332C25.7737 22.7332 26.8676 18.934 26.8676 13.9707C26.8676 9.00743 26.0774 5.3003 20.0903 5.3003C14.4069 5.3003 13.3123 9.0995 13.3123 14.0628C13.3123 19.0261 14.072 22.7332 20.0903 22.7332ZM21.9439 14.0321C21.9439 18.1068 21.6402 19.4857 20.1207 19.4857C18.6615 19.4857 18.2359 18.0454 18.2359 14.0014C18.2359 9.9881 18.6615 8.54851 20.1207 8.54851C21.6402 8.54851 21.9439 9.92672 21.9439 14.0321ZM40.6353 5.72925H35.7117V16.5751C35.7117 18.1989 34.8918 18.934 33.9486 18.934C33.007 18.934 32.5205 18.2296 32.5205 17.0348V5.72925H27.5969V18.1375C27.5969 21.3236 29.0866 22.7332 31.8826 22.7332C33.7058 22.7332 35.1346 21.8139 35.8334 20.3436H35.8943V22.3043H40.6353V5.72925ZM41.9119 22.3043H46.8356V12.8987C46.8356 10.6925 48.1122 9.89602 50.0876 9.89602C50.574 9.89602 50.9691 9.92672 51.4555 10.0188V5.36168C51.3033 5.33099 51.1518 5.3003 51.0293 5.3003H50.6654C48.5986 5.3003 47.3525 6.58716 46.7145 8.05817H46.6536V5.72925H41.9119V22.3043Z" fill="#ED1B33"/>
</g>
</svg>
