<svg width="195" height="46" viewBox="0 0 195 46" fill="none" xmlns="http://www.w3.org/2000/svg">
<mask id="mask0" mask-type="alpha" maskUnits="userSpaceOnUse" x="61" y="0" width="134" height="27">
<path d="M61.5654 0H195V26.678H61.5654V0Z" fill="white"/>
</mask>
<g mask="url(#mask0)">
<path fill-rule="evenodd" clip-rule="evenodd" d="M61.5654 26.1746H75.1428V23.3704H64.7268V0.503391H61.5654V26.1746ZM76.5787 3.95509H79.5961V0.503391H76.5787V3.95509ZM76.5787 26.1746H79.5961V6.90341H76.5787V26.1746ZM83.6185 26.1746H86.6358V9.27629H89.9402V6.90341H86.6358V4.63772C86.6358 3.30763 87.2827 2.80424 88.5755 2.80424H89.9762V0.216107H87.7847C84.8761 0.216107 83.6185 1.72542 83.6185 4.63772V6.90341H80.817V9.27629H83.6185V26.1746ZM102.943 16.8992V15.6763C102.943 11.5051 102.404 6.40002 96.5131 6.40002C90.5862 6.40002 89.6524 12.0085 89.6524 16.7903C89.6524 23.4424 91.592 26.678 96.3331 26.678C101.614 26.678 102.799 21.8962 102.799 19.8467H99.7823C99.7823 21.3208 99.3874 24.3051 96.5131 24.3051C92.8137 24.3051 92.8137 19.8827 92.8137 16.8992H102.943ZM92.9217 14.5255V13.8068C92.9217 12.656 93.2806 8.7729 96.4411 8.7729C99.1355 8.7729 99.7823 11.3259 99.7823 13.4827V14.5255H92.9217ZM117.022 17.3657C116.914 20.4941 116.376 24.0899 112.533 24.0899C108.151 24.0899 107.575 19.2721 107.575 13.3394C107.575 7.4068 108.151 2.58899 112.533 2.58899C115.801 2.58899 116.699 5.06993 116.807 7.98222H120.112C119.968 2.94831 117.741 0 112.533 0C105.456 0 104.271 6.86739 104.271 13.3394C104.271 19.8106 105.241 26.678 112.533 26.678C118.136 26.678 120.04 22.2195 120.327 17.3657H117.022ZM121.44 26.1746H124.458V12.8721C124.458 10.103 126.648 8.98815 128.265 8.98815C130.995 8.98815 131.103 11.3979 131.103 12.8721V26.1746H134.12V12.5119C134.12 10.211 134.156 6.40002 129.163 6.40002C127.439 6.40002 125.32 7.51485 124.53 9.09706H124.458V0.503391H121.44V26.1746ZM135.413 16.539C135.413 21.9683 136.778 26.678 142.345 26.678C147.876 26.678 149.278 21.9683 149.278 16.539C149.278 11.1098 147.912 6.40002 142.345 6.40002C136.778 6.40002 135.413 11.1098 135.413 16.539ZM142.273 24.3051C139.185 24.3051 138.573 20.7102 138.573 16.539C138.573 12.3678 139.22 8.7729 142.273 8.7729C145.542 8.7729 146.117 12.3678 146.117 16.539C146.117 20.7102 145.47 24.3051 142.273 24.3051ZM150.031 3.95509H153.048V0.503391H150.031V3.95509ZM150.031 26.1746H153.048V6.90341H150.031V26.1746ZM167.631 12.764C167.631 10.5704 166.769 6.40002 161.489 6.40002C155.562 6.40002 154.628 12.0085 154.628 16.7903C154.628 23.4424 156.568 26.678 161.309 26.678C166.123 26.678 167.631 22.5077 167.631 19.4873H164.613C164.613 21.5729 164.039 24.3051 161.453 24.3051C157.826 24.3051 157.79 19.2361 157.79 16.7543C157.79 9.70765 159.694 8.7729 161.561 8.7729C163.86 8.7729 164.613 10.8937 164.613 12.764H167.631ZM181.675 16.8992V15.6763C181.675 11.5051 181.136 6.40002 175.245 6.40002C169.319 6.40002 168.385 12.0085 168.385 16.7903C168.385 23.4424 170.325 26.678 175.066 26.678C180.346 26.678 181.532 21.8962 181.532 19.8467H178.515C178.515 21.3208 178.119 24.3051 175.245 24.3051C171.546 24.3051 171.546 19.8827 171.546 16.8992H181.675ZM171.654 14.5255V13.8068C171.654 12.656 172.013 8.7729 175.173 8.7729C177.868 8.7729 178.515 11.3259 178.515 13.4827V14.5255H171.654ZM194.534 12.5479C194.534 10.2831 194.282 6.40002 188.679 6.40002C185.339 6.40002 182.536 8.12544 182.536 11.7212C182.536 15.6763 184.944 16.3949 187.277 17.1865C189.578 17.9411 191.984 18.5166 191.984 21.1056C191.984 23.8378 189.757 24.3051 188.787 24.3051C185.805 24.3051 185.195 22.1835 185.195 19.8467H182.178C182.178 21.8242 182.25 26.678 188.787 26.678C192.379 26.678 195 24.6645 195 20.6382C195 16.7903 192.595 15.9636 190.296 15.2089C187.924 14.4534 185.554 14.0221 185.554 11.7212C185.554 9.02417 187.709 8.7729 188.679 8.7729C190.87 8.7729 191.516 10.103 191.516 12.5479H194.534Z" fill="black"/>
</g>
<mask id="mask1" mask-type="alpha" maskUnits="userSpaceOnUse" x="0" y="0" width="61" height="27">
<path d="M0 0.503632H60.8112V26.6783H0V0.503632Z" fill="white"/>
</mask>
<g mask="url(#mask1)">
<path fill-rule="evenodd" clip-rule="evenodd" d="M6.5017 26.1749H12.5365V16.0719L19.0373 0.503632H12.5716L9.62704 10.032H9.55508L6.68076 0.503632H0L6.5017 16.0719V26.1749ZM23.7433 26.6783C30.4601 26.6783 31.7529 22.2198 31.7529 16.3952C31.7529 10.5706 30.8191 6.22017 23.7433 6.22017C17.0266 6.22017 15.7329 10.6787 15.7329 16.5032C15.7329 22.3278 16.6308 26.6783 23.7433 26.6783ZM25.934 16.4672C25.934 21.249 25.575 22.8672 23.7793 22.8672C22.0547 22.8672 21.5518 21.177 21.5518 16.4312C21.5518 11.7215 22.0547 10.032 23.7793 10.032C25.575 10.032 25.934 11.6494 25.934 16.4672ZM48.0239 6.72356H42.205V19.4516C42.205 21.3571 41.236 22.2198 40.1214 22.2198C39.0085 22.2198 38.4336 21.3931 38.4336 19.991V6.72356H32.6148V21.285C32.6148 25.024 34.3753 26.6783 37.6797 26.6783C39.8344 26.6783 41.523 25.5994 42.3489 23.874H42.4209V26.1749H48.0239V6.72356ZM49.5326 26.1749H55.3514V15.1371C55.3514 12.5481 56.8601 11.6134 59.1947 11.6134C59.7696 11.6134 60.2365 11.6494 60.8114 11.7575V6.2922C60.6314 6.25618 60.4524 6.22017 60.3076 6.22017H59.8775C57.435 6.22017 55.9623 7.73034 55.2084 9.45662H55.1364V6.72356H49.5326V26.1749Z" fill="#ED1B33"/>
</g>
<path fill-rule="evenodd" clip-rule="evenodd" d="M59.5128 37.2545C59.6079 38.6514 59.2232 39.6891 58.3905 40.3091C56.833 41.4677 54.022 42.5173 51.6086 41.6658C51.2514 41.1735 51.2103 40.0441 51.828 40.0518C52.4345 40.0596 52.0421 40.8039 52.4637 41.032C53.3607 41.2542 54.0846 40.966 54.7485 40.8065C55.2626 40.6822 55.7698 40.6976 56.1673 40.5329C56.7867 40.2782 57.1688 39.6582 57.8208 39.5759C58.1686 39.1205 58.6141 38.7595 58.5344 37.8908C57.9099 37.203 56.8801 37.5821 56.0525 37.5014C55.7895 37.4749 55.5119 37.3008 55.2437 37.2673C54.6003 37.1859 54.2414 37.2545 53.7539 36.9835C53.5568 36.8737 53.3375 36.6439 53.1268 36.499C52.8595 36.3154 52.5348 36.1859 52.4388 36.0779C51.373 34.8696 52.42 33.1313 53.2381 32.224C54.2534 31.6914 55.1324 30.7961 56.9263 30.8587C57.8088 30.8896 59.5634 31.2078 59.667 31.9255C59.7124 32.2351 59.482 32.6193 59.1847 32.6159C58.549 32.6065 58.7186 32.1228 58.3065 31.9496C57.9604 31.8038 57.2211 31.7986 56.6967 31.8535C56.5211 31.8724 56.3549 32.0096 56.1433 32.049C55.9677 32.0825 55.7698 32.0087 55.5864 32.0585C54.9936 32.2223 53.9715 32.9778 53.6305 33.4554C53.4669 33.6853 53.0865 34.3893 53.0951 34.7041C53.1165 35.3995 53.861 35.9544 54.3587 36.1679C54.8034 36.3592 55.7226 36.5778 56.3463 36.6284C57.658 36.7365 59.0605 36.3755 59.5128 37.2545Z" fill="#ED1B33"/>
<path fill-rule="evenodd" clip-rule="evenodd" d="M92.0167 31.2988C91.8308 32.0501 91.0383 31.5853 90.538 31.6341C89.1569 31.7688 88.6069 33.1821 88.2993 34.5224C88.8357 34.8869 90.3589 34.1408 91.0854 34.6588C91.1462 35.8191 88.8519 35.2145 88.1991 35.886C87.8847 37.4442 87.9738 38.9475 88.0355 40.6575C88.0483 41.0468 88.2616 41.4859 87.9301 41.7749C86.8737 41.9292 87.0168 40.6249 86.9671 39.7476C86.8943 38.4578 86.9329 37.096 86.8412 36.0343C86.2278 35.8242 85.7763 36.5111 85.1749 36.3113C84.6257 34.9392 86.6202 35.4838 87.1273 34.7282C87.4161 34.2986 87.339 33.4891 87.5908 32.9248C87.7108 32.6547 87.9952 32.3691 88.194 32.0466C88.3833 31.7388 88.5127 31.3254 88.7354 31.1702C89.2794 30.792 89.9357 31.0004 90.5817 30.5802C91.004 30.8778 91.6226 30.9721 92.0167 31.2988Z" fill="#ED1B33"/>
<path fill-rule="evenodd" clip-rule="evenodd" d="M81.687 31.417C81.7136 32.7419 81.5696 34.0591 81.5088 35.3841C81.5028 35.5041 81.4771 35.6877 81.454 35.818C81.2484 36.9774 80.8748 38.4953 80.8397 39.6067C80.8192 40.2362 81.0308 41.8956 80.5107 42.0285C79.6043 42.2583 79.8613 39.3452 79.959 38.7552C80.1055 37.8693 80.4748 37.0486 80.4105 36.2699C80.3917 36.0487 80.2177 35.6679 80.2126 35.5925C80.1972 35.3481 80.3677 35.0513 80.3831 34.722C80.4353 33.6304 80.342 32.067 80.6958 31.3724C80.8337 31.0105 81.5611 31.1923 81.687 31.417Z" fill="#ED1B33"/>
<path fill-rule="evenodd" clip-rule="evenodd" d="M61.8477 32.6926C61.8828 33.0383 61.7114 33.6389 61.3705 33.693C60.3827 33.8491 60.8873 32.0379 61.8477 32.6926Z" fill="#ED1B33"/>
<path fill-rule="evenodd" clip-rule="evenodd" d="M134.589 31.4837C134.471 31.911 134.435 32.3794 134.049 32.4232C133.008 32.5382 133.751 30.6412 134.589 31.4837Z" fill="#ED1B33"/>
<path fill-rule="evenodd" clip-rule="evenodd" d="M131.107 34.0841C131.512 34.0995 131.86 33.8011 132.158 34.0661C132.44 34.9854 131.638 34.7778 131.188 35.1354C130.821 35.4253 130.938 35.8326 130.903 36.565C130.891 36.794 130.712 37.2442 130.674 37.6215C130.558 38.7475 130.999 40.5424 130.418 40.7225C129.551 40.9918 129.623 39.7174 129.645 38.9405C129.677 37.763 129.74 36.3215 129.586 35.5351C128.976 35.5454 128.216 35.5351 128.332 34.6278C128.511 34.3345 129.015 34.3542 129.503 34.3593C130.229 33.7625 129.823 32.0714 130.504 31.4316C131.877 31.6203 130.513 33.3294 131.107 34.0841Z" fill="#ED1B33"/>
<path fill-rule="evenodd" clip-rule="evenodd" d="M175.271 33.3123C175.651 33.2815 176.096 33.0216 176.324 33.3552C176.266 34.3852 175.92 33.9735 175.352 34.3637C174.836 34.7162 174.99 35.1501 174.885 35.9819C174.82 36.4939 174.562 37.1662 174.547 37.908C174.523 39.0563 174.523 40.7457 173.461 39.5374C173.475 37.8857 173.645 36.3859 173.75 34.8251C173.217 34.6724 172.267 34.8843 172.434 33.8578C172.596 33.4847 173.339 33.6777 173.728 33.525C174.37 33.1014 174.08 30.7105 174.854 30.6565C176.063 30.5724 174.704 32.7695 175.271 33.3123Z" fill="#ED1B33"/>
<path fill-rule="evenodd" clip-rule="evenodd" d="M84.926 32.7227C84.7812 33.1165 84.7487 33.6047 84.3854 33.6622C83.3265 33.8303 84.029 31.8707 84.926 32.7227Z" fill="#ED1B33"/>
<path fill-rule="evenodd" clip-rule="evenodd" d="M99.213 32.412C99.2756 32.7895 99.0785 33.4098 98.6741 33.4132C97.7823 33.4192 98.3563 31.8062 99.213 32.412Z" fill="#ED1B33"/>
<path fill-rule="evenodd" clip-rule="evenodd" d="M124.598 36.9849C125.04 36.7568 126.179 35.7903 126.304 35.4069C126.537 34.6866 126.176 34.0117 125.536 33.9954C125.134 33.986 124.369 34.4396 124.064 34.7029C123.442 35.238 123.022 36.4395 122.932 37.1993C123.366 37.4171 124.139 37.2224 124.598 36.9849ZM123.075 38.3115C122.396 38.8707 122.966 39.7917 123.536 39.9135C124.269 40.0704 125.188 39.6193 125.814 39.2548C126.515 38.8466 127.132 37.8038 127.841 38.4136C127.636 39.6476 126.473 40.0652 125.342 40.5643C124.868 40.7727 124.242 41.1063 123.928 41.1458C123.026 41.259 121.779 40.4837 121.613 39.6382C121.452 38.8175 121.687 37.8261 121.877 37.0329C121.994 36.5449 121.988 36.039 122.102 35.7277C122.214 35.4215 122.553 35.0965 122.766 34.7869C123.015 34.4259 123.236 34.0254 123.43 33.8462C123.974 33.3436 125.082 32.6885 125.95 32.8728C126.669 33.0263 127.674 33.8042 127.654 34.8255C127.636 35.7757 126.671 36.6933 125.902 37.2713C125.03 37.929 124.35 38.2806 123.075 38.3115Z" fill="#ED1B33"/>
<path fill-rule="evenodd" clip-rule="evenodd" d="M122.073 34.0558C120.933 34.0884 120.622 34.1236 119.858 34.7144C119.289 35.1526 118.425 36.3747 118.231 37.2202C118.003 38.209 118.422 40.8932 117.555 41.0716C116.282 41.3323 117.025 38.8822 117.067 37.9217C117.082 37.5796 116.992 37.2511 116.988 36.9321C116.981 36.3215 117.167 35.807 117.208 35.379C117.292 34.5241 117.15 33.6185 117.671 33.5138C118.328 33.3818 118.6 34.3928 118.315 34.9889C118.916 34.2385 121.051 32.2566 122.073 34.0558Z" fill="#ED1B33"/>
<path fill-rule="evenodd" clip-rule="evenodd" d="M144.495 35.3982C145.185 33.4712 142.914 34.1804 142.318 34.755C141.726 35.3253 141.418 36.326 141.368 37.0636C142.178 37.4254 144.236 36.1177 144.495 35.3982ZM144.803 38.8619C144.897 39.7006 144.213 39.9587 143.405 40.3103C142.925 40.5178 142.516 40.794 142.238 40.8257C140.788 40.9904 139.962 39.6457 140.026 38.1398C140.125 35.7789 141.409 33.7431 143.215 33.0047C145.553 32.7929 146.338 34.5363 145.431 35.8775C144.946 36.5945 143.3 37.9031 142.377 38.0986C141.746 38.2316 141.084 37.8791 141.151 38.801C141.182 39.2263 141.628 39.5925 141.971 39.6543C143.1 39.8566 143.745 38.7461 144.803 38.8619Z" fill="#ED1B33"/>
<path fill-rule="evenodd" clip-rule="evenodd" d="M161.891 35.9614C162.396 35.555 162.896 35.1742 162.73 34.4598C162.475 33.3639 161.065 34.1863 160.505 34.6228C160.128 35.2728 159.702 35.8748 159.553 36.7452C160.399 37.2229 161.375 36.3756 161.891 35.9614ZM159.757 37.8558C159.041 38.2683 159.6 39.2348 160.217 39.3351C161.556 39.5538 162.718 38.0153 163.473 38.0393C163.535 39.0898 162.279 39.655 161.221 40.1223C160.898 40.2647 160.673 40.486 160.423 40.5082C159.507 40.5923 158.784 39.9028 158.358 39.1816C158.337 37.8584 158.397 36.5051 158.787 35.458C158.907 35.1382 159.276 34.796 159.513 34.4547C160.145 33.5431 160.97 32.737 162.517 32.8536C163.548 33.2815 164.36 34.2849 163.677 35.4966C163.221 36.3036 161.543 37.6457 160.623 37.8412C160.326 37.9047 159.941 37.8061 159.757 37.8558Z" fill="#ED1B33"/>
<path fill-rule="evenodd" clip-rule="evenodd" d="M140.577 34.2285C139.559 34.2654 139.159 34.2594 138.484 34.8219C138.194 35.062 137.329 36.1417 137.098 37.0139C136.852 37.9486 137.259 40.499 136.419 40.6182C135.18 40.7931 135.983 38.0095 135.989 37.2188C135.989 37.1339 135.858 36.6966 135.853 36.6022C135.826 36.0088 135.958 33.5707 136.48 33.4944C136.966 33.4241 137.211 34.0355 137.242 34.5955C137.828 33.8006 140.045 32.4319 140.577 34.2285Z" fill="#ED1B33"/>
<path fill-rule="evenodd" clip-rule="evenodd" d="M153.235 36.4226C153.836 35.5951 154.241 33.9151 155.477 33.7196C157.261 33.4374 157.674 35.8206 157.711 37.6446C157.723 38.2629 157.772 39.0905 157.435 39.5081C156.192 39.5141 156.698 37.7759 156.577 36.4878C156.514 35.8189 156.405 34.7212 155.865 34.6423C155.15 34.5368 154.502 35.8781 154.347 36.2794C154.233 36.5693 154.266 36.9114 154.176 37.2107C154 37.8024 153.684 38.3701 153.526 38.9567C153.352 39.6059 153.397 40.334 152.939 40.7628C152.115 40.7988 152.306 39.7997 152.293 39.1634C152.272 38.1575 152.198 36.3188 151.854 35.2692C151.718 34.8541 151.311 33.9588 150.84 33.9254C149.852 33.8533 148.98 35.8763 148.66 36.6259C148.491 37.0212 148.264 37.3737 148.182 37.6258C147.916 38.4482 147.964 39.3984 147.544 40.0518C147.252 40.1822 146.788 40.1264 146.615 39.9446C146.523 39.0219 146.749 37.9122 146.925 36.4706C147.037 35.5548 147.036 33.4203 147.736 33.3594C148.473 33.2959 148.306 34.313 148.262 35.0231C149.118 34.4777 149.771 32.5378 151.634 33.2916C152.646 33.7007 152.98 35.0805 153.235 36.4226Z" fill="#ED1B33"/>
<path fill-rule="evenodd" clip-rule="evenodd" d="M75.7896 41.0576C76.1614 41.0619 76.9676 40.555 77.2614 40.2892C77.8252 39.7781 78.3486 38.7842 78.3358 38.0407C78.3212 37.2234 77.7181 35.6378 76.9316 35.588C75.871 35.5203 75.4409 37.1145 75.1179 37.9729C74.8738 38.6204 74.3015 39.4865 74.6664 40.5199C75.213 40.5962 75.2936 41.0516 75.7896 41.0576ZM74.8969 35.9945C75.4289 35.859 75.6739 35.1164 76.2394 34.9183C77.9965 34.3042 79.0563 36.0117 79.3767 37.4026C79.1291 37.8614 79.2045 38.4411 79.0332 39.0191C78.6888 40.1897 77.2503 41.5936 76.3593 41.7908C75.5257 41.976 74.9466 41.5824 74.5585 41.3886C74.1421 42.1047 74.5148 45.3668 73.832 45.8608C73.4679 46.1249 73.0095 45.9817 72.7773 45.6936C73.0849 43.2598 73.2742 40.76 73.515 38.3108C73.5441 38.0072 73.7137 37.7328 73.7472 37.4386C73.8423 36.5991 73.4713 35.6189 73.8868 34.8359C74.5199 34.4706 75.0023 35.1918 74.8969 35.9945Z" fill="#ED1B33"/>
<path fill-rule="evenodd" clip-rule="evenodd" d="M61.5275 35.5474C61.3921 37.7942 61.058 39.8378 60.9561 41.8128C60.5166 42.0409 60.0993 41.7459 59.8997 41.5212C59.7781 40.6036 60.0162 39.4871 60.1576 38.6055C60.3041 37.6982 60.1473 36.7334 60.2381 36.1271C60.3315 35.5062 60.9732 34.7156 61.5275 35.5474Z" fill="#ED1B33"/>
<path fill-rule="evenodd" clip-rule="evenodd" d="M134.141 34.0927C134.383 36.4321 133.559 37.9595 133.817 40.3538C133.708 40.4121 133.628 40.4961 133.574 40.6059C133.1 40.6762 132.867 40.4979 132.641 40.3118C132.409 39.046 132.886 37.5959 133.004 36.3421C133.101 35.3113 132.725 33.3595 134.141 34.0927Z" fill="#ED1B33"/>
<path fill-rule="evenodd" clip-rule="evenodd" d="M170.68 39.7093C170.303 39.7633 170.062 39.6784 169.872 39.5377C169.699 38.4015 170.28 37.0165 170.364 35.8133C170.407 35.201 170.432 34.3812 169.962 34.0236C168.979 34.3915 168.239 35.3074 167.523 36.1109C166.824 36.8956 166.048 37.7686 165.713 38.7436C165.532 39.271 165.654 40.0214 164.808 40.06C164.377 39.7736 164.426 38.8114 164.781 38.5121C164.808 37.9178 165.001 37.1769 165.173 36.2138C165.299 35.5158 165.338 34.208 165.756 34.0973C166.495 33.9035 166.528 34.9901 166.34 35.6358C167.245 35.2002 169.091 32.3471 170.757 33.5151C171.259 33.8667 171.29 34.6573 171.533 35.4214C171.169 36.7729 171.238 38.5447 170.68 39.7093Z" fill="#ED1B33"/>
<path fill-rule="evenodd" clip-rule="evenodd" d="M92.5123 34.8199C92.329 36.4622 92.09 38.7364 93.0975 40.0125C93.6784 39.5159 94.5985 39.0477 94.9797 37.9355C95.313 36.9613 95.0671 33.8226 96.6606 34.9957C96.7043 36.2889 96.0087 37.878 95.9281 39.0957C95.9024 39.4782 95.9727 39.8513 95.9487 40.2723C95.8913 41.2517 95.6523 42.1898 95.6257 43.0646C95.6017 43.8707 95.6822 44.7857 94.6679 44.8774C94.452 43.4599 94.8212 41.2182 94.9506 39.7947C94.3397 40.1583 93.7092 41.5407 92.3727 41.0158C91.8107 40.0399 91.1579 39.0477 91.2632 37.691C91.2838 37.4252 91.492 37.1499 91.4963 36.8815C91.4997 36.6705 91.3206 36.4896 91.3001 36.2658C91.253 35.7461 91.516 35.2487 91.6462 34.8354C91.9538 34.7136 92.1542 34.8362 92.5123 34.8199Z" fill="#ED1B33"/>
<path fill-rule="evenodd" clip-rule="evenodd" d="M109.664 35.6975C108.618 36.0139 107.139 37.3577 106.741 38.3499C106.164 39.7863 107.129 40.0625 108.19 39.8103C109.071 39.6002 109.274 39.2804 109.903 38.7272C110.477 38.223 110.881 37.8525 111.052 37.2214C111.178 37.1596 111.295 37.0901 111.421 37.0293C111.418 36.7017 111.33 36.2926 111.717 36.3423C111.427 35.5294 110.535 35.4342 109.664 35.6975ZM112.77 36.3861C112.557 36.6305 112.427 36.6605 112.095 36.7077C112.106 38.717 111.548 42.0846 110.543 43.485C110.426 43.648 110.192 43.7603 110.055 43.9275C109.57 44.5201 108.498 45.5646 107.363 45.6461C106.715 45.6941 105.913 45.4291 106.17 44.6144C106.5 44.4035 106.81 44.689 107.038 44.7851C108.431 44.346 109.324 43.4233 110.153 42.4396C110.345 41.5889 110.508 40.7125 110.665 39.8292C109.878 39.9904 108.664 41.0298 107.529 40.9989C106.775 40.9775 106.298 40.5067 105.842 39.975C105.409 37.1244 107.52 34.9162 110.325 34.5089C111.605 34.3228 112.892 34.8622 112.77 36.3861Z" fill="#ED1B33"/>
<path fill-rule="evenodd" clip-rule="evenodd" d="M68.6251 38.1485C69.1469 37.2463 70.246 34.87 71.807 36.1109C72.4033 36.5843 72.6235 38.2291 72.6689 39.44C72.692 40.0574 72.6989 40.6852 72.4495 41.0548C70.7704 40.9879 72.3022 37.3741 71.012 36.6821C69.11 37.5216 69.3808 40.4622 68.3852 42.1791C67.932 42.2434 67.7401 41.7889 67.693 41.4467C67.4454 39.669 67.9877 36.7515 66.4842 36.0175C65.965 36.2404 65.2291 36.8236 64.9018 37.5319C64.6482 38.0808 64.219 38.9332 64.0682 39.4048C63.7649 40.3533 63.914 42.2974 62.6186 41.4124C62.5595 40.6595 62.7694 39.6107 62.9356 38.3097C63.0487 37.4239 62.9681 35.5346 63.7538 35.5707C64.356 35.5972 64.2087 36.2121 64.2095 36.863C64.9532 36.3502 65.6257 34.912 67.0916 35.388C68.0905 35.7122 68.3621 36.9282 68.6251 38.1485Z" fill="#ED1B33"/>
<path fill-rule="evenodd" clip-rule="evenodd" d="M84.5406 35.4549C84.4026 36.3047 84.5106 37.1957 84.4001 38.0584C84.3315 38.5944 84.0994 39.1064 84.0565 39.6123C83.9914 40.3696 84.2707 41.1388 83.97 41.782C83.5271 41.9947 83.0653 41.7228 82.9119 41.4287C82.8451 40.4982 83.0413 39.4597 83.1724 38.6364C83.39 37.2789 82.9231 34.3092 84.5406 35.4549Z" fill="#ED1B33"/>
<path fill-rule="evenodd" clip-rule="evenodd" d="M98.8313 35.2671C98.7268 37.423 98.1108 39.3251 98.134 41.4107C98.0457 41.4476 97.9849 41.5102 97.9515 41.6002C97.7013 41.6319 97.3072 41.5856 97.1444 41.4278C96.7178 41.0111 97.0836 39.7539 97.1633 38.9495C97.2138 38.4349 97.434 37.8741 97.506 37.3347C97.6371 36.3493 97.3535 35.0587 98.1442 34.9078C98.5546 34.8289 98.696 35.135 98.8313 35.2671Z" fill="#ED1B33"/>
<path fill-rule="evenodd" clip-rule="evenodd" d="M105.305 41.0993C105.051 41.2922 104.573 41.2554 104.376 41.0538C104.118 39.3524 105.43 37.1459 104.405 35.6657C103.376 35.9204 102.712 36.9015 102.028 37.6879C101.299 38.5274 100.574 39.3361 100.279 40.258C100.092 40.842 100.098 41.6421 99.4972 41.5727C99.271 41.5469 99.0303 41.197 99.05 40.7134C99.0585 40.4647 99.2744 40.2263 99.3455 39.9647C99.486 39.4502 99.5383 38.5343 99.6771 37.6673C99.7945 36.9289 99.8793 35.7592 100.261 35.6752C100.855 35.5448 101.074 36.3818 100.845 37.2137C101.683 36.8921 102.294 35.4908 103.344 35.0646C105.284 34.2748 106.027 35.9839 105.804 37.8079C105.671 38.9099 105.369 40.0282 105.305 41.0993Z" fill="#ED1B33"/>
</svg>
