<svg width="165" height="23" viewBox="0 0 165 23" fill="none" xmlns="http://www.w3.org/2000/svg">
<path fill-rule="evenodd" clip-rule="evenodd" d="M63.5826 22.3042H52.094V0.428955H54.769V19.9146H63.5826V22.3042ZM67.3507 3.37025H64.7975V0.428955H67.3507V3.37025ZM67.3507 22.3042H64.7975V5.88259H67.3507V22.3042ZM73.3074 22.3042H70.7542V7.90459H68.3838V5.88259H70.7542V3.95193C70.7542 1.47028 71.8185 0.184151 74.2795 0.184151H76.1339V2.38957H74.9487C73.8547 2.38957 73.3074 2.81853 73.3074 3.95193V5.88259H76.1035V7.90459H73.3074V22.3042ZM87.1056 13.3582V14.4003H78.5349C78.5349 16.9426 78.5349 20.7111 81.6651 20.7111C84.0972 20.7111 84.4314 18.1681 84.4314 16.9119H86.9838C86.9838 18.6584 85.9813 22.7331 81.5128 22.7331C77.5011 22.7331 75.8599 19.976 75.8599 14.3075C75.8599 10.2328 76.6501 5.45364 81.6651 5.45364C86.6497 5.45364 87.1056 9.80383 87.1056 13.3582ZM78.6262 11.7652V12.3775H84.4314V11.489C84.4314 9.6511 83.8841 7.47564 81.6042 7.47564C78.9299 7.47564 78.6262 10.7845 78.6262 11.7652ZM95.2204 20.5277C98.4724 20.5277 98.9277 17.4636 99.019 14.7978H101.816C101.572 18.9339 99.9614 22.7331 95.2204 22.7331C89.0506 22.7331 88.2292 16.8812 88.2292 11.3669C88.2292 5.8519 89.2325 0 95.2204 0C99.6272 0 101.511 2.51234 101.633 6.80188H98.8371C98.7457 4.32023 97.986 2.20615 95.2204 2.20615C91.5125 2.20615 91.0253 6.31154 91.0253 11.3669C91.0253 16.4223 91.5125 20.5277 95.2204 20.5277ZM105.311 22.3042H102.757V0.428955H105.311V7.75186H105.372C106.04 6.40362 107.833 5.45364 109.292 5.45364C113.487 5.45364 113.487 8.65538 113.486 10.62V10.6617V22.3042H110.933V10.9687C110.933 9.71249 110.842 7.65906 108.532 7.65906C107.164 7.65906 105.311 8.60904 105.311 10.9687V22.3042ZM120.446 22.7331C115.735 22.7331 114.58 18.7198 114.58 14.0934C114.58 9.46695 115.735 5.45364 120.446 5.45364C125.157 5.45364 126.312 9.46695 126.312 14.0934C126.312 18.7198 125.126 22.7331 120.446 22.7331ZM117.254 14.0934C117.254 17.6478 117.772 20.7111 120.385 20.7111C123.09 20.7111 123.637 17.6478 123.637 14.0934C123.637 10.539 123.151 7.47564 120.385 7.47564C117.802 7.47564 117.254 10.539 117.254 14.0934ZM129.503 3.37025H126.95V0.428955H129.503V3.37025ZM129.503 22.3042H126.95V5.88259H129.503V22.3042ZM136.645 5.45364C141.112 5.45364 141.842 9.0073 141.842 10.8766H139.289C139.289 9.2828 138.651 7.47564 136.706 7.47564C135.126 7.47564 133.514 8.27216 133.514 14.2768C133.514 16.3916 133.545 20.7111 136.614 20.7111C138.803 20.7111 139.289 18.3829 139.289 16.6057H141.842C141.842 19.1794 140.566 22.7331 136.492 22.7331C132.481 22.7331 130.84 19.976 130.84 14.3075C130.84 10.2328 131.63 5.45364 136.645 5.45364ZM153.725 13.3582V14.4003H145.155C145.155 16.9426 145.155 20.7111 148.285 20.7111C150.716 20.7111 151.051 18.1681 151.051 16.9119H153.604C153.604 18.6584 152.601 22.7331 148.133 22.7331C144.122 22.7331 142.48 19.976 142.48 14.3075C142.48 10.2328 143.27 5.45364 148.285 5.45364C153.269 5.45364 153.725 9.80383 153.725 13.3582ZM145.246 11.7652V12.3775H151.051V11.489C151.051 9.6511 150.504 7.47564 148.224 7.47564C145.55 7.47564 145.246 10.7845 145.246 11.7652ZM159.652 5.45364C164.393 5.45364 164.606 8.7625 164.606 10.6924H162.053C162.053 8.60904 161.505 7.47564 159.652 7.47564C158.831 7.47564 157.008 7.68975 157.008 9.98798C157.008 11.7307 158.592 12.2148 160.353 12.753C160.574 12.8203 160.797 12.8884 161.02 12.96C162.965 13.603 165 14.3075 165 17.5864C165 21.0173 162.783 22.7331 159.743 22.7331C154.212 22.7331 154.151 18.597 154.151 16.9119H156.703C156.703 18.9032 157.22 20.7111 159.743 20.7111C160.564 20.7111 162.448 20.3128 162.448 17.9846C162.448 15.9354 160.691 15.3666 158.882 14.7806C158.743 14.7358 158.604 14.6908 158.466 14.6451L158.326 14.5974C156.396 13.9402 154.454 13.2787 154.454 9.98798C154.454 6.92392 156.825 5.45364 159.652 5.45364ZM10.6078 22.3043H5.50143V13.6952L0 0.429077H5.65295L8.08508 8.54851H8.14597L10.6375 0.429077H16.1085L10.6078 13.6952V22.3043ZM26.8678 13.9707C26.8678 18.934 25.7739 22.7332 20.0905 22.7332C14.0722 22.7332 13.3125 19.0261 13.3125 14.0628C13.3125 9.0995 14.4071 5.3003 20.0905 5.3003C26.0777 5.3003 26.8678 9.00742 26.8678 13.9707ZM20.121 19.4857C21.6404 19.4857 21.9442 18.1068 21.9442 14.0321C21.9442 9.92672 21.6404 8.54851 20.121 8.54851C18.6617 8.54851 18.2362 9.9881 18.2362 14.0014C18.2362 18.0454 18.6617 19.4857 20.121 19.4857ZM35.7119 5.72926H40.6356V22.3043H35.8946V20.3436H35.8337C35.1349 21.8139 33.706 22.7332 31.8828 22.7332C29.0868 22.7332 27.5971 21.3236 27.5971 18.1375V5.72926H32.5208V17.0348C32.5208 18.2296 33.0072 18.934 33.9489 18.934C34.892 18.934 35.7119 18.1989 35.7119 16.5751V5.72926ZM46.8358 22.3043H41.9122V5.72926H46.6539V8.05817H46.7148C47.3527 6.58716 48.5989 5.3003 50.6656 5.3003H51.0295C51.1513 5.3003 51.3017 5.33063 51.453 5.36113L51.4558 5.36168V10.0188C50.9694 9.92672 50.5743 9.89603 50.0879 9.89603C48.1124 9.89603 46.8358 10.6926 46.8358 12.8987V22.3043Z" fill="white"/>
</svg>
