<svg width="19" height="26" viewBox="0 0 19 26" fill="none" xmlns="http://www.w3.org/2000/svg">
<path d="M9.5952 6.11898C9.43733 6.11898 9.28593 6.1817 9.1743 6.29332C9.06267 6.40495 8.99996 6.55635 8.99996 6.71422C8.99996 6.87209 9.06267 7.02349 9.1743 7.13512C9.28593 7.24675 9.43733 7.30946 9.5952 7.30946C10.8845 7.30946 11.9333 8.35827 11.9333 9.64755C11.9333 9.80542 11.996 9.95682 12.1076 10.0685C12.2193 10.1801 12.3707 10.2428 12.5285 10.2428C12.6864 10.2428 12.8378 10.1801 12.9494 10.0685C13.0611 9.95682 13.1238 9.80542 13.1238 9.64755C13.1225 8.71211 12.7503 7.81533 12.0889 7.15387C11.4274 6.49241 10.5306 6.12024 9.5952 6.11898ZM9.5952 0.761841C4.67139 0.761841 0.666626 4.7666 0.666626 9.69041C0.666626 11.4595 1.19044 13.169 2.18329 14.6487L2.27853 14.8095C4.45115 17.9118 4.83329 18.8928 4.83329 19.8095V23.3809C4.83329 23.6966 4.95872 23.9994 5.18197 24.2227C5.40523 24.4459 5.70803 24.5714 6.02377 24.5714H8.40472C8.40472 24.8809 8.53567 25.1904 8.74996 25.4166C8.97615 25.6309 9.28567 25.7618 9.5952 25.7618C9.90472 25.7618 10.2142 25.6309 10.4404 25.4166C10.6547 25.1904 10.7857 24.8809 10.7857 24.5714H13.1666C13.4824 24.5714 13.7852 24.4459 14.0084 24.2227C14.2317 23.9994 14.3571 23.6966 14.3571 23.3809V19.8095C14.3571 18.8785 14.7369 17.8928 16.8952 14.8106C17.9542 13.3132 18.5232 11.5245 18.5238 9.69041C18.5238 4.7666 14.519 0.761841 9.5952 0.761841ZM11.9761 22.1904H7.21424V20.9999H11.9761V22.1904ZM14.9464 13.444C13.2011 15.9356 12.3952 17.3595 12.1071 18.619H10.7857V16.238C10.7857 15.9223 10.6602 15.6195 10.437 15.3962C10.2137 15.173 9.91093 15.0476 9.5952 15.0476C9.27946 15.0476 8.97666 15.173 8.7534 15.3962C8.53014 15.6195 8.40472 15.9223 8.40472 16.238V18.619H7.07972C6.79401 17.3928 6.01067 15.9999 4.33448 13.5952L4.24282 13.4416C3.46577 12.345 3.04816 11.0344 3.04758 9.69041C3.04758 6.0797 5.98448 3.14279 9.5952 3.14279C13.2059 3.14279 16.1428 6.0797 16.1428 9.69041C16.1417 11.0352 15.7237 12.3466 14.9464 13.444Z" fill="white"/>
</svg>
