<svg width="200" height="70" viewBox="0 0 200 70" fill="none" xmlns="http://www.w3.org/2000/svg">
<g clip-path="url(#clip0)">
<rect width="200" height="70" rx="10" fill="#D02D99"/>
<rect width="200" height="65" rx="10" fill="#FA3CBA"/>
<path opacity="0.2" d="M0 10V30C0 17 6 0 30 0H10C4.47715 0 0 4.47715 0 10Z" fill="white"/>
<path opacity="0.2" d="M200 55L200 12C200 30 147.5 65 10 65L190 65C195.523 65 200 60.5228 200 55Z" fill="white"/>
<path d="M46.2278 19.1943C48.5976 19.1943 50.3408 20.4818 51.4573 23.0566L47.595 27.2949C47.0709 26.748 46.4671 26.4746 45.7835 26.4746C44.5758 26.4746 43.3226 27.5114 42.0237 29.585C40.9528 31.2939 40.2578 32.889 39.9388 34.3701C39.7793 35.0765 39.6995 35.7145 39.6995 36.2842C39.6995 37.8109 40.2578 38.859 41.3743 39.4287C41.7389 39.611 42.1263 39.7021 42.5364 39.7021C43.7213 39.7021 44.9632 38.8249 46.262 37.0703L47.3558 41.1377C45.0999 43.6442 42.8099 44.8975 40.4856 44.8975C38.1158 44.8975 36.3841 43.6442 35.2903 41.1377C34.6295 39.6794 34.2991 38.0501 34.2991 36.25C34.2991 34.9284 34.47 33.527 34.8118 32.0459C35.4954 29.0153 36.7942 26.2467 38.7083 23.7402C41.0097 20.7096 43.5162 19.1943 46.2278 19.1943ZM63.8618 18.2715C66.2772 18.2715 67.9862 19.6159 68.9888 22.3047C69.5129 23.6947 69.7749 25.2214 69.7749 26.8848C69.7749 28.4798 69.5356 30.2116 69.0571 32.0801C68.214 35.2702 66.7557 38.2096 64.6821 40.8984C62.1528 44.1797 59.4754 45.8203 56.6499 45.8203C54.2117 45.8203 52.48 44.4759 51.4546 41.7871C50.9533 40.4655 50.7026 38.9844 50.7026 37.3438C50.7026 35.7259 50.9533 33.9714 51.4546 32.0801C52.2977 28.8672 53.7446 25.9163 55.7954 23.2275C58.3247 19.9235 61.0135 18.2715 63.8618 18.2715ZM62.6313 26.748C61.3781 26.748 60.102 27.7734 58.8032 29.8242C57.755 31.4421 57.0259 33.0257 56.6157 34.5752C56.4106 35.3955 56.3081 36.1361 56.3081 36.7969C56.3081 37.7311 56.536 38.4945 56.9917 39.0869C57.5158 39.7477 58.245 40.0781 59.1792 40.0781C60.4552 40.0781 61.606 39.4059 62.6313 38.0615C63.4517 36.9906 64.0441 35.7259 64.4087 34.2676C64.8416 32.5586 64.9328 30.8724 64.6821 29.209C64.4087 27.5684 63.7251 26.748 62.6313 26.748ZM74.5915 20.9717L80.5046 19.7754C80.459 20.4818 80.4362 21.4844 80.4362 22.7832C80.4362 25.8822 80.5388 28.6051 80.7438 30.9521C80.8578 32.2965 81.0287 33.3789 81.2565 34.1992L83.5808 20.8691L89.4597 19.7754C87.0899 28.9128 85.5404 36.8311 84.8112 43.5303L79.4108 45.0342C79.388 44.9886 79.2399 44.5898 78.9665 43.8379L77.1892 38.7793C76.8929 37.959 76.722 37.4349 76.6765 37.207C76.1979 39.8958 75.822 42.5049 75.5485 45.0342L70.0798 46.6748L74.5915 20.9717ZM105.556 19.4336L105.35 25.791C103.755 25.8822 102.24 25.9961 100.805 26.1328C99.3007 32.4447 98.2867 38.2438 97.7626 43.5303L91.9862 45.0342L95.1308 26.8506C94.5155 26.9417 93.9003 27.0443 93.2851 27.1582L91.4735 27.5L91.0634 21.1084L105.556 19.4336ZM108.937 20.8691L114.816 19.7754C112.446 28.9128 110.896 36.8311 110.167 43.5303L104.733 45.0342L108.937 20.8691ZM119.017 20.9717L124.93 19.7754C124.884 20.4818 124.862 21.4844 124.862 22.7832C124.862 25.8822 124.964 28.6051 125.169 30.9521C125.283 32.2965 125.454 33.3789 125.682 34.1992L128.006 20.8691L133.885 19.7754C131.515 28.9128 129.966 36.8311 129.237 43.5303L123.836 45.0342C123.813 44.9886 123.665 44.5898 123.392 43.8379L121.615 38.7793C121.318 37.959 121.147 37.4349 121.102 37.207C120.623 39.8958 120.247 42.5049 119.974 45.0342L114.505 46.6748L119.017 20.9717ZM137.608 20.8691L143.453 19.7754C141.88 25.7454 140.718 31.1003 139.966 35.8398L143.213 34.4727L145.606 20.8691L151.451 19.7754C149.081 29.1178 147.543 37.0361 146.836 43.5303L141.368 45.0342L142.051 41.2402C140.137 42.0833 137.243 43.348 133.37 45.0342L137.608 20.8691ZM159.514 25.9619C159.332 26.6227 159.173 27.2721 159.036 27.9102L158.66 29.79L164.129 28.6279L163.821 33.3447C161.223 33.8005 159.184 34.1992 157.703 34.541C157.612 34.9967 157.532 35.4525 157.464 35.9082L157.224 37.2412L163.582 36.3184L163.137 42.6758C159.856 42.9492 155.698 43.7354 150.662 45.0342L154.729 20.5273L166.111 18.8867L165.667 25.21C163.434 25.415 161.383 25.6657 159.514 25.9619Z" fill="white"/>
</g>
<defs>
<clipPath id="clip0">
<rect width="200" height="70" fill="white"/>
</clipPath>
</defs>
</svg>
