<svg width="24" height="21" viewBox="0 0 24 21" fill="none" xmlns="http://www.w3.org/2000/svg">
<path d="M12.5246 0.872361C13.0865 1.4311 13.4021 2.18882 13.4021 2.97888C13.4021 3.76894 13.0865 4.52665 12.5246 5.08539L10.148 7.44815H21.003C21.7979 7.44815 22.5602 7.76206 23.1222 8.32083C23.6842 8.8796 24 9.63745 24 10.4277C24 11.2179 23.6842 11.9757 23.1222 12.5345C22.5602 13.0933 21.7979 13.4072 21.003 13.4072H10.148L12.5246 15.7699C12.8109 16.0448 13.0392 16.3736 13.1963 16.7371C13.3533 17.1006 13.436 17.4916 13.4395 17.8872C13.4429 18.2828 13.3671 18.6751 13.2164 19.0413C13.0657 19.4075 12.8432 19.7401 12.5618 20.0199C12.2804 20.2997 11.9458 20.5209 11.5774 20.6707C11.2091 20.8205 10.8145 20.8959 10.4166 20.8925C10.0186 20.889 9.62536 20.8068 9.25972 20.6507C8.89408 20.4945 8.56338 20.2675 8.28692 19.983L0.93371 12.6726C-0.311237 11.4349 -0.311237 9.42046 0.93371 8.18276L8.28692 0.872361C8.84894 0.313788 9.61109 0 10.4058 0C11.2005 0 11.9626 0.313788 12.5246 0.872361Z" fill="white"/>
</svg>
