<svg width="30" height="30" viewBox="0 0 30 30" fill="none" xmlns="http://www.w3.org/2000/svg">
<path d="M27.6984 12.4762H25.0301C24.7766 11.4064 24.3527 10.3843 23.7745 9.44919L25.6626 7.56109C25.8101 7.41369 25.9271 7.23868 26.0069 7.04606C26.0867 6.85344 26.1278 6.64698 26.1278 6.43847C26.1278 6.22997 26.0867 6.02351 26.0069 5.83089C25.9271 5.63827 25.8101 5.46326 25.6626 5.31586L24.5404 4.19363C24.2428 3.89606 23.8391 3.72889 23.4182 3.72889C22.9973 3.72889 22.5936 3.89606 22.296 4.19363L20.4079 6.08173C19.4726 5.50397 18.4506 5.08031 17.3809 4.82697V2.15871C17.3809 1.73773 17.2137 1.334 16.916 1.03632C16.6183 0.738644 16.2146 0.571411 15.7936 0.571411H14.2063C13.7853 0.571411 13.3816 0.738644 13.0839 1.03632C12.7862 1.334 12.619 1.73773 12.619 2.15871V4.82697C11.5492 5.08044 10.5271 5.50437 9.59201 6.08252L7.70471 4.19443C7.40705 3.89685 7.00338 3.72969 6.58249 3.72969C6.16159 3.72969 5.75793 3.89685 5.46026 4.19443L4.33725 5.31665C4.03972 5.61445 3.87252 6.01814 3.87237 6.4391C3.87222 6.86006 4.03913 7.26388 4.33646 7.56189L6.22455 9.44998C5.6468 10.3849 5.22313 11.4067 4.96979 12.4762H2.30153C1.88056 12.4762 1.47682 12.6434 1.17914 12.9411C0.881466 13.2388 0.714233 13.6425 0.714233 14.0635L0.714233 15.6508C0.714233 16.0718 0.881466 16.4755 1.17914 16.7732C1.47682 17.0708 1.88056 17.2381 2.30153 17.2381H4.96979C5.22341 18.3076 5.64734 19.3294 6.22534 20.2643L4.33725 22.1524C3.7182 22.7714 3.7182 23.7778 4.33804 24.3976L5.46026 25.5198C6.07931 26.1389 7.08487 26.1389 7.70471 25.5198L9.5928 23.6317C10.5278 24.2102 11.5499 24.6342 12.6198 24.8873V27.5555C12.6198 27.9765 12.787 28.3803 13.0847 28.6779C13.3824 28.9756 13.7861 29.1428 14.2071 29.1428H15.7944C16.2154 29.1428 16.6191 28.9756 16.9168 28.6779C17.2145 28.3803 17.3817 27.9765 17.3817 27.5555V24.8873C18.4512 24.6337 19.473 24.2097 20.4079 23.6317L22.296 25.5198C22.5936 25.8174 22.9973 25.9846 23.4182 25.9846C23.8391 25.9846 24.2428 25.8174 24.5404 25.5198L25.6626 24.3976C25.8101 24.2502 25.9271 24.0752 26.0069 23.8826C26.0867 23.6899 26.1278 23.4835 26.1278 23.275C26.1278 23.0665 26.0867 22.86 26.0069 22.6674C25.9271 22.4748 25.8101 22.2998 25.6626 22.1524L23.7745 20.2643C24.353 19.3293 24.777 18.3072 25.0301 17.2373H27.6984C28.1193 17.2373 28.5231 17.07 28.8208 16.7724C29.1184 16.4747 29.2857 16.071 29.2857 15.65V14.0627C29.2854 13.6418 29.1181 13.2383 28.8205 12.9408C28.5228 12.6433 28.1192 12.4762 27.6984 12.4762ZM14.9999 21.2063C13.316 21.2063 11.7011 20.5374 10.5104 19.3467C9.31967 18.156 8.65074 16.541 8.65074 14.8571C8.65074 13.1732 9.31967 11.5583 10.5104 10.3676C11.7011 9.17685 13.316 8.50792 14.9999 8.50792C16.6839 8.50792 18.2988 9.17685 19.4895 10.3676C20.6802 11.5583 21.3492 13.1732 21.3492 14.8571C21.3492 16.541 20.6802 18.156 19.4895 19.3467C18.2988 20.5374 16.6839 21.2063 14.9999 21.2063Z" fill="white"/>
</svg>
