<svg width="58" height="44" viewBox="0 0 58 44" fill="none" xmlns="http://www.w3.org/2000/svg">
<g opacity="0.3">
<rect x="1" y="1" width="28" height="42" rx="2" stroke="black" stroke-width="2" stroke-linecap="round" stroke-linejoin="round"/>
<path d="M14.7264 23.0667L14.5464 24.2956C14.3221 25.8305 13.2275 27.1097 11.7195 27.6H18.2805C16.7724 27.1097 15.6778 25.8305 15.4536 24.2956L15.2735 23.0668L16.6405 24.4C17.546 25.2837 19.0149 25.2837 19.9204 24.4C20.8265 23.5164 20.8265 22.0837 19.9204 21.2L15 16.4L10.0795 21.2C9.17345 22.0837 9.17345 23.5164 10.0795 24.4C10.985 25.2837 12.4539 25.2837 13.3594 24.4L14.7264 23.0667Z" fill="black"/>
<path d="M31.8 1H41C42.1046 1 43 1.89543 43 3V41C43 42.1046 42.1046 43 41 43H31.8" stroke="black" stroke-width="2" stroke-linecap="round" stroke-linejoin="round"/>
<path d="M45.8 1H55C56.1046 1 57 1.89543 57 3V41C57 42.1046 56.1046 43 55 43H45.8" stroke="black" stroke-width="2" stroke-linecap="round" stroke-linejoin="round"/>
</g>
</svg>
