<svg width="30" height="30" viewBox="0 0 30 30" fill="none" xmlns="http://www.w3.org/2000/svg">
<path d="M26.6072 7.66686C25.7534 8.03516 24.8243 8.30023 23.8673 8.40346C24.8609 7.81316 25.605 6.88058 25.9599 5.78069C25.0275 6.33535 24.0061 6.72429 22.9409 6.93025C22.4958 6.45432 21.9573 6.07517 21.3592 5.81643C20.7611 5.55769 20.1161 5.4249 19.4644 5.42634C16.8277 5.42634 14.7071 7.56362 14.7071 10.1864C14.7071 10.5547 14.7518 10.923 14.8243 11.2773C10.8762 11.0709 7.35501 9.18471 5.01405 6.29688C4.5875 7.02544 4.36397 7.85499 4.36672 8.69922C4.36672 10.351 5.20657 11.8075 6.48726 12.6641C5.73253 12.6343 4.99547 12.4269 4.33603 12.0586V12.1172C4.33603 14.4303 5.97108 16.3471 8.15021 16.788C7.74105 16.8942 7.32015 16.9486 6.89742 16.9498C6.58771 16.9498 6.29474 16.9191 5.99898 16.8772C6.60166 18.7634 8.35668 20.1334 10.4465 20.178C8.81148 21.4587 6.76349 22.2121 4.53972 22.2121C4.14072 22.2121 3.77242 22.1981 3.39016 22.1535C5.49954 23.5067 8.00233 24.288 10.6976 24.288C19.4476 24.288 24.2356 17.0391 24.2356 10.7472C24.2356 10.5407 24.2356 10.3343 24.2216 10.1278C25.148 9.44978 25.9599 8.60994 26.6072 7.66686Z" fill="white"/>
</svg>
