<svg width="30" height="30" viewBox="0 0 30 30" fill="none" xmlns="http://www.w3.org/2000/svg">
<path fill-rule="evenodd" clip-rule="evenodd" d="M22.6226 7.27738C21.6326 6.28081 20.4546 5.49061 19.157 4.95256C17.8593 4.4145 16.4678 4.13929 15.0631 4.14286C9.17262 4.14286 4.37738 8.9369 4.375 14.8298C4.375 16.7131 4.86667 18.5512 5.80119 20.1726L4.28571 25.7095L9.95119 24.2226C11.5183 25.0757 13.274 25.523 15.0583 25.5238H15.0631C20.9524 25.5238 25.7476 20.7298 25.75 14.8369C25.754 13.4327 25.4797 12.0417 24.9429 10.7441C24.4062 9.44658 23.6175 8.2683 22.6226 7.27738V7.27738ZM15.0631 23.7202H15.0595C13.4685 23.7204 11.9067 23.2923 10.5381 22.4809L10.2143 22.2881L6.85238 23.1702L7.74881 19.8929L7.53809 19.5571C6.64856 18.141 6.17766 16.5021 6.17976 14.8298C6.18214 9.93214 10.1667 5.94762 15.0667 5.94762C16.2336 5.94503 17.3895 6.17391 18.4674 6.62101C19.5454 7.06812 20.5239 7.72457 21.3464 8.55238C22.1734 9.37624 22.8288 10.3558 23.2749 11.4345C23.7209 12.5132 23.9488 13.6696 23.9452 14.8369C23.9429 19.7345 19.9583 23.7202 15.0631 23.7202ZM19.9357 17.0667C19.6679 16.9321 18.3559 16.2869 18.1107 16.1976C17.8667 16.1083 17.6893 16.0643 17.5107 16.331C17.3321 16.5976 16.8202 17.1988 16.6643 17.3774C16.5083 17.5559 16.3524 17.5774 16.0857 17.444C15.819 17.3107 14.9583 17.0286 13.9381 16.119C13.144 15.4107 12.6083 14.5369 12.4524 14.269C12.2964 14.0012 12.4357 13.8571 12.5702 13.7238C12.6905 13.6048 12.8369 13.4119 12.9702 13.256C13.1036 13.1 13.1476 12.9893 13.2369 12.8107C13.3262 12.6321 13.2821 12.4762 13.2143 12.3429C13.1476 12.2083 12.6131 10.894 12.3905 10.3595C12.175 9.84167 11.9548 9.91071 11.7905 9.90357C11.6203 9.89661 11.45 9.89344 11.2798 9.89405C11.1443 9.8975 11.0111 9.92889 10.8884 9.98625C10.7657 10.0436 10.6562 10.1257 10.5667 10.2274C10.3214 10.4952 9.63214 11.1405 9.63214 12.4548C9.63214 13.769 10.5893 15.0393 10.7226 15.2179C10.856 15.3964 12.606 18.0929 15.2845 19.25C15.9226 19.525 16.4202 19.6893 16.8071 19.8131C17.4464 20.0167 18.0286 19.9869 18.4893 19.919C19.0024 19.8429 20.069 19.2738 20.2917 18.65C20.5143 18.0262 20.5143 17.4917 20.4476 17.3798C20.3809 17.2679 20.2012 17.2 19.9357 17.0667" fill="white"/>
</svg>
