<svg width="487" height="257" viewBox="0 0 487 257" fill="none" xmlns="http://www.w3.org/2000/svg">
<g filter="url(#filter0_d)">
<g clip-path="url(#clip0)">
<path d="M358.247 71.9987C358.247 69.3478 360.399 67.1988 363.054 67.1988L432.747 67.1988C435.402 67.1988 437.554 69.3478 437.554 71.9987V182.396C437.554 185.047 435.402 187.196 432.747 187.196H363.054C360.399 187.196 358.247 185.047 358.247 182.396V71.9987Z" fill="white"/>
<path d="M362.464 95.0382H366.816L368.73 89.946H377.303L379.217 95.0382H383.569L374.878 73.4387H371.155L362.464 95.0382ZM370.119 86.3984L373.016 78.8844L375.913 86.3984H370.119Z" fill="#DF0000"/>
<path d="M433.818 159.357L429.466 159.357L427.552 164.449L418.979 164.449L417.065 159.357L412.713 159.357L421.404 180.956L425.127 180.956L433.818 159.357ZM426.162 167.997L423.265 175.511L420.368 167.997L426.162 167.997Z" fill="#DF0000"/>
<path fill-rule="evenodd" clip-rule="evenodd" d="M397.9 113.328C402.404 104.577 411.41 104.577 415.912 108.952C420.414 113.328 420.416 122.077 415.912 130.819C412.761 137.381 404.654 143.944 397.9 148.317C391.146 143.944 383.041 137.381 379.89 130.819C375.386 122.068 375.386 113.319 379.89 108.952C384.394 104.585 393.398 104.577 397.9 113.328Z" fill="#DF0000"/>
</g>
<g clip-path="url(#clip1)">
<path d="M264.578 26.2361C265.265 23.6756 267.9 22.156 270.464 22.8421L337.783 40.8555C340.347 41.5416 341.869 44.1736 341.182 46.7342L312.57 153.37C311.883 155.931 309.247 157.45 306.683 156.764L239.364 138.751C236.8 138.065 235.278 135.433 235.966 132.872L264.578 26.2361Z" fill="white"/>
<path d="M262.679 49.5804L266.883 50.7053L270.051 46.2812L278.332 48.497L278.861 53.9104L283.065 55.0353L280.268 31.9254L276.672 30.9632L262.679 49.5804ZM272.313 43.2137L277.059 36.7045L277.91 44.7112L272.313 43.2137Z" fill="#333333"/>
<path d="M314.932 130.15L310.728 129.025L307.56 133.449L299.279 131.233L298.75 125.82L294.547 124.695L297.343 147.805L300.939 148.767L314.932 130.15ZM305.298 136.517L300.553 143.026L299.702 135.019L305.298 136.517Z" fill="#333333"/>
<path fill-rule="evenodd" clip-rule="evenodd" d="M286.191 89.8509C284.479 86.16 282.189 80.3124 283.183 76.6058C284.58 71.3997 289.419 68.1648 293.977 69.3844C298.535 70.6041 301.108 75.814 299.709 81.0278C298.68 84.8629 293.527 88.953 290.243 91.2699C293.621 89.1034 299.274 85.9652 302.648 86.8681C307.212 88.0893 309.779 93.2976 308.38 98.5114C306.981 103.725 302.143 106.95 297.587 105.731C293.406 104.612 289.334 96.2387 288.007 93.5613C286.974 99.874 285.773 103.877 289.17 112.324L276.781 109.009C283.891 103.375 284.898 99.3206 287.177 93.3455C284.673 95.0019 276.97 100.214 272.793 99.0964C268.227 97.8747 265.662 92.6668 267.06 87.4549C268.459 82.243 273.296 79.0139 277.854 80.2335C281.107 81.1041 284.316 86.2785 286.189 89.8503L286.191 89.8509Z" fill="#333333"/>
</g>
<g clip-path="url(#clip2)">
<path d="M133.305 16.7999C133.305 14.149 135.457 12 138.112 12L207.805 12C210.46 12 212.612 14.149 212.612 16.7999V127.198C212.612 129.848 210.46 131.997 207.805 131.997H138.112C135.457 131.997 133.305 129.848 133.305 127.198V16.7999Z" fill="white"/>
<path d="M137.522 39.8394H141.874L143.788 34.7472H152.361L154.275 39.8394H158.627L149.936 18.2399H146.213L137.522 39.8394ZM145.177 31.1996L148.074 23.6856L150.971 31.1996H145.177Z" fill="#DF0000"/>
<path d="M208.876 104.158H204.524L202.61 109.25H194.037L192.123 104.158H187.771L196.462 125.758H200.185L208.876 104.158ZM201.221 112.798L198.324 120.312L195.427 112.798H201.221Z" fill="#DF0000"/>
<path fill-rule="evenodd" clip-rule="evenodd" d="M173.026 45.5993L194.347 72.2376L173.026 98.8782L151.57 72.2376L173.026 45.5993Z" fill="#DF0000"/>
</g>
<g clip-path="url(#clip3)">
<path d="M11.244 46.6894C10.557 44.1288 12.0786 41.4968 14.6427 40.8107L81.9615 22.7973C84.5255 22.1112 87.1611 23.6308 87.8481 26.1914L116.46 132.827C117.147 135.388 115.626 138.02 113.062 138.706L45.7427 156.719C43.1786 157.405 40.5431 155.886 39.856 153.325L11.244 46.6894Z" fill="white"/>
<path d="M21.2882 67.854L25.4919 66.7291L26.0208 61.3157L34.3016 59.0999L37.47 63.524L41.6738 62.3991L27.681 43.7819L24.085 44.7441L21.2882 67.854ZM26.4435 57.5299L27.2943 49.5231L32.04 56.0324L26.4435 57.5299Z" fill="#333333"/>
<path d="M106.88 111.538L102.677 112.663L102.148 118.077L93.867 120.293L90.6986 115.868L86.4949 116.993L100.488 135.611L104.084 134.648L106.88 111.538ZM101.725 121.863L100.874 129.869L96.1286 123.36L101.725 121.863Z" fill="#333333"/>
<path fill-rule="evenodd" clip-rule="evenodd" d="M67.3321 105.623C66.7083 108.251 63.2383 112.234 59.1082 113.339C50.8438 115.551 47.3968 110.957 46.0159 105.81C41.8739 90.3731 57.1007 80.7826 57.0112 64.2582C65.445 78.8689 83.1937 79.3166 87.3357 94.7538C88.7166 99.9004 88.0314 105.6 79.767 107.811C75.637 108.916 70.6356 107.2 68.7813 105.235C69.1266 106.521 69.7839 111.862 74.9582 114.614L66.6853 116.828C69.7818 111.862 67.6837 106.907 67.3385 105.621L67.3321 105.623Z" fill="#333333"/>
</g>
<path d="M18.3433 144.099C1.69411 172.083 20.2352 189.163 31.5869 194.205C31.5869 201.454 36.1276 215.95 54.2904 215.95C76.9939 215.95 95.9134 191.369 97.8053 181.915C118.617 186.642 133.752 173.407 138.482 168.68C146.996 172.461 171.591 169.625 179.159 168.68C189.565 174.352 201.863 170.57 206.592 165.843C213.214 180.97 232.134 180.024 237.81 176.243C250.675 193.638 267.135 186.642 273.757 180.97C274.072 180.97 275.081 181.159 276.595 181.915C279.433 199.878 297.406 202.714 302.136 200.823C306.866 207.441 319.164 211.223 326.731 207.441C338.083 220.677 352.273 217.84 357.949 213.113C370.246 230.131 387.274 223.513 391.058 221.622C394.085 226.16 401.779 227.294 405.247 227.294L426.059 228.24C430.158 228.87 440.438 228.618 448.762 222.567C459.168 215.004 455.384 200.823 452.546 195.151C455.384 190.424 455.384 180.024 453.492 175.297C464.087 150.339 446.555 142.208 436.465 141.263C424.482 140.318 399.572 139.372 395.788 143.154C392.004 137.86 377.183 134.015 370.246 132.754C364.886 131.179 353.408 128.406 350.381 129.918C334.299 114.792 318.218 125.191 315.38 128.973C308.758 100.611 281.325 108.174 277.541 112.901C276.784 104.582 267.135 99.3504 262.405 97.7747C252.945 95.2536 232.323 89.8333 225.512 88.3207C218.701 86.808 213.214 88.3207 211.322 89.2661C209.746 88.0056 204.511 85.1063 196.187 83.5937C180.294 81.3247 173.799 100.296 172.537 110.065L170.645 122.355C170.645 120.149 170.456 113.279 169.699 103.447C168.753 91.1569 159.294 83.5937 148.888 82.6483C138.482 81.7029 128.077 88.3207 125.239 97.7747C87.3996 81.7029 62.8042 115.737 63.7502 125.191C56.1824 120.464 30.6411 124.246 18.3433 144.099Z" fill="#333333"/>
<path d="M144.931 152.111C145.933 153.022 147.317 153.438 149.083 153.358L174.739 152.199C178.422 152.033 180.191 150.368 180.047 147.203C179.9 143.988 177.985 142.464 174.302 142.631L154.928 143.506L153.191 105.382C153.111 103.624 152.517 102.242 151.409 101.235C150.302 100.228 148.84 99.7654 147.023 99.8474C145.207 99.9295 143.793 100.522 142.782 101.624C141.77 102.727 141.305 104.158 141.385 105.916L143.308 148.108C143.388 149.866 143.929 151.2 144.931 152.111Z" fill="white"/>
<path fill-rule="evenodd" clip-rule="evenodd" d="M115.85 163.293C110.918 165.233 106.212 165.895 101.732 165.278C97.28 164.597 93.316 162.75 89.84 159.738C86.3454 156.68 83.5773 152.579 81.5359 147.435C79.4944 142.291 78.7084 137.437 79.178 132.873C79.6289 128.262 81.2545 124.217 84.0547 120.737C86.9019 117.238 90.7915 114.519 95.7235 112.579C100.655 110.639 105.338 109.986 109.772 110.621C114.252 111.237 118.239 113.075 121.734 116.133C125.21 119.145 127.969 123.223 130.01 128.367C132.052 133.511 132.847 138.388 132.396 142.999C131.926 147.562 130.277 151.617 127.449 155.163C124.649 158.643 120.782 161.353 115.85 163.293ZM112.482 154.806C116.616 153.18 119.281 150.455 120.479 146.632C121.724 142.79 121.261 138.134 119.089 132.663C116.918 127.191 114.092 123.491 110.611 121.563C107.112 119.587 103.272 119.422 99.0919 121.066C94.9115 122.711 92.2223 125.444 91.0244 129.267C89.8548 133.025 90.3558 137.64 92.5272 143.111C94.6985 148.582 97.5338 152.306 101.033 154.281C104.532 156.257 108.349 156.431 112.482 154.806Z" fill="white"/>
<path d="M71.874 190.467C68.7898 192.987 65.632 194.982 62.4006 196.451C59.1371 197.882 56.1213 198.622 53.3532 198.672C52.4151 198.723 51.6172 198.627 50.9594 198.384C50.3087 198.07 49.6789 197.544 49.0701 196.806C48.2691 195.834 47.857 194.74 47.8338 193.523C47.8497 192.274 48.248 191.33 49.0288 190.692C49.4583 190.342 49.9323 190.084 50.4509 189.921C50.9764 189.687 51.6762 189.505 52.5502 189.376C55.094 189.054 57.433 188.444 59.5673 187.546C61.6696 186.609 63.7553 185.295 65.8244 183.604C68.4011 181.499 70.0201 179.46 70.6816 177.489C71.3432 175.517 71.0171 173.735 69.7034 172.141C68.7102 170.936 67.265 170.491 65.3679 170.805C63.5098 171.088 60.6883 172.222 56.9033 174.209C52.6638 176.437 49.0183 177.92 45.967 178.656C42.9547 179.361 40.3002 179.351 38.0035 178.626C35.7459 177.869 33.7039 176.382 31.8776 174.167C29.859 171.718 28.7515 168.948 28.5549 165.857C28.3653 162.694 29.0712 159.548 30.6726 156.418C32.2811 153.218 34.6664 150.326 37.8287 147.742C43.3724 143.212 49.0775 140.86 54.9441 140.685C55.9142 140.673 56.7246 140.824 57.3754 141.137C58.0332 141.381 58.6504 141.852 59.2271 142.552C60.0281 143.523 60.4207 144.633 60.4049 145.882C60.428 147.099 60.0492 148.027 59.2684 148.665C58.839 149.016 58.381 149.292 57.8945 149.495C57.447 149.665 56.7312 149.827 55.7471 149.981C53.3134 150.278 51.2051 150.732 49.4221 151.343C47.6782 151.923 45.7717 153.058 43.7026 154.748C41.3212 156.694 39.8317 158.692 39.2343 160.741C38.6048 162.751 38.9469 164.553 40.2606 166.147C41.0296 167.08 41.9241 167.65 42.9443 167.857C43.9715 167.993 45.2824 167.8 46.8772 167.278C48.5109 166.723 50.6682 165.774 53.3491 164.429C59.6198 161.257 64.6598 159.643 68.469 159.588C72.3174 159.501 75.5552 161.051 78.1825 164.238C80.2331 166.725 81.3407 169.495 81.5052 172.548C81.7088 175.569 80.9744 178.641 79.3018 181.764C77.6684 184.855 75.1924 187.756 71.874 190.467Z" fill="white"/>
<path d="M189.869 154.421C188.066 154.185 186.708 153.475 185.794 152.291C184.881 151.107 184.542 149.617 184.779 147.822L190.309 105.871C190.54 104.126 191.249 102.799 192.439 101.89C193.629 100.98 195.125 100.643 196.927 100.879C198.73 101.114 200.088 101.824 201.002 103.008C201.915 104.193 202.257 105.657 202.027 107.402L196.497 149.354C196.26 151.148 195.547 152.5 194.357 153.41C193.168 154.319 191.671 154.656 189.869 154.421Z" fill="white"/>
<path d="M221.659 158.591C222.465 159.893 223.723 160.767 225.432 161.214C227.191 161.673 228.718 161.526 230.013 160.773C231.308 160.019 232.18 158.791 232.628 157.089L242.355 120.175L254.226 123.275C257.841 124.22 260.059 123.135 260.879 120.023C261.686 116.959 260.282 114.955 256.667 114.01L221.494 104.824C217.879 103.88 215.668 104.94 214.86 108.004C214.04 111.117 215.438 113.145 219.053 114.089L230.924 117.19L221.197 154.104C220.748 155.806 220.903 157.302 221.659 158.591Z" fill="white"/>
<path fill-rule="evenodd" clip-rule="evenodd" d="M304.169 178.318C304.258 179.304 304.189 180.13 303.961 180.797C303.505 182.129 302.564 183.085 301.139 183.664C299.778 184.212 298.404 184.251 297.018 183.78C296.109 183.472 295.33 182.942 294.68 182.191C294.047 181.392 293.686 180.419 293.598 179.274L292.68 169.561L268.37 161.316L261.687 168.452C260.914 169.305 260.032 169.856 259.04 170.104C258.113 170.32 257.171 170.266 256.214 169.942C254.828 169.472 253.74 168.598 252.95 167.321C252.176 165.996 252.017 164.667 252.473 163.335C252.701 162.669 253.153 161.972 253.828 161.245L287.041 127.332C287.958 126.368 289.04 125.779 290.287 125.564C291.551 125.302 292.78 125.374 293.975 125.779C295.218 126.201 296.26 126.899 297.1 127.875C297.94 128.85 298.459 129.983 298.658 131.272L304.169 178.318ZM291.762 159.848L289.795 138.464L275.053 154.181L291.762 159.848Z" fill="white"/>
<path d="M314.428 188.11C315.115 189.437 316.325 190.376 318.057 190.927C319.789 191.477 321.322 191.41 322.655 190.726C323.988 190.041 324.931 188.836 325.484 187.112L338.411 146.806C338.949 145.129 338.874 143.628 338.186 142.301C337.499 140.974 336.289 140.035 334.557 139.484C332.825 138.934 331.292 139.001 329.959 139.685C328.626 140.37 327.691 141.551 327.153 143.227L314.226 183.533C313.673 185.257 313.74 186.783 314.428 188.11Z" fill="white"/>
<path fill-rule="evenodd" clip-rule="evenodd" d="M383.268 200.131C383.754 201.38 383.876 202.518 383.635 203.546C383.314 204.917 382.485 205.912 381.147 206.531C379.859 207.162 378.477 207.306 377.001 206.963C376.067 206.746 375.208 206.315 374.426 205.669C373.644 205.023 373.067 204.166 372.694 203.098L366.326 186.442C365.788 184.975 365.115 183.863 364.306 183.108C363.509 182.303 362.397 181.736 360.971 181.405L354.995 180.018L351.521 194.855C351.108 196.618 350.265 197.894 348.991 198.682C347.767 199.482 346.294 199.683 344.572 199.283C342.802 198.872 341.52 198.033 340.728 196.765C339.936 195.497 339.746 193.981 340.159 192.218L349.79 151.085C350.191 149.371 350.968 148.158 352.12 147.444C353.272 146.731 354.709 146.574 356.431 146.973L374.949 151.271C381.049 152.686 385.332 155.1 387.8 158.512C390.329 161.887 391.003 166.096 389.822 171.14C388.894 175.106 387.013 178.155 384.181 180.285C381.348 182.416 377.818 183.429 373.59 183.326C374.996 183.962 376.162 184.852 377.087 185.996C378.073 187.103 378.917 188.589 379.621 190.456L383.268 200.131ZM367.87 173.867C371.165 174.632 373.683 174.622 375.422 173.839C377.173 173.006 378.335 171.365 378.908 168.917C379.493 166.419 379.179 164.436 377.967 162.968C376.755 161.499 374.502 160.382 371.206 159.618L360.213 157.066L356.877 171.316L367.87 173.867Z" fill="white"/>
<path d="M402.608 208.898C403.541 209.879 404.89 210.395 406.657 210.444L433.465 211.191C437.201 211.295 439.111 209.839 439.196 206.823C439.282 203.757 437.457 202.172 433.721 202.068L412.896 201.488L413.271 188.144L432.582 188.682C436.317 188.786 438.228 187.33 438.312 184.314C438.399 181.248 436.574 179.663 432.838 179.559L413.527 179.022L413.877 166.582L434.702 167.162C438.438 167.266 440.349 165.785 440.435 162.719C440.52 159.703 438.694 158.144 434.958 158.04L408.151 157.293C406.384 157.244 405.007 157.683 404.021 158.612C403.035 159.54 402.517 160.884 402.468 162.643L401.284 204.787C401.234 206.546 401.676 207.916 402.608 208.898Z" fill="white"/>
</g>
<defs>
<filter id="filter0_d" x="0" y="0" width="487" height="256.475" filterUnits="userSpaceOnUse" color-interpolation-filters="sRGB">
<feFlood flood-opacity="0" result="BackgroundImageFix"/>
<feColorMatrix in="SourceAlpha" type="matrix" values="0 0 0 0 0 0 0 0 0 0 0 0 0 0 0 0 0 0 127 0" result="hardAlpha"/>
<feOffset dx="10" dy="8"/>
<feGaussianBlur stdDeviation="10"/>
<feColorMatrix type="matrix" values="0 0 0 0 0 0 0 0 0 0 0 0 0 0 0 0 0 0 0.15 0"/>
<feBlend mode="normal" in2="BackgroundImageFix" result="effect1_dropShadow"/>
<feBlend mode="normal" in="SourceGraphic" in2="effect1_dropShadow" result="shape"/>
</filter>
<clipPath id="clip0">
<rect width="79.3065" height="119.997" fill="white" transform="translate(358.247 67.1988)"/>
</clipPath>
<clipPath id="clip1">
<rect width="79.2992" height="120.008" fill="white" transform="matrix(0.966014 0.25849 -0.259149 0.965837 265.822 21.5998)"/>
</clipPath>
<clipPath id="clip2">
<rect width="79.3064" height="119.997" fill="white" transform="translate(133.305 12)"/>
</clipPath>
<clipPath id="clip3">
<rect width="79.2992" height="120.008" fill="white" transform="matrix(0.966014 -0.25849 0.259149 0.965837 10 42.053)"/>
</clipPath>
</defs>
</svg>
