<svg width="452" height="272" viewBox="0 0 452 272" fill="none" xmlns="http://www.w3.org/2000/svg">
<g filter="url(#filter0_d)">
<g clip-path="url(#clip0)">
<path d="M330.98 67.4324C330.98 64.9832 332.963 62.9978 335.41 62.9978L399.646 62.9978C402.093 62.9978 404.077 64.9832 404.077 67.4324V169.428C404.077 171.877 402.093 173.863 399.646 173.863H335.41C332.963 173.863 330.98 171.877 330.98 169.428V67.4324Z" fill="white"/>
<path d="M334.866 88.7185H338.877L340.641 84.0138H348.543L350.307 88.7185H354.318L346.308 68.7628H342.877L334.866 88.7185ZM341.922 80.7362L344.592 73.7941L347.262 80.7362H341.922Z" fill="#DF0000"/>
<path d="M400.633 148.142L396.622 148.142L394.858 152.847L386.956 152.847L385.192 148.142L381.181 148.142L389.191 168.098L392.623 168.098L400.633 148.142ZM393.577 156.124L390.907 163.066L388.237 156.124L393.577 156.124Z" fill="#DF0000"/>
<path fill-rule="evenodd" clip-rule="evenodd" d="M367.528 105.616C371.679 97.5308 379.98 97.5308 384.129 101.573C388.279 105.616 388.281 113.699 384.129 121.776C381.225 127.839 373.753 133.902 367.528 137.942C361.302 133.902 353.832 127.839 350.928 121.776C346.776 113.691 346.776 105.608 350.928 101.573C355.079 97.5389 363.378 97.5308 367.528 105.616Z" fill="#DF0000"/>
</g>
<g clip-path="url(#clip1)">
<path d="M244.644 25.1526C245.277 22.7869 247.707 21.383 250.07 22.0169L312.118 38.6594C314.481 39.2933 315.883 41.7249 315.25 44.0906L288.879 142.611C288.245 144.976 285.816 146.38 283.453 145.746L221.405 129.104C219.042 128.47 217.639 126.038 218.272 123.673L244.644 25.1526Z" fill="white"/>
<path d="M242.894 46.7203L246.769 47.7595L249.689 43.6721L257.322 45.7193L257.809 50.7207L261.684 51.76L259.106 30.4089L255.791 29.5199L242.894 46.7203ZM251.774 40.8381L256.148 34.8242L256.932 42.2216L251.774 40.8381Z" fill="#333333"/>
<path d="M291.056 121.158L287.182 120.119L284.261 124.206L276.629 122.159L276.141 117.157L272.267 116.118L274.845 137.469L278.159 138.358L291.056 121.158ZM282.177 127.04L277.803 133.054L277.019 125.657L282.177 127.04Z" fill="#333333"/>
<path fill-rule="evenodd" clip-rule="evenodd" d="M264.566 83.9258C262.988 80.5158 260.877 75.1133 261.793 71.6888C263.081 66.8789 267.541 63.8902 271.742 65.0171C275.943 66.1439 278.314 70.9573 277.025 75.7743C276.076 79.3175 271.327 83.0963 268.3 85.2369C271.413 83.2353 276.624 80.3359 279.734 81.17C283.94 82.2983 286.307 87.1103 285.017 91.9273C283.728 96.7442 279.268 99.7236 275.069 98.5973C271.215 97.5635 267.462 89.8275 266.239 87.3539C265.287 93.1861 264.18 96.8841 267.311 104.689L255.892 101.626C262.445 96.4208 263.374 92.6749 265.474 87.1545C263.166 88.6849 256.067 93.5004 252.216 92.4677C248.008 91.3389 245.644 86.5274 246.933 81.7122C248.222 76.897 252.68 73.9136 256.881 75.0405C259.88 75.8447 262.837 80.6254 264.564 83.9253L264.566 83.9258Z" fill="#333333"/>
</g>
<g clip-path="url(#clip2)">
<path d="M123.651 16.4346C123.651 13.9854 125.634 12 128.081 12L192.317 12C194.764 12 196.747 13.9854 196.747 16.4346V118.43C196.747 120.879 194.764 122.865 192.317 122.865H128.081C125.634 122.865 123.651 120.879 123.651 118.43V16.4346Z" fill="white"/>
<path d="M127.537 37.7207H131.548L133.312 33.016H141.214L142.978 37.7207H146.989L138.979 17.765H135.547L127.537 37.7207ZM134.593 29.7384L137.263 22.7963L139.933 29.7384H134.593Z" fill="#DF0000"/>
<path d="M193.304 97.1442H189.293L187.529 101.849H179.627L177.863 97.1442H173.852L181.862 117.1H185.293L193.304 97.1442ZM186.248 105.126L183.578 112.069L180.908 105.126H186.248Z" fill="#DF0000"/>
<path fill-rule="evenodd" clip-rule="evenodd" d="M160.261 43.0421L179.913 67.6531L160.261 92.2661L140.485 67.6531L160.261 43.0421Z" fill="#DF0000"/>
</g>
<g clip-path="url(#clip3)">
<path d="M11.1466 44.0492C10.5133 41.6835 11.9158 39.2519 14.2792 38.618L76.3269 21.9755C78.6902 21.3416 81.1194 22.7455 81.7527 25.1113L108.124 123.631C108.758 125.997 107.355 128.429 104.992 129.063L42.9441 145.705C40.5807 146.339 38.1516 144.935 37.5183 142.569L11.1466 44.0492Z" fill="white"/>
<path d="M20.4043 63.6031L24.2789 62.5638L24.7663 57.5624L32.3988 55.5153L35.3191 59.6026L39.1937 58.5634L26.2965 41.3631L22.9821 42.252L20.4043 63.6031ZM25.156 54.0647L25.9402 46.6674L30.3143 52.6812L25.156 54.0647Z" fill="#333333"/>
<path d="M99.2948 103.963L95.4202 105.002L94.9327 110.003L87.3003 112.051L84.38 107.963L80.5054 109.002L93.4025 126.203L96.7169 125.314L99.2948 103.963ZM94.5431 113.501L93.7589 120.898L89.3848 114.885L94.5431 113.501Z" fill="#333333"/>
<path fill-rule="evenodd" clip-rule="evenodd" d="M62.8429 98.4972C62.2679 100.926 59.0696 104.606 55.2629 105.627C47.6456 107.67 44.4685 103.426 43.1957 98.6706C39.378 84.4083 53.4126 75.5477 53.3301 60.2809C61.1035 73.7796 77.4625 74.1933 81.2802 88.4556C82.553 93.2105 81.9215 98.4762 74.3042 100.519C70.4975 101.54 65.8877 99.9549 64.1786 98.1389C64.4968 99.3276 65.1027 104.261 69.8718 106.804L62.2467 108.85C65.1007 104.262 63.167 99.6843 62.8488 98.4956L62.8429 98.4972Z" fill="#333333"/>
</g>
<path d="M17.69 134.046C2.34444 159.9 19.4338 175.68 29.8967 180.338C29.8967 187.035 34.0818 200.428 50.8225 200.428C71.7483 200.428 89.1863 177.718 90.9302 168.983C110.112 173.351 124.063 161.122 128.422 156.755C136.269 160.249 158.939 157.629 165.914 156.755C175.505 161.996 186.84 158.502 191.199 154.135C197.303 168.11 214.741 167.237 219.972 163.743C231.83 179.814 247.001 173.351 253.105 168.11C253.395 168.11 254.325 168.285 255.72 168.983C258.336 185.579 274.902 188.199 279.262 186.452C283.621 192.567 294.956 196.06 301.931 192.567C312.394 204.795 325.473 202.174 330.704 197.807C342.039 213.529 357.733 207.415 361.221 205.668C364.011 209.861 371.103 210.909 374.3 210.909L393.481 211.782C397.26 212.365 406.734 212.132 414.407 206.542C423.998 199.554 420.511 186.452 417.895 181.212C420.511 176.844 420.511 167.237 418.767 162.869C428.532 139.81 412.373 132.299 403.072 131.425C392.028 130.552 369.068 129.678 365.58 133.172C362.093 128.281 348.433 124.729 342.039 123.564C337.098 122.108 326.519 119.546 323.729 120.944C308.907 106.969 294.084 116.577 291.468 120.07C285.365 93.8669 260.08 100.855 256.592 105.222C255.895 97.5354 247.001 92.7023 242.642 91.2466C233.923 88.9174 214.915 83.9096 208.637 82.5121C202.36 81.1146 197.303 82.5121 195.559 83.3856C194.106 82.221 189.281 79.5424 181.608 78.1449C166.96 76.0486 160.973 93.5758 159.811 102.601L158.067 113.956C158.067 111.918 157.893 105.571 157.195 96.4873C156.323 85.1325 147.604 78.1449 138.013 77.2715C128.422 76.398 118.831 82.5121 116.215 91.2466C81.3392 76.398 58.6696 107.842 59.5415 116.577C52.5663 112.209 29.0248 115.703 17.69 134.046Z" fill="#333333"/>
<path d="M134.366 141.448C135.29 142.29 136.565 142.674 138.193 142.6L161.839 141.529C165.234 141.375 166.865 139.837 166.732 136.913C166.597 133.943 164.832 132.535 161.437 132.689L143.581 133.497L141.979 98.2751C141.905 96.6508 141.358 95.3736 140.337 94.4433C139.316 93.513 137.969 93.0857 136.294 93.1615C134.62 93.2373 133.317 93.7846 132.385 94.8034C131.453 95.8221 131.024 97.1436 131.097 98.7678L132.87 137.749C132.944 139.373 133.442 140.606 134.366 141.448Z" fill="white"/>
<path fill-rule="evenodd" clip-rule="evenodd" d="M107.562 151.778C103.017 153.571 98.6788 154.182 94.5493 153.613C90.446 152.983 86.7923 151.277 83.5884 148.494C80.3675 145.668 77.8162 141.879 75.9345 137.127C74.0529 132.375 73.3285 127.89 73.7613 123.674C74.1769 119.414 75.6752 115.676 78.2562 112.461C80.8804 109.229 84.4655 106.716 89.0113 104.924C93.5571 103.132 97.8731 102.529 101.959 103.115C106.089 103.685 109.764 105.382 112.985 108.208C116.189 110.991 118.732 114.758 120.613 119.511C122.495 124.263 123.228 128.769 122.812 133.029C122.38 137.245 120.86 140.991 118.252 144.267C115.672 147.482 112.108 149.986 107.562 151.778ZM104.458 143.937C108.267 142.435 110.724 139.918 111.829 136.385C112.976 132.836 112.549 128.534 110.548 123.479C108.546 118.425 105.942 115.006 102.733 113.224C99.5082 111.399 95.9691 111.246 92.116 112.765C88.2628 114.285 85.7842 116.81 84.6801 120.342C83.6021 123.814 84.0639 128.078 86.0652 133.133C88.0666 138.187 90.6799 141.627 93.9051 143.453C97.1303 145.278 100.648 145.439 104.458 143.937Z" fill="white"/>
<path d="M67.0292 176.884C64.1865 179.213 61.276 181.055 58.2975 182.413C55.2896 183.735 52.5099 184.419 49.9585 184.465C49.0939 184.512 48.3585 184.424 47.7522 184.199C47.1524 183.909 46.572 183.423 46.0109 182.741C45.2726 181.843 44.8927 180.832 44.8714 179.707C44.886 178.554 45.2532 177.682 45.9728 177.093C46.3686 176.768 46.8055 176.531 47.2835 176.38C47.7679 176.163 48.4129 175.996 49.2184 175.877C51.563 175.579 53.719 175.015 55.6861 174.185C57.6238 173.32 59.5462 172.106 61.4533 170.544C63.8282 168.599 65.3205 166.715 65.9302 164.894C66.5399 163.072 66.2394 161.426 65.0286 159.953C64.1131 158.84 62.7811 158.429 61.0325 158.719C59.3199 158.98 56.7193 160.028 53.2307 161.864C49.3231 163.922 45.9631 165.292 43.1507 165.973C40.3743 166.624 37.9276 166.615 35.8108 165.944C33.7299 165.245 31.8478 163.872 30.1645 161.825C28.304 159.563 27.2832 157.003 27.102 154.147C26.9272 151.225 27.5779 148.318 29.0539 145.427C30.5364 142.47 32.735 139.798 35.6496 137.411C40.7592 133.226 46.0177 131.053 51.4249 130.891C52.319 130.88 53.066 131.019 53.6658 131.309C54.2721 131.534 54.841 131.969 55.3726 132.616C56.1109 133.513 56.4727 134.539 56.4581 135.693C56.4794 136.817 56.1303 137.674 55.4106 138.263C55.0148 138.588 54.5927 138.843 54.1443 139.03C53.7318 139.188 53.0721 139.337 52.165 139.479C49.9219 139.754 47.9786 140.174 46.3353 140.738C44.728 141.273 42.9707 142.322 41.0636 143.884C38.8686 145.682 37.4958 147.527 36.9452 149.421C36.365 151.278 36.6803 152.943 37.8911 154.415C38.5999 155.277 39.4244 155.803 40.3647 155.995C41.3114 156.121 42.5197 155.943 43.9896 155.46C45.4955 154.948 47.4839 154.07 49.9548 152.828C55.7345 149.897 60.3798 148.406 63.8909 148.355C67.4378 148.275 70.4221 149.707 72.8438 152.651C74.7338 154.949 75.7547 157.509 75.9063 160.329C76.094 163.12 75.417 165.958 73.8754 168.843C72.3699 171.699 70.0878 174.379 67.0292 176.884Z" fill="white"/>
<path d="M175.785 143.581C174.123 143.364 172.872 142.708 172.03 141.614C171.188 140.52 170.876 139.143 171.094 137.485L176.191 98.7268C176.403 97.1147 177.057 95.8885 178.154 95.0482C179.25 94.2079 180.629 93.8966 182.291 94.1142C183.952 94.3319 185.204 94.9878 186.046 96.0819C186.888 97.1761 187.203 98.5292 186.991 100.141L181.894 138.9C181.676 140.558 181.018 141.807 179.922 142.647C178.826 143.488 177.447 143.799 175.785 143.581Z" fill="white"/>
<path d="M205.086 147.434C205.829 148.637 206.988 149.445 208.564 149.857C210.185 150.282 211.592 150.146 212.786 149.45C213.98 148.754 214.783 147.619 215.196 146.047L224.162 111.942L235.103 114.806C238.435 115.679 240.479 114.677 241.235 111.801C241.979 108.97 240.685 107.119 237.353 106.247L204.934 97.7597C201.602 96.8875 199.564 97.8667 198.82 100.698C198.064 103.573 199.352 105.447 202.684 106.32L213.625 109.184L204.66 143.288C204.247 144.861 204.389 146.243 205.086 147.434Z" fill="white"/>
<path fill-rule="evenodd" clip-rule="evenodd" d="M281.136 165.66C281.218 166.571 281.154 167.334 280.944 167.95C280.524 169.181 279.657 170.064 278.343 170.599C277.088 171.105 275.822 171.141 274.544 170.707C273.707 170.422 272.989 169.932 272.39 169.238C271.806 168.5 271.473 167.601 271.392 166.543L270.546 157.569L248.139 149.952L241.979 156.544C241.268 157.333 240.455 157.842 239.54 158.071C238.685 158.271 237.817 158.221 236.936 157.922C235.658 157.487 234.655 156.68 233.927 155.5C233.213 154.276 233.067 153.048 233.487 151.817C233.697 151.201 234.114 150.558 234.736 149.886L265.349 118.554C266.194 117.664 267.191 117.119 268.341 116.921C269.505 116.679 270.638 116.745 271.74 117.12C272.885 117.509 273.845 118.155 274.62 119.056C275.394 119.957 275.873 121.003 276.056 122.194L281.136 165.66ZM269.7 148.595L267.887 128.839L254.299 143.36L269.7 148.595Z" fill="white"/>
<path d="M290.591 174.707C291.225 175.933 292.34 176.8 293.936 177.309C295.533 177.818 296.945 177.756 298.174 177.123C299.402 176.491 300.272 175.378 300.781 173.785L312.697 136.546C313.192 134.997 313.123 133.61 312.489 132.384C311.855 131.158 310.74 130.29 309.144 129.782C307.547 129.273 306.135 129.335 304.906 129.967C303.678 130.6 302.816 131.691 302.32 133.24L290.405 170.478C289.895 172.071 289.957 173.481 290.591 174.707Z" fill="white"/>
<path fill-rule="evenodd" clip-rule="evenodd" d="M354.041 185.813C354.489 186.966 354.601 188.018 354.379 188.968C354.084 190.235 353.319 191.154 352.086 191.726C350.899 192.308 349.625 192.441 348.265 192.125C347.404 191.925 346.612 191.526 345.891 190.929C345.171 190.332 344.638 189.54 344.295 188.554L338.426 173.165C337.93 171.81 337.309 170.783 336.564 170.085C335.829 169.342 334.805 168.817 333.49 168.512L327.982 167.23L324.78 180.938C324.4 182.567 323.622 183.746 322.448 184.474C321.32 185.213 319.962 185.399 318.375 185.029C316.743 184.65 315.562 183.874 314.832 182.703C314.102 181.531 313.927 180.131 314.308 178.502L323.184 140.5C323.554 138.916 324.27 137.795 325.332 137.136C326.394 136.477 327.719 136.332 329.305 136.701L346.374 140.671C351.995 141.979 355.944 144.209 358.219 147.361C360.549 150.479 361.171 154.368 360.082 159.028C359.226 162.692 357.493 165.509 354.882 167.477C352.272 169.446 349.018 170.382 345.121 170.287C346.417 170.875 347.492 171.697 348.344 172.754C349.253 173.776 350.031 175.15 350.68 176.874L354.041 185.813ZM339.849 161.548C342.886 162.254 345.206 162.246 346.809 161.521C348.423 160.752 349.494 159.236 350.022 156.974C350.561 154.667 350.272 152.835 349.155 151.478C348.038 150.121 345.961 149.089 342.924 148.383L332.791 146.026L329.716 159.191L339.849 161.548Z" fill="white"/>
<path d="M371.867 193.912C372.726 194.819 373.97 195.296 375.599 195.341L400.308 196.031C403.751 196.127 405.512 194.782 405.59 191.996C405.669 189.163 403.987 187.699 400.544 187.603L381.349 187.067L381.695 174.738L399.493 175.235C402.937 175.331 404.697 173.986 404.776 171.2C404.855 168.367 403.173 166.903 399.73 166.807L381.931 166.31L382.253 154.817L401.448 155.353C404.891 155.449 406.652 154.081 406.732 151.248C406.81 148.462 405.127 147.021 401.684 146.925L376.975 146.235C375.347 146.19 374.078 146.596 373.169 147.453C372.26 148.311 371.783 149.552 371.738 151.178L370.646 190.114C370.601 191.739 371.008 193.005 371.867 193.912Z" fill="white"/>
</g>
<path fill-rule="evenodd" clip-rule="evenodd" d="M268.445 263.624H251.55V231.454H255.484V260.11H268.445V263.624ZM273.986 235.78H270.232V231.454H273.986V235.78ZM273.986 263.624H270.232V239.474H273.986V263.624ZM282.746 263.624H278.992V242.448H275.506V239.474H278.992V236.635C278.992 232.986 280.557 231.094 284.176 231.094H286.903V234.338H285.16C283.551 234.338 282.746 234.968 282.746 236.635V239.474H286.858V242.448H282.746V263.624ZM303.038 250.468V252H290.434C290.434 255.739 290.434 261.281 295.037 261.281C298.614 261.281 299.105 257.541 299.105 255.694H302.859C302.859 258.262 301.384 264.255 294.813 264.255C288.913 264.255 286.5 260.2 286.5 251.864C286.5 245.872 287.662 238.844 295.037 238.844C302.367 238.844 303.038 245.241 303.038 250.468ZM290.568 248.125V249.026H299.105V247.719C299.105 245.016 298.3 241.817 294.947 241.817C291.015 241.817 290.568 246.683 290.568 248.125ZM314.971 261.011C319.754 261.011 320.423 256.505 320.557 252.585H324.67C324.312 258.667 321.943 264.255 314.971 264.255C305.898 264.255 304.69 255.649 304.69 247.54C304.69 239.429 306.165 230.823 314.971 230.823C321.452 230.823 324.222 234.518 324.402 240.826H320.29C320.155 237.177 319.038 234.068 314.971 234.068C309.518 234.068 308.802 240.105 308.802 247.54C308.802 254.974 309.518 261.011 314.971 261.011ZM329.81 263.624H326.055V231.454H329.81V242.223H329.899C330.882 240.241 333.52 238.844 335.665 238.844C341.834 238.844 341.833 243.552 341.833 246.441V246.503V263.624H338.078V246.954C338.078 245.107 337.944 242.087 334.547 242.087C332.536 242.087 329.81 243.484 329.81 246.954V263.624ZM352.068 264.255C345.14 264.255 343.442 258.353 343.442 251.549C343.442 244.745 345.14 238.844 352.068 238.844C358.995 238.844 360.695 244.745 360.695 251.549C360.695 258.353 358.951 264.255 352.068 264.255ZM347.374 251.549C347.374 256.776 348.135 261.281 351.977 261.281C355.956 261.281 356.761 256.776 356.761 251.549C356.761 246.322 356.046 241.817 351.977 241.817C348.179 241.817 347.374 246.322 347.374 251.549ZM365.386 235.78H361.632V231.454H365.386V235.78ZM365.386 263.624H361.632V239.474H365.386V263.624ZM375.889 238.844C382.459 238.844 383.532 244.07 383.532 246.818H379.777C379.777 244.475 378.839 241.817 375.979 241.817C373.656 241.817 371.286 242.988 371.286 251.819C371.286 254.929 371.331 261.281 375.845 261.281C379.063 261.281 379.777 257.857 379.777 255.244H383.532C383.532 259.029 381.656 264.255 375.665 264.255C369.766 264.255 367.352 260.2 367.352 251.864C367.352 245.872 368.514 238.844 375.889 238.844ZM401.008 250.468V252H388.404C388.404 255.739 388.404 261.281 393.007 261.281C396.583 261.281 397.075 257.541 397.075 255.694H400.83C400.83 258.262 399.354 264.255 392.784 264.255C386.885 264.255 384.47 260.2 384.47 251.864C384.47 245.872 385.632 238.844 393.007 238.844C400.337 238.844 401.008 245.241 401.008 250.468ZM388.538 248.125V249.026H397.075V247.719C397.075 245.016 396.27 241.817 392.918 241.817C388.985 241.817 388.538 246.683 388.538 248.125ZM409.723 238.844C416.695 238.844 417.008 243.71 417.008 246.548H413.254C413.254 243.484 412.449 241.817 409.723 241.817C408.516 241.817 405.835 242.132 405.835 245.512C405.835 248.075 408.165 248.786 410.755 249.578C411.079 249.677 411.407 249.777 411.735 249.882C414.596 250.828 417.588 251.864 417.588 256.686C417.588 261.731 414.327 264.255 409.857 264.255C401.723 264.255 401.634 258.172 401.634 255.694H405.387C405.387 258.622 406.147 261.281 409.857 261.281C411.064 261.281 413.836 260.695 413.836 257.271C413.836 254.258 411.252 253.421 408.59 252.56C408.387 252.494 408.182 252.428 407.979 252.36L407.773 252.29C404.935 251.324 402.079 250.351 402.079 245.512C402.079 241.006 405.566 238.844 409.723 238.844ZM190.541 263.624H183.032V250.964L174.941 231.454H183.254L186.831 243.395H186.921L190.585 231.454H198.63L190.541 250.964V263.624ZM214.453 251.369C214.453 258.668 212.844 264.255 204.486 264.255C195.636 264.255 194.518 258.803 194.518 251.504C194.518 244.205 196.128 238.618 204.486 238.618C213.291 238.618 214.453 244.07 214.453 251.369ZM204.531 259.479C206.765 259.479 207.212 257.451 207.212 251.459C207.212 245.422 206.765 243.395 204.531 243.395C202.385 243.395 201.759 245.512 201.759 251.414C201.759 257.361 202.385 259.479 204.531 259.479ZM227.459 239.249H234.699V263.624H227.727V260.741H227.638C226.61 262.903 224.509 264.255 221.828 264.255C217.716 264.255 215.525 262.182 215.525 257.496V239.249H222.766V255.875C222.766 257.632 223.481 258.668 224.866 258.668C226.253 258.668 227.459 257.587 227.459 255.199V239.249ZM243.817 263.624H236.577V239.249H243.55V242.674H243.639C244.578 240.51 246.41 238.618 249.449 238.618H249.985C250.164 238.618 250.385 238.663 250.607 238.708L250.611 238.708V245.557C249.896 245.422 249.315 245.376 248.6 245.376C245.695 245.376 243.817 246.548 243.817 249.792V263.624Z" fill="white"/>
<defs>
<filter id="filter0_d" x="0" y="0" width="452" height="240" filterUnits="userSpaceOnUse" color-interpolation-filters="sRGB">
<feFlood flood-opacity="0" result="BackgroundImageFix"/>
<feColorMatrix in="SourceAlpha" type="matrix" values="0 0 0 0 0 0 0 0 0 0 0 0 0 0 0 0 0 0 127 0"/>
<feOffset dx="10" dy="8"/>
<feGaussianBlur stdDeviation="10"/>
<feColorMatrix type="matrix" values="0 0 0 0 0 0 0 0 0 0 0 0 0 0 0 0 0 0 0.15 0"/>
<feBlend mode="normal" in2="BackgroundImageFix" result="effect1_dropShadow"/>
<feBlend mode="normal" in="SourceGraphic" in2="effect1_dropShadow" result="shape"/>
</filter>
<clipPath id="clip0">
<path d="M330.98 62.9978L404.077 62.9978V173.863H330.98V62.9978Z" fill="white"/>
</clipPath>
<clipPath id="clip1">
<path d="M245.791 20.8691L316.397 39.8071L287.732 146.894L217.126 127.956L245.791 20.8691Z" fill="white"/>
</clipPath>
<clipPath id="clip2">
<path d="M123.651 12L196.747 12V122.865H123.651V12Z" fill="white"/>
</clipPath>
<clipPath id="clip3">
<path d="M10 39.7657L80.6061 20.8278L109.271 127.915L38.6649 146.853L10 39.7657Z" fill="white"/>
</clipPath>
</defs>
</svg>
