<svg width="343" height="120" viewBox="0 0 343 120" fill="none" xmlns="http://www.w3.org/2000/svg">
<g filter="url(#filter0_d)">
<g clip-path="url(#clip0)">
<path d="M138.548 34.173C138.548 33.1933 139.342 32.3992 140.322 32.3992L166.048 32.3992C167.027 32.3992 167.822 33.1933 167.822 34.173V74.9712C167.822 75.9509 167.027 76.7451 166.048 76.7451H140.322C139.342 76.7451 138.548 75.9509 138.548 74.9712V34.173Z" fill="white"/>
<path d="M140.104 42.6875H141.71L142.417 40.8056H145.581L146.288 42.6875H147.894L144.686 34.7052H143.312L140.104 42.6875ZM142.93 39.4946L143.999 36.7177L145.069 39.4946H142.93Z" fill="#DF0000"/>
<path d="M166.443 66.4568L164.836 66.4568L164.13 68.3387L160.965 68.3387L160.259 66.4568L158.653 66.4568L161.861 74.4391L163.235 74.4391L166.443 66.4568ZM163.617 69.6497L162.548 72.4266L161.478 69.6497L163.617 69.6497Z" fill="#DF0000"/>
<path fill-rule="evenodd" clip-rule="evenodd" d="M153.184 49.4464C154.847 46.2123 158.171 46.2123 159.833 47.8294C161.495 49.4464 161.496 52.6797 159.833 55.9105C158.67 58.3356 155.678 60.7607 153.184 62.377C150.691 60.7607 147.7 58.3356 146.537 55.9105C144.874 52.6764 144.874 49.4431 146.537 47.8294C148.199 46.2156 151.523 46.2123 153.184 49.4464Z" fill="#DF0000"/>
</g>
<g clip-path="url(#clip1)">
<path d="M103.971 17.2611C104.225 16.3148 105.198 15.7533 106.144 16.0068L130.994 22.6638C131.94 22.9174 132.502 23.89 132.248 24.8363L121.687 64.2444C121.433 65.1907 120.46 65.7522 119.514 65.4987L94.6645 58.8417C93.718 58.5881 93.1564 57.6155 93.41 56.6692L103.971 17.2611Z" fill="white"/>
<path d="M103.271 25.8881L104.822 26.3038L105.992 24.6689L109.048 25.4878L109.244 27.4883L110.795 27.904L109.763 19.3636L108.436 19.008L103.271 25.8881ZM106.827 23.5352L108.578 21.1297L108.892 24.0887L106.827 23.5352Z" fill="#333333"/>
<path d="M122.559 55.6632L121.007 55.2475L119.838 56.8825L116.781 56.0636L116.586 54.063L115.034 53.6473L116.066 62.1878L117.394 62.5434L122.559 55.6632ZM119.003 58.0161L117.251 60.4216L116.937 57.4627L119.003 58.0161Z" fill="#333333"/>
<path fill-rule="evenodd" clip-rule="evenodd" d="M111.95 40.7704C111.318 39.4064 110.472 37.2454 110.839 35.8756C111.355 33.9516 113.141 32.7561 114.824 33.2068C116.506 33.6576 117.456 35.5829 116.939 37.5097C116.56 38.927 114.658 40.4386 113.445 41.2948C114.692 40.4941 116.779 39.3344 118.024 39.668C119.709 40.1193 120.657 42.0441 120.14 43.9709C119.624 45.8977 117.838 47.0895 116.156 46.6389C114.613 46.2254 113.11 43.131 112.62 42.1416C112.239 44.4745 111.795 45.9537 113.049 49.0755L108.476 47.8505C111.101 45.7684 111.472 44.27 112.314 42.0618C111.389 42.674 108.546 44.6002 107.004 44.1871C105.319 43.7356 104.372 41.811 104.888 39.8849C105.404 37.9588 107.19 36.7655 108.872 37.2162C110.073 37.5379 111.257 39.4502 111.949 40.7702L111.95 40.7704Z" fill="#333333"/>
</g>
<g clip-path="url(#clip2)">
<path d="M55.5154 13.7738C55.5154 12.7942 56.3097 12 57.2896 12L83.0154 12C83.9952 12 84.7896 12.7942 84.7896 13.7738V54.5721C84.7896 55.5517 83.9952 56.3459 83.0154 56.3459H57.2896C56.3097 56.3459 55.5154 55.5517 55.5154 54.5721V13.7738Z" fill="white"/>
<path d="M57.0715 22.2883H58.678L59.3844 20.4064H62.549L63.2554 22.2883H64.8619L61.6538 14.306H60.2796L57.0715 22.2883ZM59.8973 19.0954L60.9667 16.3185L62.036 19.0954H59.8973Z" fill="#DF0000"/>
<path d="M83.4102 46.0577H81.8038L81.0973 47.9396H77.9328L77.2264 46.0577H75.6199L78.828 54.04H80.2022L83.4102 46.0577ZM80.5844 49.2506L79.5151 52.0275L78.4457 49.2506H80.5844Z" fill="#DF0000"/>
<path fill-rule="evenodd" clip-rule="evenodd" d="M70.1774 24.4169L78.0476 34.2612L70.1774 44.1064L62.2573 34.2612L70.1774 24.4169Z" fill="#DF0000"/>
</g>
<g clip-path="url(#clip3)">
<path d="M10.4592 24.8197C10.2056 23.8734 10.7673 22.9008 11.7137 22.6472L36.563 15.9902C37.5094 15.7367 38.4823 16.2982 38.7359 17.2445L49.2974 56.6526C49.551 57.5989 48.9893 58.5715 48.0428 58.8251L23.1936 65.4821C22.2471 65.7356 21.2743 65.1741 21.0207 64.2278L10.4592 24.8197Z" fill="white"/>
<path d="M14.1667 32.6412L15.7184 32.2255L15.9136 30.2249L18.9703 29.4061L20.1399 31.041L21.6916 30.6253L16.5265 23.7452L15.1991 24.1008L14.1667 32.6412ZM16.0697 28.8258L16.3838 25.8669L18.1355 28.2724L16.0697 28.8258Z" fill="#333333"/>
<path d="M45.7612 48.7851L44.2095 49.2008L44.0143 51.2014L40.9576 52.0203L39.788 50.3853L38.2363 50.801L43.4015 57.6812L44.7288 57.3256L45.7612 48.7851ZM43.8582 52.6005L43.5442 55.5594L41.7924 53.1539L43.8582 52.6005Z" fill="#333333"/>
<path fill-rule="evenodd" clip-rule="evenodd" d="M31.1626 46.5989C30.9323 47.5703 29.6514 49.0422 28.1269 49.4506C25.0763 50.2679 23.8039 48.5702 23.2942 46.6682C21.7652 40.9633 27.3859 37.4191 27.3528 31.3124C30.466 36.7119 37.0175 36.8773 38.5465 42.5822C39.0562 44.4842 38.8033 46.5905 35.7527 47.4077C34.2281 47.8161 32.382 47.1819 31.6975 46.4555C31.825 46.931 32.0676 48.9046 33.9776 49.9218L30.9238 50.7399C32.0668 48.9048 31.2924 47.0737 31.1649 46.5982L31.1626 46.5989Z" fill="#333333"/>
</g>
<path d="M13.0798 60.8183C6.93418 71.1599 13.7782 77.472 17.9684 79.3354C17.9684 82.0139 19.6445 87.3711 26.3489 87.3711C34.7294 87.3711 41.7131 78.2872 42.4115 74.7934C50.0936 76.5403 55.6805 71.649 57.4264 69.9021C60.5691 71.2996 69.6479 70.2515 72.4414 69.9021C76.2825 71.9984 80.8219 70.6009 82.5678 68.854C85.0121 74.4441 91.9958 74.0947 94.0909 72.6972C98.8399 79.1257 104.916 76.5403 107.36 74.4441C107.476 74.4441 107.849 74.5139 108.408 74.7934C109.455 81.4316 116.09 82.4798 117.836 81.781C119.581 84.2267 124.121 85.6242 126.914 84.2267C131.105 89.118 136.342 88.0698 138.438 86.323C142.977 92.6118 149.262 90.1661 150.659 89.4674C151.776 91.1444 154.616 91.5636 155.897 91.5636L163.579 91.913C165.092 92.1459 168.886 92.0528 171.959 89.8167C175.8 87.0217 174.404 81.781 173.356 79.6847C174.404 77.9379 174.404 74.0947 173.705 72.3478C177.616 63.1242 171.145 60.1195 167.42 59.7701C162.997 59.4208 153.802 59.0714 152.405 60.4689C151.008 58.5124 145.538 57.0916 142.977 56.6257C140.998 56.0434 136.761 55.0186 135.644 55.5776C129.708 49.9875 123.772 53.8307 122.724 55.2282C120.28 44.7468 110.153 47.5419 108.757 49.2888C108.477 46.2142 104.916 44.281 103.17 43.6987C99.6779 42.767 92.0657 40.7639 89.5515 40.2049C87.0374 39.6459 85.0121 40.2049 84.3137 40.5543C83.7318 40.0884 81.7996 39.017 78.7268 38.458C72.8605 37.6195 70.4627 44.6304 69.9971 48.2406L69.2988 52.7825C69.2988 51.9673 69.2289 49.4285 68.9496 45.795C68.6004 41.253 65.1085 38.458 61.2675 38.1086C57.4264 37.7593 53.5854 40.2049 52.5378 43.6987C38.5704 37.7592 29.4916 50.3369 29.8408 53.8307C27.0473 52.0838 17.6193 53.4813 13.0798 60.8183Z" fill="#333333"/>
<path d="M59.8067 63.7791C60.1766 64.1158 60.6875 64.2694 61.3393 64.2399L70.8094 63.8116C72.1689 63.7501 72.8221 63.1347 72.7688 61.9653C72.7147 60.7773 72.0079 60.214 70.6484 60.2755L63.497 60.5989L62.8556 46.51C62.826 45.8603 62.6068 45.3494 62.1979 44.9773C61.7891 44.6052 61.2494 44.4343 60.579 44.4646C59.9086 44.4949 59.3867 44.7138 59.0133 45.1213C58.64 45.5288 58.4681 46.0574 58.4977 46.7071L59.2075 62.2996C59.2371 62.9493 59.4368 63.4425 59.8067 63.7791Z" fill="white"/>
<path fill-rule="evenodd" clip-rule="evenodd" d="M49.0722 67.9114C47.2517 68.6283 45.5145 68.8729 43.8607 68.6451C42.2173 68.3932 40.7541 67.7107 39.471 66.5977C38.1811 65.4674 37.1593 63.9518 36.4057 62.0508C35.6522 60.1498 35.3621 58.356 35.5354 56.6695C35.7018 54.9656 36.3019 53.4706 37.3355 52.1844C38.3865 50.8915 39.8223 49.8865 41.6428 49.1695C43.4633 48.4526 45.1918 48.2114 46.8283 48.4461C48.4821 48.6739 49.954 49.3529 51.244 50.4832C52.5271 51.5962 53.5454 53.1032 54.299 55.0042C55.0525 56.9052 55.3461 58.7076 55.1796 60.4115C55.0063 62.098 54.3976 63.5965 53.3535 64.9067C52.3198 66.1929 50.8927 67.1944 49.0722 67.9114ZM47.8288 64.7748C49.3546 64.1739 50.3386 63.167 50.7808 61.7542C51.2403 60.3345 51.0693 58.6137 50.2678 56.5917C49.4663 54.5698 48.4231 53.2024 47.1383 52.4897C45.8467 51.7596 44.4293 51.6984 42.8862 52.3061C41.343 52.9138 40.3504 53.9241 39.9082 55.337C39.4765 56.7257 39.6614 58.4311 40.4629 60.453C41.2644 62.475 42.311 63.851 43.6027 64.581C44.8943 65.3111 46.3031 65.3756 47.8288 64.7748Z" fill="white"/>
<path d="M32.8393 77.9537C31.7008 78.885 30.5352 79.6222 29.3424 80.1652C28.1377 80.6939 27.0245 80.9675 26.0027 80.9861C25.6565 81.0049 25.3619 80.9694 25.1191 80.8796C24.8789 80.7636 24.6465 80.5691 24.4217 80.2962C24.1261 79.9371 23.9739 79.5327 23.9654 79.083C23.9713 78.6214 24.1183 78.2728 24.4065 78.037C24.565 77.9074 24.74 77.8123 24.9314 77.7519C25.1254 77.6653 25.3837 77.5982 25.7063 77.5507C26.6453 77.4316 27.5087 77.2061 28.2965 76.8741C29.0725 76.5278 29.8424 76.0423 30.6062 75.4175C31.5573 74.6395 32.155 73.8861 32.3991 73.1576C32.6433 72.429 32.523 71.7702 32.0381 71.1813C31.6714 70.7361 31.138 70.5715 30.4377 70.6876C29.7518 70.7919 28.7103 71.2112 27.3132 71.9454C25.7482 72.7688 24.4026 73.3167 23.2763 73.589C22.1644 73.8496 21.1845 73.8458 20.3368 73.5778C19.5034 73.2979 18.7497 72.7487 18.0755 71.9299C17.3304 71.025 16.9216 70.0013 16.849 68.8588C16.779 67.69 17.0396 66.5274 17.6307 65.3708C18.2244 64.188 19.1049 63.1192 20.2722 62.1643C22.3185 60.4904 24.4245 59.621 26.59 59.5563C26.9481 59.5519 27.2472 59.6076 27.4874 59.7236C27.7302 59.8135 27.9581 59.9877 28.171 60.2462C28.4667 60.6053 28.6116 61.0156 28.6057 61.4771C28.6143 61.9269 28.4744 62.2696 28.1862 62.5054C28.0277 62.635 27.8586 62.7373 27.679 62.8121C27.5139 62.8751 27.2497 62.935 26.8864 62.9917C25.988 63.1016 25.2098 63.2695 24.5517 63.4953C23.908 63.7094 23.2042 64.1288 22.4404 64.7536C21.5614 65.4727 21.0116 66.2109 20.7911 66.9682C20.5587 67.7111 20.685 68.3771 21.1699 68.966C21.4537 69.3107 21.784 69.5214 22.1605 69.5979C22.5397 69.6483 23.0236 69.577 23.6123 69.3839C24.2153 69.1791 25.0117 68.8281 26.0012 68.3312C28.3159 67.1588 30.1763 66.5625 31.5824 66.5421C33.0029 66.5099 34.1981 67.0826 35.1679 68.2605C35.9249 69.1797 36.3337 70.2035 36.3944 71.3316C36.4696 72.448 36.1985 73.5833 35.5811 74.7373C34.9781 75.8796 34.0642 76.9517 32.8393 77.9537Z" fill="white"/>
<path d="M76.3944 64.6326C75.729 64.5455 75.2276 64.2832 74.8904 63.8455C74.5532 63.4078 74.4283 62.8574 74.5156 62.1941L76.5571 46.6907C76.642 46.0459 76.904 45.5554 77.3431 45.2193C77.7822 44.8832 78.3345 44.7586 78.9999 44.8457C79.6654 44.9327 80.1667 45.1951 80.5039 45.6328C80.8411 46.0705 80.9673 46.6117 80.8824 47.2565L78.8409 62.7599C78.7536 63.4232 78.4903 63.9229 78.0512 64.259C77.6121 64.5951 77.0598 64.7196 76.3944 64.6326Z" fill="white"/>
<path d="M88.1292 66.1737C88.4265 66.6548 88.8908 66.9779 89.5219 67.143C90.1711 67.3127 90.7347 67.2583 91.2127 66.9799C91.6907 66.7015 92.0125 66.2477 92.1781 65.6187L95.7685 51.9769L100.15 53.1226C101.485 53.4715 102.303 53.0708 102.606 51.9205C102.904 50.7882 102.386 50.0476 101.052 49.6987L88.0682 46.3039C86.7338 45.955 85.9175 46.3467 85.6195 47.479C85.3168 48.6293 85.8326 49.3789 87.167 49.7278L91.5489 50.8736L87.9585 64.5154C87.7929 65.1444 87.8498 65.6972 88.1292 66.1737Z" fill="white"/>
<path fill-rule="evenodd" clip-rule="evenodd" d="M118.586 73.4638C118.619 73.8284 118.593 74.1338 118.509 74.38C118.341 74.8725 117.993 75.2257 117.467 75.4397C116.965 75.6421 116.458 75.6564 115.946 75.4826C115.611 75.3688 115.323 75.173 115.083 74.8952C114.849 74.5999 114.716 74.2406 114.684 73.8173L114.345 70.2277L105.371 67.1808L102.904 69.8177C102.619 70.1332 102.294 70.3367 101.928 70.4283C101.585 70.5083 101.237 70.4884 100.884 70.3686C100.373 70.1948 99.9709 69.872 99.6793 69.4C99.3936 68.9104 99.335 68.4193 99.5033 67.9268C99.5875 67.6806 99.7542 67.4231 100.004 67.1545L112.263 54.6217C112.602 54.2655 113.001 54.0477 113.462 53.9685C113.928 53.8717 114.382 53.8981 114.823 54.0479C115.282 54.2037 115.666 54.4619 115.976 54.8223C116.286 55.1828 116.478 55.6013 116.552 56.0777L118.586 73.4638ZM114.006 66.6381L113.28 58.7358L107.838 64.5439L114.006 66.6381Z" fill="white"/>
<path d="M122.373 77.0827C122.626 77.5732 123.073 77.9201 123.712 78.1236C124.352 78.3271 124.917 78.3023 125.409 78.0493C125.901 77.7962 126.249 77.3511 126.454 76.7139L131.226 61.8184C131.424 61.1989 131.396 60.6439 131.142 60.1535C130.889 59.6631 130.442 59.3161 129.803 59.1126C129.163 58.9092 128.598 58.9339 128.106 59.187C127.614 59.44 127.268 59.8763 127.07 60.4958L122.298 75.3913C122.094 76.0285 122.119 76.5923 122.373 77.0827Z" fill="white"/>
<path fill-rule="evenodd" clip-rule="evenodd" d="M147.783 81.5252C147.963 81.9865 148.008 82.4073 147.919 82.7873C147.8 83.294 147.494 83.6617 147.001 83.8904C146.525 84.1233 146.015 84.1765 145.47 84.05C145.125 83.9699 144.808 83.8104 144.52 83.5716C144.231 83.3328 144.018 83.0162 143.88 82.6217L141.53 76.4662C141.331 75.924 141.082 75.5133 140.784 75.2341C140.49 74.9368 140.079 74.7269 139.553 74.6046L137.347 74.0921L136.065 79.5753C135.912 80.2268 135.601 80.6983 135.131 80.9897C134.679 81.2854 134.135 81.3594 133.5 81.2118C132.846 81.0599 132.373 80.7497 132.081 80.2811C131.788 79.8125 131.718 79.2524 131.871 78.601L135.426 63.3999C135.574 62.7666 135.86 62.318 136.286 62.0543C136.711 61.7907 137.242 61.7326 137.877 61.8803L144.713 63.4684C146.964 63.9914 148.545 64.8835 149.456 66.1445C150.39 67.3917 150.639 68.9472 150.203 70.8112C149.86 72.277 149.166 73.4036 148.12 74.191C147.075 74.9784 145.772 75.3529 144.211 75.3147C144.73 75.5498 145.16 75.8788 145.502 76.3015C145.866 76.7104 146.177 77.2598 146.437 77.9498L147.783 81.5252ZM142.099 71.8191C143.316 72.1017 144.245 72.0982 144.887 71.8085C145.533 71.5008 145.962 70.8945 146.174 69.9896C146.39 69.0667 146.274 68.3339 145.827 67.7911C145.379 67.2484 144.547 66.8357 143.331 66.5531L139.273 65.6103L138.042 70.8764L142.099 71.8191Z" fill="white"/>
<path d="M154.922 84.7649C155.267 85.1277 155.765 85.3182 156.417 85.3364L166.312 85.6123C167.691 85.6507 168.397 85.1127 168.428 83.9982C168.46 82.8652 167.786 82.2795 166.407 82.241L158.72 82.0267L158.858 77.0952L165.986 77.294C167.365 77.3324 168.071 76.7944 168.102 75.6799C168.134 74.5469 167.46 73.9612 166.081 73.9227L158.953 73.724L159.082 69.1269L166.769 69.3412C168.148 69.3796 168.853 68.8323 168.885 67.6993C168.917 66.5848 168.243 66.0084 166.864 65.9699L156.968 65.6941C156.316 65.6759 155.808 65.8383 155.444 66.1814C155.08 66.5244 154.889 67.021 154.871 67.6711L154.434 83.2456C154.415 83.8957 154.578 84.4022 154.922 84.7649Z" fill="white"/>
</g>
<path fill-rule="evenodd" clip-rule="evenodd" d="M245.953 61.8067H235.276V41.8617H237.762V59.628H245.953V61.8067ZM249.455 44.5435H247.082V41.8617H249.455V44.5435ZM249.455 61.8067H247.082V46.8341H249.455V61.8067ZM254.992 61.8067H252.619V48.6777H250.416V46.8341H252.619V45.0738C252.619 42.8111 253.608 41.6385 255.895 41.6385H257.619V43.6493H256.517C255.5 43.6493 254.992 44.0404 254.992 45.0738V46.8341H257.59V48.6777H254.992V61.8067ZM267.816 53.6501V54.6003H259.85C259.85 56.9182 259.85 60.3542 262.759 60.3542C265.02 60.3542 265.33 58.0356 265.33 56.8903H267.703C267.703 58.4827 266.771 62.1978 262.618 62.1978C258.889 62.1978 257.364 59.6839 257.364 54.5156C257.364 50.8005 258.098 46.443 262.759 46.443C267.392 46.443 267.816 50.4094 267.816 53.6501ZM259.935 52.1977V52.756H265.33V51.9458C265.33 50.2701 264.822 48.2866 262.703 48.2866C260.217 48.2866 259.935 51.3035 259.935 52.1977ZM275.358 60.187C278.38 60.187 278.803 57.3933 278.888 54.9627H281.488C281.261 58.7338 279.764 62.1978 275.358 62.1978C269.624 62.1978 268.86 56.8623 268.86 51.8345C268.86 46.8061 269.793 41.4706 275.358 41.4706C279.454 41.4706 281.205 43.7612 281.318 47.6723H278.719C278.634 45.4096 277.928 43.4821 275.358 43.4821C271.912 43.4821 271.459 47.2252 271.459 51.8345C271.459 56.4438 271.912 60.187 275.358 60.187ZM284.736 61.8067H282.363V41.8617H284.736V48.5385H284.792C285.414 47.3092 287.08 46.443 288.436 46.443C292.335 46.443 292.335 49.3623 292.334 51.1535V51.1916V61.8067H289.961V51.4714C289.961 50.3261 289.877 48.4538 287.73 48.4538C286.459 48.4538 284.736 49.32 284.736 51.4714V61.8067ZM298.803 62.1978C294.424 62.1978 293.351 58.5386 293.351 54.3204C293.351 50.1022 294.424 46.443 298.803 46.443C303.181 46.443 304.255 50.1022 304.255 54.3204C304.255 58.5386 303.153 62.1978 298.803 62.1978ZM295.837 54.3204C295.837 57.5612 296.318 60.3542 298.746 60.3542C301.26 60.3542 301.769 57.5612 301.769 54.3204C301.769 51.0796 301.317 48.2866 298.746 48.2866C296.345 48.2866 295.837 51.0796 295.837 54.3204ZM307.22 44.5435H304.847V41.8617H307.22V44.5435ZM307.22 61.8067H304.847V46.8341H307.22V61.8067ZM313.858 46.443C318.01 46.443 318.688 49.6831 318.688 51.3875H316.315C316.315 49.9343 315.722 48.2866 313.915 48.2866C312.447 48.2866 310.949 49.0128 310.949 54.4877C310.949 56.4159 310.977 60.3542 313.83 60.3542C315.864 60.3542 316.315 58.2315 316.315 56.6111H318.688C318.688 58.9577 317.502 62.1978 313.717 62.1978C309.988 62.1978 308.463 59.6839 308.463 54.5156C308.463 50.8005 309.197 46.443 313.858 46.443ZM329.733 53.6501V54.6003H321.767C321.767 56.9182 321.767 60.3542 324.677 60.3542C326.936 60.3542 327.248 58.0356 327.248 56.8903H329.621C329.621 58.4827 328.688 62.1978 324.536 62.1978C320.807 62.1978 319.281 59.6839 319.281 54.5156C319.281 50.8005 320.016 46.443 324.677 46.443C329.309 46.443 329.733 50.4094 329.733 53.6501ZM321.852 52.1977V52.756H327.248V51.9458C327.248 50.2701 326.739 48.2866 324.62 48.2866C322.134 48.2866 321.852 51.3035 321.852 52.1977ZM335.241 46.443C339.647 46.443 339.845 49.4599 339.845 51.2196H337.472C337.472 49.32 336.964 48.2866 335.241 48.2866C334.478 48.2866 332.784 48.4818 332.784 50.5773C332.784 52.1662 334.256 52.6076 335.893 53.0983C336.098 53.1597 336.305 53.2218 336.512 53.287C338.321 53.8733 340.212 54.5156 340.212 57.5052C340.212 60.6334 338.151 62.1978 335.326 62.1978C330.185 62.1978 330.129 58.4267 330.129 56.8903H332.501C332.501 58.7059 332.981 60.3542 335.326 60.3542C336.089 60.3542 337.84 59.9911 337.84 57.8683C337.84 55.9999 336.207 55.4813 334.525 54.947C334.396 54.9061 334.267 54.8652 334.139 54.8235L334.009 54.78C332.215 54.1807 330.41 53.5777 330.41 50.5773C330.41 47.7836 332.614 46.443 335.241 46.443ZM196.718 61.8068H191.972V53.9574L186.859 41.8618H192.113L194.373 49.2648H194.43L196.746 41.8618H201.83L196.718 53.9574V61.8068ZM211.83 54.2086C211.83 58.734 210.813 62.1979 205.531 62.1979C199.938 62.1979 199.232 58.8179 199.232 54.2926C199.232 49.7672 200.249 46.3032 205.531 46.3032C211.096 46.3032 211.83 49.6832 211.83 54.2086ZM205.56 59.237C206.972 59.237 207.254 57.9797 207.254 54.2646C207.254 50.5214 206.972 49.2648 205.56 49.2648C204.203 49.2648 203.808 50.5774 203.808 54.2366C203.808 57.9238 204.203 59.237 205.56 59.237ZM220.05 46.6943H224.626V61.8068H220.22V60.0192H220.163C219.514 61.3598 218.186 62.1979 216.491 62.1979C213.893 62.1979 212.508 60.9127 212.508 58.0077V46.6943H217.084V57.0023C217.084 58.0917 217.536 58.734 218.411 58.734C219.288 58.734 220.05 58.0637 220.05 56.5832V46.6943ZM230.389 61.8068H225.813V46.6943H230.22V48.8177H230.276C230.869 47.4765 232.027 46.3032 233.948 46.3032H234.286C234.4 46.3032 234.539 46.3309 234.68 46.3587L234.682 46.3592V50.6054C234.23 50.5214 233.863 50.4934 233.411 50.4934C231.575 50.4934 230.389 51.2197 230.389 53.2312V61.8068Z" fill="white"/>
<defs>
<filter id="filter0_d" x="0" y="0" width="205" height="120" filterUnits="userSpaceOnUse" color-interpolation-filters="sRGB">
<feFlood flood-opacity="0" result="BackgroundImageFix"/>
<feColorMatrix in="SourceAlpha" type="matrix" values="0 0 0 0 0 0 0 0 0 0 0 0 0 0 0 0 0 0 127 0"/>
<feOffset dx="10" dy="8"/>
<feGaussianBlur stdDeviation="10"/>
<feColorMatrix type="matrix" values="0 0 0 0 0 0 0 0 0 0 0 0 0 0 0 0 0 0 0.15 0"/>
<feBlend mode="normal" in2="BackgroundImageFix" result="effect1_dropShadow"/>
<feBlend mode="normal" in="SourceGraphic" in2="effect1_dropShadow" result="shape"/>
</filter>
<clipPath id="clip0">
<path d="M138.548 32.3992L167.822 32.3992V76.7451H138.548V32.3992Z" fill="white"/>
</clipPath>
<clipPath id="clip1">
<path d="M104.431 15.5477L132.707 23.1229L121.227 65.9578L92.9508 58.3826L104.431 15.5477Z" fill="white"/>
</clipPath>
<clipPath id="clip2">
<path d="M55.5154 12L84.7896 12V56.3459H55.5154V12Z" fill="white"/>
</clipPath>
<clipPath id="clip3">
<path d="M10 23.1063L38.2767 15.5311L49.7566 58.366L21.4799 65.9412L10 23.1063Z" fill="white"/>
</clipPath>
</defs>
</svg>
