<svg width="450" height="330" viewBox="0 0 450 330" fill="none" xmlns="http://www.w3.org/2000/svg">
<g filter="url(#filter0_d)">
<g clip-path="url(#clip0)">
<path d="M331.195 146.275C331.195 144.01 333.025 142.173 335.283 142.173H394.56C396.817 142.173 398.648 144.009 398.648 146.275V240.621C398.648 242.886 396.817 244.723 394.56 244.723H335.283C333.025 244.723 331.195 242.886 331.195 240.621V146.275Z" fill="white"/>
<path d="M334.781 165.965H338.483L340.111 161.613H347.402L349.03 165.965H352.732L345.34 147.506H342.173L334.781 165.965ZM341.293 158.581L343.757 152.159L346.221 158.581H341.293Z" fill="#DF0000"/>
<path d="M395.47 220.931L391.769 220.931L390.141 225.283L382.849 225.283L381.222 220.931L377.52 220.931L384.912 239.39L388.078 239.39L395.47 220.931ZM388.959 228.315L386.495 234.736L384.031 228.315L388.959 228.315Z" fill="#DF0000"/>
<path fill-rule="evenodd" clip-rule="evenodd" d="M364.921 181.595C368.752 174.116 376.412 174.116 380.241 177.855C384.07 181.595 384.071 189.072 380.241 196.543C377.56 202.151 370.665 207.759 364.921 211.497C359.176 207.759 352.283 202.151 349.603 196.543C345.772 189.064 345.772 181.587 349.603 177.855C353.434 174.124 361.092 174.116 364.921 181.595V181.595Z" fill="#DF0000"/>
</g>
<g clip-path="url(#clip1)">
<path d="M251.526 107.166C252.111 104.978 254.352 103.679 256.533 104.266L313.79 119.66C315.971 120.246 317.265 122.496 316.68 124.684L292.345 215.815C291.761 218.003 289.519 219.302 287.338 218.716L230.081 203.321C227.901 202.735 226.606 200.486 227.191 198.297L251.526 107.166Z" fill="white"/>
<path d="M249.912 127.116L253.487 128.078L256.182 124.297L263.225 126.19L263.675 130.817L267.25 131.778L264.871 112.028L261.813 111.206L249.912 127.116ZM258.105 121.675L262.142 116.112L262.865 122.955L258.105 121.675Z" fill="#333333"/>
<path d="M294.354 195.971L290.779 195.01L288.084 198.791L281.041 196.897L280.591 192.271L277.016 191.309L279.395 211.059L282.453 211.881L294.354 195.971ZM286.161 201.412L282.124 206.975L281.401 200.132L286.161 201.412Z" fill="#333333"/>
<path fill-rule="evenodd" clip-rule="evenodd" d="M269.909 161.531C268.453 158.377 266.505 153.38 267.351 150.212C268.539 145.763 272.655 142.998 276.531 144.041C280.408 145.083 282.596 149.535 281.406 153.991C280.531 157.269 276.149 160.764 273.355 162.744C276.228 160.893 281.036 158.211 283.906 158.982C287.788 160.026 289.971 164.477 288.782 168.933C287.592 173.388 283.477 176.144 279.602 175.102C276.045 174.146 272.582 166.99 271.454 164.702C270.575 170.097 269.553 173.518 272.443 180.737L261.906 177.904C267.953 173.089 268.81 169.624 270.748 164.518C268.618 165.933 262.067 170.388 258.514 169.433C254.63 168.388 252.448 163.938 253.638 159.484C254.827 155.03 258.941 152.27 262.818 153.312C265.585 154.056 268.314 158.478 269.908 161.531L269.909 161.531Z" fill="#333333"/>
</g>
<g clip-path="url(#clip2)">
<path d="M139.875 99.102C139.875 96.8365 141.706 95 143.964 95H203.24C205.498 95 207.328 96.8365 207.328 99.102V193.448C207.328 195.713 205.498 197.55 203.24 197.55H143.964C141.706 197.55 139.875 195.713 139.875 193.448V99.102Z" fill="white"/>
<path d="M143.462 118.792H147.163L148.791 114.44H156.083L157.711 118.792H161.412L154.02 100.333H150.854L143.462 118.792ZM149.973 111.408L152.437 104.986L154.901 111.408H149.973Z" fill="#DF0000"/>
<path d="M204.151 173.758H200.449L198.821 178.11H191.53L189.902 173.758H186.2L193.592 192.217H196.759L204.151 173.758ZM197.64 181.142L195.176 187.563L192.712 181.142H197.64Z" fill="#DF0000"/>
<path fill-rule="evenodd" clip-rule="evenodd" d="M173.659 123.714L191.793 146.479L173.659 169.246L155.41 146.479L173.659 123.714Z" fill="#DF0000"/>
</g>
<g clip-path="url(#clip3)">
<path d="M36.0614 124.645C35.4752 122.457 36.7683 120.21 38.9496 119.625L96.2195 104.28C98.4008 103.695 100.644 104.995 101.231 107.183L125.643 198.293C126.23 200.481 124.937 202.728 122.755 203.313L65.4855 218.658C63.3041 219.243 61.0606 217.943 60.4744 215.755L36.0614 124.645Z" fill="white"/>
<path d="M44.6214 142.731L48.1976 141.772L48.6442 137.148L55.689 135.261L58.3877 139.042L61.9639 138.084L50.0458 122.171L46.9866 122.991L44.6214 142.731ZM49.0015 133.915L49.7205 127.076L53.7627 132.639L49.0015 133.915Z" fill="#333333"/>
<path d="M117.479 180.101L113.903 181.06L113.456 185.684L106.411 187.571L103.712 183.79L100.136 184.748L112.054 200.661L115.114 199.841L117.479 180.101ZM113.099 188.917L112.38 195.756L108.338 190.193L113.099 188.917Z" fill="#333333"/>
<path fill-rule="evenodd" clip-rule="evenodd" d="M83.8236 175.023C83.2944 177.268 80.3443 180.668 76.8308 181.61C69.8001 183.493 66.8641 179.567 65.6859 175.17C62.1517 161.98 75.1021 153.797 75.0155 139.681C82.201 152.168 97.3035 152.561 100.838 165.751C102.016 170.148 101.437 175.016 94.4058 176.9C90.8922 177.842 86.6355 176.373 85.0565 174.692C85.3511 175.792 85.9138 180.354 90.3183 182.709L83.2803 184.594C85.9119 180.355 84.1236 176.121 83.829 175.021L83.8236 175.023Z" fill="#333333"/>
</g>
<path d="M42.0962 207.892C27.9356 231.807 43.7054 246.404 53.3604 250.713C53.3604 256.907 57.2224 269.295 72.6704 269.295C91.9805 269.295 108.072 248.289 109.681 240.21C127.382 244.249 140.255 232.938 144.278 228.899C151.519 232.13 172.439 229.706 178.875 228.899C187.726 233.746 198.185 230.514 202.208 226.475C207.84 239.402 223.932 238.594 228.759 235.362C239.702 250.228 253.701 244.249 259.333 239.402C259.602 239.402 260.46 239.563 261.747 240.21C264.161 255.561 279.448 257.984 283.471 256.368C287.494 262.024 297.953 265.256 304.39 262.024C314.045 273.335 326.114 270.911 330.941 266.872C341.401 281.415 355.883 275.759 359.101 274.143C361.676 278.021 368.22 278.991 371.17 278.991L388.871 279.799C392.357 280.337 401.101 280.122 408.181 274.951C417.031 268.488 413.813 256.368 411.399 251.521C413.813 247.481 413.813 238.594 412.204 234.554C421.215 213.225 406.304 206.276 397.721 205.468C387.53 204.66 366.343 203.852 363.124 207.084C359.906 202.56 347.301 199.274 341.401 198.197C336.841 196.85 327.079 194.48 324.504 195.773C310.827 182.846 297.149 191.733 294.735 194.965C289.103 170.727 265.77 177.19 262.552 181.23C261.908 174.12 253.701 169.65 249.678 168.303C241.633 166.149 224.093 161.516 218.3 160.224C212.507 158.931 207.84 160.224 206.231 161.032C204.89 159.954 200.438 157.477 193.358 156.184C179.841 154.245 174.316 170.458 173.243 178.806L171.634 189.309C171.634 187.424 171.473 181.553 170.829 173.151C170.025 162.648 161.979 156.184 153.129 155.376C144.278 154.568 135.428 160.224 133.014 168.303C100.831 154.568 79.9117 183.654 80.7162 191.733C74.2796 187.694 52.5559 190.925 42.0962 207.892Z" fill="#333333"/>
<path d="M149.763 214.739C150.615 215.518 151.792 215.873 153.294 215.805L175.115 214.814C178.247 214.672 179.752 213.249 179.63 210.545C179.505 207.797 177.877 206.495 174.744 206.637L158.266 207.385L156.788 174.804C156.72 173.302 156.215 172.121 155.273 171.26C154.331 170.4 153.087 170.004 151.542 170.074C149.998 170.145 148.795 170.651 147.935 171.593C147.075 172.535 146.678 173.758 146.747 175.26L148.382 211.318C148.45 212.82 148.911 213.961 149.763 214.739Z" fill="white"/>
<path fill-rule="evenodd" clip-rule="evenodd" d="M125.029 224.295C120.834 225.953 116.831 226.519 113.021 225.992C109.234 225.409 105.863 223.831 102.906 221.257C99.9338 218.643 97.5795 215.138 95.8432 210.743C94.1068 206.347 93.4384 202.198 93.8377 198.298C94.2213 194.358 95.6039 190.901 97.9856 187.927C100.407 184.937 103.715 182.613 107.91 180.955C112.105 179.297 116.088 178.739 119.859 179.282C123.669 179.808 127.061 181.379 130.033 183.992C132.989 186.566 135.336 190.051 137.072 194.447C138.809 198.843 139.485 203.011 139.101 206.952C138.702 210.852 137.299 214.317 134.894 217.347C132.512 220.321 129.224 222.637 125.029 224.295ZM122.164 217.042C125.68 215.652 127.947 213.324 128.966 210.057C130.024 206.774 129.63 202.794 127.784 198.118C125.937 193.443 123.533 190.281 120.573 188.632C117.597 186.944 114.331 186.803 110.775 188.208C107.22 189.613 104.932 191.95 103.913 195.217C102.919 198.428 103.345 202.372 105.192 207.048C107.038 211.723 109.45 214.905 112.426 216.594C115.402 218.282 118.648 218.431 122.164 217.042Z" fill="white"/>
<path d="M87.6255 247.518C85.0023 249.672 82.3165 251.376 79.568 252.632C76.7923 253.855 74.2273 254.487 71.8729 254.53C71.0751 254.574 70.3964 254.492 69.837 254.284C69.2835 254.016 68.7478 253.566 68.2301 252.935C67.5488 252.105 67.1983 251.169 67.1786 250.129C67.1921 249.062 67.5309 248.256 68.195 247.711C68.5602 247.411 68.9634 247.191 69.4044 247.051C69.8514 246.851 70.4466 246.696 71.1899 246.586C73.3535 246.311 75.343 245.789 77.1583 245.021C78.9463 244.221 80.7202 243.098 82.4801 241.653C84.6716 239.854 86.0487 238.112 86.6113 236.427C87.174 234.742 86.8966 233.219 85.7793 231.857C84.9345 230.827 83.7053 230.447 82.0918 230.715C80.5115 230.956 78.1117 231.926 74.8924 233.624C71.2866 235.528 68.186 236.795 65.5907 237.425C63.0287 238.027 60.771 238.018 58.8176 237.399C56.8974 236.752 55.1606 235.481 53.6073 233.588C51.8904 231.495 50.9484 229.128 50.7812 226.486C50.62 223.783 51.2204 221.095 52.5824 218.42C53.9505 215.685 55.9793 213.213 58.6689 211.005C63.384 207.134 68.2364 205.124 73.2261 204.974C74.0511 204.964 74.7404 205.093 75.2939 205.361C75.8534 205.569 76.3784 205.972 76.8689 206.569C77.5502 207.4 77.8841 208.349 77.8706 209.416C77.8903 210.456 77.5681 211.249 76.904 211.794C76.5388 212.094 76.1492 212.33 75.7354 212.503C75.3548 212.649 74.746 212.787 73.909 212.918C71.8391 213.172 70.0459 213.561 68.5295 214.083C67.0462 214.578 65.4247 215.548 63.6648 216.993C61.6393 218.656 60.3725 220.363 59.8644 222.114C59.329 223.832 59.62 225.372 60.7373 226.734C61.3913 227.531 62.1522 228.018 63.0199 228.195C63.8935 228.312 65.0085 228.147 66.3649 227.7C67.7545 227.227 69.5893 226.415 71.8695 225.266C77.2029 222.555 81.4895 221.176 84.7294 221.129C88.0026 221.054 90.7564 222.379 92.9911 225.102C94.7352 227.228 95.6772 229.596 95.8171 232.204C95.9903 234.786 95.3656 237.411 93.9431 240.08C92.5538 242.722 90.4479 245.201 87.6255 247.518Z" fill="white"/>
<path d="M187.984 216.713C186.45 216.512 185.295 215.905 184.518 214.893C183.741 213.881 183.453 212.608 183.655 211.074L188.359 175.222C188.554 173.731 189.158 172.597 190.17 171.82C191.181 171.042 192.454 170.754 193.987 170.956C195.521 171.157 196.676 171.764 197.453 172.776C198.23 173.788 198.52 175.04 198.325 176.531L193.621 212.382C193.42 213.916 192.813 215.072 191.801 215.849C190.789 216.626 189.517 216.914 187.984 216.713Z" fill="white"/>
<path d="M215.022 220.277C215.708 221.389 216.777 222.137 218.232 222.518C219.727 222.911 221.026 222.785 222.128 222.141C223.229 221.497 223.97 220.448 224.352 218.993L232.625 187.447L242.722 190.096C245.796 190.903 247.682 189.976 248.38 187.316C249.067 184.698 247.873 182.985 244.798 182.178L214.882 174.328C211.807 173.521 209.927 174.427 209.24 177.045C208.542 179.705 209.731 181.439 212.806 182.246L222.902 184.895L214.629 216.442C214.248 217.897 214.379 219.175 215.022 220.277Z" fill="white"/>
<path fill-rule="evenodd" clip-rule="evenodd" d="M285.2 237.135C285.276 237.978 285.217 238.684 285.023 239.254C284.635 240.393 283.835 241.21 282.623 241.704C281.465 242.172 280.296 242.205 279.117 241.804C278.345 241.54 277.682 241.088 277.129 240.445C276.59 239.762 276.283 238.931 276.208 237.952L275.427 229.652L254.751 222.606L249.067 228.704C248.41 229.433 247.66 229.904 246.816 230.116C246.027 230.301 245.226 230.255 244.413 229.977C243.234 229.576 242.308 228.829 241.636 227.737C240.978 226.605 240.843 225.47 241.23 224.331C241.424 223.761 241.809 223.166 242.383 222.545L270.632 193.563C271.412 192.739 272.332 192.235 273.393 192.052C274.467 191.828 275.513 191.889 276.529 192.236C277.586 192.596 278.472 193.193 279.187 194.027C279.901 194.86 280.343 195.828 280.513 196.93L285.2 237.135ZM274.647 221.351L272.974 203.077L260.436 216.508L274.647 221.351Z" fill="white"/>
<path d="M293.925 245.504C294.51 246.638 295.539 247.44 297.012 247.911C298.485 248.381 299.789 248.324 300.922 247.739C302.056 247.154 302.858 246.124 303.328 244.651L314.324 210.205C314.781 208.772 314.717 207.489 314.132 206.355C313.547 205.221 312.518 204.419 311.045 203.948C309.572 203.477 308.269 203.535 307.135 204.12C306.001 204.705 305.206 205.714 304.748 207.147L293.753 241.592C293.283 243.066 293.34 244.37 293.925 245.504Z" fill="white"/>
<path fill-rule="evenodd" clip-rule="evenodd" d="M352.476 255.777C352.889 256.844 352.993 257.817 352.788 258.696C352.515 259.867 351.81 260.718 350.672 261.247C349.576 261.785 348.401 261.908 347.145 261.616C346.351 261.43 345.621 261.062 344.955 260.509C344.29 259.957 343.799 259.225 343.482 258.313L338.066 244.078C337.608 242.824 337.036 241.874 336.348 241.229C335.67 240.541 334.725 240.056 333.512 239.773L328.429 238.588L325.474 251.268C325.123 252.775 324.406 253.865 323.322 254.539C322.281 255.223 321.028 255.394 319.564 255.052C318.058 254.701 316.968 253.984 316.294 252.9C315.621 251.816 315.459 250.521 315.81 249.015L324.001 213.862C324.342 212.398 325.003 211.361 325.983 210.751C326.963 210.141 328.186 210.007 329.65 210.348L345.401 214.021C350.588 215.23 354.231 217.293 356.331 220.209C358.481 223.093 359.055 226.691 358.05 231.001C357.26 234.391 355.661 236.996 353.252 238.817C350.843 240.638 347.84 241.504 344.244 241.415C345.44 241.959 346.432 242.72 347.219 243.697C348.057 244.643 348.775 245.913 349.374 247.509L352.476 255.777ZM339.379 233.332C342.182 233.985 344.323 233.977 345.802 233.307C347.291 232.596 348.28 231.194 348.767 229.101C349.265 226.967 348.998 225.272 347.967 224.017C346.936 222.762 345.02 221.808 342.217 221.154L332.867 218.974L330.029 231.152L339.379 233.332Z" fill="white"/>
<path d="M368.925 263.269C369.718 264.108 370.866 264.548 372.369 264.59L395.17 265.228C398.347 265.317 399.972 264.073 400.044 261.496C400.117 258.876 398.565 257.521 395.388 257.432L377.675 256.937L377.994 245.533L394.418 245.992C397.596 246.081 399.221 244.837 399.293 242.26C399.366 239.64 397.814 238.285 394.636 238.196L378.212 237.737L378.509 227.106L396.222 227.602C399.399 227.69 401.025 226.425 401.098 223.805C401.17 221.227 399.617 219.894 396.44 219.806L373.639 219.168C372.136 219.126 370.965 219.501 370.127 220.294C369.288 221.088 368.848 222.236 368.806 223.739L367.799 259.756C367.757 261.259 368.132 262.43 368.925 263.269Z" fill="white"/>
</g>
<path fill-rule="evenodd" clip-rule="evenodd" d="M106.037 79.4338H121.704V76.2804H109.685V50.5661H106.037V79.4338ZM123.36 54.4476H126.842V50.5661H123.36V54.4476ZM123.36 79.4338H126.842V57.763H123.36V79.4338ZM131.483 79.4338H134.965V60.4313H138.778V57.763H134.965V55.2152C134.965 53.7195 135.711 53.1534 137.203 53.1534H138.819V50.243H136.29C132.934 50.243 131.483 51.9403 131.483 55.2152V57.763H128.251V60.4313H131.483V79.4338ZM153.781 69.0034V67.6282C153.781 62.9377 153.159 57.1969 146.362 57.1969C139.523 57.1969 138.445 63.5037 138.445 68.8809C138.445 76.3614 140.683 79.9998 146.154 79.9998C152.247 79.9998 153.614 74.6226 153.614 72.3179H150.134C150.134 73.9756 149.678 77.3315 146.362 77.3315C142.093 77.3315 142.093 72.3584 142.093 69.0034H153.781ZM142.218 66.3341V65.526C142.218 64.2318 142.632 59.8653 146.279 59.8653C149.387 59.8653 150.134 62.7361 150.134 65.1614V66.3341H142.218ZM170.026 69.528C169.901 73.0459 169.281 77.0894 164.846 77.0894C159.79 77.0894 159.125 71.6717 159.125 65.0004C159.125 58.3291 159.79 52.9114 164.846 52.9114C168.617 52.9114 169.653 55.7012 169.778 58.9761H173.591C173.425 53.3154 170.855 50 164.846 50C156.681 50 155.313 57.7225 155.313 65.0004C155.313 72.2774 156.433 79.9998 164.846 79.9998C171.311 79.9998 173.508 74.9862 173.84 69.528H170.026ZM175.124 79.4338H178.606V64.4748C178.606 61.361 181.133 60.1073 182.999 60.1073C186.148 60.1073 186.273 62.8171 186.273 64.4748V79.4338H189.754V64.0698C189.754 61.4825 189.796 57.1969 184.035 57.1969C182.046 57.1969 179.6 58.4506 178.689 60.2298H178.606V50.5661H175.124V79.4338ZM191.246 68.5984C191.246 74.7036 192.821 79.9998 199.245 79.9998C205.627 79.9998 207.244 74.7036 207.244 68.5984C207.244 62.4931 205.669 57.1969 199.245 57.1969C192.821 57.1969 191.246 62.4931 191.246 68.5984ZM199.161 77.3315C195.598 77.3315 194.893 73.289 194.893 68.5984C194.893 63.9078 195.639 59.8653 199.161 59.8653C202.933 59.8653 203.597 63.9078 203.597 68.5984C203.597 73.289 202.85 77.3315 199.161 77.3315ZM208.113 54.4476H211.595V50.5661H208.113V54.4476ZM208.113 79.4338H211.595V57.763H208.113V79.4338ZM228.421 64.3533C228.421 61.8865 227.426 57.1969 221.334 57.1969C214.495 57.1969 213.418 63.5037 213.418 68.8809C213.418 76.3614 215.656 79.9998 221.126 79.9998C226.681 79.9998 228.421 75.3102 228.421 71.9138H224.939C224.939 74.2591 224.277 77.3315 221.292 77.3315C217.107 77.3315 217.065 71.6312 217.065 68.8404C217.065 60.9164 219.263 59.8653 221.417 59.8653C224.069 59.8653 224.939 62.2501 224.939 64.3533H228.421ZM244.626 69.0034V67.6282C244.626 62.9377 244.004 57.1969 237.207 57.1969C230.368 57.1969 229.291 63.5037 229.291 68.8809C229.291 76.3614 231.53 79.9998 237 79.9998C243.092 79.9998 244.461 74.6226 244.461 72.3179H240.979C240.979 73.9756 240.522 77.3315 237.207 77.3315C232.938 77.3315 232.938 72.3584 232.938 69.0034H244.626ZM233.063 66.3341V65.526C233.063 64.2318 233.477 59.8653 237.124 59.8653C240.233 59.8653 240.979 62.7361 240.979 65.1614V66.3341H233.063ZM259.463 64.1103C259.463 61.5635 259.172 57.1969 252.707 57.1969C248.853 57.1969 245.619 59.1372 245.619 63.1807C245.619 67.6282 248.397 68.4364 251.09 69.3265C253.744 70.1751 256.521 70.8222 256.521 73.7335C256.521 76.8059 253.95 77.3315 252.831 77.3315C249.391 77.3315 248.687 74.9457 248.687 72.3179H245.206C245.206 74.5416 245.289 79.9998 252.831 79.9998C256.976 79.9998 260 77.7356 260 73.2079C260 68.8809 257.225 67.9513 254.572 67.1027C251.836 66.2531 249.102 65.768 249.102 63.1807C249.102 60.1478 251.588 59.8653 252.707 59.8653C255.235 59.8653 255.981 61.361 255.981 64.1103H259.463Z" fill="black"/>
<path fill-rule="evenodd" clip-rule="evenodd" d="M42.502 79.4339H49.4652V68.0729L56.9662 50.5662H49.5057L46.1081 61.281H46.0251L42.7086 50.5662H35L42.502 68.0729V79.4339ZM62.3962 80C70.1463 80 71.638 74.9863 71.638 68.4365C71.638 61.8866 70.5605 56.9945 62.3962 56.9945C54.6461 56.9945 53.1534 62.0082 53.1534 68.558C53.1534 75.1078 54.1894 80 62.3962 80ZM64.9239 68.5175C64.9239 73.8947 64.5097 75.7144 62.4377 75.7144C60.4478 75.7144 59.8675 73.8137 59.8675 68.477C59.8675 63.1808 60.4478 61.281 62.4377 61.281C64.5097 61.281 64.9239 63.0998 64.9239 68.5175ZM90.4122 57.5606H83.6981V71.8734C83.6981 74.0162 82.58 74.9863 81.294 74.9863C80.0098 74.9863 79.3465 74.0567 79.3465 72.48V57.5606H72.6324V73.9352C72.6324 78.1397 74.6639 80 78.4766 80C80.9628 80 82.9112 78.7868 83.8641 76.8465H83.9472V79.4339H90.4122V57.5606ZM92.153 79.4339H98.8671V67.0218C98.8671 64.1104 100.608 63.0593 103.302 63.0593C103.965 63.0593 104.504 63.0998 105.167 63.2213V57.0755C104.959 57.035 104.753 56.9945 104.586 56.9945H104.09C101.271 56.9945 99.5719 58.6927 98.702 60.634H98.619V57.5606H92.153V79.4339Z" fill="#ED1B33"/>
<defs>
<filter id="filter0_d" x="25" y="83" width="420" height="225" filterUnits="userSpaceOnUse" color-interpolation-filters="sRGB">
<feFlood flood-opacity="0" result="BackgroundImageFix"/>
<feColorMatrix in="SourceAlpha" type="matrix" values="0 0 0 0 0 0 0 0 0 0 0 0 0 0 0 0 0 0 127 0"/>
<feOffset dx="10" dy="8"/>
<feGaussianBlur stdDeviation="10"/>
<feColorMatrix type="matrix" values="0 0 0 0 0 0 0 0 0 0 0 0 0 0 0 0 0 0 0.15 0"/>
<feBlend mode="normal" in2="BackgroundImageFix" result="effect1_dropShadow"/>
<feBlend mode="normal" in="SourceGraphic" in2="effect1_dropShadow" result="shape"/>
</filter>
<clipPath id="clip0">
<rect width="67.4526" height="102.55" fill="white" transform="translate(331.195 142.173)"/>
</clipPath>
<clipPath id="clip1">
<rect width="67.468" height="102.527" fill="white" transform="matrix(0.965705 0.259643 -0.257997 0.966146 252.584 103.204)"/>
</clipPath>
<clipPath id="clip2">
<rect width="67.4526" height="102.55" fill="white" transform="translate(139.875 95)"/>
</clipPath>
<clipPath id="clip3">
<rect width="67.468" height="102.527" fill="white" transform="translate(35 120.683) rotate(-15)"/>
</clipPath>
</defs>
</svg>
