<svg width="475" height="222" viewBox="0 0 475 222" fill="none" xmlns="http://www.w3.org/2000/svg">
<g filter="url(#filter0_d)">
<path fill-rule="evenodd" clip-rule="evenodd" d="M208.925 9.9856C202.547 9.9856 196.867 12.9626 193.207 17.5985C182.958 9.8705 170.353 5.75524 157.396 6.01127C146.771 6.2212 136.5 9.35865 127.669 14.9621C124.054 11.7865 119.366 9.9856 114.452 9.9856H107.155C100.048 9.9856 93.6229 13.7258 90.0628 19.5751C86.5072 13.7338 80.0871 9.9856 72.9702 9.9856H65.3735C58.2997 9.9856 51.9011 13.6909 48.331 19.4934C44.7663 13.7005 38.374 9.9856 31.2883 9.9856H23.9915C17.7298 9.9856 11.8299 12.9102 8.05104 17.8872C4.27218 22.8643 3.05098 29.3188 4.7516 35.326L22.5318 98.1326C22.1022 98.4602 21.6765 98.7975 21.255 99.1447C11.7455 106.976 7.09875 117.818 7.09875 129.654C7.09875 135.613 8.27808 141.817 11.2878 147.537C8.662 150.91 7.09875 155.146 7.09875 159.745C7.09875 171.676 11.7818 182.807 21.8762 190.57C21.9238 190.606 21.9716 190.643 22.0195 190.679C31.0424 197.489 41.7507 200 52.379 200C61.6834 200 70.9533 197.869 78.9754 192.562C82.6384 196.696 87.9954 199.303 93.9633 199.303H134.246C136.354 199.303 138.387 198.977 140.295 198.374C142.223 198.982 144.255 199.303 146.328 199.303H161.221C169.029 199.303 176.049 194.782 179.314 187.853C182.578 194.782 189.598 199.303 197.406 199.303H212.299C214.502 199.303 216.658 198.941 218.692 198.256C220.704 198.935 222.86 199.303 225.101 199.303H239.195C243.109 199.303 246.76 198.181 249.843 196.244C252.98 198.21 256.657 199.303 260.486 199.303H277.179C283.757 199.303 289.868 196.081 293.58 190.769C302.752 196.874 313.354 199.9 324.799 199.9C335.902 199.9 346.475 197.077 355.859 191.019L355.906 190.988C356.061 190.887 356.217 190.785 356.371 190.683C359.977 195.89 366.006 199.303 372.834 199.303H386.928C392.899 199.303 398.258 196.693 401.921 192.556C405.585 196.693 410.944 199.303 416.915 199.303H431.009C442.05 199.303 451 190.38 451 179.374V109.825C451 98.8194 442.05 89.8973 431.009 89.8973H416.915C410.944 89.8973 405.585 92.5066 401.921 96.6438C398.258 92.5066 392.899 89.8973 386.928 89.8973H372.834C366.095 89.8973 360.135 93.2209 356.514 98.3134C356.326 98.188 356.138 98.0636 355.948 97.9401C351.803 95.2225 347.421 93.1425 342.858 91.6668C347.116 83.4449 348.918 74.1856 348.918 64.6882C348.918 49.8112 344.471 35.6566 333.414 24.9382C322.497 14.2169 308.246 9.9856 293.342 9.9856H272.151C265.915 9.9856 260.346 12.8322 256.679 17.2931C248.53 11.7919 238.976 9.9856 230.016 9.9856H208.925Z" fill="white"/>
</g>
<path d="M104.917 30.2227H112.287L90.6825 99.6621H83.0098L66.3521 40.2863L48.281 99.6621L40.6083 99.7627L20.9219 30.2227H28.2917L44.6465 91.7118L62.7177 30.2227H70.3903L86.9471 91.4099L104.917 30.2227Z" fill="#333333"/>
<path d="M214.772 70.578V99.6621H207.705V30.2227H229.006C236.814 30.2227 242.737 32.1012 246.775 35.8583C250.813 39.5483 252.832 44.2447 252.832 49.9475C252.832 55.6502 251.25 60.2795 248.087 63.8354C244.924 67.3241 240.213 69.471 233.953 70.2761L253.741 99.6621H244.554L225.675 70.578H214.772ZM214.772 35.959V64.8417H229.006C240.112 64.8417 245.664 60.0447 245.664 50.4507C245.664 40.7895 240.112 35.959 229.006 35.959H214.772Z" fill="#333333"/>
<path d="M278.63 94.2277H292.966C302.321 94.2277 309.422 91.7118 314.268 86.6799C319.181 81.581 321.638 74.4693 321.638 65.3449C321.638 56.2205 319.181 49.1424 314.268 44.1105C309.422 39.0116 302.321 36.4621 292.966 36.4621H278.63V94.2277ZM292.966 30.2227C304.206 30.2227 312.989 33.3424 319.316 39.5819C325.71 45.7543 328.906 54.342 328.906 65.3449C328.906 76.3479 325.743 84.8349 319.417 90.8061C313.09 96.7101 304.273 99.6621 292.966 99.6621H271.563V30.2227H292.966Z" fill="#333333"/>
<path d="M48.3817 120.492C45.5549 120.492 43.2329 121.23 41.4157 122.706C39.6658 124.115 38.7909 126.094 38.7909 128.643C38.7909 131.193 39.4302 133.206 40.709 134.682C42.0551 136.091 43.805 137.198 45.9587 138.003C48.1125 138.741 50.4681 139.412 53.0257 140.015C55.5832 140.619 58.1408 141.357 60.6983 142.229C63.2559 143.102 65.6115 144.175 67.7652 145.45C69.919 146.725 71.6352 148.603 72.914 151.085C74.2601 153.501 74.9331 156.453 74.9331 159.941C74.9331 165.711 72.6111 170.676 67.9671 174.836C63.3905 178.995 57.2658 181.075 49.5931 181.075C41.9878 181.075 35.8295 179.297 31.1182 175.741C26.4069 172.119 24.0513 167.053 24.0513 160.545H39.1947C39.7331 166.718 43.2666 169.804 49.7951 169.804C53.0257 169.804 55.5832 168.965 57.4677 167.288C59.3522 165.611 60.2945 163.397 60.2945 160.646C60.2945 157.828 59.0494 155.614 56.5591 154.004C54.0689 152.394 51.0402 151.186 47.4731 150.381C43.9733 149.576 40.4398 148.603 36.8727 147.463C33.3056 146.322 30.2769 144.343 27.7866 141.525C25.2964 138.64 24.0513 134.849 24.0513 130.153C24.0513 123.779 26.3733 118.68 31.0172 114.856C35.6612 111.032 41.6176 109.12 48.8865 109.12C56.2226 109.12 62.1117 110.797 66.5538 114.152C70.9958 117.439 73.4188 122.471 73.8226 129.247H58.2754C58.0062 126.564 56.9966 124.45 55.2467 122.907C53.4968 121.297 51.2084 120.492 48.3817 120.492Z" fill="#333333"/>
<path d="M132.279 109.925V120.794H105.828V139.21H129.25V150.079H105.828V169.502H132.279V180.371H91.5932V109.925H132.279Z" fill="#333333"/>
<path d="M196.07 180.371L191.527 167.187H164.067L159.524 180.371H144.482L169.418 109.925H186.277L211.113 180.371H196.07ZM167.802 156.319H187.893L177.797 127.033L167.802 156.319Z" fill="#333333"/>
<path d="M238.278 152.394V180.371H224.043V110.126H249.989C258.132 110.126 264.392 112.173 268.766 116.265C273.208 120.291 275.429 125.289 275.429 131.26C275.429 135.688 274.083 139.814 271.391 143.638C268.699 147.463 264.459 150.079 258.671 151.488L276.641 180.371H259.781L242.922 152.394H238.278ZM238.278 120.995V141.525H249.989C253.556 141.525 256.281 140.619 258.166 138.808C260.05 136.929 260.993 134.413 260.993 131.26C260.993 128.107 260.05 125.624 258.166 123.813C256.281 121.934 253.556 120.995 249.989 120.995H238.278Z" fill="#333333"/>
<path d="M299.095 170.81C292.163 164.034 288.696 155.446 288.696 145.047C288.696 134.648 292.163 126.06 299.095 119.284C306.095 112.508 314.642 109.12 324.738 109.12C332.41 109.12 339.208 111.066 345.131 114.957C351.121 118.848 355.395 124.316 357.952 131.361H340.891C337.727 125.188 332.343 122.102 324.738 122.102C318.344 122.102 313.128 124.215 309.09 128.442C305.119 132.602 303.133 138.17 303.133 145.148C303.133 152.058 305.119 157.627 309.09 161.854C313.128 166.013 318.344 168.093 324.738 168.093C332.276 168.093 337.66 165.007 340.891 158.834H357.952C355.395 165.879 351.121 171.347 345.131 175.238C339.208 179.063 332.41 180.975 324.738 180.975C314.575 180.975 306.027 177.586 299.095 170.81Z" fill="#333333"/>
<path d="M417.774 110.126H432.009V180.371H417.774V150.28H387.488V180.371H373.253V110.126H387.488V139.412H417.774V110.126Z" fill="#333333"/>
<path d="M217.814 112.715L194.136 92.6426C191.686 90.4442 189.069 89.4415 186.957 89.5349C193.241 82.1894 196.43 72.7044 195.854 63.0675C195.279 53.4306 190.984 44.3896 183.87 37.8391C176.756 31.2886 167.375 27.7369 157.692 27.9282C148.009 28.1196 138.777 32.0391 131.928 38.8655C125.08 45.6919 121.149 54.8953 120.957 64.5474C120.765 74.1995 124.328 83.5511 130.899 90.6426C137.47 97.7342 146.54 102.015 156.207 102.589C165.875 103.163 175.39 99.9844 182.759 93.7201C182.659 95.8251 183.671 98.4345 185.876 100.876L206.012 124.479C209.461 128.297 215.09 128.621 218.526 125.196C221.962 121.77 221.637 116.153 217.808 112.721L217.814 112.715ZM158.437 90.1951C151.809 90.1951 145.453 87.5705 140.766 82.8987C136.079 78.2269 133.446 71.8906 133.446 65.2837C133.446 58.6768 136.079 52.3405 140.766 47.6687C145.453 42.9969 151.809 40.3723 158.437 40.3723C165.065 40.3723 171.421 42.9969 176.108 47.6687C180.794 52.3405 183.427 58.6768 183.427 65.2837C183.427 71.8906 180.794 78.2269 176.108 82.8987C171.421 87.5705 165.065 90.1951 158.437 90.1951Z" fill="#FA3CBA"/>
<defs>
<filter id="filter0_d" x="0" y="0" width="475" height="222" filterUnits="userSpaceOnUse" color-interpolation-filters="sRGB">
<feFlood flood-opacity="0" result="BackgroundImageFix"/>
<feColorMatrix in="SourceAlpha" type="matrix" values="0 0 0 0 0 0 0 0 0 0 0 0 0 0 0 0 0 0 127 0" result="hardAlpha"/>
<feOffset dx="10" dy="8"/>
<feGaussianBlur stdDeviation="7"/>
<feColorMatrix type="matrix" values="0 0 0 0 0 0 0 0 0 0 0 0 0 0 0 0 0 0 0.15 0"/>
<feBlend mode="normal" in2="BackgroundImageFix" result="effect1_dropShadow"/>
<feBlend mode="normal" in="SourceGraphic" in2="effect1_dropShadow" result="shape"/>
</filter>
</defs>
</svg>
