<svg width="130" height="40" viewBox="0 0 130 40" fill="none" xmlns="http://www.w3.org/2000/svg">
<path d="M19.7267 29.7657L9.72666 33.5938C9.26572 33.7657 8.78134 33.4141 8.80478 32.9219L9.35166 22.2266C9.35947 22.0626 9.30478 21.8985 9.20322 21.7657L2.46884 13.4376C2.15634 13.0547 2.34384 12.4844 2.82041 12.3516L13.1642 9.57037C13.3282 9.5235 13.4688 9.42194 13.5548 9.28131L19.3985 0.312561C19.6642 -0.101501 20.2735 -0.101501 20.5392 0.312561L26.3829 9.28912C26.4767 9.42975 26.6173 9.53131 26.7735 9.57819L37.1173 12.3594C37.5938 12.4844 37.7813 13.0626 37.4688 13.4454L30.7423 21.7735C30.6407 21.9063 30.586 22.0704 30.5938 22.2344L31.1407 32.9297C31.1642 33.4219 30.6798 33.7735 30.2188 33.6016L20.2188 29.7735C20.0548 29.711 19.8829 29.711 19.7267 29.7657Z" fill="#FFB636"/>
<path d="M35.6329 4.03899L32.4298 0.835868C32.336 0.742118 32.211 0.703055 32.086 0.71868C31.961 0.734305 31.8438 0.81243 31.7813 0.921805L28.4766 7.42962C28.3829 7.59368 28.4141 7.78899 28.547 7.92181C28.6251 7.99993 28.7345 8.03899 28.836 8.03899C28.9063 8.03899 28.9766 8.02337 29.0391 7.98431L35.5392 4.68743C35.6485 4.62493 35.7267 4.51556 35.7423 4.38274C35.7657 4.25774 35.7188 4.13274 35.6329 4.03899Z" fill="#FFD469"/>
<path d="M11.6484 7.43737L8.34368 0.929557C8.28118 0.820182 8.1718 0.742057 8.03899 0.726432C7.91399 0.710807 7.78118 0.749869 7.69524 0.843619L4.49212 4.04674C4.39837 4.14049 4.35931 4.26549 4.37493 4.39049C4.39056 4.51549 4.46868 4.63268 4.57806 4.69518L11.0859 7.99987C11.1484 8.03893 11.2187 8.05456 11.289 8.05456C11.3984 8.05456 11.4999 8.01549 11.5781 7.93737C11.7109 7.79674 11.7343 7.59362 11.6484 7.43737Z" fill="#FFD469"/>
<path d="M22.6406 39.4687L20.375 32.5312C20.3593 32.4609 20.3203 32.3984 20.2734 32.3515C20.1953 32.2734 20.0937 32.2343 19.9843 32.2343C19.7968 32.2343 19.6406 32.3593 19.5859 32.539L17.3203 39.4765C17.289 39.6015 17.3125 39.7343 17.3906 39.8358C17.4687 39.9374 17.5859 39.9999 17.7187 39.9999H22.2421C22.3671 39.9999 22.4921 39.9374 22.5703 39.8358C22.6562 39.7265 22.6796 39.5937 22.6406 39.4687Z" fill="#FFD469"/>
<path d="M64.7267 29.7657L54.7267 33.5938C54.2657 33.7657 53.7813 33.4141 53.8048 32.9219L54.3517 22.2266C54.3595 22.0626 54.3048 21.8985 54.2032 21.7657L47.4688 13.4376C47.1563 13.0547 47.3438 12.4844 47.8204 12.3516L58.1642 9.57037C58.3282 9.5235 58.4688 9.42194 58.5548 9.28131L64.3985 0.312561C64.6642 -0.101501 65.2735 -0.101501 65.5392 0.312561L71.3829 9.28912C71.4767 9.42975 71.6173 9.53131 71.7735 9.57819L82.1173 12.3594C82.5938 12.4844 82.7813 13.0626 82.4688 13.4454L75.7423 21.7735C75.6407 21.9063 75.586 22.0704 75.5938 22.2344L76.1407 32.9297C76.1642 33.4219 75.6798 33.7735 75.2188 33.6016L65.2188 29.7735C65.0548 29.711 64.8829 29.711 64.7267 29.7657Z" fill="#FFB636"/>
<path d="M80.6328 4.03899L77.4297 0.835868C77.3359 0.742118 77.2109 0.703055 77.0859 0.71868C76.9609 0.734305 76.8437 0.81243 76.7812 0.921805L73.4765 7.42962C73.3828 7.59368 73.414 7.78899 73.5468 7.92181C73.625 7.99993 73.7343 8.03899 73.8359 8.03899C73.9062 8.03899 73.9765 8.02337 74.039 7.98431L80.539 4.68743C80.6484 4.62493 80.7265 4.51556 80.7422 4.38274C80.7656 4.25774 80.7187 4.13274 80.6328 4.03899Z" fill="#FFD469"/>
<path d="M56.6484 7.43737L53.3437 0.929557C53.2812 0.820182 53.1718 0.742057 53.039 0.726432C52.914 0.710807 52.7812 0.749869 52.6952 0.843619L49.4921 4.04674C49.3984 4.14049 49.3593 4.26549 49.3749 4.39049C49.3906 4.51549 49.4687 4.63268 49.5781 4.69518L56.0859 7.99987C56.1484 8.03893 56.2187 8.05456 56.289 8.05456C56.3984 8.05456 56.4999 8.01549 56.5781 7.93737C56.7109 7.79674 56.7343 7.59362 56.6484 7.43737Z" fill="#FFD469"/>
<path d="M67.6406 39.4687L65.375 32.5312C65.3593 32.4609 65.3203 32.3984 65.2734 32.3515C65.1953 32.2734 65.0937 32.2343 64.9843 32.2343C64.7968 32.2343 64.6406 32.3593 64.5859 32.539L62.3203 39.4765C62.289 39.6015 62.3125 39.7343 62.3906 39.8358C62.4687 39.9374 62.5859 39.9999 62.7187 39.9999H67.2421C67.3671 39.9999 67.4921 39.9374 67.5703 39.8358C67.6562 39.7265 67.6796 39.5937 67.6406 39.4687Z" fill="#FFD469"/>
<path d="M109.727 29.7657L99.7265 33.5938C99.2656 33.7657 98.7812 33.4141 98.8047 32.9219L99.3515 22.2266C99.3593 22.0626 99.3047 21.8985 99.2031 21.7657L92.4687 13.4376C92.1562 13.0547 92.3437 12.4844 92.8203 12.3516L103.164 9.57037C103.328 9.5235 103.469 9.42194 103.555 9.28131L109.398 0.312561C109.664 -0.101501 110.273 -0.101501 110.539 0.312561L116.383 9.28912C116.477 9.42975 116.617 9.53131 116.773 9.57819L127.117 12.3594C127.594 12.4844 127.781 13.0626 127.469 13.4454L120.742 21.7735C120.641 21.9063 120.586 22.0704 120.594 22.2344L121.141 32.9297C121.164 33.4219 120.68 33.7735 120.219 33.6016L110.219 29.7735C110.055 29.711 109.883 29.711 109.727 29.7657Z" fill="#FFB636"/>
<path d="M125.633 4.03899L122.43 0.835868C122.336 0.742118 122.211 0.703055 122.086 0.71868C121.961 0.734305 121.844 0.81243 121.781 0.921805L118.477 7.42962C118.383 7.59368 118.414 7.78899 118.547 7.92181C118.625 7.99993 118.734 8.03899 118.836 8.03899C118.906 8.03899 118.977 8.02337 119.039 7.98431L125.539 4.68743C125.648 4.62493 125.727 4.51556 125.742 4.38274C125.766 4.25774 125.719 4.13274 125.633 4.03899Z" fill="#FFD469"/>
<path d="M101.648 7.43737L98.3438 0.929557C98.2813 0.820182 98.1719 0.742057 98.0391 0.726432C97.9141 0.710807 97.7813 0.749869 97.6954 0.843619L94.4922 4.04674C94.3985 4.14049 94.3594 4.26549 94.3751 4.39049C94.3907 4.51549 94.4688 4.63268 94.5782 4.69518L101.086 7.99987C101.148 8.03893 101.219 8.05456 101.289 8.05456C101.398 8.05456 101.5 8.01549 101.578 7.93737C101.711 7.79674 101.734 7.59362 101.648 7.43737Z" fill="#FFD469"/>
<path d="M112.641 39.4687L110.375 32.5312C110.359 32.4609 110.32 32.3984 110.273 32.3515C110.195 32.2734 110.094 32.2343 109.984 32.2343C109.797 32.2343 109.641 32.3593 109.586 32.539L107.32 39.4765C107.289 39.6015 107.312 39.7343 107.391 39.8358C107.469 39.9374 107.586 39.9999 107.719 39.9999H112.242C112.367 39.9999 112.492 39.9374 112.57 39.8358C112.656 39.7265 112.68 39.5937 112.641 39.4687Z" fill="#FFD469"/>
</svg>
