<svg width="450" height="330" viewBox="0 0 450 330" fill="none" xmlns="http://www.w3.org/2000/svg">
<g filter="url(#filter0_d)">
<path fill-rule="evenodd" clip-rule="evenodd" d="M210.871 113.481C206.02 113.481 201.7 115.752 198.916 119.288C191.12 113.393 181.532 110.254 171.677 110.449C163.595 110.609 155.783 113.003 149.066 117.277C146.316 114.855 142.751 113.481 139.013 113.481H133.463C128.057 113.481 123.17 116.334 120.462 120.796C117.757 116.34 112.874 113.481 107.461 113.481H101.682C96.3018 113.481 91.4348 116.307 88.7193 120.734C86.0079 116.315 81.1458 113.481 75.7562 113.481H70.206C65.4433 113.481 60.9556 115.712 58.0813 119.509C55.207 123.305 54.2782 128.229 55.5717 132.812L69.0958 180.725C68.769 180.975 68.4452 181.232 68.1246 181.497C60.8914 187.471 57.357 195.742 57.357 204.771C57.357 209.317 58.254 214.05 60.5433 218.414C58.546 220.987 57.357 224.218 57.357 227.727C57.357 236.829 60.9191 245.32 68.5971 251.242C68.6333 251.27 68.6697 251.297 68.7061 251.325C75.5691 256.52 83.7142 258.436 91.7984 258.436C98.8755 258.436 105.926 256.81 112.028 252.762C114.814 255.915 118.889 257.904 123.428 257.904H154.068C155.672 257.904 157.218 257.656 158.67 257.195C160.136 257.659 161.682 257.904 163.258 257.904H174.587C180.526 257.904 185.865 254.456 188.348 249.17C190.831 254.456 196.171 257.904 202.109 257.904H213.438C215.113 257.904 216.753 257.628 218.3 257.106C219.831 257.623 221.47 257.904 223.176 257.904H233.896C236.873 257.904 239.65 257.049 241.995 255.57C244.381 257.071 247.177 257.904 250.09 257.904H262.787C267.791 257.904 272.439 255.446 275.262 251.394C282.239 256.051 290.303 258.36 299.009 258.36C307.454 258.36 315.496 256.206 322.633 251.584L322.669 251.561C322.787 251.484 322.905 251.406 323.023 251.328C325.766 255.301 330.351 257.904 335.545 257.904H346.265C350.807 257.904 354.883 255.913 357.669 252.757C360.456 255.913 364.532 257.904 369.074 257.904H379.794C388.192 257.904 395 251.097 395 242.701V189.645C395 181.249 388.192 174.443 379.794 174.443H369.074C364.532 174.443 360.456 176.433 357.669 179.589C354.883 176.433 350.807 174.443 346.265 174.443H335.545C330.419 174.443 325.886 176.978 323.131 180.863C322.989 180.767 322.845 180.672 322.701 180.578C319.548 178.505 316.215 176.918 312.744 175.792C315.983 169.52 317.354 162.457 317.354 155.211C317.354 143.862 313.971 133.064 305.561 124.888C297.257 116.709 286.417 113.481 275.081 113.481H258.963C254.219 113.481 249.983 115.652 247.195 119.055C240.996 114.859 233.729 113.481 226.914 113.481H210.871Z" fill="white"/>
</g>
<path d="M131.76 128.919H137.366L120.933 181.892H115.097L102.427 136.596L88.6814 181.892L82.8454 181.968L67.8713 128.919H73.477L85.9169 175.827L99.6623 128.919H105.498L118.092 175.596L131.76 128.919Z" fill="#333333"/>
<path d="M215.319 159.705V181.892H209.943V128.919H226.146C232.084 128.919 236.589 130.352 239.661 133.218C242.733 136.033 244.268 139.616 244.268 143.966C244.268 148.317 243.065 151.848 240.659 154.561C238.253 157.222 234.67 158.86 229.909 159.474L244.959 181.892H237.972L223.612 159.705H215.319ZM215.319 133.295V155.329H226.146C234.593 155.329 238.816 151.669 238.816 144.35C238.816 136.98 234.593 133.295 226.146 133.295H215.319Z" fill="#333333"/>
<path d="M263.891 177.746H274.795C281.911 177.746 287.312 175.827 290.998 171.988C294.735 168.098 296.604 162.673 296.604 155.712C296.604 148.752 294.735 143.352 290.998 139.513C287.312 135.624 281.911 133.679 274.795 133.679H263.891V177.746ZM274.795 128.919C283.345 128.919 290.025 131.299 294.837 136.059C299.701 140.767 302.133 147.319 302.133 155.712C302.133 164.106 299.726 170.581 294.914 175.136C290.102 179.64 283.396 181.892 274.795 181.892H258.516V128.919H274.795Z" fill="#333333"/>
<path d="M88.7578 197.782C86.6077 197.782 84.8415 198.345 83.4593 199.471C82.1283 200.546 81.4628 202.056 81.4628 204.001C81.4628 205.945 81.9491 207.481 82.9218 208.607C83.9457 209.682 85.2767 210.526 86.9149 211.14C88.553 211.703 90.3448 212.215 92.2901 212.676C94.2355 213.136 96.1808 213.699 98.1262 214.365C100.072 215.03 101.863 215.849 103.501 216.822C105.14 217.794 106.445 219.227 107.418 221.121C108.442 222.963 108.954 225.215 108.954 227.877C108.954 232.278 107.187 236.066 103.655 239.239C100.174 242.412 95.5153 243.999 89.6793 243.999C83.8945 243.999 79.2103 242.643 75.6268 239.93C72.0432 237.166 70.2515 233.302 70.2515 228.337H81.7699C82.1795 233.046 84.8671 235.4 89.8329 235.4C92.2901 235.4 94.2355 234.761 95.6689 233.481C97.1023 232.202 97.819 230.513 97.819 228.414C97.819 226.265 96.8719 224.576 94.9778 223.347C93.0836 222.119 90.7799 221.198 88.0667 220.583C85.4047 219.969 82.717 219.227 80.0038 218.357C77.2905 217.487 74.9868 215.977 73.0927 213.827C71.1985 211.627 70.2515 208.735 70.2515 205.152C70.2515 200.29 72.0176 196.4 75.55 193.483C79.0823 190.565 83.6129 189.107 89.1418 189.107C94.7218 189.107 99.2012 190.386 102.58 192.945C105.959 195.453 107.802 199.292 108.109 204.461H96.2832C96.0784 202.414 95.3105 200.802 93.9795 199.625C92.6485 198.396 90.9079 197.782 88.7578 197.782Z" fill="#333333"/>
<path d="M152.572 189.721V198.012H132.453V212.062H150.268V220.353H132.453V235.17H152.572V243.461H121.626V189.721H152.572Z" fill="#333333"/>
<path d="M201.094 243.461L197.638 233.404H176.751L173.296 243.461H161.854L180.821 189.721H193.645L212.535 243.461H201.094ZM179.592 225.113H194.874L187.195 202.772L179.592 225.113Z" fill="#333333"/>
<path d="M233.198 222.119V243.461H222.37V189.874H242.105C248.3 189.874 253.061 191.436 256.388 194.558C259.767 197.628 261.456 201.442 261.456 205.997C261.456 209.375 260.432 212.522 258.385 215.44C256.337 218.357 253.112 220.353 248.709 221.428L262.378 243.461H249.554L236.73 222.119H233.198ZM233.198 198.166V213.827H242.105C244.819 213.827 246.892 213.136 248.325 211.755C249.759 210.321 250.475 208.402 250.475 205.997C250.475 203.591 249.759 201.697 248.325 200.316C246.892 198.882 244.819 198.166 242.105 198.166H233.198Z" fill="#333333"/>
<path d="M279.457 236.168C274.184 230.999 271.548 224.448 271.548 216.514C271.548 208.581 274.184 202.03 279.457 196.861C284.781 191.691 291.283 189.107 298.962 189.107C304.798 189.107 309.968 190.591 314.473 193.56C319.029 196.528 322.28 200.699 324.225 206.073H311.248C308.842 201.365 304.746 199.01 298.962 199.01C294.098 199.01 290.131 200.623 287.059 203.847C284.039 207.02 282.529 211.268 282.529 216.591C282.529 221.863 284.039 226.111 287.059 229.335C290.131 232.509 294.098 234.095 298.962 234.095C304.695 234.095 308.791 231.741 311.248 227.032H324.225C322.28 232.406 319.029 236.578 314.473 239.546C309.968 242.463 304.798 243.922 298.962 243.922C291.231 243.922 284.73 241.337 279.457 236.168Z" fill="#333333"/>
<path d="M369.728 189.874H380.555V243.461H369.728V220.507H346.691V243.461H335.863V189.874H346.691V212.215H369.728V189.874Z" fill="#333333"/>
<path d="M217.632 191.849L199.622 176.537C197.759 174.86 195.768 174.095 194.162 174.166C198.942 168.562 201.367 161.327 200.929 153.975C200.492 146.623 197.225 139.726 191.814 134.729C186.403 129.732 179.267 127.023 171.902 127.169C164.537 127.315 157.515 130.305 152.306 135.512C147.097 140.72 144.106 147.741 143.96 155.104C143.814 162.467 146.524 169.601 151.523 175.011C156.521 180.421 163.419 183.687 170.773 184.125C178.126 184.562 185.364 182.138 190.968 177.359C190.892 178.965 191.662 180.955 193.34 182.818L208.656 200.824C211.279 203.736 215.561 203.983 218.174 201.37C220.788 198.757 220.541 194.472 217.628 191.854L217.632 191.849ZM172.469 174.67C167.427 174.67 162.592 172.668 159.028 169.104C155.463 165.54 153.46 160.706 153.46 155.666C153.46 150.626 155.463 145.792 159.028 142.228C162.592 138.664 167.427 136.662 172.469 136.662C177.51 136.662 182.345 138.664 185.91 142.228C189.474 145.792 191.477 150.626 191.477 155.666C191.477 160.706 189.474 165.54 185.91 169.104C182.345 172.668 177.51 174.67 172.469 174.67Z" fill="#ED1B33"/>
<path fill-rule="evenodd" clip-rule="evenodd" d="M122.344 99.9035H137.196V96.9141H125.802V72.5366H122.344V99.9035ZM138.767 76.2163H142.067V72.5366H138.767V76.2163ZM138.767 99.9035H142.067V79.3594H138.767V99.9035ZM146.467 99.9035H149.768V81.889H153.382V79.3594H149.768V76.9441C149.768 75.5261 150.475 74.9895 151.889 74.9895H153.422V72.2304H151.024C147.843 72.2304 146.467 73.8394 146.467 76.9441V79.3594H143.403V81.889H146.467V99.9035ZM167.605 90.0154V88.7118C167.605 84.2651 167.016 78.8228 160.572 78.8228C154.089 78.8228 153.067 84.8017 153.067 89.8993C153.067 96.9909 155.189 100.44 160.375 100.44C166.152 100.44 167.448 95.3425 167.448 93.1576H164.148C164.148 94.7291 163.716 97.9106 160.572 97.9106C156.525 97.9106 156.525 93.196 156.525 90.0154H167.605ZM156.644 87.4849V86.7188C156.644 85.4919 157.036 81.3524 160.493 81.3524C163.441 81.3524 164.148 84.074 164.148 86.3732V87.4849H156.644ZM183.006 90.5128C182.888 93.8478 182.3 97.6811 178.096 97.6811C173.302 97.6811 172.672 92.5451 172.672 86.2206C172.672 79.896 173.302 74.76 178.096 74.76C181.671 74.76 182.653 77.4048 182.771 80.5095H186.386C186.228 75.1431 183.793 72 178.096 72C170.355 72 169.058 79.321 169.058 86.2206C169.058 93.1192 170.12 100.44 178.096 100.44C184.225 100.44 186.307 95.6872 186.622 90.5128H183.006ZM187.839 99.9035H191.14V85.7223C191.14 82.7703 193.536 81.5818 195.304 81.5818C198.29 81.5818 198.408 84.1508 198.408 85.7223V99.9035H201.709V85.3383C201.709 82.8855 201.748 78.8228 196.286 78.8228C194.401 78.8228 192.082 80.0112 191.218 81.6979H191.14V72.5366H187.839V99.9035ZM203.123 89.6315C203.123 95.4193 204.616 100.44 210.706 100.44C216.756 100.44 218.29 95.4193 218.29 89.6315C218.29 83.8436 216.796 78.8228 210.706 78.8228C204.616 78.8228 203.123 83.8436 203.123 89.6315ZM210.627 97.9106C207.249 97.9106 206.58 94.0782 206.58 89.6315C206.58 85.1848 207.288 81.3524 210.627 81.3524C214.203 81.3524 214.832 85.1848 214.832 89.6315C214.832 94.0782 214.124 97.9106 210.627 97.9106ZM219.113 76.2163H222.414V72.5366H219.113V76.2163ZM219.113 99.9035H222.414V79.3594H219.113V99.9035ZM238.365 85.6071C238.365 83.2686 237.422 78.8228 231.647 78.8228C225.163 78.8228 224.142 84.8017 224.142 89.8993C224.142 96.9909 226.264 100.44 231.45 100.44C236.716 100.44 238.365 95.9944 238.365 92.7745H235.064C235.064 94.9979 234.436 97.9106 231.607 97.9106C227.639 97.9106 227.6 92.5067 227.6 89.8609C227.6 82.3489 229.683 81.3524 231.725 81.3524C234.24 81.3524 235.064 83.6132 235.064 85.6071H238.365ZM253.728 90.0154V88.7118C253.728 84.2651 253.138 78.8228 246.694 78.8228C240.211 78.8228 239.19 84.8017 239.19 89.8993C239.19 96.9909 241.312 100.44 246.498 100.44C252.274 100.44 253.571 95.3425 253.571 93.1576H250.27C250.27 94.7291 249.837 97.9106 246.694 97.9106C242.648 97.9106 242.648 93.196 242.648 90.0154H253.728ZM242.766 87.4849V86.7188C242.766 85.4919 243.158 81.3524 246.616 81.3524C249.563 81.3524 250.27 84.074 250.27 86.3732V87.4849H242.766ZM267.793 85.3767C267.793 82.9623 267.518 78.8228 261.389 78.8228C257.735 78.8228 254.669 80.6621 254.669 84.4954C254.669 88.7118 257.303 89.4779 259.855 90.3217C262.372 91.1262 265.004 91.7396 265.004 94.4996C265.004 97.4123 262.568 97.9106 261.507 97.9106C258.245 97.9106 257.577 95.6488 257.577 93.1576H254.278C254.278 95.2658 254.356 100.44 261.507 100.44C265.436 100.44 268.303 98.2936 268.303 94.0014C268.303 89.8993 265.672 89.018 263.157 88.2135C260.563 87.4081 257.971 86.9483 257.971 84.4954C257.971 81.6202 260.328 81.3524 261.389 81.3524C263.785 81.3524 264.492 82.7703 264.492 85.3767H267.793Z" fill="black"/>
<path fill-rule="evenodd" clip-rule="evenodd" d="M62.112 99.9037H68.7132V89.1333L75.8242 72.5368H68.7516L65.5306 82.6946H65.4519L62.3078 72.5368H55L62.112 89.1333V99.9037ZM80.9719 100.44C88.3191 100.44 89.7332 95.6873 89.7332 89.478C89.7332 83.2687 88.7117 78.6309 80.9719 78.6309C73.6247 78.6309 72.2096 83.3839 72.2096 89.5932C72.2096 95.8025 73.1918 100.44 80.9719 100.44ZM83.3682 89.5548C83.3682 94.6524 82.9755 96.3776 81.0113 96.3776C79.1248 96.3776 78.5747 94.5756 78.5747 89.5164C78.5747 84.4956 79.1248 82.6946 81.0113 82.6946C82.9755 82.6946 83.3682 84.4188 83.3682 89.5548ZM107.531 79.1675H101.166V92.7362C101.166 94.7676 100.106 95.6873 98.8872 95.6873C97.6699 95.6873 97.041 94.806 97.041 93.3113V79.1675H90.676V94.6908C90.676 98.6768 92.6018 100.44 96.2163 100.44C98.5733 100.44 100.42 99.2902 101.324 97.4508H101.402V99.9037H107.531V79.1675ZM109.182 99.9037H115.547V88.1369C115.547 85.3769 117.197 84.3804 119.751 84.3804C120.38 84.3804 120.89 84.4188 121.519 84.5339V78.7077C121.322 78.6693 121.126 78.6309 120.968 78.6309H120.498C117.826 78.6309 116.215 80.2408 115.39 82.0811H115.312V79.1675H109.182V99.9037Z" fill="#ED1B33"/>
<defs>
<filter id="filter0_d" x="51" y="104.44" width="368" height="175.996" filterUnits="userSpaceOnUse" color-interpolation-filters="sRGB">
<feFlood flood-opacity="0" result="BackgroundImageFix"/>
<feColorMatrix in="SourceAlpha" type="matrix" values="0 0 0 0 0 0 0 0 0 0 0 0 0 0 0 0 0 0 127 0"/>
<feOffset dx="10" dy="8"/>
<feGaussianBlur stdDeviation="7"/>
<feColorMatrix type="matrix" values="0 0 0 0 0 0 0 0 0 0 0 0 0 0 0 0 0 0 0.15 0"/>
<feBlend mode="normal" in2="BackgroundImageFix" result="effect1_dropShadow"/>
<feBlend mode="normal" in="SourceGraphic" in2="effect1_dropShadow" result="shape"/>
</filter>
</defs>
</svg>
