<svg width="254" height="42" viewBox="0 0 254 42" fill="none" xmlns="http://www.w3.org/2000/svg">
<path d="M53.0068 27.9323C51.9401 27.9323 50.9135 27.7906 49.9268 27.5071C48.9401 27.2101 48.1201 26.8051 47.4668 26.2921L48.4668 24.0443C49.8268 25.0028 51.3535 25.4821 53.0468 25.4821C53.9268 25.4821 54.6001 25.3403 55.0668 25.0568C55.5468 24.7598 55.7868 24.3548 55.7868 23.8418C55.7868 23.3828 55.5668 23.0251 55.1268 22.7686C54.7001 22.5121 53.9335 22.2623 52.8268 22.0193C51.5868 21.7628 50.5935 21.4523 49.8468 21.0878C49.1135 20.7233 48.5735 20.2778 48.2268 19.7513C47.8935 19.2113 47.7268 18.5498 47.7268 17.7668C47.7268 16.9028 47.9601 16.1333 48.4268 15.4583C48.9068 14.7833 49.5735 14.2568 50.4268 13.8788C51.2801 13.4873 52.2668 13.2916 53.3868 13.2916C54.3868 13.2916 55.3468 13.4401 56.2668 13.7371C57.2001 14.0341 57.9401 14.4323 58.4868 14.9318L57.4868 17.1796C56.1935 16.2211 54.8335 15.7418 53.4068 15.7418C52.5935 15.7418 51.9535 15.9038 51.4868 16.2278C51.0201 16.5383 50.7868 16.9703 50.7868 17.5238C50.7868 17.8478 50.8735 18.1178 51.0468 18.3338C51.2335 18.5363 51.5335 18.7186 51.9468 18.8806C52.3735 19.0426 52.9735 19.2113 53.7468 19.3868C55.5601 19.7918 56.8601 20.3116 57.6468 20.9461C58.4468 21.5806 58.8468 22.4581 58.8468 23.5786C58.8468 24.9286 58.3335 25.9951 57.3068 26.7781C56.2801 27.5476 54.8468 27.9323 53.0068 27.9323Z" fill="white"/>
<path d="M69.6941 23.3558H63.2941C63.3875 24.1523 63.6408 24.7328 64.0541 25.0973C64.4808 25.4483 65.0808 25.6238 65.8541 25.6238C66.3608 25.6238 66.8608 25.5428 67.3541 25.3808C67.8608 25.2053 68.3208 24.9623 68.7341 24.6518L69.5341 26.6971C69.0541 27.0751 68.4675 27.3721 67.7741 27.5881C67.0941 27.8041 66.4075 27.9121 65.7141 27.9121C64.0608 27.9121 62.7541 27.4531 61.7941 26.5351C60.8475 25.6036 60.3741 24.3413 60.3741 22.7483C60.3741 21.7358 60.5808 20.8381 60.9941 20.0551C61.4075 19.2721 61.9808 18.6646 62.7141 18.2326C63.4475 17.7871 64.2808 17.5643 65.2141 17.5643C66.5875 17.5643 67.6741 18.0166 68.4741 18.9211C69.2875 19.8256 69.6941 21.0541 69.6941 22.6066V23.3558ZM65.2941 19.6703C64.7208 19.6703 64.2608 19.8593 63.9141 20.2373C63.5808 20.6018 63.3741 21.1351 63.2941 21.8371H67.1541C67.1141 21.1216 66.9341 20.5816 66.6141 20.2171C66.3075 19.8526 65.8675 19.6703 65.2941 19.6703Z" fill="white"/>
<path d="M77.6782 17.5643C78.8515 17.5643 79.7249 17.9153 80.2982 18.6173C80.8715 19.3058 81.1582 20.3521 81.1582 21.7561V27.7501H78.1382V21.8978C78.1382 21.2228 78.0115 20.7301 77.7582 20.4196C77.5182 20.1091 77.1382 19.9538 76.6182 19.9538C75.9915 19.9538 75.4849 20.1563 75.0982 20.5613C74.7249 20.9663 74.5382 21.5063 74.5382 22.1813V27.7501H71.5182V17.8073H74.4582V19.2248C74.8049 18.6848 75.2515 18.2731 75.7982 17.9896C76.3582 17.7061 76.9849 17.5643 77.6782 17.5643Z" fill="white"/>
<path d="M83.4127 27.7501V17.8073H86.4327V27.7501H83.4127ZM83.3127 13.0283H86.5527V15.8836H83.3127V13.0283Z" fill="white"/>
<path d="M93.4648 27.9121C92.4248 27.9121 91.5114 27.7028 90.7248 27.2843C89.9381 26.8523 89.3314 26.2516 88.9048 25.4821C88.4781 24.6991 88.2648 23.7811 88.2648 22.7281C88.2648 21.6751 88.4781 20.7638 88.9048 19.9943C89.3314 19.2113 89.9381 18.6106 90.7248 18.1921C91.5114 17.7736 92.4248 17.5643 93.4648 17.5643C94.5048 17.5643 95.4181 17.7736 96.2048 18.1921C96.9914 18.6106 97.5981 19.2113 98.0248 19.9943C98.4514 20.7638 98.6648 21.6751 98.6648 22.7281C98.6648 23.7811 98.4514 24.6991 98.0248 25.4821C97.5981 26.2516 96.9914 26.8523 96.2048 27.2843C95.4181 27.7028 94.5048 27.9121 93.4648 27.9121ZM93.4648 25.5833C94.9314 25.5833 95.6648 24.6316 95.6648 22.7281C95.6648 21.7696 95.4714 21.0541 95.0848 20.5816C94.7114 20.1091 94.1714 19.8728 93.4648 19.8728C91.9981 19.8728 91.2648 20.8246 91.2648 22.7281C91.2648 24.6316 91.9981 25.5833 93.4648 25.5833Z" fill="white"/>
<path d="M107.523 20.0753L105.823 20.2576C104.983 20.3386 104.389 20.5816 104.043 20.9866C103.696 21.3781 103.523 21.9046 103.523 22.5661V27.7501H100.503V17.8073H103.403V19.4881C103.896 18.3406 104.916 17.7128 106.463 17.6048L107.343 17.5441L107.523 20.0753Z" fill="white"/>
<path d="M112.212 27.9121C111.306 27.9121 110.472 27.8108 109.712 27.6083C108.966 27.3923 108.319 27.0886 107.772 26.6971L108.572 24.5911C109.106 24.9556 109.692 25.2391 110.332 25.4416C110.972 25.6441 111.619 25.7453 112.272 25.7453C112.739 25.7453 113.099 25.6711 113.352 25.5226C113.619 25.3606 113.752 25.1446 113.752 24.8746C113.752 24.6316 113.659 24.4426 113.472 24.3076C113.299 24.1726 112.966 24.0511 112.472 23.9431L110.872 23.5786C109.926 23.3626 109.226 23.0318 108.772 22.5863C108.332 22.1273 108.112 21.5063 108.112 20.7233C108.112 20.1023 108.286 19.5556 108.632 19.0831C108.992 18.6106 109.492 18.2393 110.132 17.9693C110.786 17.6993 111.526 17.5643 112.352 17.5643C113.059 17.5643 113.746 17.6723 114.412 17.8883C115.079 18.1043 115.679 18.4081 116.212 18.7996L115.412 20.8246C114.372 20.0956 113.346 19.7311 112.332 19.7311C111.866 19.7311 111.499 19.8121 111.232 19.9741C110.966 20.1361 110.832 20.3656 110.832 20.6626C110.832 20.8786 110.912 21.0473 111.072 21.1688C111.232 21.2903 111.512 21.4051 111.912 21.5131L113.572 21.8978C114.572 22.1273 115.299 22.4783 115.752 22.9508C116.219 23.4098 116.452 24.0376 116.452 24.8341C116.452 25.7926 116.072 26.5486 115.312 27.1021C114.566 27.6421 113.532 27.9121 112.212 27.9121Z" fill="white"/>
<path d="M124.004 13.4738H129.484C131.018 13.4738 132.338 13.7573 133.444 14.3243C134.551 14.8913 135.398 15.7081 135.984 16.7746C136.571 17.8411 136.864 19.1168 136.864 20.6018C136.864 22.0868 136.571 23.3693 135.984 24.4493C135.411 25.5158 134.571 26.3326 133.464 26.8996C132.358 27.4666 131.031 27.7501 129.484 27.7501H124.004V13.4738ZM129.264 25.1986C132.264 25.1986 133.764 23.6663 133.764 20.6018C133.764 17.5508 132.264 16.0253 129.264 16.0253H127.124V25.1986H129.264Z" fill="white"/>
<path d="M139.018 27.7501V17.8073H142.038V27.7501H139.018ZM138.918 13.0283H142.158V15.8836H138.918V13.0283Z" fill="white"/>
<path d="M148.13 27.9121C147.224 27.9121 146.39 27.8108 145.63 27.6083C144.884 27.3923 144.237 27.0886 143.69 26.6971L144.49 24.5911C145.024 24.9556 145.61 25.2391 146.25 25.4416C146.89 25.6441 147.537 25.7453 148.19 25.7453C148.657 25.7453 149.017 25.6711 149.27 25.5226C149.537 25.3606 149.67 25.1446 149.67 24.8746C149.67 24.6316 149.577 24.4426 149.39 24.3076C149.217 24.1726 148.884 24.0511 148.39 23.9431L146.79 23.5786C145.844 23.3626 145.144 23.0318 144.69 22.5863C144.25 22.1273 144.03 21.5063 144.03 20.7233C144.03 20.1023 144.204 19.5556 144.55 19.0831C144.91 18.6106 145.41 18.2393 146.05 17.9693C146.704 17.6993 147.444 17.5643 148.27 17.5643C148.977 17.5643 149.664 17.6723 150.33 17.8883C150.997 18.1043 151.597 18.4081 152.13 18.7996L151.33 20.8246C150.29 20.0956 149.264 19.7311 148.25 19.7311C147.784 19.7311 147.417 19.8121 147.15 19.9741C146.884 20.1361 146.75 20.3656 146.75 20.6626C146.75 20.8786 146.83 21.0473 146.99 21.1688C147.15 21.2903 147.43 21.4051 147.83 21.5131L149.49 21.8978C150.49 22.1273 151.217 22.4783 151.67 22.9508C152.137 23.4098 152.37 24.0376 152.37 24.8341C152.37 25.7926 151.99 26.5486 151.23 27.1021C150.484 27.6421 149.45 27.9121 148.13 27.9121Z" fill="white"/>
<path d="M158.776 27.9121C157.176 27.9121 155.916 27.4531 154.996 26.5351C154.076 25.6171 153.616 24.3683 153.616 22.7888C153.616 21.7493 153.836 20.8381 154.276 20.0551C154.716 19.2586 155.336 18.6443 156.136 18.2123C156.936 17.7803 157.863 17.5643 158.916 17.5643C159.636 17.5643 160.33 17.6791 160.996 17.9086C161.663 18.1246 162.203 18.4216 162.616 18.7996L161.816 20.8853C161.43 20.5748 161.003 20.3386 160.536 20.1766C160.083 20.0011 159.636 19.9133 159.196 19.9133C158.41 19.9133 157.796 20.1496 157.356 20.6221C156.93 21.0946 156.716 21.7966 156.716 22.7281C156.716 23.6596 156.93 24.3683 157.356 24.8543C157.796 25.3268 158.41 25.5631 159.196 25.5631C159.636 25.5631 160.083 25.4821 160.536 25.3201C161.003 25.1446 161.43 24.9016 161.816 24.5911L162.616 26.6971C162.176 27.0751 161.616 27.3721 160.936 27.5881C160.256 27.8041 159.536 27.9121 158.776 27.9121Z" fill="white"/>
<path d="M168.699 27.9121C167.659 27.9121 166.746 27.7028 165.959 27.2843C165.172 26.8523 164.566 26.2516 164.139 25.4821C163.712 24.6991 163.499 23.7811 163.499 22.7281C163.499 21.6751 163.712 20.7638 164.139 19.9943C164.566 19.2113 165.172 18.6106 165.959 18.1921C166.746 17.7736 167.659 17.5643 168.699 17.5643C169.739 17.5643 170.652 17.7736 171.439 18.1921C172.226 18.6106 172.832 19.2113 173.259 19.9943C173.686 20.7638 173.899 21.6751 173.899 22.7281C173.899 23.7811 173.686 24.6991 173.259 25.4821C172.832 26.2516 172.226 26.8523 171.439 27.2843C170.652 27.7028 169.739 27.9121 168.699 27.9121ZM168.699 25.5833C170.166 25.5833 170.899 24.6316 170.899 22.7281C170.899 21.7696 170.706 21.0541 170.319 20.5816C169.946 20.1091 169.406 19.8728 168.699 19.8728C167.232 19.8728 166.499 20.8246 166.499 22.7281C166.499 24.6316 167.232 25.5833 168.699 25.5833Z" fill="white"/>
<path d="M185.197 17.8073V27.7501H182.257V26.3326C181.95 26.8456 181.544 27.2371 181.037 27.5071C180.544 27.7771 179.984 27.9121 179.357 27.9121C178.117 27.9121 177.19 27.5678 176.577 26.8793C175.977 26.1773 175.677 25.1243 175.677 23.7203V17.8073H178.697V23.7811C178.697 24.3751 178.817 24.8138 179.057 25.0973C179.31 25.3808 179.69 25.5226 180.197 25.5226C180.784 25.5226 181.257 25.3201 181.617 24.9151C181.99 24.5101 182.177 23.9768 182.177 23.3153V17.8073H185.197Z" fill="white"/>
<path d="M193.674 17.5643C194.848 17.5643 195.721 17.9153 196.294 18.6173C196.868 19.3058 197.154 20.3521 197.154 21.7561V27.7501H194.134V21.8978C194.134 21.2228 194.008 20.7301 193.754 20.4196C193.514 20.1091 193.134 19.9538 192.614 19.9538C191.988 19.9538 191.481 20.1563 191.094 20.5613C190.721 20.9663 190.534 21.5063 190.534 22.1813V27.7501H187.514V17.8073H190.454V19.2248C190.801 18.6848 191.248 18.2731 191.794 17.9896C192.354 17.7061 192.981 17.5643 193.674 17.5643Z" fill="white"/>
<path d="M204.849 25.6643C205.156 25.6643 205.475 25.6441 205.809 25.6036L205.649 27.8311C205.262 27.8851 204.876 27.9121 204.489 27.9121C202.995 27.9121 201.902 27.5813 201.209 26.9198C200.529 26.2583 200.189 25.2526 200.189 23.9026V20.0956H198.329V17.8073H200.189V14.8913H203.209V17.8073H205.669V20.0956H203.209V23.8823C203.209 25.0703 203.756 25.6643 204.849 25.6643Z" fill="white"/>
<path d="M219.589 27.9323C218.162 27.9323 216.916 27.6286 215.849 27.0211C214.796 26.4136 213.982 25.5563 213.409 24.4493C212.849 23.3423 212.569 22.0598 212.569 20.6018C212.569 19.1438 212.849 17.8613 213.409 16.7543C213.982 15.6473 214.796 14.7968 215.849 14.2028C216.916 13.5953 218.162 13.2916 219.589 13.2916C220.522 13.2916 221.416 13.4401 222.269 13.7371C223.122 14.0206 223.822 14.4188 224.369 14.9318L223.369 17.1796C222.756 16.7071 222.142 16.3628 221.529 16.1468C220.929 15.9308 220.302 15.8228 219.649 15.8228C218.396 15.8228 217.429 16.2278 216.749 17.0378C216.082 17.8478 215.749 19.0358 215.749 20.6018C215.749 22.1678 216.082 23.3626 216.749 24.1861C217.429 24.9961 218.396 25.4011 219.649 25.4011C220.302 25.4011 220.929 25.2931 221.529 25.0771C222.142 24.8611 222.756 24.5168 223.369 24.0443L224.369 26.2921C223.822 26.8051 223.122 27.2101 222.269 27.5071C221.416 27.7906 220.522 27.9323 219.589 27.9323Z" fill="white"/>
<path d="M226.284 27.7501V13.4738H229.304V27.7501H226.284Z" fill="white"/>
<path d="M241.076 17.8073V27.7501H238.136V26.3326C237.829 26.8456 237.423 27.2371 236.916 27.5071C236.423 27.7771 235.863 27.9121 235.236 27.9121C233.996 27.9121 233.069 27.5678 232.456 26.8793C231.856 26.1773 231.556 25.1243 231.556 23.7203V17.8073H234.576V23.7811C234.576 24.3751 234.696 24.8138 234.936 25.0973C235.189 25.3808 235.569 25.5226 236.076 25.5226C236.663 25.5226 237.136 25.3201 237.496 24.9151C237.869 24.5101 238.056 23.9768 238.056 23.3153V17.8073H241.076Z" fill="white"/>
<path d="M249.473 17.5643C250.327 17.5643 251.08 17.7736 251.733 18.1921C252.387 18.6106 252.893 19.2113 253.253 19.9943C253.627 20.7638 253.813 21.6616 253.813 22.6876C253.813 23.7136 253.627 24.6248 253.253 25.4213C252.893 26.2043 252.38 26.8186 251.713 27.2641C251.06 27.6961 250.313 27.9121 249.473 27.9121C248.793 27.9121 248.18 27.7703 247.633 27.4868C247.087 27.1898 246.667 26.7848 246.373 26.2718V27.7501H243.393V13.4738H246.413V19.1438C246.707 18.6443 247.12 18.2596 247.653 17.9896C248.2 17.7061 248.807 17.5643 249.473 17.5643ZM248.593 25.5833C249.3 25.5833 249.847 25.3336 250.233 24.8341C250.62 24.3211 250.813 23.6056 250.813 22.6876C250.813 21.7831 250.62 21.0946 250.233 20.6221C249.847 20.1361 249.3 19.8931 248.593 19.8931C247.887 19.8931 247.34 20.1428 246.953 20.6423C246.567 21.1283 246.373 21.8236 246.373 22.7281C246.373 23.6461 246.567 24.3548 246.953 24.8543C247.34 25.3403 247.887 25.5833 248.593 25.5833Z" fill="white"/>
<path fill-rule="evenodd" clip-rule="evenodd" d="M36.8404 19.3224C37.7554 28.7394 30.9575 37.1245 21.6567 38.051C12.3559 38.9774 4.07436 32.0945 3.15932 22.6774C2.2443 13.2604 9.04229 4.87534 18.3431 3.94888C22.0837 3.57627 25.6595 4.46687 28.6575 6.27748L27.3464 7.95994C26.7462 7.61987 26.0627 7.42919 25.3498 7.4235L18.1904 7.36632C16.752 7.35484 15.4078 8.09978 14.6276 9.34082L13.8864 10.556L18.7455 7.37127L20.301 7.38369L20.2312 7.42128L14.1421 11.4983H15.4422L21.4863 7.4224V8.79736L17.543 11.526H21.4863V12.0769L13.088 12.0769V11.8648L10.1948 16.6075V19.8149L9.54717 19.8149V17.6691L6.49119 22.6785C5.23261 24.6806 5.47455 27.3181 7.42418 28.6105L17.5818 35.344C19.5315 36.6364 22.1322 36.0611 23.3908 34.0591L31.8455 20.7545C32.6257 19.5135 32.7334 17.9489 32.131 16.6075L29.2098 10.4838L28.718 9.54106C28.6957 9.59834 28.1984 10.3814 27.7568 11.0726L27.7588 11.0882C27.7612 11.1075 27.7633 11.1269 27.7652 11.1464C27.8724 12.2659 27.0756 13.2628 25.9854 13.3729C24.8952 13.483 23.9244 12.6648 23.8172 11.5453C23.7099 10.4257 24.5068 9.42891 25.597 9.31877C25.8227 9.29596 26.0433 9.31296 26.2522 9.36419L25.6348 10.1564C25.3728 10.4926 25.4267 10.984 25.7551 11.2538C26.0835 11.5237 26.5621 11.4699 26.8241 11.1337L31.4507 5.19658C31.7127 4.86036 31.6588 4.36904 31.3304 4.09917C31.002 3.82929 30.5234 3.88307 30.2614 4.21928L29.6179 5.04506C26.3123 2.99873 22.3455 1.98509 18.1925 2.39878C8.04614 3.40947 0.630152 12.5568 1.62837 22.8299C2.62658 33.1031 11.661 40.6118 21.8073 39.6011C31.9536 38.5904 39.3696 29.443 38.3714 19.1699C37.8635 13.9433 35.2755 9.4322 31.5193 6.39456L30.5664 7.61739C34.0058 10.4018 36.3752 14.5346 36.8404 19.3224ZM21.4797 7.3931L21.4863 7.41569V7.39315L21.4797 7.3931ZM21.4678 19.8149L15.4422 15.7295H16.764L21.4863 18.968V18.5148L17.543 15.7862H21.4863V15.0701H13.088V19.8149H13.6643V16.0522L19.1873 19.8149H21.4678ZM25.8264 18.23L26.0065 17.8098L26.0889 18.2584L26.5124 18.1371L26.2285 18.4845L26.5864 18.7519L26.1424 18.739L26.1647 19.1899L25.9022 18.8274L25.5634 19.1249L25.6766 18.6887L25.2482 18.6072L25.644 18.4213L25.4368 18.0208L25.8264 18.23ZM22.924 20.7301L23.1041 20.3099L23.1875 20.7498L23.611 20.6285L23.3261 20.9846L23.685 21.2433L23.241 21.2304L23.2633 21.6813L23.0007 21.3188L22.6619 21.6163L22.7751 21.1801L22.3467 21.0986L22.7417 20.9215L22.5344 20.5209L22.924 20.7301ZM25.3032 24.6719L25.124 25.0834L24.7344 24.8742L24.9417 25.2748L24.5458 25.4606L24.9742 25.5421L24.861 25.9784L25.1998 25.6808L25.4624 26.0434L25.4401 25.5925L25.8841 25.6053L25.5261 25.338L25.8101 24.9905L25.3866 25.1118L25.3032 24.6719ZM27.9319 20.5767L28.1027 20.1643L28.186 20.6042L28.618 20.4838L28.334 20.8312L28.6835 21.0976L28.2395 21.0848L28.2618 21.5357L27.9992 21.1732L27.6689 21.4716L27.7822 21.0354L27.3453 20.953L27.7496 20.768L27.533 20.3753L27.9319 20.5767ZM27.0045 22.3582L26.6572 22.3207L26.5895 21.9792L26.4455 22.2978L26.0982 22.2603L26.3639 22.5088L26.2181 22.8448L26.519 22.6663L26.7772 22.9053L26.7027 22.5455L27.0045 22.3582ZM11.2368 24.1519L11.8428 22.6859L12.1396 24.2353L13.619 23.8138L12.6385 25.0267L13.8692 25.9538L12.3265 25.9147L12.402 27.4685L11.4819 26.2063L10.3123 27.2426L10.7163 25.7264L9.19812 25.4489L10.6035 24.8067L9.86163 23.4219L11.2368 24.1519Z" fill="white"/>
</svg>
