<svg width="274" height="274" viewBox="0 0 274 274" fill="none" xmlns="http://www.w3.org/2000/svg">
<g filter="url(#filter0_d)">
<path d="M21 31.2296C21 23.3708 27.3708 17 35.2296 17H232.77C240.629 17 247 23.3708 247 31.2296V228.77C247 236.629 240.629 243 232.77 243H35.2296C27.3708 243 21 236.629 21 228.77V31.2296Z" fill="#333333"/>
</g>
<path d="M33.5557 37.9259C33.5557 33.3031 37.3032 29.5556 41.926 29.5556H100.519V96.5185H33.5557V37.9259Z" fill="#E0E0E0"/>
<rect x="33.5557" y="96.5185" width="66.963" height="66.963" fill="white"/>
<path d="M33.5557 163.482H100.519V230.444H41.926C37.3032 230.444 33.5557 226.697 33.5557 222.074V163.482Z" fill="#E0E0E0"/>
<rect x="100.519" y="29.5556" width="66.963" height="66.963" fill="white"/>
<rect x="100.519" y="96.5185" width="66.963" height="66.963" fill="#E0E0E0"/>
<rect x="100.519" y="163.482" width="66.963" height="66.963" fill="white"/>
<path d="M167.481 29.5556H226.074C230.697 29.5556 234.444 33.3031 234.444 37.9259V96.5185H167.481V29.5556Z" fill="#E0E0E0"/>
<rect x="167.481" y="96.5185" width="66.963" height="66.963" fill="white"/>
<path d="M167.481 163.482H234.444V222.074C234.444 226.697 230.697 230.444 226.074 230.444H167.481V163.482Z" fill="#E0E0E0"/>
<path d="M55.4326 73.7473C57.6203 76.6008 62.0909 78.7125 66.9229 78.7125C73.3718 78.7125 77.9946 75.2121 77.9946 69.2007C77.9946 64.2355 74.3991 61.8385 68.4067 59.5557C64.3356 58.0148 62.9469 56.7783 62.9469 55.0471C62.9469 53.1448 64.5449 51.4897 67.3604 51.4897C69.5671 51.4897 71.8119 52.4219 73.4289 53.6774L76.2634 49.4923C74.4752 47.685 71.0319 46.1441 67.4365 46.1441C61.2348 46.1441 57.2208 50.4054 57.2208 55.1803C57.2208 59.0611 59.6368 61.7625 65.3629 64.0072C70.1188 65.8906 71.6217 67.1271 71.6217 69.3338C71.6217 71.7879 69.5481 73.2907 66.6946 73.2907C63.9552 73.2907 61.0446 71.921 58.6476 69.6953L55.4326 73.7473Z" fill="#333333"/>
<path d="M55.9844 180.641V212.03H61.8436V198.675L74.5324 212.03H82.6364L67.1893 195.784L80.7721 180.641H73.6002L61.8436 193.843V180.641H55.9844Z" fill="#333333"/>
<path d="M130.975 145.067C139.916 145.067 146.803 138.218 146.803 129.372C146.803 120.526 139.878 113.678 130.975 113.678H122.491V145.067H130.975ZM130.328 118.928C136.15 118.928 140.506 123.38 140.506 129.372C140.506 135.365 136.15 139.816 130.328 139.816H128.35V118.928H130.328Z" fill="#333333"/>
<path d="M122.11 46.7148V66.9559C122.11 74.7365 126.124 78.7125 133.962 78.7125C141.8 78.7125 145.814 74.7365 145.814 66.9559V46.7148H139.954V65.3008C139.954 70.7035 138.185 72.9483 133.962 72.9483C129.739 72.9483 127.97 70.7035 127.97 65.3008V46.7148H122.11Z" fill="#333333"/>
<path d="M122.11 180.641V200.882C122.11 208.662 126.124 212.638 133.962 212.638C141.8 212.638 145.814 208.662 145.814 200.882V180.641H139.954V199.227C139.954 204.629 138.185 206.874 133.962 206.874C129.739 206.874 127.97 204.629 127.97 199.227V180.641H122.11Z" fill="#333333"/>
<path d="M185.478 129.391C185.478 138.446 192.517 145.675 201.305 145.675C210.094 145.675 217.133 138.446 217.133 129.391C217.133 120.336 210.094 113.107 201.305 113.107C192.517 113.107 185.478 120.336 185.478 129.391ZM191.794 129.391C191.794 123.228 195.789 118.757 201.305 118.757C206.822 118.757 210.817 123.228 210.817 129.391C210.817 135.555 206.822 140.025 201.305 140.025C195.789 140.025 191.794 135.555 191.794 129.391Z" fill="#333333"/>
<rect x="98.8445" y="29.5556" width="3.34814" height="200.889" fill="#333333"/>
<rect x="33.5557" y="94.8445" width="200.889" height="3.34814" fill="#333333"/>
<rect x="33.5557" y="161.807" width="200.889" height="3.34814" fill="#333333"/>
<rect x="165.807" y="29.5556" width="3.34814" height="200.889" fill="#333333"/>
<defs>
<filter id="filter0_d" x="0" y="0" width="274" height="274" filterUnits="userSpaceOnUse" color-interpolation-filters="sRGB">
<feFlood flood-opacity="0" result="BackgroundImageFix"/>
<feColorMatrix in="SourceAlpha" type="matrix" values="0 0 0 0 0 0 0 0 0 0 0 0 0 0 0 0 0 0 127 0" result="hardAlpha"/>
<feOffset dx="3" dy="7"/>
<feGaussianBlur stdDeviation="12"/>
<feColorMatrix type="matrix" values="0 0 0 0 0 0 0 0 0 0 0 0 0 0 0 0 0 0 0.1 0"/>
<feBlend mode="normal" in2="BackgroundImageFix" result="effect1_dropShadow"/>
<feBlend mode="normal" in="SourceGraphic" in2="effect1_dropShadow" result="shape"/>
</filter>
</defs>
</svg>
