<svg width="176" height="50" viewBox="0 0 176 50" fill="none" xmlns="http://www.w3.org/2000/svg">
<g clip-path="url(#clip0)">
<rect x="0.5" width="175" height="50" rx="10" fill="#BDBDBD"/>
<rect x="0.5" width="175" height="45" rx="10" fill="white"/>
<path fill-rule="evenodd" clip-rule="evenodd" d="M141.5 12C140.395 12 139.5 12.8954 139.5 14V30C139.5 31.1046 140.395 32 141.5 32H142.5C143.605 32 144.5 31.1046 144.5 30V14C144.5 12.8954 143.605 12 142.5 12H141.5ZM152.5 12C151.395 12 150.5 12.8954 150.5 14V30C150.5 31.1046 151.395 32 152.5 32H153.5C154.605 32 155.5 31.1046 155.5 30V14C155.5 12.8954 154.605 12 153.5 12H152.5Z" fill="#4F4F4F"/>
<rect x="5.5" y="5" width="114" height="35" rx="6" fill="#DBDBDB"/>
<path d="M25.252 28.216C24.64 28.216 24.082 28.09 23.578 27.838C23.074 27.574 22.642 27.19 22.282 26.686C21.934 26.182 21.658 25.558 21.454 24.814C21.262 24.07 21.166 23.212 21.166 22.24C21.166 21.268 21.262 20.416 21.454 19.684C21.658 18.952 21.934 18.34 22.282 17.848C22.642 17.344 23.074 16.972 23.578 16.732C24.082 16.48 24.64 16.354 25.252 16.354C25.864 16.354 26.422 16.48 26.926 16.732C27.43 16.972 27.856 17.344 28.204 17.848C28.564 18.34 28.84 18.952 29.032 19.684C29.236 20.416 29.338 21.268 29.338 22.24C29.338 23.212 29.236 24.07 29.032 24.814C28.84 25.558 28.564 26.182 28.204 26.686C27.856 27.19 27.43 27.574 26.926 27.838C26.422 28.09 25.864 28.216 25.252 28.216ZM25.252 26.164C25.48 26.164 25.69 26.11 25.882 26.002C26.074 25.882 26.242 25.672 26.386 25.372C26.53 25.072 26.638 24.67 26.71 24.166C26.794 23.662 26.836 23.02 26.836 22.24C26.836 21.46 26.794 20.824 26.71 20.332C26.638 19.828 26.53 19.438 26.386 19.162C26.242 18.874 26.074 18.676 25.882 18.568C25.69 18.46 25.48 18.406 25.252 18.406C25.036 18.406 24.832 18.46 24.64 18.568C24.448 18.676 24.28 18.874 24.136 19.162C23.992 19.438 23.878 19.828 23.794 20.332C23.71 20.824 23.668 21.46 23.668 22.24C23.668 23.02 23.71 23.662 23.794 24.166C23.878 24.67 23.992 25.072 24.136 25.372C24.28 25.672 24.448 25.882 24.64 26.002C24.832 26.11 25.036 26.164 25.252 26.164ZM35.3018 28.216C34.6898 28.216 34.1318 28.09 33.6278 27.838C33.1238 27.574 32.6918 27.19 32.3318 26.686C31.9838 26.182 31.7078 25.558 31.5038 24.814C31.3118 24.07 31.2158 23.212 31.2158 22.24C31.2158 21.268 31.3118 20.416 31.5038 19.684C31.7078 18.952 31.9838 18.34 32.3318 17.848C32.6918 17.344 33.1238 16.972 33.6278 16.732C34.1318 16.48 34.6898 16.354 35.3018 16.354C35.9138 16.354 36.4718 16.48 36.9758 16.732C37.4798 16.972 37.9058 17.344 38.2538 17.848C38.6138 18.34 38.8898 18.952 39.0818 19.684C39.2858 20.416 39.3878 21.268 39.3878 22.24C39.3878 23.212 39.2858 24.07 39.0818 24.814C38.8898 25.558 38.6138 26.182 38.2538 26.686C37.9058 27.19 37.4798 27.574 36.9758 27.838C36.4718 28.09 35.9138 28.216 35.3018 28.216ZM35.3018 26.164C35.5298 26.164 35.7398 26.11 35.9318 26.002C36.1238 25.882 36.2918 25.672 36.4358 25.372C36.5798 25.072 36.6878 24.67 36.7598 24.166C36.8438 23.662 36.8858 23.02 36.8858 22.24C36.8858 21.46 36.8438 20.824 36.7598 20.332C36.6878 19.828 36.5798 19.438 36.4358 19.162C36.2918 18.874 36.1238 18.676 35.9318 18.568C35.7398 18.46 35.5298 18.406 35.3018 18.406C35.0858 18.406 34.8818 18.46 34.6898 18.568C34.4978 18.676 34.3298 18.874 34.1858 19.162C34.0418 19.438 33.9278 19.828 33.8438 20.332C33.7598 20.824 33.7178 21.46 33.7178 22.24C33.7178 23.02 33.7598 23.662 33.8438 24.166C33.9278 24.67 34.0418 25.072 34.1858 25.372C34.3298 25.672 34.4978 25.882 34.6898 26.002C34.8818 26.11 35.0858 26.164 35.3018 26.164ZM43.2995 22.384C42.8435 22.384 42.4595 22.228 42.1475 21.916C41.8475 21.592 41.6975 21.196 41.6975 20.728C41.6975 20.248 41.8475 19.852 42.1475 19.54C42.4595 19.216 42.8435 19.054 43.2995 19.054C43.7555 19.054 44.1335 19.216 44.4335 19.54C44.7455 19.852 44.9015 20.248 44.9015 20.728C44.9015 21.196 44.7455 21.592 44.4335 21.916C44.1335 22.228 43.7555 22.384 43.2995 22.384ZM43.2995 28.216C42.8435 28.216 42.4595 28.06 42.1475 27.748C41.8475 27.424 41.6975 27.028 41.6975 26.56C41.6975 26.08 41.8475 25.684 42.1475 25.372C42.4595 25.048 42.8435 24.886 43.2995 24.886C43.7555 24.886 44.1335 25.048 44.4335 25.372C44.7455 25.684 44.9015 26.08 44.9015 26.56C44.9015 27.028 44.7455 27.424 44.4335 27.748C44.1335 28.06 43.7555 28.216 43.2995 28.216ZM51.288 28.216C50.676 28.216 50.118 28.09 49.614 27.838C49.11 27.574 48.678 27.19 48.318 26.686C47.97 26.182 47.694 25.558 47.49 24.814C47.298 24.07 47.202 23.212 47.202 22.24C47.202 21.268 47.298 20.416 47.49 19.684C47.694 18.952 47.97 18.34 48.318 17.848C48.678 17.344 49.11 16.972 49.614 16.732C50.118 16.48 50.676 16.354 51.288 16.354C51.9 16.354 52.458 16.48 52.962 16.732C53.466 16.972 53.892 17.344 54.24 17.848C54.6 18.34 54.876 18.952 55.068 19.684C55.272 20.416 55.374 21.268 55.374 22.24C55.374 23.212 55.272 24.07 55.068 24.814C54.876 25.558 54.6 26.182 54.24 26.686C53.892 27.19 53.466 27.574 52.962 27.838C52.458 28.09 51.9 28.216 51.288 28.216ZM51.288 26.164C51.516 26.164 51.726 26.11 51.918 26.002C52.11 25.882 52.278 25.672 52.422 25.372C52.566 25.072 52.674 24.67 52.746 24.166C52.83 23.662 52.872 23.02 52.872 22.24C52.872 21.46 52.83 20.824 52.746 20.332C52.674 19.828 52.566 19.438 52.422 19.162C52.278 18.874 52.11 18.676 51.918 18.568C51.726 18.46 51.516 18.406 51.288 18.406C51.072 18.406 50.868 18.46 50.676 18.568C50.484 18.676 50.316 18.874 50.172 19.162C50.028 19.438 49.914 19.828 49.83 20.332C49.746 20.824 49.704 21.46 49.704 22.24C49.704 23.02 49.746 23.662 49.83 24.166C49.914 24.67 50.028 25.072 50.172 25.372C50.316 25.672 50.484 25.882 50.676 26.002C50.868 26.11 51.072 26.164 51.288 26.164ZM61.3378 28.216C60.7258 28.216 60.1678 28.09 59.6638 27.838C59.1598 27.574 58.7278 27.19 58.3678 26.686C58.0198 26.182 57.7438 25.558 57.5398 24.814C57.3478 24.07 57.2518 23.212 57.2518 22.24C57.2518 21.268 57.3478 20.416 57.5398 19.684C57.7438 18.952 58.0198 18.34 58.3678 17.848C58.7278 17.344 59.1598 16.972 59.6638 16.732C60.1678 16.48 60.7258 16.354 61.3378 16.354C61.9498 16.354 62.5078 16.48 63.0118 16.732C63.5158 16.972 63.9418 17.344 64.2898 17.848C64.6498 18.34 64.9258 18.952 65.1178 19.684C65.3218 20.416 65.4238 21.268 65.4238 22.24C65.4238 23.212 65.3218 24.07 65.1178 24.814C64.9258 25.558 64.6498 26.182 64.2898 26.686C63.9418 27.19 63.5158 27.574 63.0118 27.838C62.5078 28.09 61.9498 28.216 61.3378 28.216ZM61.3378 26.164C61.5658 26.164 61.7758 26.11 61.9678 26.002C62.1598 25.882 62.3278 25.672 62.4718 25.372C62.6158 25.072 62.7238 24.67 62.7958 24.166C62.8798 23.662 62.9218 23.02 62.9218 22.24C62.9218 21.46 62.8798 20.824 62.7958 20.332C62.7238 19.828 62.6158 19.438 62.4718 19.162C62.3278 18.874 62.1598 18.676 61.9678 18.568C61.7758 18.46 61.5658 18.406 61.3378 18.406C61.1218 18.406 60.9178 18.46 60.7258 18.568C60.5338 18.676 60.3658 18.874 60.2218 19.162C60.0778 19.438 59.9638 19.828 59.8798 20.332C59.7958 20.824 59.7538 21.46 59.7538 22.24C59.7538 23.02 59.7958 23.662 59.8798 24.166C59.9638 24.67 60.0778 25.072 60.2218 25.372C60.3658 25.672 60.5338 25.882 60.7258 26.002C60.9178 26.11 61.1218 26.164 61.3378 26.164ZM69.3355 22.384C68.8795 22.384 68.4955 22.228 68.1835 21.916C67.8835 21.592 67.7335 21.196 67.7335 20.728C67.7335 20.248 67.8835 19.852 68.1835 19.54C68.4955 19.216 68.8795 19.054 69.3355 19.054C69.7915 19.054 70.1695 19.216 70.4695 19.54C70.7815 19.852 70.9375 20.248 70.9375 20.728C70.9375 21.196 70.7815 21.592 70.4695 21.916C70.1695 22.228 69.7915 22.384 69.3355 22.384ZM69.3355 28.216C68.8795 28.216 68.4955 28.06 68.1835 27.748C67.8835 27.424 67.7335 27.028 67.7335 26.56C67.7335 26.08 67.8835 25.684 68.1835 25.372C68.4955 25.048 68.8795 24.886 69.3355 24.886C69.7915 24.886 70.1695 25.048 70.4695 25.372C70.7815 25.684 70.9375 26.08 70.9375 26.56C70.9375 27.028 70.7815 27.424 70.4695 27.748C70.1695 28.06 69.7915 28.216 69.3355 28.216ZM77.324 28.216C76.712 28.216 76.154 28.09 75.65 27.838C75.146 27.574 74.714 27.19 74.354 26.686C74.006 26.182 73.73 25.558 73.526 24.814C73.334 24.07 73.238 23.212 73.238 22.24C73.238 21.268 73.334 20.416 73.526 19.684C73.73 18.952 74.006 18.34 74.354 17.848C74.714 17.344 75.146 16.972 75.65 16.732C76.154 16.48 76.712 16.354 77.324 16.354C77.936 16.354 78.494 16.48 78.998 16.732C79.502 16.972 79.928 17.344 80.276 17.848C80.636 18.34 80.912 18.952 81.104 19.684C81.308 20.416 81.41 21.268 81.41 22.24C81.41 23.212 81.308 24.07 81.104 24.814C80.912 25.558 80.636 26.182 80.276 26.686C79.928 27.19 79.502 27.574 78.998 27.838C78.494 28.09 77.936 28.216 77.324 28.216ZM77.324 26.164C77.552 26.164 77.762 26.11 77.954 26.002C78.146 25.882 78.314 25.672 78.458 25.372C78.602 25.072 78.71 24.67 78.782 24.166C78.866 23.662 78.908 23.02 78.908 22.24C78.908 21.46 78.866 20.824 78.782 20.332C78.71 19.828 78.602 19.438 78.458 19.162C78.314 18.874 78.146 18.676 77.954 18.568C77.762 18.46 77.552 18.406 77.324 18.406C77.108 18.406 76.904 18.46 76.712 18.568C76.52 18.676 76.352 18.874 76.208 19.162C76.064 19.438 75.95 19.828 75.866 20.332C75.782 20.824 75.74 21.46 75.74 22.24C75.74 23.02 75.782 23.662 75.866 24.166C75.95 24.67 76.064 25.072 76.208 25.372C76.352 25.672 76.52 25.882 76.712 26.002C76.904 26.11 77.108 26.164 77.324 26.164ZM87.3738 28.216C86.7618 28.216 86.2038 28.09 85.6998 27.838C85.1958 27.574 84.7638 27.19 84.4038 26.686C84.0558 26.182 83.7798 25.558 83.5758 24.814C83.3838 24.07 83.2878 23.212 83.2878 22.24C83.2878 21.268 83.3838 20.416 83.5758 19.684C83.7798 18.952 84.0558 18.34 84.4038 17.848C84.7638 17.344 85.1958 16.972 85.6998 16.732C86.2038 16.48 86.7618 16.354 87.3738 16.354C87.9858 16.354 88.5438 16.48 89.0478 16.732C89.5518 16.972 89.9778 17.344 90.3258 17.848C90.6858 18.34 90.9618 18.952 91.1538 19.684C91.3578 20.416 91.4598 21.268 91.4598 22.24C91.4598 23.212 91.3578 24.07 91.1538 24.814C90.9618 25.558 90.6858 26.182 90.3258 26.686C89.9778 27.19 89.5518 27.574 89.0478 27.838C88.5438 28.09 87.9858 28.216 87.3738 28.216ZM87.3738 26.164C87.6018 26.164 87.8118 26.11 88.0038 26.002C88.1958 25.882 88.3638 25.672 88.5078 25.372C88.6518 25.072 88.7598 24.67 88.8318 24.166C88.9158 23.662 88.9578 23.02 88.9578 22.24C88.9578 21.46 88.9158 20.824 88.8318 20.332C88.7598 19.828 88.6518 19.438 88.5078 19.162C88.3638 18.874 88.1958 18.676 88.0038 18.568C87.8118 18.46 87.6018 18.406 87.3738 18.406C87.1578 18.406 86.9538 18.46 86.7618 18.568C86.5698 18.676 86.4018 18.874 86.2578 19.162C86.1138 19.438 85.9998 19.828 85.9158 20.332C85.8318 20.824 85.7898 21.46 85.7898 22.24C85.7898 23.02 85.8318 23.662 85.9158 24.166C85.9998 24.67 86.1138 25.072 86.2578 25.372C86.4018 25.672 86.5698 25.882 86.7618 26.002C86.9538 26.11 87.1578 26.164 87.3738 26.164Z" fill="#4F4F4F"/>
</g>
<defs>
<clipPath id="clip0">
<rect width="175" height="50" fill="white" transform="translate(0.5)"/>
</clipPath>
</defs>
</svg>
