<svg width="218" height="218" viewBox="0 0 218 218" fill="none" xmlns="http://www.w3.org/2000/svg">
<g filter="url(#filter0_d)">
<path d="M21 27.7037C21 21.7922 25.7922 17 31.7037 17H180.296C186.208 17 191 21.7922 191 27.7037V176.296C191 182.208 186.208 187 180.296 187H31.7037C25.7922 187 21 182.208 21 176.296V27.7037Z" fill="#333333"/>
</g>
<path d="M30.4445 32.7406C30.4445 29.2633 33.2634 26.4443 36.7408 26.4443H80.8148V76.8147H30.4445V32.7406Z" fill="#E0E0E0"/>
<rect x="30.4445" y="76.8147" width="50.3704" height="50.3704" fill="white"/>
<path d="M30.4445 127.185H80.8148V177.556H36.7408C33.2634 177.556 30.4445 174.737 30.4445 171.259V127.185Z" fill="#E0E0E0"/>
<rect x="80.8148" y="26.4443" width="50.3704" height="50.3704" fill="white"/>
<rect x="80.8148" y="76.8147" width="50.3704" height="50.3704" fill="#E0E0E0"/>
<rect x="80.8148" y="127.185" width="50.3704" height="50.3704" fill="white"/>
<path d="M131.185 26.4443H175.259C178.737 26.4443 181.556 29.2633 181.556 32.7406V76.8147H131.185V26.4443Z" fill="#E0E0E0"/>
<rect x="131.185" y="76.8147" width="50.3704" height="50.3704" fill="white"/>
<path d="M131.185 127.185H181.556V171.259C181.556 174.737 178.737 177.556 175.259 177.556H131.185V127.185Z" fill="#E0E0E0"/>
<path d="M46.9007 59.6861C48.5463 61.8325 51.9091 63.4209 55.5438 63.4209C60.3948 63.4209 63.8721 60.7879 63.8721 56.266C63.8721 52.5312 61.1675 50.7282 56.66 49.011C53.5977 47.8519 52.5531 46.9218 52.5531 45.6196C52.5531 44.1886 53.7551 42.9437 55.8729 42.9437C57.5329 42.9437 59.2214 43.6448 60.4377 44.5893L62.5699 41.4411C61.2248 40.0817 58.6347 38.9226 55.9302 38.9226C51.2652 38.9226 48.2458 42.128 48.2458 45.7197C48.2458 48.6389 50.0632 50.6709 54.3704 52.3595C57.9478 53.7761 59.0783 54.7063 59.0783 56.3662C59.0783 58.2122 57.5185 59.3426 55.3721 59.3426C53.3115 59.3426 51.1221 58.3123 49.319 56.6381L46.9007 59.6861Z" fill="#333333"/>
<path d="M47.3157 140.093V163.704H51.7231V153.658L61.2677 163.704H67.3637L55.7441 151.483L65.9613 140.093H60.5665L51.7231 150.024V140.093H47.3157Z" fill="#333333"/>
<path d="M103.725 113.333C110.45 113.333 115.63 108.182 115.63 101.528C115.63 94.8737 110.422 89.7222 103.725 89.7222H97.3426V113.333H103.725ZM103.238 93.6717C107.617 93.6717 110.894 97.0201 110.894 101.528C110.894 106.035 107.617 109.384 103.238 109.384H101.75V93.6717H103.238Z" fill="#333333"/>
<path d="M97.0564 39.3518V54.5774C97.0564 60.4301 100.076 63.4208 105.971 63.4208C111.867 63.4208 114.886 60.4301 114.886 54.5774V39.3518H110.479V53.3324C110.479 57.3964 109.148 59.085 105.971 59.085C102.795 59.085 101.464 57.3964 101.464 53.3324V39.3518H97.0564Z" fill="#333333"/>
<path d="M97.0564 140.093V155.318C97.0564 161.171 100.076 164.162 105.971 164.162C111.867 164.162 114.886 161.171 114.886 155.318V140.093H110.479V154.073C110.479 158.137 109.148 159.826 105.971 159.826C102.795 159.826 101.464 158.137 101.464 154.073V140.093H97.0564Z" fill="#333333"/>
<path d="M144.722 101.542C144.722 108.354 150.017 113.791 156.628 113.791C163.239 113.791 168.534 108.354 168.534 101.542C168.534 94.7307 163.239 89.293 156.628 89.293C150.017 89.293 144.722 94.7307 144.722 101.542ZM149.473 101.542C149.473 96.9058 152.478 93.543 156.628 93.543C160.778 93.543 163.783 96.9058 163.783 101.542C163.783 106.178 160.778 109.541 156.628 109.541C152.478 109.541 149.473 106.178 149.473 101.542Z" fill="#333333"/>
<rect x="79.5555" y="26.4443" width="2.51852" height="151.111" fill="#333333"/>
<rect x="30.4445" y="75.5557" width="151.111" height="2.51852" fill="#333333"/>
<rect x="30.4445" y="125.926" width="151.111" height="2.51852" fill="#333333"/>
<rect x="129.926" y="26.4443" width="2.51852" height="151.111" fill="#333333"/>
<defs>
<filter id="filter0_d" x="0" y="0" width="218" height="218" filterUnits="userSpaceOnUse" color-interpolation-filters="sRGB">
<feFlood flood-opacity="0" result="BackgroundImageFix"/>
<feColorMatrix in="SourceAlpha" type="matrix" values="0 0 0 0 0 0 0 0 0 0 0 0 0 0 0 0 0 0 127 0"/>
<feOffset dx="3" dy="7"/>
<feGaussianBlur stdDeviation="12"/>
<feColorMatrix type="matrix" values="0 0 0 0 0 0 0 0 0 0 0 0 0 0 0 0 0 0 0.1 0"/>
<feBlend mode="normal" in2="BackgroundImageFix" result="effect1_dropShadow"/>
<feBlend mode="normal" in="SourceGraphic" in2="effect1_dropShadow" result="shape"/>
</filter>
</defs>
</svg>
