<svg width="318" height="318" viewBox="0 0 318 318" fill="none" xmlns="http://www.w3.org/2000/svg">
<g filter="url(#filter0_d)">
<path d="M21 34C21 24.6112 28.6112 17 38 17H274C283.389 17 291 24.6112 291 34V270C291 279.389 283.389 287 274 287H38C28.6112 287 21 279.389 21 270V34Z" fill="#333333"/>
</g>
<path d="M36 42C36 36.4772 40.4772 32 46 32H116V112H36V42Z" fill="#E0E0E0"/>
<rect x="36" y="112" width="80" height="80" fill="white"/>
<path d="M36 192H116V272H46C40.4772 272 36 267.523 36 262V192Z" fill="#E0E0E0"/>
<rect x="116" y="32" width="80" height="80" fill="white"/>
<rect x="116" y="112" width="80" height="80" fill="#E0E0E0"/>
<rect x="116" y="192" width="80" height="80" fill="white"/>
<path d="M196 32H266C271.523 32 276 36.4772 276 42V112H196V32Z" fill="#E0E0E0"/>
<rect x="196" y="112" width="80" height="80" fill="white"/>
<path d="M196 192H276V262C276 267.523 271.523 272 266 272H196V192Z" fill="#E0E0E0"/>
<path d="M62.1367 84.7954C64.7504 88.2045 70.0913 90.7273 75.864 90.7273C83.5685 90.7273 89.0913 86.5454 89.0913 79.3636C89.0913 73.4318 84.7958 70.5682 77.6367 67.8409C72.7731 66 71.114 64.5227 71.114 62.4545C71.114 60.1818 73.0231 58.2045 76.3867 58.2045C79.0231 58.2045 81.7049 59.3182 83.6367 60.8182L87.0231 55.8182C84.8867 53.6591 80.7731 51.8182 76.4776 51.8182C69.0685 51.8182 64.2731 56.9091 64.2731 62.6136C64.2731 67.25 67.1594 70.4773 74.0004 73.1591C79.6822 75.4091 81.4776 76.8864 81.4776 79.5227C81.4776 82.4545 79.0004 84.25 75.5913 84.25C72.3185 84.25 68.8413 82.6136 65.9776 79.9545L62.1367 84.7954Z" fill="#333333"/>
<path d="M62.7959 212.5V250H69.7959V234.045L84.955 250H94.6368L76.1823 230.591L92.4095 212.5H83.8414L69.7959 228.273V212.5H62.7959Z" fill="#333333"/>
<path d="M152.386 170C163.068 170 171.295 161.818 171.295 151.25C171.295 140.682 163.023 132.5 152.386 132.5H142.25V170H152.386ZM151.614 138.773C158.568 138.773 163.773 144.091 163.773 151.25C163.773 158.409 158.568 163.727 151.614 163.727H149.25V138.773H151.614Z" fill="#333333"/>
<path d="M141.796 52.5V76.6818C141.796 85.9773 146.591 90.7273 155.955 90.7273C165.319 90.7273 170.114 85.9773 170.114 76.6818V52.5H163.114V74.7045C163.114 81.1591 161 83.8409 155.955 83.8409C150.91 83.8409 148.796 81.1591 148.796 74.7045V52.5H141.796Z" fill="#333333"/>
<path d="M141.796 212.5V236.682C141.796 245.977 146.591 250.727 155.955 250.727C165.319 250.727 170.114 245.977 170.114 236.682V212.5H163.114V234.705C163.114 241.159 161 243.841 155.955 243.841C150.91 243.841 148.796 241.159 148.796 234.705V212.5H141.796Z" fill="#333333"/>
<path d="M217.5 151.273C217.5 162.091 225.909 170.727 236.409 170.727C246.909 170.727 255.318 162.091 255.318 151.273C255.318 140.455 246.909 131.818 236.409 131.818C225.909 131.818 217.5 140.455 217.5 151.273ZM225.045 151.273C225.045 143.909 229.818 138.568 236.409 138.568C243 138.568 247.773 143.909 247.773 151.273C247.773 158.636 243 163.977 236.409 163.977C229.818 163.977 225.045 158.636 225.045 151.273Z" fill="#333333"/>
<rect x="114" y="32" width="4" height="240" fill="#333333"/>
<rect x="36" y="110" width="240" height="4" fill="#333333"/>
<rect x="36" y="190" width="240" height="4" fill="#333333"/>
<rect x="194" y="32" width="4" height="240" fill="#333333"/>
<defs>
<filter id="filter0_d" x="0" y="0" width="318" height="318" filterUnits="userSpaceOnUse" color-interpolation-filters="sRGB">
<feFlood flood-opacity="0" result="BackgroundImageFix"/>
<feColorMatrix in="SourceAlpha" type="matrix" values="0 0 0 0 0 0 0 0 0 0 0 0 0 0 0 0 0 0 127 0"/>
<feOffset dx="3" dy="7"/>
<feGaussianBlur stdDeviation="12"/>
<feColorMatrix type="matrix" values="0 0 0 0 0 0 0 0 0 0 0 0 0 0 0 0 0 0 0.1 0"/>
<feBlend mode="normal" in2="BackgroundImageFix" result="effect1_dropShadow"/>
<feBlend mode="normal" in="SourceGraphic" in2="effect1_dropShadow" result="shape"/>
</filter>
</defs>
</svg>
