<svg width="450" height="330" viewBox="0 0 450 330" fill="none" xmlns="http://www.w3.org/2000/svg">
<g clip-path="url(#clip0)">
<g opacity="0.2" filter="url(#filter0_f)">
<path d="M103 246.077V215.385C103 211.832 104.885 208.546 107.953 206.752L250.438 123.451C256.805 119.729 264.703 119.812 270.989 123.668L396.5 200.648L409.293 208.861C415.57 212.891 415.384 222.128 408.95 225.902L241.152 324.321C234.769 328.065 226.841 327.978 220.541 324.096L107.754 254.59C104.799 252.77 103 249.547 103 246.077Z" fill="#333333"/>
</g>
<path d="M92 239.945V97.3516C92 93.8251 93.8574 90.5594 96.8883 88.7568L215.097 18.4523C221.368 14.7227 229.173 14.704 235.462 18.4034L355.07 88.7642C358.125 90.5609 360 93.8398 360 97.3834V239.913C360 243.467 358.114 246.753 355.046 248.547L235.413 318.474C229.149 322.135 221.392 322.117 215.145 318.425L96.9124 248.554C93.8679 246.755 92 243.482 92 239.945Z" fill="#333333"/>
<path d="M156.022 61.8621C159.383 59.9219 164.831 59.9219 168.192 61.8621L216.872 89.9678C220.233 91.9081 220.233 95.0539 216.872 96.9942L168.192 125.1C164.831 127.04 159.383 127.04 156.022 125.1L107.342 96.9942C103.981 95.0539 103.981 91.9081 107.342 89.9678L156.022 61.8621Z" fill="white"/>
<path d="M145.908 99.1193C153.419 103.456 164.958 103.474 172.389 99.1839C179.82 94.8935 179.756 88.2133 172.277 83.8952L165.149 79.78L138.78 95.0042L145.908 99.1193ZM167.323 86.128C172.213 88.9514 172.133 93.2234 167.099 96.1299C162.065 99.0363 154.666 99.0824 149.775 96.259L148.113 95.2994L165.661 85.1685L167.323 86.128Z" fill="#333333"/>
<path d="M219.918 24.975C223.277 23.034 228.724 23.034 232.083 24.975L280.745 53.0914C284.104 55.0324 284.104 58.1794 280.745 60.1205L232.083 88.2368C228.724 90.1779 223.277 90.1779 219.918 88.2368L171.256 60.1205C167.897 58.1794 167.897 55.0324 171.256 53.0914L219.918 24.975Z" fill="#DF0000"/>
<path d="M219.915 98.7507C223.276 96.8104 228.724 96.8104 232.085 98.7507L280.765 126.856C284.126 128.797 284.126 131.942 280.765 133.883L232.085 161.988C228.724 163.929 223.276 163.929 219.915 161.988L171.235 133.883C167.874 131.942 167.874 128.797 171.235 126.856L219.915 98.7507Z" fill="white"/>
<path d="M212.32 122.81C204.713 127.202 204.553 134.122 211.937 138.385C219.32 142.648 231.306 142.555 238.913 138.163C246.52 133.771 246.68 126.851 239.296 122.589C231.913 118.326 219.927 118.418 212.32 122.81ZM217.626 125.873C222.804 122.884 229.915 122.653 234.55 125.329C239.184 128.005 238.785 132.111 233.607 135.1C228.429 138.089 221.318 138.32 216.683 135.644C212.048 132.969 212.448 128.863 217.626 125.873Z" fill="#333333"/>
<path d="M283.808 61.8621C287.169 59.9219 292.617 59.9219 295.978 61.8621L344.658 89.9678C348.019 91.9081 348.019 95.0539 344.658 96.9942L295.978 125.1C292.617 127.04 287.169 127.04 283.808 125.1L235.128 96.9942C231.767 95.0539 231.767 91.9081 235.128 89.9678L283.808 61.8621Z" fill="#1FBACB"/>
<path d="M98.0002 104.432C98.0002 100.551 100.725 98.9783 104.085 100.919L152.766 129.024C156.126 130.965 158.851 135.683 158.851 139.564L158.851 195.775C158.851 199.656 156.126 201.229 152.766 199.288L104.085 171.183C100.725 169.242 98.0002 164.524 98.0002 160.643L98.0002 104.432Z" fill="white"/>
<path d="M119.298 156.152C121.135 159.981 124.891 164.198 128.95 166.541C134.368 169.669 138.251 168.516 138.251 162.684C138.251 157.868 135.231 153.799 130.197 148.678C126.777 145.209 125.61 143.336 125.61 141.657C125.61 139.812 126.952 138.981 129.318 140.347C131.171 141.417 133.057 143.41 134.416 145.412L136.797 142.727C135.295 140.107 132.402 136.942 129.382 135.198C124.172 132.19 120.8 134.377 120.8 139.009C120.8 142.773 122.829 146.565 127.64 151.52C131.635 155.654 132.897 157.582 132.897 159.723C132.897 162.103 131.155 162.555 128.758 161.171C126.457 159.843 124.012 157.102 121.998 153.781L119.298 156.152Z" fill="#333333"/>
<path d="M98 178.209C98 174.328 100.724 172.756 104.085 174.696L152.765 202.801C156.126 204.742 158.85 209.46 158.85 213.341L158.85 269.552C158.85 273.433 156.126 275.006 152.765 273.066L104.085 244.96C100.724 243.02 98 238.301 98 234.42L98 178.209Z" fill="#1FBACB"/>
<path d="M161.894 141.321C161.894 137.44 164.618 135.867 167.979 137.808L216.659 165.913C220.02 167.854 222.744 172.572 222.744 176.453L222.744 232.664C222.744 236.545 220.02 238.118 216.659 236.178L167.979 208.072C164.618 206.132 161.894 201.413 161.894 197.532L161.894 141.321Z" fill="white"/>
<path d="M182.583 165.914L182.583 185.548C182.583 193.096 185.955 198.899 192.539 202.7C199.123 206.502 202.495 204.592 202.495 197.044L202.495 177.41L197.573 174.568L197.573 192.597C197.573 197.838 196.087 199.157 192.539 197.109C188.991 195.061 187.505 192.025 187.505 186.785L187.505 168.756L182.583 165.914Z" fill="#333333"/>
<path d="M161.893 215.098C161.893 211.217 164.617 209.644 167.978 211.584L216.658 239.69C220.019 241.63 222.743 246.349 222.743 250.23L222.743 306.441C222.743 310.322 220.019 311.895 216.658 309.954L167.978 281.849C164.617 279.908 161.893 275.19 161.893 271.309L161.893 215.098Z" fill="#FE6B01"/>
<path d="M229.256 250.209C229.256 246.328 231.981 241.61 235.341 239.669L284.022 211.564C287.382 209.623 290.107 211.196 290.107 215.077L290.107 271.288C290.107 275.169 287.382 279.888 284.022 281.828L235.341 309.934C231.981 311.874 229.256 310.301 229.256 306.42L229.256 250.209Z" fill="white"/>
<path d="M248.729 251.615L248.729 282.063L253.651 279.221L253.651 266.267L264.31 273.067L271.118 269.136L258.142 260.869L269.552 239.593L263.527 243.071L253.651 261.58L253.651 248.773L248.729 251.615Z" fill="#333333"/>
<path d="M229.257 176.432C229.257 172.551 231.981 167.833 235.342 165.892L284.022 137.787C287.383 135.846 290.107 137.419 290.107 141.3L290.107 197.511C290.107 201.392 287.383 206.11 284.022 208.051L235.342 236.156C231.981 238.097 229.257 236.524 229.257 232.643L229.257 176.432Z" fill="#FE6B01"/>
<path d="M293.149 213.32C293.149 209.44 295.874 204.721 299.234 202.781L347.915 174.675C351.275 172.735 354 174.308 354 178.188L354 234.4C354 238.28 351.275 242.999 347.915 244.939L299.234 273.045C295.874 274.985 293.149 273.412 293.149 269.532L293.149 213.32Z" fill="white"/>
<path d="M313.838 214.024L313.838 233.658C313.838 241.205 317.21 243.115 323.794 239.314C330.379 235.513 333.751 229.709 333.751 222.162L333.751 202.528L328.828 205.369L328.828 223.398C328.828 228.639 327.342 231.674 323.794 233.723C320.247 235.771 318.761 234.452 318.761 229.211L318.761 211.182L313.838 214.024Z" fill="#333333"/>
<path d="M293.15 139.543C293.15 135.662 295.874 130.943 299.235 129.003L347.915 100.897C351.276 98.9571 354 100.53 354 104.411L354 160.622C354 164.502 351.276 169.221 347.915 171.162L299.235 199.267C295.874 201.207 293.15 199.635 293.15 195.754L293.15 139.543Z" fill="#DF0000"/>
<path fill-rule="evenodd" clip-rule="evenodd" d="M128.07 61.2472L137.132 56.0153L135.308 54.9622L128.356 58.9759L113.482 50.3883L111.372 51.6065L128.07 61.2472ZM123.637 47.1176L125.651 45.9549L123.406 44.6586L121.392 45.8213L123.637 47.1176ZM138.09 55.462L140.104 54.2993L127.569 47.0621L125.555 48.2248L138.09 55.462ZM142.789 52.7493L144.803 51.5866L133.811 45.2405L136.016 43.9672L134.473 43.0761L132.267 44.3494L130.794 43.4985C129.929 42.999 130.033 42.5607 130.896 42.0626L131.831 41.5228L130.147 40.5509L128.684 41.3953C126.743 42.5161 126.886 43.5676 128.78 44.6613L130.254 45.5121L128.384 46.5917L129.927 47.4828L131.797 46.4032L142.789 52.7493ZM149.653 41.8196L148.858 41.3603C146.144 39.7938 142.464 38.0843 138.532 40.3543C134.577 42.6381 137.601 45.1042 140.712 46.9C145.039 49.3981 148.438 49.8658 151.602 48.0389C155.127 46.004 152.807 43.7516 151.474 42.9819L149.461 44.1443C150.42 44.6979 152.097 45.9708 150.179 47.0784C147.71 48.5039 144.833 46.8431 142.893 45.7227L149.653 41.8196ZM141.421 44.7896L140.953 44.5198C140.205 44.0876 137.918 42.491 140.028 41.2731C141.826 40.2349 143.918 40.9444 145.321 41.7543L146 42.146L141.421 44.7896ZM159.353 36.5694C161.316 37.7858 163.296 39.3435 160.731 40.8245C157.806 42.5131 154.288 40.9257 150.429 38.6977C146.57 36.4697 143.821 34.4386 146.746 32.75C148.927 31.4905 151.14 32.0763 153.106 33.1284L155.312 31.855C151.941 30.0201 148.538 29.7708 145.062 31.7777C140.338 34.5046 144.014 37.5405 148.224 39.971C152.433 42.4012 157.548 44.6062 162.414 41.7964C166.154 39.6374 164.525 37.2295 161.559 35.2958L159.353 36.5694ZM168.032 38.175L170.046 37.0123L161.393 32.0166C159.592 30.9767 160.329 29.7139 161.408 29.091C163.23 28.0392 164.869 28.9025 165.828 29.4561L174.481 34.4518L176.495 33.2891L167.608 28.1582C166.111 27.2941 163.656 25.849 160.324 27.773C159.173 28.4373 158.484 29.6727 158.986 30.5712L158.938 30.599L153.348 27.3717L151.334 28.5344L168.032 38.175ZM171.09 29.1724C174.622 31.2113 178.596 32.4541 182.312 30.3086C186.004 28.1773 183.876 25.8685 180.344 23.8295C176.813 21.7906 172.838 20.5481 169.122 22.6933C165.406 24.8388 167.559 27.1334 171.09 29.1724ZM180.72 29.4455C178.659 30.6353 175.913 29.521 173.199 27.9545C170.486 26.3881 168.58 24.7888 170.617 23.6125C172.799 22.3527 175.521 23.4813 178.234 25.0477C180.947 26.6142 182.854 28.2135 180.72 29.4455ZM172.661 18.8136L174.675 17.6508L172.43 16.3546L170.416 17.5173L172.661 18.8136ZM187.114 27.1579L189.128 25.9952L176.593 18.7581L174.579 19.9208L187.114 27.1579ZM190.138 15.3398C188.711 14.516 185.423 13.282 181.899 15.3166C177.943 17.6004 180.968 20.0665 184.078 21.8622C188.405 24.3604 191.805 24.8281 194.969 23.0012C198.182 21.1462 196.476 18.999 194.511 17.8647L192.497 19.0274C193.854 19.8107 195.248 21.0579 193.521 22.0546C191.1 23.4523 187.779 21.5626 186.165 20.6305C181.581 17.9842 182.245 16.8993 183.49 16.18C185.025 15.2942 186.907 15.8001 188.124 16.5025L190.138 15.3398ZM202.201 11.4809L201.406 11.0217C198.692 9.45522 195.012 7.74569 191.08 10.0157C187.125 12.2995 190.149 14.7656 193.26 16.5613C197.587 19.0595 200.987 19.5269 204.151 17.6999C207.675 15.6653 205.356 13.4127 204.023 12.643L202.009 13.8057C202.968 14.3593 204.645 15.6325 202.727 16.7398C200.258 18.1653 197.381 16.5045 195.441 15.3841L202.201 11.4809ZM193.969 14.451L193.501 14.1811C192.753 13.7489 190.466 12.1524 192.576 10.9345C194.374 9.89625 196.466 10.6058 197.869 11.4157L198.548 11.8073L193.969 14.451ZM207.953 4.89191C206.48 4.04137 203.786 2.68017 200.046 4.83922C197.817 6.1264 197.069 7.85423 199.408 9.20459C201.98 10.6899 204.054 10.0321 206.127 9.4301C208.153 8.82711 210.134 8.11587 211.818 9.08814C213.595 10.1142 212.412 11.1481 211.765 11.5218C209.775 12.6706 207.987 12.1092 206.467 11.2317L204.454 12.394C205.74 13.1367 208.945 14.9318 213.308 12.4129C215.706 11.0286 216.145 9.2626 213.526 7.75056C211.023 6.30551 208.881 6.92173 206.855 7.52439C204.781 8.15446 202.919 8.90561 201.422 8.04154C199.668 7.02869 200.942 6.10405 201.59 5.73034C203.052 4.8862 204.349 5.13646 205.939 6.05463L207.953 4.89191Z" fill="black"/>
<path fill-rule="evenodd" clip-rule="evenodd" d="M91.319 82.4654L95.3468 80.14L88.7752 76.3459L82.9875 67.9943L78.6721 70.4858L82.9047 75.1988L82.8567 75.2265L74.7404 72.7558L70.2815 75.3301L84.7474 78.6713L91.319 82.4654ZM103.154 76.0106C107.637 73.4224 105.6 71.2499 101.811 69.0625C98.0224 66.8751 94.5693 65.6012 89.8468 68.3277C85.3639 70.9159 87.4005 73.0888 91.1892 75.2762C94.9778 77.4636 98.4069 78.7513 103.154 76.0106ZM97.9742 71.3318C101.085 73.1276 101.898 73.8736 100.699 74.5655C99.548 75.2301 98.1129 74.7891 95.026 73.0069C91.9625 71.2382 91.1992 70.4099 92.3503 69.7454C93.5488 69.0534 94.8404 69.5225 97.9742 71.3318ZM106.38 59.1605L102.496 61.4028L110.775 66.1827C112.014 66.8983 111.929 67.5957 111.185 68.0252C110.442 68.454 109.521 68.3651 108.609 67.8385L99.9789 62.856L96.0952 65.0983L105.567 70.5667C107.999 71.9709 110.25 71.9137 112.455 70.6404C113.894 69.8101 114.319 68.7543 113.748 67.7881L113.796 67.7603L115.292 68.6244L119.032 66.4653L106.38 59.1605ZM120.039 65.884L123.923 63.6417L116.743 59.4966C115.059 58.5243 115.458 57.5919 117.016 56.6923C117.4 56.4708 117.735 56.3044 118.189 56.1235L114.634 54.071C114.49 54.1268 114.347 54.1823 114.251 54.2381L113.964 54.4038C112.333 55.345 112.333 56.4797 112.953 57.4185L112.905 57.4462L111.127 56.4198L107.387 58.5792L120.039 65.884Z" fill="#ED1B33"/>
</g>
<defs>
<filter id="filter0_f" x="79" y="96.7164" width="358.891" height="254.353" filterUnits="userSpaceOnUse" color-interpolation-filters="sRGB">
<feFlood flood-opacity="0" result="BackgroundImageFix"/>
<feBlend mode="normal" in="SourceGraphic" in2="BackgroundImageFix" result="shape"/>
<feGaussianBlur stdDeviation="12" result="effect1_foregroundBlur"/>
</filter>
<clipPath id="clip0">
<rect width="450" height="330" fill="white"/>
</clipPath>
</defs>
</svg>
