<svg width="30" height="25" viewBox="0 0 30 25" fill="none" xmlns="http://www.w3.org/2000/svg">
<path d="M15.6245 1.7284C16.2933 2.37788 16.6691 3.25866 16.6691 4.17703C16.6691 5.0954 16.2933 5.97617 15.6245 6.62566L12.7952 9.37215H25.7178C26.6641 9.37215 27.5716 9.73704 28.2407 10.3866C28.9098 11.0361 29.2856 11.917 29.2856 12.8356C29.2856 13.7541 28.9098 14.635 28.2407 15.2846C27.5716 15.9341 26.6641 16.299 25.7178 16.299H12.7952L15.6245 19.0455C15.9653 19.3649 16.2371 19.7471 16.424 20.1697C16.611 20.5922 16.7094 21.0467 16.7136 21.5066C16.7177 21.9664 16.6274 22.4225 16.448 22.8481C16.2686 23.2738 16.0037 23.6605 15.6687 23.9857C15.3337 24.3108 14.9354 24.568 14.4969 24.7422C14.0584 24.9163 13.5886 25.0039 13.1149 24.9999C12.6412 24.9959 12.173 24.9004 11.7377 24.7189C11.3024 24.5374 10.9087 24.2735 10.5796 23.9427L1.82578 15.4451C0.343698 14.0063 0.343698 11.6648 1.82578 10.2261L10.5796 1.7284C11.2487 1.07911 12.156 0.714355 13.102 0.714355C14.0481 0.714355 14.9554 1.07911 15.6245 1.7284Z" fill="white"/>
</svg>
