<svg width="24" height="24" viewBox="0 0 24 24" fill="none" xmlns="http://www.w3.org/2000/svg">
<path d="M12.5246 2.87236C13.0865 3.4311 13.4021 4.18882 13.4021 4.97888C13.4021 5.76894 13.0865 6.52665 12.5246 7.08539L10.148 9.44815H21.003C21.7979 9.44815 22.5602 9.76206 23.1222 10.3208C23.6842 10.8796 24 11.6374 24 12.4277C24 13.2179 23.6842 13.9757 23.1222 14.5345C22.5602 15.0933 21.7979 15.4072 21.003 15.4072H10.148L12.5246 17.7699C12.8109 18.0448 13.0392 18.3736 13.1963 18.7371C13.3533 19.1006 13.436 19.4916 13.4395 19.8872C13.4429 20.2828 13.3671 20.6751 13.2164 21.0413C13.0657 21.4075 12.8432 21.7401 12.5618 22.0199C12.2804 22.2997 11.9458 22.5209 11.5774 22.6707C11.2091 22.8205 10.8145 22.8959 10.4166 22.8925C10.0186 22.889 9.62536 22.8068 9.25972 22.6507C8.89408 22.4945 8.56338 22.2675 8.28692 21.983L0.93371 14.6726C-0.311237 13.4349 -0.311237 11.4205 0.93371 10.1828L8.28692 2.87236C8.84894 2.31379 9.61109 2 10.4058 2C11.2005 2 11.9626 2.31379 12.5246 2.87236Z" fill="white"/>
</svg>
