<svg width="40" height="40" viewBox="0 0 40 40" fill="none" xmlns="http://www.w3.org/2000/svg">
<path d="M20.8334 9.16669C20.6124 9.16669 20.4004 9.25448 20.2441 9.41076C20.0878 9.56705 20 9.77901 20 10C20 10.221 20.0878 10.433 20.2441 10.5893C20.4004 10.7456 20.6124 10.8334 20.8334 10.8334C22.6384 10.8334 24.1067 12.3017 24.1067 14.1067C24.1067 14.3277 24.1945 14.5397 24.3508 14.6959C24.5071 14.8522 24.719 14.94 24.94 14.94C25.1611 14.94 25.373 14.8522 25.5293 14.6959C25.6856 14.5397 25.7734 14.3277 25.7734 14.1067C25.7716 12.7971 25.2506 11.5416 24.3245 10.6155C23.3985 9.68948 22.143 9.16845 20.8334 9.16669ZM20.8334 1.66669C13.94 1.66669 8.33337 7.27335 8.33337 14.1667C8.33337 16.6434 9.06671 19.0367 10.4567 21.1084L10.59 21.3334C13.6317 25.6767 14.1667 27.05 14.1667 28.3334V33.3334C14.1667 33.7754 14.3423 34.1993 14.6549 34.5119C14.9674 34.8244 15.3913 35 15.8334 35H19.1667C19.1667 35.4334 19.35 35.8667 19.65 36.1833C19.9667 36.4834 20.4 36.6667 20.8334 36.6667C21.2667 36.6667 21.7 36.4834 22.0167 36.1833C22.3167 35.8667 22.5 35.4334 22.5 35H25.8334C26.2754 35 26.6993 34.8244 27.0119 34.5119C27.3244 34.1993 27.5 33.7754 27.5 33.3334V28.3334C27.5 27.03 28.0317 25.65 31.0534 21.335C32.536 19.2387 33.3325 16.7343 33.3334 14.1667C33.3334 7.27335 27.7267 1.66669 20.8334 1.66669ZM24.1667 31.6667H17.5V30H24.1667V31.6667ZM28.325 19.4217C25.8817 22.91 24.7534 24.9034 24.35 26.6667H22.5V23.3334C22.5 22.8913 22.3244 22.4674 22.0119 22.1548C21.6993 21.8423 21.2754 21.6667 20.8334 21.6667C20.3913 21.6667 19.9674 21.8423 19.6549 22.1548C19.3423 22.4674 19.1667 22.8913 19.1667 23.3334V26.6667H17.3117C16.9117 24.95 15.815 23 13.4684 19.6334L13.34 19.4184C12.2522 17.8832 11.6675 16.0482 11.6667 14.1667C11.6667 9.11169 15.7784 5.00002 20.8334 5.00002C25.8884 5.00002 30 9.11169 30 14.1667C29.9984 16.0494 29.4133 17.8853 28.325 19.4217Z" fill="white"/>
</svg>
