<svg width="30" height="30" viewBox="0 0 30 30" fill="none" xmlns="http://www.w3.org/2000/svg">
<path d="M27.5105 8.03327C28.6263 6.91748 28.6263 5.10844 27.5105 3.99266L26.3547 2.83684C25.2389 1.72106 23.4298 1.72105 22.314 2.83684L15.2451 9.90582L8.17609 2.83684C7.0603 1.72105 5.25126 1.72105 4.13548 2.83684L2.97966 3.99265C1.86388 5.10844 1.86388 6.91748 2.97966 8.03327L10.0486 15.1022L2.97966 22.1712C1.86388 23.287 1.86388 25.0961 2.97966 26.2118L4.13548 27.3677C5.25126 28.4834 7.0603 28.4834 8.17609 27.3677L15.2451 20.2987L22.314 27.3677C23.4298 28.4834 25.2389 28.4834 26.3547 27.3677L27.5105 26.2118C28.6263 25.0961 28.6263 23.287 27.5105 22.1712L20.4415 15.1022L27.5105 8.03327Z" fill="white"/>
</svg>
