<svg width="40" height="40" viewBox="0 0 40 40" fill="none" xmlns="http://www.w3.org/2000/svg">
<g clip-path="url(#clip0)">
<path d="M18.8886 20.0001H25.2329C28.2328 20.0001 30.9271 17.736 31.1014 14.7027C31.1492 13.8784 31.0168 13.0535 30.7136 12.287C30.4104 11.5204 29.9439 10.8311 29.3473 10.2681C29.8573 9.30037 30.076 8.20255 29.9765 7.11033C29.7147 4.14946 27.0342 2 24.0968 2H18.8886C18.5939 2 18.3113 2.11853 18.103 2.32951C17.8946 2.54048 17.7775 2.82663 17.7775 3.125V18.875C17.7775 19.1734 17.8946 19.4596 18.103 19.6705C18.3113 19.8815 18.5939 20.0001 18.8886 20.0001ZM21.6663 5.93751H24.444C24.886 5.93751 25.3099 6.1153 25.6225 6.43177C25.935 6.74824 26.1106 7.17746 26.1106 7.62502C26.1106 8.07257 25.935 8.50179 25.6225 8.81826C25.3099 9.13473 24.886 9.31252 24.444 9.31252H21.6663V5.93751ZM21.6663 12.6875H25.5551C25.9971 12.6875 26.421 12.8653 26.7335 13.1818C27.0461 13.4983 27.2217 13.9275 27.2217 14.375C27.2217 14.8226 27.0461 15.2518 26.7335 15.5683C26.421 15.8848 25.9971 16.0625 25.5551 16.0625H21.6663V12.6875ZM10.7722 3.56446C10.6287 3.11021 10.3463 2.71389 9.96589 2.43269C9.58545 2.1515 9.12661 1.99998 8.65559 2H6.90009C6.42907 1.99998 5.97023 2.1515 5.58979 2.43269C5.20935 2.71389 4.927 3.11021 4.78349 3.56446L0.0412741 18.5748C-0.00440209 18.7418 -0.011355 18.9173 0.0209578 19.0874C0.0532705 19.2576 0.123975 19.4179 0.227557 19.5559C0.331139 19.6939 0.464796 19.8057 0.618105 19.8828C0.771414 19.9598 0.940228 19.9999 1.11138 20.0001H2.84258C3.08558 20.0001 3.32188 19.9194 3.51528 19.7704C3.70869 19.6215 3.84852 19.4124 3.91338 19.1753L4.74252 16.625H10.8132L11.6423 19.1753C11.7072 19.4124 11.847 19.6215 12.0404 19.7704C12.2338 19.9194 12.4701 20.0001 12.7131 20.0001H14.4443C14.6155 20.0001 14.7844 19.96 14.9378 19.883C15.0912 19.806 15.2249 19.6942 15.3286 19.5562C15.4323 19.4182 15.503 19.2579 15.5354 19.0876C15.5677 18.9174 15.5608 18.7419 15.5151 18.5748L10.7722 3.56446ZM6.20636 12.125L7.77784 7.29455L9.34932 12.125H6.20636ZM39.6775 21.4401L36.5381 18.2549C36.4355 18.1498 36.3134 18.0664 36.1787 18.0094C36.0441 17.9525 35.8996 17.9232 35.7537 17.9232C35.6078 17.9232 35.4633 17.9525 35.3287 18.0094C35.1941 18.0664 35.0719 18.1498 34.9694 18.2549L24.4488 28.9073L20.6011 25.0049C20.4985 24.8998 20.3763 24.8164 20.2417 24.7595C20.1071 24.7025 19.9626 24.6732 19.8167 24.6732C19.6708 24.6732 19.5263 24.7025 19.3917 24.7595C19.2571 24.8164 19.1349 24.8998 19.0324 25.0049L15.8866 28.1901C15.679 28.4009 15.5625 28.6865 15.5625 28.9843C15.5625 29.282 15.679 29.5676 15.8866 29.7784L23.6642 37.6682C23.7668 37.7733 23.889 37.8568 24.0237 37.9137C24.1584 37.9707 24.3029 38 24.4488 38C24.5948 38 24.7393 37.9707 24.874 37.9137C25.0087 37.8568 25.1309 37.7733 25.2335 37.6682L39.6775 23.0284C39.8849 22.8174 40.0012 22.5317 40.001 22.2339C40.0007 21.9362 39.8839 21.6507 39.6762 21.4401H39.6775Z" fill="white"/>
</g>
<defs>
<clipPath id="clip0">
<rect width="40" height="40" fill="white"/>
</clipPath>
</defs>
</svg>
