<svg width="21" height="20" viewBox="0 0 21 20" fill="none" xmlns="http://www.w3.org/2000/svg">
<path d="M19.7778 9.25434C20.0049 9.08514 20.1734 8.8491 20.2596 8.57931C20.3458 8.30953 20.3454 8.01953 20.2585 7.74997C20.1715 7.48042 20.0024 7.24483 19.7748 7.07624C19.5473 6.90766 19.2726 6.81452 18.9894 6.80989L13.4894 6.60212C13.4624 6.60025 13.4365 6.5906 13.4148 6.57434C13.3931 6.55807 13.3766 6.53589 13.3672 6.51045L11.4667 1.37712C11.3712 1.11595 11.1977 0.890437 10.9698 0.731107C10.7419 0.571778 10.4706 0.486328 10.1925 0.486328C9.91441 0.486328 9.64305 0.571778 9.41515 0.731107C9.18725 0.890437 9.01381 1.11595 8.91832 1.37712L7.02387 6.52878C7.01451 6.55422 6.99799 6.57641 6.9763 6.59267C6.95462 6.60894 6.92869 6.61858 6.90165 6.62045L1.40165 6.82823C1.11847 6.83285 0.843828 6.92599 0.616247 7.09458C0.388666 7.26317 0.219554 7.49875 0.132624 7.76831C0.0456929 8.03786 0.0453029 8.32786 0.131508 8.59764C0.217713 8.86743 0.386191 9.10347 0.613318 9.27267L4.92776 12.6643C4.94936 12.6813 4.96549 12.7043 4.97418 12.7303C4.98287 12.7564 4.98373 12.7845 4.97665 12.811L3.49165 18.0727C3.4147 18.3406 3.42215 18.6257 3.513 18.8893C3.60385 19.1528 3.77368 19.382 3.99939 19.5456C4.2251 19.7092 4.49573 19.7993 4.77447 19.8037C5.0532 19.808 5.32651 19.7264 5.55721 19.5699L10.1161 16.5143C10.1386 16.4988 10.1652 16.4905 10.1925 16.4905C10.2198 16.4905 10.2464 16.4988 10.2689 16.5143L14.8278 19.5699C15.0553 19.7317 15.3277 19.8187 15.6069 19.8187C15.8862 19.8187 16.1585 19.7317 16.3861 19.5699C16.6119 19.4078 16.7819 19.1798 16.8727 18.9171C16.9635 18.6545 16.9707 18.3701 16.8933 18.1032L15.3961 12.8232C15.3882 12.7967 15.3886 12.7684 15.3974 12.7422C15.4061 12.7159 15.4227 12.693 15.445 12.6766L19.7778 9.25434Z" fill="white"/>
</svg>
