<svg width="64" height="57" viewBox="0 0 64 57" fill="none" xmlns="http://www.w3.org/2000/svg">
<path opacity="0.05" d="M64 6.11336L32.4474 5.32643L48.9056 33.8152L64 6.11336ZM54.0486 11.8552L48.7472 21.5788L42.9569 11.5559L54.0486 11.8552ZM43.7226 36.8058C39.9971 30.3569 31.7808 28.1568 25.328 31.88C18.8752 35.6032 16.6736 43.8144 20.3992 50.2632C24.1247 56.712 32.341 58.9122 38.7938 55.189C45.2466 51.4658 47.4482 43.2546 43.7226 36.8058ZM25.5822 47.2727C24.5901 45.5555 24.3213 43.5148 24.8348 41.5995C25.3483 39.6842 26.6021 38.0512 28.3204 37.0598C30.0387 36.0683 32.0807 35.7997 33.9971 36.3129C35.9136 36.8261 37.5476 38.0791 38.5396 39.7963C39.5317 41.5135 39.8005 43.5542 39.287 45.4695C38.7735 47.3848 37.5197 49.0178 35.8014 50.0092C34.0831 51.0006 32.0412 51.2693 30.1247 50.7561C28.2082 50.2429 26.5742 48.9899 25.5822 47.2727ZM0 11.9622L11.9696 32.6813L32.7016 20.7191L20.732 0L0 11.9622ZM18.5414 8.17033L24.5262 18.5299L14.1602 24.511L8.1754 14.1514L18.5414 8.17033Z" fill="black"/>
</svg>
