<svg width="24" height="24" viewBox="0 0 24 24" fill="none" xmlns="http://www.w3.org/2000/svg">
<path fill-rule="evenodd" clip-rule="evenodd" d="M11.545 3.43549C11.821 3.55358 12 3.82484 12 4.12502V7.89195C15.7294 8.06338 18.1905 9.52422 19.7041 11.7298C21.2811 14.0279 21.75 17.0218 21.75 19.875C21.75 20.1951 21.5468 20.48 21.2441 20.5842C20.9414 20.6884 20.606 20.589 20.4089 20.3367C19.2917 18.9062 18.2986 17.8829 16.9722 17.1972C15.7746 16.5781 14.2432 16.203 12 16.1359V19.875C12 20.1752 11.821 20.4465 11.545 20.5645C11.2691 20.6826 10.9493 20.6248 10.7321 20.4175L2.48214 12.5425C2.33388 12.401 2.25 12.205 2.25 12C2.25 11.7951 2.33388 11.599 2.48214 11.4575L10.7321 3.5825C10.9493 3.37524 11.2691 3.3174 11.545 3.43549ZM4.08621 12L10.5 18.1223V15.375C10.5 14.9608 10.8358 14.625 11.25 14.625C14.0468 14.625 16.0463 15.0299 17.6611 15.8647C18.6191 16.36 19.4149 16.9932 20.1462 17.7369C19.9468 15.7964 19.4412 13.9978 18.4673 12.5785C17.1788 10.701 14.9926 9.37502 11.25 9.37502C10.8358 9.37502 10.5 9.03923 10.5 8.62502V5.87776L4.08621 12Z" fill="white"/>
</svg>
