<svg width="28" height="24" viewBox="0 0 28 24" fill="none" xmlns="http://www.w3.org/2000/svg">
<path d="M13.3879 22.9979C12.7324 22.356 12.3642 21.4856 12.3642 20.5781C12.3642 19.6705 12.7325 18.8001 13.3879 18.1582L16.1606 15.4441L3.49646 15.4441C2.56914 15.4441 1.6798 15.0835 1.02409 14.4416C0.368378 13.7997 1.93569e-06 12.9291 2.09441e-06 12.0214C2.25312e-06 11.1136 0.368378 10.2431 1.02409 9.60121C1.6798 8.95933 2.56914 8.59873 3.49646 8.59873L16.1606 8.59873L13.3879 5.88456C13.054 5.56883 12.7876 5.19115 12.6044 4.77357C12.4211 4.35599 12.3247 3.90687 12.3206 3.45241C12.3166 2.99795 12.4051 2.54726 12.5809 2.12663C12.7567 1.70599 13.0163 1.32385 13.3446 1.00248C13.6729 0.681118 14.0633 0.426978 14.493 0.254883C14.9227 0.0827873 15.3831 -0.00381773 15.8474 0.000132471C16.3116 0.00408076 16.7704 0.0985003 17.197 0.277879C17.6236 0.457257 18.0094 0.718007 18.3319 1.04491L26.9107 9.44261C28.3631 10.8644 28.3631 13.1784 26.9107 14.6002L18.3319 22.9979C17.6762 23.6395 16.7871 24 15.8599 24C14.9328 24 14.0436 23.6395 13.3879 22.9979Z" fill="white"/>
</svg>
