<svg width="200" height="70" viewBox="0 0 200 70" fill="none" xmlns="http://www.w3.org/2000/svg">
<g clip-path="url(#clip0)">
<rect width="200" height="70" rx="10" fill="#D02D99"/>
<rect width="200" height="65" rx="10" fill="#FA3CBA"/>
<path opacity="0.2" d="M0 10V30C0 17 6 0 30 0H10C4.47715 0 0 4.47715 0 10Z" fill="white"/>
<path opacity="0.2" d="M200 55L200 12C200 30 147.5 65 10 65L190 65C195.523 65 200 60.5228 200 55Z" fill="white"/>
<path d="M40.423 26.9189C39.6939 27.1924 38.828 27.5228 37.8254 27.9102L35.2619 28.9014C35.2619 27.8304 34.9657 27.2949 34.3732 27.2949C33.5301 27.2949 32.687 27.7734 31.8439 28.7305C31.2515 29.4368 31.0008 30.1204 31.092 30.7812C31.1604 31.2142 31.5933 31.4307 32.3908 31.4307C32.8238 31.4307 33.3934 31.3623 34.0998 31.2256C35.0796 31.0205 35.9455 30.918 36.6975 30.918C38.6115 30.918 39.7281 31.5788 40.0471 32.9004C40.1382 33.3105 40.1838 33.7435 40.1838 34.1992C40.1838 35.6576 39.6369 37.2298 38.5432 38.916C37.1304 41.1263 35.148 42.9834 32.5959 44.4873C31.2515 45.2848 29.9299 45.6836 28.6311 45.6836C27.4462 45.6836 26.2841 45.3532 25.1447 44.6924C25.7144 43.3252 26.6258 41.3086 27.8791 38.6426C28.6083 39.1439 29.383 39.3945 30.2033 39.3945C30.5679 39.3945 30.9439 39.3376 31.3313 39.2236C32.0376 39.0413 32.7098 38.7793 33.3479 38.4375C34.2593 37.9362 34.715 37.4235 34.715 36.8994C34.715 36.3298 34.2479 36.0449 33.3137 36.0449C32.6757 36.0449 31.7414 36.1816 30.5109 36.4551C29.3033 36.7057 28.3804 36.8311 27.7424 36.8311C26.8993 36.8311 26.2499 36.6715 25.7941 36.3525C24.9055 35.7601 24.5409 34.8372 24.7004 33.584C24.9966 31.0547 26.6258 28.1266 29.5881 24.7998C32.6187 21.3818 35.2277 19.5931 37.4152 19.4336C39.5344 19.2969 40.5939 20.8919 40.5939 24.2188C40.5939 25.0163 40.537 25.9163 40.423 26.9189ZM46.4701 20.8691L52.3148 19.7754C50.7426 25.7454 49.5805 31.1003 48.8285 35.8398L52.0756 34.4727L54.4682 20.8691L60.3129 19.7754C57.9431 29.1178 56.405 37.0361 55.6986 43.5303L50.2299 45.0342L50.9135 41.2402C48.9994 42.0833 46.1055 43.348 42.2318 45.0342L46.4701 20.8691ZM63.7281 20.835C67.3056 19.764 70.2337 19.2285 72.5123 19.2285C75.5885 19.2285 77.1152 20.2995 77.0924 22.4414C77.0696 25.5176 75.1327 28.6051 71.2818 31.7041C71.6008 32.57 72.9225 35.293 75.2467 39.873C74.0618 40.9668 72.273 42.5732 69.8805 44.6924L66.2232 35.2588H66.1891C65.6422 38.2438 65.232 41.001 64.9586 43.5303L59.5582 45.0342C59.6038 44.5329 59.8544 43.0176 60.3102 40.4883L63.7281 20.835ZM68.0348 26.2354C67.8297 27.0101 67.6474 27.7848 67.4879 28.5596L67.0094 30.8838C67.8069 30.4736 68.593 29.9382 69.3678 29.2773C70.2564 28.5026 70.8489 27.762 71.1451 27.0557C71.2591 26.8506 71.316 26.6569 71.316 26.4746C71.316 25.9733 70.9856 25.7227 70.3248 25.7227C69.8007 25.7227 69.0374 25.8936 68.0348 26.2354ZM80.4734 20.835C84.0509 19.764 86.979 19.2285 89.2576 19.2285C92.3338 19.2285 93.8605 20.2995 93.8377 22.4414C93.8149 25.5176 91.8781 28.6051 88.0272 31.7041C88.3462 32.57 89.6678 35.293 91.992 39.873C90.8071 40.9668 89.0184 42.5732 86.6258 44.6924L82.9686 35.2588H82.9344C82.3875 38.2438 81.9773 41.001 81.7039 43.5303L76.3035 45.0342C76.3491 44.5329 76.5997 43.0176 77.0555 40.4883L80.4734 20.835ZM84.7801 26.2354C84.575 27.0101 84.3927 27.7848 84.2332 28.5596L83.7547 30.8838C84.5522 30.4736 85.3384 29.9382 86.1131 29.2773C87.0018 28.5026 87.5942 27.762 87.8904 27.0557C88.0044 26.8506 88.0613 26.6569 88.0613 26.4746C88.0613 25.9733 87.7309 25.7227 87.0701 25.7227C86.546 25.7227 85.7827 25.8936 84.7801 26.2354ZM101.867 25.9619C101.685 26.6227 101.525 27.2721 101.389 27.9102L101.013 29.79L106.481 28.6279L106.174 33.3447C103.576 33.8005 101.537 34.1992 100.056 34.541C99.9645 34.9967 99.8848 35.4525 99.8164 35.9082L99.5771 37.2412L105.935 36.3184L105.49 42.6758C102.209 42.9492 98.0505 43.7354 93.0146 45.0342L97.082 20.5273L108.464 18.8867L108.02 25.21C105.786 25.415 103.736 25.6657 101.867 25.9619ZM113.178 20.9717L119.091 19.7754C119.045 20.4818 119.023 21.4844 119.023 22.7832C119.023 25.8822 119.125 28.6051 119.33 30.9521C119.444 32.2965 119.615 33.3789 119.843 34.1992L122.167 20.8691L128.046 19.7754C125.676 28.9128 124.127 36.8311 123.398 43.5303L117.997 45.0342C117.974 44.9886 117.826 44.5898 117.553 43.8379L115.776 38.7793C115.479 37.959 115.308 37.4349 115.263 37.207C114.784 39.8958 114.408 42.5049 114.135 45.0342L108.666 46.6748L113.178 20.9717ZM131.188 20.835C133.808 19.9691 136.03 19.5361 137.853 19.5361C139.904 19.5361 141.465 20.0716 142.536 21.1426C144.017 22.6693 144.757 24.5264 144.757 26.7139C144.757 27.5114 144.655 28.3545 144.45 29.2432C143.561 33.2536 141.465 36.7627 138.161 39.7705C134.857 42.7555 131.177 44.5101 127.121 45.0342C127.166 44.5329 127.405 43.0404 127.838 40.5566L130.573 24.834C130.96 22.487 131.165 21.154 131.188 20.835ZM136.076 26.4746C135.027 30.9408 134.23 35.1676 133.683 39.1553C135.05 37.8564 136.269 36.3525 137.34 34.6436C138.662 32.5472 139.323 30.7471 139.323 29.2432C139.323 27.3063 138.24 26.3835 136.076 26.4746ZM153.436 25.9619C153.254 26.6227 153.094 27.2721 152.958 27.9102L152.582 29.79L158.05 28.6279L157.743 33.3447C155.145 33.8005 153.106 34.1992 151.625 34.541C151.533 34.9967 151.454 35.4525 151.385 35.9082L151.146 37.2412L157.504 36.3184L157.059 42.6758C153.778 42.9492 149.619 43.7354 144.584 45.0342L148.651 20.5273L160.033 18.8867L159.588 25.21C157.355 25.415 155.305 25.6657 153.436 25.9619ZM164.2 20.835C167.777 19.764 170.706 19.2285 172.984 19.2285C176.06 19.2285 177.587 20.2995 177.564 22.4414C177.541 25.5176 175.605 28.6051 171.754 31.7041C172.073 32.57 173.394 35.293 175.719 39.873C174.534 40.9668 172.745 42.5732 170.352 44.6924L166.695 35.2588H166.661C166.114 38.2438 165.704 41.001 165.43 43.5303L160.03 45.0342C160.076 44.5329 160.326 43.0176 160.782 40.4883L164.2 20.835ZM168.507 26.2354C168.302 27.0101 168.119 27.7848 167.96 28.5596L167.481 30.8838C168.279 30.4736 169.065 29.9382 169.84 29.2773C170.728 28.5026 171.321 27.762 171.617 27.0557C171.731 26.8506 171.788 26.6569 171.788 26.4746C171.788 25.9733 171.457 25.7227 170.797 25.7227C170.273 25.7227 169.509 25.8936 168.507 26.2354Z" fill="white"/>
</g>
<defs>
<clipPath id="clip0">
<rect width="200" height="70" fill="white"/>
</clipPath>
</defs>
</svg>
