<svg width="27" height="27" viewBox="0 0 27 27" fill="none" xmlns="http://www.w3.org/2000/svg">
<path d="M25.5105 6.03327C26.6263 4.91748 26.6263 3.10844 25.5105 1.99266L24.3547 0.836839C23.2389 -0.278945 21.4298 -0.278946 20.314 0.836837L13.2451 7.90582L6.17609 0.836838C5.0603 -0.278946 3.25126 -0.278946 2.13548 0.836838L0.979661 1.99265C-0.136122 3.10844 -0.136124 4.91748 0.97966 6.03327L8.04864 13.1022L0.97966 20.1712C-0.136124 21.287 -0.136124 23.0961 0.97966 24.2118L2.13548 25.3677C3.25126 26.4834 5.0603 26.4834 6.17609 25.3677L13.2451 18.2987L20.314 25.3677C21.4298 26.4834 23.2389 26.4834 24.3547 25.3677L25.5105 24.2118C26.6263 23.0961 26.6263 21.287 25.5105 20.1712L18.4415 13.1022L25.5105 6.03327Z" fill="white"/>
</svg>
