<svg width="30" height="26" viewBox="0 0 30 26" fill="none" xmlns="http://www.w3.org/2000/svg">
<path d="M14.2061 12.8572H18.7377C20.8805 12.8572 22.8051 11.24 22.9296 9.07335C22.9637 8.48455 22.8691 7.89538 22.6526 7.34784C22.436 6.80031 22.1028 6.30791 21.6766 5.90576C22.0409 5.21455 22.1971 4.43039 22.126 3.65023C21.939 1.53533 20.0244 1.8237e-09 17.9263 1.8237e-09H14.2061C13.9956 1.8237e-09 13.7938 0.084662 13.6449 0.235361C13.4961 0.386061 13.4125 0.590453 13.4125 0.803574V12.0536C13.4125 12.2667 13.4961 12.4711 13.6449 12.6218C13.7938 12.7725 13.9956 12.8572 14.2061 12.8572ZM16.1902 2.81251H18.1743C18.49 2.81251 18.7928 2.9395 19.016 3.16555C19.2393 3.3916 19.3647 3.69819 19.3647 4.01787C19.3647 4.33755 19.2393 4.64414 19.016 4.87019C18.7928 5.09624 18.49 5.22323 18.1743 5.22323H16.1902V2.81251ZM16.1902 7.63395H18.9679C19.2836 7.63395 19.5864 7.76094 19.8097 7.98699C20.0329 8.21304 20.1583 8.51963 20.1583 8.83931C20.1583 9.15899 20.0329 9.46558 19.8097 9.69163C19.5864 9.91768 19.2836 10.0447 18.9679 10.0447H16.1902V7.63395ZM8.40869 1.11747C8.30618 0.793009 8.1045 0.509921 7.83276 0.309067C7.56102 0.108213 7.23327 -1.62218e-05 6.89683 1.8237e-09H5.6429C5.30646 -1.62218e-05 4.97872 0.108213 4.70698 0.309067C4.43524 0.509921 4.23355 0.793009 4.13105 1.11747L0.74375 11.8392C0.711124 11.9584 0.706158 12.0838 0.729238 12.2053C0.752319 12.3269 0.802822 12.4414 0.876809 12.5399C0.950796 12.6385 1.04627 12.7184 1.15577 12.7734C1.26528 12.8284 1.38586 12.8571 1.50811 12.8572H2.74468C2.91825 12.8572 3.08704 12.7996 3.22518 12.6932C3.36333 12.5868 3.46321 12.4374 3.50954 12.2681L4.10178 10.4465H8.43795L9.0302 12.2681C9.07652 12.4374 9.1764 12.5868 9.31455 12.6932C9.4527 12.7996 9.62148 12.8572 9.79506 12.8572H11.0316C11.1539 12.8572 11.2746 12.8286 11.3841 12.7736C11.4937 12.7186 11.5892 12.6387 11.6633 12.5401C11.7373 12.4416 11.7879 12.327 11.811 12.2054C11.8341 12.0838 11.8291 11.9585 11.7965 11.8392L8.40869 1.11747ZM5.14738 7.23216L6.26987 3.78182L7.39235 7.23216H5.14738ZM29.0554 13.8858L26.8129 11.6106C26.7396 11.5356 26.6524 11.476 26.5562 11.4353C26.46 11.3946 26.3568 11.3737 26.2526 11.3737C26.1484 11.3737 26.0452 11.3946 25.9491 11.4353C25.8529 11.476 25.7656 11.5356 25.6924 11.6106L18.1777 19.2195L15.4293 16.4321C15.356 16.357 15.2688 16.2974 15.1726 16.2568C15.0765 16.2161 14.9733 16.1951 14.8691 16.1951C14.7648 16.1951 14.6616 16.2161 14.5655 16.2568C14.4693 16.2974 14.3821 16.357 14.3088 16.4321L12.0618 18.7072C11.9136 18.8578 11.8303 19.0618 11.8303 19.2745C11.8303 19.4871 11.9136 19.6911 12.0618 19.8417L17.6172 25.4773C17.6905 25.5524 17.7778 25.612 17.874 25.6527C17.9702 25.6933 18.0735 25.7143 18.1777 25.7143C18.282 25.7143 18.3852 25.6933 18.4814 25.6527C18.5776 25.612 18.6649 25.5524 18.7382 25.4773L29.0554 15.0203C29.2035 14.8695 29.2866 14.6655 29.2864 14.4528C29.2862 14.2402 29.2028 14.0362 29.0544 13.8858H29.0554Z" fill="white"/>
</svg>
