<svg width="196" height="82" viewBox="0 0 196 82" fill="none" xmlns="http://www.w3.org/2000/svg">
<g filter="url(#filter0_d)">
<rect x="6" y="3" width="179.793" height="66" rx="5" fill="#333333"/>
</g>
<rect x="10.7314" y="7.71423" width="28.3884" height="28.2857" fill="white"/>
<path d="M32.2008 25.0911H28.1981C27.7722 26.8166 26.6935 27.948 24.7915 27.948C23.7127 27.948 22.8611 27.6086 22.2649 26.9014C21.4416 26.0246 21.2713 25.1194 21.2713 21.216C21.2713 17.3126 21.4416 16.4074 22.2649 15.5306C22.8611 14.8234 23.7127 14.484 24.7915 14.484C26.6935 14.484 27.7722 15.6154 28.1981 17.3408H32.2008C31.5195 13.2394 28.6523 10.9766 24.7631 10.9766C22.6056 10.9766 20.7887 11.712 19.3125 13.1828C18.4325 14.0597 17.8931 15.0497 17.666 16.2094C17.4389 17.3408 17.3253 19.0097 17.3253 21.216C17.3253 23.4223 17.4389 25.0911 17.666 26.2226C17.8931 27.354 18.4325 28.3723 19.3125 29.2491C20.7887 30.72 22.6056 31.4554 24.7631 31.4554C28.6239 31.4554 31.5195 29.1926 32.2008 25.0911Z" fill="#333333"/>
<rect x="10.7314" y="36" width="28.3884" height="28.2857" fill="#333333"/>
<rect x="39.1198" y="36" width="28.3884" height="28.2857" fill="#333333"/>
<rect x="152.673" y="7.71423" width="28.3884" height="28.2857" fill="#333333"/>
<rect x="39.1198" y="7.71423" width="28.3884" height="28.2857" fill="white"/>
<path d="M61.2114 31.2857L56.6976 22.602C58.6564 21.8948 60.3881 20.1411 60.3881 17.3125C60.3881 13.9465 57.9467 11.1462 53.8304 11.1462H45.9101V31.2857H49.856V23.2525H52.6949L56.6409 31.2857H61.2114ZM56.4422 17.3125C56.4422 18.8682 55.3066 19.9714 53.5749 19.9714H49.856V14.6537H53.5749C55.3066 14.6537 56.4422 15.7568 56.4422 17.3125Z" fill="#333333"/>
<rect x="124.285" y="36" width="28.3884" height="28.2857" fill="white"/>
<path d="M146.377 59.5714L141.863 50.8877C143.822 50.1806 145.553 48.4269 145.553 45.5983C145.553 42.2323 143.112 39.432 138.996 39.432H131.075V59.5714H135.021V51.5383H137.86L141.806 59.5714H146.377ZM141.607 45.5983C141.607 47.154 140.472 48.2571 138.74 48.2571H135.021V42.9394H138.74C140.472 42.9394 141.607 44.0426 141.607 45.5983Z" fill="#333333"/>
<rect x="67.5081" y="7.71423" width="28.3884" height="28.2857" fill="white"/>
<path d="M88.7018 21.216C88.7018 17.7368 88.7302 15.2194 86.6862 13.1828C85.2668 11.7686 83.5351 10.9766 81.2357 10.9766C78.9362 10.9766 77.1761 11.7686 75.7567 13.1828C73.7128 15.2194 73.7695 17.7368 73.7695 21.216C73.7695 24.6951 73.7128 27.2126 75.7567 29.2491C77.1761 30.6634 78.9362 31.4554 81.2357 31.4554C83.5351 31.4554 85.2668 30.6634 86.6862 29.2491C88.7302 27.2126 88.7018 24.6951 88.7018 21.216ZM84.7558 21.216C84.7558 25.0911 84.5287 26.0246 83.7622 26.8731C83.1945 27.5237 82.3144 27.948 81.2357 27.948C80.1569 27.948 79.2485 27.5237 78.6807 26.8731C77.9142 26.0246 77.7155 25.0911 77.7155 21.216C77.7155 17.3408 77.9142 16.4074 78.6807 15.5588C79.2485 14.9083 80.1569 14.484 81.2357 14.484C82.3144 14.484 83.1945 14.9083 83.7622 15.5588C84.5287 16.4074 84.7558 17.3408 84.7558 21.216Z" fill="#333333"/>
<rect x="95.8965" y="36" width="28.3884" height="28.2857" fill="white"/>
<path d="M117.09 49.5018C117.09 46.0226 117.119 43.5052 115.075 41.4686C113.655 40.0543 111.924 39.2623 109.624 39.2623C107.325 39.2623 105.565 40.0543 104.145 41.4686C102.101 43.5052 102.158 46.0226 102.158 49.5018C102.158 52.9809 102.101 55.4983 104.145 57.5349C105.565 58.9492 107.325 59.7412 109.624 59.7412C111.924 59.7412 113.655 58.9492 115.075 57.5349C117.119 55.4983 117.09 52.9809 117.09 49.5018ZM113.144 49.5018C113.144 53.3769 112.917 54.3103 112.151 55.1589C111.583 55.8095 110.703 56.2338 109.624 56.2338C108.545 56.2338 107.637 55.8095 107.069 55.1589C106.303 54.3103 106.104 53.3769 106.104 49.5018C106.104 45.6266 106.303 44.6932 107.069 43.8446C107.637 43.194 108.545 42.7698 109.624 42.7698C110.703 42.7698 111.583 43.194 112.151 43.8446C112.917 44.6932 113.144 45.6266 113.144 49.5018Z" fill="#333333"/>
<rect x="67.5081" y="36" width="28.3884" height="28.2857" fill="white"/>
<path d="M93.6533 39.432H89.537L86.3859 52.1323L82.6954 39.432H79.743L76.0525 52.1323L72.9298 39.432H68.8134L74.2072 59.5714H77.5003L81.2192 47.352L84.938 59.5714H88.2311L93.6533 39.432Z" fill="#333333"/>
<rect x="152.673" y="36" width="28.3884" height="28.2857" fill="white"/>
<path d="M174.071 49.4169C174.071 46.3903 174.298 43.6183 172.027 41.3554C170.693 40.026 168.791 39.432 166.69 39.432H159.394V59.5714H166.69C168.791 59.5714 170.693 58.9774 172.027 57.648C174.298 55.3851 174.071 52.4434 174.071 49.4169ZM170.125 49.4169C170.125 52.4717 170.012 53.9143 169.273 54.8194C168.592 55.6397 167.684 56.064 166.321 56.064H163.34V42.9394H166.321C167.684 42.9394 168.592 43.3637 169.273 44.184C170.012 45.0891 170.125 46.362 170.125 49.4169Z" fill="#333333"/>
<rect x="95.8965" y="7.71423" width="28.3884" height="28.2857" fill="white"/>
<path d="M116.646 25.3457C116.646 23.5637 116.164 22.0928 115.085 21.0746C114.233 20.2826 113.069 19.7734 111.224 19.5189L108.839 19.1794C108.016 19.0663 107.363 18.7551 106.966 18.3874C106.54 17.9914 106.37 17.454 106.37 16.9448C106.37 15.5588 107.392 14.3991 109.492 14.3991C110.826 14.3991 112.359 14.5688 113.637 15.7851L116.135 13.3243C114.403 11.6554 112.388 10.9766 109.606 10.9766C105.234 10.9766 102.565 13.494 102.565 17.0863C102.565 18.7834 103.048 20.0846 104.013 21.0463C104.922 21.9231 106.199 22.4606 107.931 22.7151L110.372 23.0546C111.309 23.196 111.763 23.394 112.161 23.7617C112.587 24.1577 112.785 24.7517 112.785 25.4588C112.785 27.0711 111.536 27.948 109.208 27.948C107.335 27.948 105.603 27.5237 104.326 26.2508L101.771 28.7966C103.758 30.8048 106.086 31.4554 109.152 31.4554C113.381 31.4554 116.646 29.2491 116.646 25.3457Z" fill="#333333"/>
<rect x="124.285" y="7.71423" width="28.3884" height="28.2857" fill="white"/>
<path d="M145.034 25.3457C145.034 23.5637 144.552 22.0928 143.473 21.0746C142.621 20.2826 141.458 19.7734 139.612 19.5189L137.228 19.1794C136.404 19.0663 135.751 18.7551 135.354 18.3874C134.928 17.9914 134.758 17.454 134.758 16.9448C134.758 15.5588 135.78 14.3991 137.881 14.3991C139.215 14.3991 140.748 14.5688 142.025 15.7851L144.523 13.3243C142.792 11.6554 140.776 10.9766 137.994 10.9766C133.622 10.9766 130.954 13.494 130.954 17.0863C130.954 18.7834 131.436 20.0846 132.402 21.0463C133.31 21.9231 134.588 22.4606 136.319 22.7151L138.761 23.0546C139.697 23.196 140.152 23.394 140.549 23.7617C140.975 24.1577 141.174 24.7517 141.174 25.4588C141.174 27.0711 139.925 27.948 137.597 27.948C135.723 27.948 133.991 27.5237 132.714 26.2508L130.159 28.7966C132.146 30.8048 134.474 31.4554 137.54 31.4554C141.77 31.4554 145.034 29.2491 145.034 25.3457Z" fill="#333333"/>
<defs>
<filter id="filter0_d" x="0" y="0" width="195.793" height="82" filterUnits="userSpaceOnUse" color-interpolation-filters="sRGB">
<feFlood flood-opacity="0" result="BackgroundImageFix"/>
<feColorMatrix in="SourceAlpha" type="matrix" values="0 0 0 0 0 0 0 0 0 0 0 0 0 0 0 0 0 0 127 0" result="hardAlpha"/>
<feOffset dx="2" dy="5"/>
<feGaussianBlur stdDeviation="4"/>
<feColorMatrix type="matrix" values="0 0 0 0 0 0 0 0 0 0 0 0 0 0 0 0 0 0 0.25 0"/>
<feBlend mode="normal" in2="BackgroundImageFix" result="effect1_dropShadow"/>
<feBlend mode="normal" in="SourceGraphic" in2="effect1_dropShadow" result="shape"/>
</filter>
</defs>
</svg>
