<svg width="271" height="136" viewBox="0 0 271 136" fill="none" xmlns="http://www.w3.org/2000/svg">
<path fill-rule="evenodd" clip-rule="evenodd" d="M156.583 130.304H145.094V108.429H147.769V127.915H156.583V130.304ZM160.351 111.37H157.798V108.429H160.351V111.37ZM160.351 130.304H157.798V113.883H160.351V130.304ZM166.307 130.304H163.754V115.905H161.384V113.883H163.754V111.952C163.754 109.47 164.818 108.184 167.28 108.184H169.134V110.39H167.949C166.855 110.39 166.307 110.819 166.307 111.952V113.883H169.103V115.905H166.307V130.304ZM180.106 121.358V122.4H171.535C171.535 124.943 171.535 128.711 174.665 128.711C177.097 128.711 177.431 126.168 177.431 124.912H179.984C179.984 126.658 178.981 130.733 174.513 130.733C170.501 130.733 168.86 127.976 168.86 122.307C168.86 118.233 169.65 113.454 174.665 113.454C179.65 113.454 180.106 117.804 180.106 121.358ZM171.626 119.765V120.378H177.431V119.489C177.431 117.651 176.884 115.476 174.604 115.476C171.93 115.476 171.626 118.785 171.626 119.765ZM188.22 128.528C191.472 128.528 191.928 125.464 192.019 122.798H194.816C194.572 126.934 192.961 130.733 188.22 130.733C182.051 130.733 181.229 124.881 181.229 119.367C181.229 113.852 182.233 108 188.22 108C192.627 108 194.511 110.512 194.633 114.802H191.837C191.746 112.32 190.986 110.206 188.22 110.206C184.512 110.206 184.025 114.312 184.025 119.367C184.025 124.422 184.512 128.528 188.22 128.528ZM198.311 130.304H195.757V108.429H198.311V115.752H198.372C199.04 114.404 200.833 113.454 202.292 113.454C206.487 113.454 206.487 116.655 206.486 118.62V118.662V130.304H203.933V118.969C203.933 117.712 203.842 115.659 201.532 115.659C200.164 115.659 198.311 116.609 198.311 118.969V130.304ZM213.446 130.733C208.735 130.733 207.58 126.72 207.58 122.093C207.58 117.467 208.735 113.454 213.446 113.454C218.157 113.454 219.312 117.467 219.312 122.093C219.312 126.72 218.126 130.733 213.446 130.733ZM210.254 122.093C210.254 125.648 210.772 128.711 213.385 128.711C216.09 128.711 216.637 125.648 216.637 122.093C216.637 118.539 216.151 115.476 213.385 115.476C210.802 115.476 210.254 118.539 210.254 122.093ZM222.503 111.37H219.95V108.429H222.503V111.37ZM222.503 130.304H219.95V113.883H222.503V130.304ZM229.645 113.454C234.112 113.454 234.842 117.007 234.842 118.877H232.289C232.289 117.283 231.651 115.476 229.706 115.476C228.126 115.476 226.514 116.272 226.514 122.277C226.514 124.392 226.545 128.711 229.614 128.711C231.803 128.711 232.289 126.383 232.289 124.606H234.842C234.842 127.179 233.566 130.733 229.492 130.733C225.481 130.733 223.84 127.976 223.84 122.307C223.84 118.233 224.63 113.454 229.645 113.454ZM246.725 121.358V122.4H238.155C238.155 124.943 238.155 128.711 241.285 128.711C243.716 128.711 244.051 126.168 244.051 124.912H246.604C246.604 126.658 245.601 130.733 241.133 130.733C237.122 130.733 235.48 127.976 235.48 122.307C235.48 118.233 236.27 113.454 241.285 113.454C246.269 113.454 246.725 117.804 246.725 121.358ZM238.246 119.765V120.378H244.051V119.489C244.051 117.651 243.504 115.476 241.224 115.476C238.55 115.476 238.246 118.785 238.246 119.765ZM252.652 113.454C257.393 113.454 257.606 116.762 257.606 118.692H255.053C255.053 116.609 254.505 115.476 252.652 115.476C251.831 115.476 250.008 115.69 250.008 117.988C250.008 119.731 251.592 120.215 253.353 120.753C253.574 120.82 253.797 120.888 254.02 120.96C255.965 121.603 258 122.307 258 125.586C258 129.017 255.783 130.733 252.743 130.733C247.212 130.733 247.151 126.597 247.151 124.912H249.703C249.703 126.903 250.22 128.711 252.743 128.711C253.564 128.711 255.448 128.313 255.448 125.985C255.448 123.935 253.691 123.367 251.882 122.781C251.743 122.736 251.604 122.691 251.466 122.645L251.326 122.597C249.396 121.94 247.454 121.279 247.454 117.988C247.454 114.924 249.825 113.454 252.652 113.454ZM103.608 130.304H98.5014V121.695L93 108.429H98.653L101.085 116.549H101.146L103.638 108.429H109.109L103.608 121.695V130.304ZM119.868 121.971C119.868 126.934 118.774 130.733 113.091 130.733C107.072 130.733 106.312 127.026 106.312 122.063C106.312 117.1 107.407 113.3 113.091 113.3C119.078 113.3 119.868 117.007 119.868 121.971ZM113.121 127.486C114.64 127.486 114.944 126.107 114.944 122.032C114.944 117.927 114.64 116.549 113.121 116.549C111.662 116.549 111.236 117.988 111.236 122.001C111.236 126.045 111.662 127.486 113.121 127.486ZM128.712 113.729H133.636V130.304H128.895V128.344H128.834C128.135 129.814 126.706 130.733 124.883 130.733C122.087 130.733 120.597 129.324 120.597 126.137V113.729H125.521V125.035C125.521 126.23 126.007 126.934 126.949 126.934C127.892 126.934 128.712 126.199 128.712 124.575V113.729ZM139.836 130.304H134.912V113.729H139.654V116.058H139.715C140.353 114.587 141.599 113.3 143.666 113.3H144.03C144.151 113.3 144.302 113.331 144.453 113.361L144.456 113.362V118.019C143.969 117.927 143.574 117.896 143.088 117.896C141.112 117.896 139.836 118.693 139.836 120.899V130.304Z" fill="white"/>
<g filter="url(#filter0_d)">
<rect x="6" y="3" width="255" height="94" rx="5" fill="#333333"/>
</g>
<rect x="12.7106" y="9.71429" width="40.2632" height="40.2857" fill="white"/>
<path d="M43.1606 34.4631H37.4835C36.8796 36.9206 35.3496 38.532 32.652 38.532C31.122 38.532 29.9141 38.0486 29.0685 37.0414C27.9009 35.7926 27.6593 34.5034 27.6593 28.944C27.6593 23.3846 27.9009 22.0954 29.0685 20.8466C29.9141 19.8394 31.122 19.356 32.652 19.356C35.3496 19.356 36.8796 20.9674 37.4835 23.4249H43.1606C42.1943 17.5834 38.1277 14.3606 32.6117 14.3606C29.5517 14.3606 26.9748 15.408 24.8812 17.5029C23.633 18.7517 22.868 20.1617 22.5459 21.8134C22.2238 23.4249 22.0627 25.8017 22.0627 28.944C22.0627 32.0863 22.2238 34.4631 22.5459 36.0746C22.868 37.686 23.633 39.1363 24.8812 40.3851C26.9748 42.48 29.5517 43.5274 32.6117 43.5274C38.0875 43.5274 42.1943 40.3046 43.1606 34.4631Z" fill="#333333"/>
<rect x="12.7106" y="50" width="40.2632" height="40.2857" fill="#333333"/>
<rect x="52.9738" y="50" width="40.2632" height="40.2857" fill="#333333"/>
<rect x="214.026" y="9.71429" width="40.2632" height="40.2857" fill="#333333"/>
<rect x="52.9738" y="9.71429" width="40.2632" height="40.2857" fill="white"/>
<path d="M84.3062 43.2858L77.9044 30.918C80.6825 29.9109 83.1386 27.4132 83.1386 23.3846C83.1386 18.5906 79.6759 14.6023 73.8378 14.6023H62.6044V43.2858H68.2009V31.8446H72.2273L77.8238 43.2858H84.3062ZM77.542 23.3846C77.542 25.6003 75.9315 27.1715 73.4754 27.1715H68.2009V19.5978H73.4754C75.9315 19.5978 77.542 21.1689 77.542 23.3846Z" fill="#333333"/>
<rect x="173.763" y="50" width="40.2632" height="40.2857" fill="white"/>
<path d="M205.096 83.5715L198.694 71.2037C201.472 70.1966 203.928 67.6989 203.928 63.6703C203.928 58.8763 200.465 54.888 194.627 54.888H183.394V83.5715H188.99V72.1303H193.017L198.613 83.5715H205.096ZM198.331 63.6703C198.331 65.886 196.721 67.4572 194.265 67.4572H188.99V59.8835H194.265C196.721 59.8835 198.331 61.4546 198.331 63.6703Z" fill="#333333"/>
<rect x="93.2369" y="9.71429" width="40.2632" height="40.2857" fill="white"/>
<path d="M123.296 28.944C123.296 23.9889 123.336 20.4034 120.437 17.5029C118.424 15.4886 115.968 14.3606 112.707 14.3606C109.445 14.3606 106.949 15.4886 104.936 17.5029C102.037 20.4034 102.117 23.9889 102.117 28.944C102.117 33.8991 102.037 37.4846 104.936 40.3851C106.949 42.3994 109.445 43.5274 112.707 43.5274C115.968 43.5274 118.424 42.3994 120.437 40.3851C123.336 37.4846 123.296 33.8991 123.296 28.944ZM117.699 28.944C117.699 34.4631 117.377 35.7926 116.29 37.0011C115.485 37.9277 114.237 38.532 112.707 38.532C111.177 38.532 109.888 37.9277 109.083 37.0011C107.996 35.7926 107.714 34.4631 107.714 28.944C107.714 23.4249 107.996 22.0954 109.083 20.8869C109.888 19.9603 111.177 19.356 112.707 19.356C114.237 19.356 115.485 19.9603 116.29 20.8869C117.377 22.0954 117.699 23.4249 117.699 28.944Z" fill="#333333"/>
<rect x="133.5" y="50" width="40.2632" height="40.2857" fill="white"/>
<path d="M163.559 69.2297C163.559 64.2746 163.599 60.6891 160.7 57.7886C158.687 55.7743 156.231 54.6463 152.97 54.6463C149.708 54.6463 147.212 55.7743 145.199 57.7886C142.3 60.6891 142.38 64.2746 142.38 69.2297C142.38 74.1848 142.3 77.7703 145.199 80.6708C147.212 82.6851 149.708 83.8131 152.97 83.8131C156.231 83.8131 158.687 82.6851 160.7 80.6708C163.599 77.7703 163.559 74.1848 163.559 69.2297ZM157.962 69.2297C157.962 74.7488 157.64 76.0783 156.553 77.2868C155.748 78.2134 154.5 78.8177 152.97 78.8177C151.44 78.8177 150.151 78.2134 149.346 77.2868C148.259 76.0783 147.977 74.7488 147.977 69.2297C147.977 63.7106 148.259 62.3811 149.346 61.1726C150.151 60.246 151.44 59.6417 152.97 59.6417C154.5 59.6417 155.748 60.246 156.553 61.1726C157.64 62.3811 157.962 63.7106 157.962 69.2297Z" fill="#333333"/>
<rect x="93.2369" y="50" width="40.2632" height="40.2857" fill="white"/>
<path d="M130.319 54.888H124.48L120.011 72.9763L114.777 54.888H110.59L105.355 72.9763L100.926 54.888H95.0883L102.738 83.5715H107.409L112.683 66.168L117.958 83.5715H122.628L130.319 54.888Z" fill="#333333"/>
<rect x="214.026" y="50" width="40.2632" height="40.2857" fill="white"/>
<path d="M244.375 69.1089C244.375 64.7983 244.697 60.8503 241.476 57.6275C239.583 55.734 236.886 54.888 233.906 54.888H223.559V83.5715H233.906C236.886 83.5715 239.583 82.7255 241.476 80.832C244.697 77.6092 244.375 73.4195 244.375 69.1089ZM238.778 69.1089C238.778 73.4597 238.617 75.5143 237.57 76.8035C236.604 77.9717 235.316 78.576 233.383 78.576H229.155V59.8835H233.383C235.316 59.8835 236.604 60.4877 237.57 61.656C238.617 62.9452 238.778 64.758 238.778 69.1089Z" fill="#333333"/>
<rect x="133.5" y="9.71429" width="40.2632" height="40.2857" fill="white"/>
<path d="M162.929 34.8257C162.929 32.2877 162.245 30.1929 160.715 28.7426C159.507 27.6146 157.856 26.8894 155.239 26.5269L151.857 26.0434C150.689 25.8823 149.763 25.4391 149.199 24.9154C148.595 24.3514 148.354 23.586 148.354 22.8609C148.354 20.8869 149.803 19.2351 152.783 19.2351C154.675 19.2351 156.849 19.4769 158.661 21.2091L162.204 17.7043C159.748 15.3274 156.89 14.3606 152.944 14.3606C146.743 14.3606 142.959 17.946 142.959 23.0623C142.959 25.4794 143.643 27.3326 145.012 28.7023C146.3 29.9511 148.112 30.7166 150.568 31.0791L154.031 31.5626C155.36 31.764 156.004 32.046 156.567 32.5697C157.171 33.1337 157.453 33.9797 157.453 34.9869C157.453 37.2831 155.682 38.532 152.38 38.532C149.723 38.532 147.267 37.9277 145.455 36.1149L141.831 39.7406C144.65 42.6009 147.951 43.5274 152.3 43.5274C158.299 43.5274 162.929 40.3851 162.929 34.8257Z" fill="#333333"/>
<rect x="173.763" y="9.71429" width="40.2632" height="40.2857" fill="white"/>
<path d="M203.192 34.8257C203.192 32.2877 202.508 30.1929 200.978 28.7426C199.77 27.6146 198.119 26.8894 195.502 26.5269L192.12 26.0434C190.952 25.8823 190.026 25.4391 189.463 24.9154C188.859 24.3514 188.617 23.586 188.617 22.8609C188.617 20.8869 190.066 19.2351 193.046 19.2351C194.938 19.2351 197.113 19.4769 198.924 21.2091L202.468 17.7043C200.011 15.3274 197.153 14.3606 193.207 14.3606C187.006 14.3606 183.222 17.946 183.222 23.0623C183.222 25.4794 183.906 27.3326 185.275 28.7023C186.564 29.9511 188.375 30.7166 190.831 31.0791L194.294 31.5626C195.623 31.764 196.267 32.046 196.831 32.5697C197.435 33.1337 197.716 33.9797 197.716 34.9869C197.716 37.2831 195.945 38.532 192.643 38.532C189.986 38.532 187.53 37.9277 185.718 36.1149L182.094 39.7406C184.913 42.6009 188.214 43.5274 192.563 43.5274C198.562 43.5274 203.192 40.3851 203.192 34.8257Z" fill="#333333"/>
<defs>
<filter id="filter0_d" x="0" y="0" width="271" height="110" filterUnits="userSpaceOnUse" color-interpolation-filters="sRGB">
<feFlood flood-opacity="0" result="BackgroundImageFix"/>
<feColorMatrix in="SourceAlpha" type="matrix" values="0 0 0 0 0 0 0 0 0 0 0 0 0 0 0 0 0 0 127 0"/>
<feOffset dx="2" dy="5"/>
<feGaussianBlur stdDeviation="4"/>
<feColorMatrix type="matrix" values="0 0 0 0 0 0 0 0 0 0 0 0 0 0 0 0 0 0 0.25 0"/>
<feBlend mode="normal" in2="BackgroundImageFix" result="effect1_dropShadow"/>
<feBlend mode="normal" in="SourceGraphic" in2="effect1_dropShadow" result="shape"/>
</filter>
</defs>
</svg>
