<svg width="19" height="26" viewBox="0 0 19 26" fill="none" xmlns="http://www.w3.org/2000/svg">
<path d="M9.5952 6.11904C9.43733 6.11904 9.28593 6.18176 9.1743 6.29339C9.06267 6.40501 8.99996 6.55642 8.99996 6.71428C8.99996 6.87215 9.06267 7.02355 9.1743 7.13518C9.28593 7.24681 9.43733 7.30952 9.5952 7.30952C10.8845 7.30952 11.9333 8.35833 11.9333 9.64761C11.9333 9.80548 11.996 9.95688 12.1076 10.0685C12.2193 10.1801 12.3707 10.2429 12.5285 10.2429C12.6864 10.2429 12.8378 10.1801 12.9494 10.0685C13.0611 9.95688 13.1238 9.80548 13.1238 9.64761C13.1225 8.71217 12.7503 7.81539 12.0889 7.15393C11.4274 6.49247 10.5306 6.1203 9.5952 6.11904ZM9.5952 0.761902C4.67139 0.761902 0.666626 4.76666 0.666626 9.69047C0.666626 11.4595 1.19044 13.169 2.18329 14.6488L2.27853 14.8095C4.45115 17.9119 4.83329 18.8929 4.83329 19.8095V23.3809C4.83329 23.6967 4.95872 23.9995 5.18197 24.2227C5.40523 24.446 5.70803 24.5714 6.02377 24.5714H8.40472C8.40472 24.8809 8.53567 25.1905 8.74996 25.4167C8.97615 25.6309 9.28567 25.7619 9.5952 25.7619C9.90472 25.7619 10.2142 25.6309 10.4404 25.4167C10.6547 25.1905 10.7857 24.8809 10.7857 24.5714H13.1666C13.4824 24.5714 13.7852 24.446 14.0084 24.2227C14.2317 23.9995 14.3571 23.6967 14.3571 23.3809V19.8095C14.3571 18.8786 14.7369 17.8929 16.8952 14.8107C17.9542 13.3133 18.5232 11.5245 18.5238 9.69047C18.5238 4.76666 14.519 0.761902 9.5952 0.761902ZM11.9761 22.1905H7.21424V21H11.9761V22.1905ZM14.9464 13.444C13.2011 15.9357 12.3952 17.3595 12.1071 18.619H10.7857V16.2381C10.7857 15.9224 10.6602 15.6196 10.437 15.3963C10.2137 15.173 9.91093 15.0476 9.5952 15.0476C9.27946 15.0476 8.97666 15.173 8.7534 15.3963C8.53014 15.6196 8.40472 15.9224 8.40472 16.2381V18.619H7.07972C6.79401 17.3929 6.01067 16 4.33448 13.5952L4.24282 13.4417C3.46577 12.3451 3.04816 11.0344 3.04758 9.69047C3.04758 6.07976 5.98448 3.14285 9.5952 3.14285C13.2059 3.14285 16.1428 6.07976 16.1428 9.69047C16.1417 11.0353 15.7237 12.3466 14.9464 13.444Z" fill="white"/>
</svg>
