<svg width="465" height="181" viewBox="0 0 465 181" fill="none" xmlns="http://www.w3.org/2000/svg">
<g filter="url(#filter0_d)">
<rect x="6" y="3" width="449" height="165" rx="5" fill="#333333"/>
</g>
<rect x="17.8158" y="14.7856" width="70.8947" height="70.7143" fill="white"/>
<path d="M71.4317 58.2278H61.4356C60.3722 62.5414 57.6782 65.37 52.9282 65.37C50.2342 65.37 48.1074 64.5214 46.6186 62.7536C44.5626 60.5614 44.1373 58.2985 44.1373 48.54C44.1373 38.7814 44.5626 36.5186 46.6186 34.3264C48.1074 32.5586 50.2342 31.71 52.9282 31.71C57.6782 31.71 60.3722 34.5386 61.4356 38.8521H71.4317C69.7303 28.5986 62.5699 22.9414 52.8573 22.9414C47.4693 22.9414 42.9321 24.78 39.2455 28.4571C37.0478 30.6493 35.7008 33.1243 35.1336 36.0235C34.5665 38.8521 34.2829 43.0243 34.2829 48.54C34.2829 54.0557 34.5665 58.2278 35.1336 61.0564C35.7008 63.885 37.0478 66.4307 39.2455 68.6228C42.9321 72.3 47.4693 74.1385 52.8573 74.1385C62.499 74.1385 69.7303 68.4814 71.4317 58.2278Z" fill="#333333"/>
<rect x="17.8158" y="85.5" width="70.8947" height="70.7143" fill="#333333"/>
<rect x="88.7105" y="85.5" width="70.8947" height="70.7143" fill="#333333"/>
<rect x="372.289" y="14.7856" width="70.8947" height="70.7143" fill="#333333"/>
<rect x="88.7105" y="14.7856" width="70.8947" height="70.7143" fill="white"/>
<path d="M143.88 73.7143L132.608 52.005C137.5 50.2371 141.824 45.8529 141.824 38.7814C141.824 30.3664 135.727 23.3657 125.448 23.3657H105.668V73.7143H115.522V53.6314H122.612L132.466 73.7143H143.88ZM131.97 38.7814C131.97 42.6707 129.134 45.4286 124.81 45.4286H115.522V32.1343H124.81C129.134 32.1343 131.97 34.8922 131.97 38.7814Z" fill="#333333"/>
<rect x="301.395" y="85.5" width="70.8947" height="70.7143" fill="white"/>
<path d="M356.565 144.429L345.292 122.719C350.184 120.952 354.509 116.567 354.509 109.496C354.509 101.081 348.412 94.0801 338.132 94.0801H318.352V144.429H328.207V124.346H335.296L345.15 144.429H356.565ZM344.654 109.496C344.654 113.385 341.818 116.143 337.494 116.143H328.207V102.849H337.494C341.818 102.849 344.654 105.607 344.654 109.496Z" fill="#333333"/>
<rect x="159.605" y="14.7856" width="70.8947" height="70.7143" fill="white"/>
<path d="M212.533 48.54C212.533 39.8421 212.603 33.5486 207.499 28.4571C203.954 24.9214 199.63 22.9414 193.887 22.9414C188.145 22.9414 183.749 24.9214 180.205 28.4571C175.1 33.5486 175.242 39.8421 175.242 48.54C175.242 57.2378 175.1 63.5314 180.205 68.6228C183.749 72.1585 188.145 74.1385 193.887 74.1385C199.63 74.1385 203.954 72.1585 207.499 68.6228C212.603 63.5314 212.533 57.2378 212.533 48.54ZM202.678 48.54C202.678 58.2278 202.111 60.5614 200.197 62.6828C198.779 64.3093 196.581 65.37 193.887 65.37C191.193 65.37 188.925 64.3093 187.507 62.6828C185.593 60.5614 185.096 58.2278 185.096 48.54C185.096 38.8521 185.593 36.5186 187.507 34.3971C188.925 32.7707 191.193 31.71 193.887 31.71C196.581 31.71 198.779 32.7707 200.197 34.3971C202.111 36.5186 202.678 38.8521 202.678 48.54Z" fill="#333333"/>
<rect x="230.5" y="85.5" width="70.8947" height="70.7143" fill="white"/>
<path d="M283.427 119.254C283.427 110.556 283.498 104.263 278.394 99.1715C274.849 95.6358 270.525 93.6558 264.782 93.6558C259.04 93.6558 254.644 95.6358 251.099 99.1715C245.995 104.263 246.137 110.556 246.137 119.254C246.137 127.952 245.995 134.246 251.099 139.337C254.644 142.873 259.04 144.853 264.782 144.853C270.525 144.853 274.849 142.873 278.394 139.337C283.498 134.246 283.427 127.952 283.427 119.254ZM273.573 119.254C273.573 128.942 273.006 131.276 271.092 133.397C269.674 135.024 267.476 136.084 264.782 136.084C262.088 136.084 259.819 135.024 258.402 133.397C256.487 131.276 255.991 128.942 255.991 119.254C255.991 109.566 256.487 107.233 258.402 105.111C259.819 103.485 262.088 102.424 264.782 102.424C267.476 102.424 269.674 103.485 271.092 105.111C273.006 107.233 273.573 109.566 273.573 119.254Z" fill="#333333"/>
<rect x="159.605" y="85.5" width="70.8947" height="70.7143" fill="white"/>
<path d="M224.898 94.0801H214.618L206.749 125.831L197.533 94.0801H190.159L180.943 125.831L173.145 94.0801H162.865L176.335 144.429H184.559L193.846 113.88L203.133 144.429H211.357L224.898 94.0801Z" fill="#333333"/>
<rect x="372.289" y="85.5" width="70.8947" height="70.7143" fill="white"/>
<path d="M425.726 119.042C425.726 111.476 426.294 104.546 420.622 98.8886C417.29 95.5651 412.54 94.0801 407.294 94.0801H389.074V144.429H407.294C412.54 144.429 417.29 142.944 420.622 139.62C426.294 133.963 425.726 126.609 425.726 119.042ZM415.872 119.042C415.872 126.679 415.589 130.286 413.745 132.549C412.044 134.599 409.775 135.66 406.372 135.66H398.928V102.849H406.372C409.775 102.849 412.044 103.909 413.745 105.96C415.589 108.223 415.872 111.405 415.872 119.042Z" fill="#333333"/>
<rect x="230.5" y="14.7856" width="70.8947" height="70.7143" fill="white"/>
<path d="M282.318 58.8643C282.318 54.4093 281.113 50.7321 278.419 48.1864C276.292 46.2064 273.385 44.9336 268.777 44.2971L262.822 43.4486C260.766 43.1657 259.136 42.3878 258.143 41.4686C257.08 40.4786 256.654 39.135 256.654 37.8621C256.654 34.3971 259.207 31.4978 264.453 31.4978C267.785 31.4978 271.613 31.9221 274.803 34.9628L281.042 28.8107C276.718 24.6386 271.684 22.9414 264.736 22.9414C253.819 22.9414 247.154 29.235 247.154 38.2157C247.154 42.4585 248.36 45.7114 250.77 48.1157C253.039 50.3078 256.229 51.6514 260.554 52.2878L266.65 53.1364C268.99 53.49 270.124 53.985 271.117 54.9043C272.18 55.8943 272.677 57.3793 272.677 59.1471C272.677 63.1778 269.557 65.37 263.744 65.37C259.065 65.37 254.74 64.3093 251.55 61.1271L245.169 67.4914C250.132 72.5121 255.945 74.1385 263.602 74.1385C274.165 74.1385 282.318 68.6228 282.318 58.8643Z" fill="#333333"/>
<rect x="301.395" y="14.7856" width="70.8947" height="70.7143" fill="white"/>
<path d="M353.213 58.8643C353.213 54.4093 352.008 50.7321 349.314 48.1864C347.187 46.2064 344.28 44.9336 339.672 44.2971L333.717 43.4486C331.661 43.1657 330.03 42.3878 329.038 41.4686C327.974 40.4786 327.549 39.135 327.549 37.8621C327.549 34.3971 330.101 31.4978 335.347 31.4978C338.68 31.4978 342.508 31.9221 345.698 34.9628L351.937 28.8107C347.612 24.6386 342.579 22.9414 335.631 22.9414C324.713 22.9414 318.049 29.235 318.049 38.2157C318.049 42.4585 319.254 45.7114 321.665 48.1157C323.933 50.3078 327.124 51.6514 331.448 52.2878L337.545 53.1364C339.885 53.49 341.019 53.985 342.012 54.9043C343.075 55.8943 343.571 57.3793 343.571 59.1471C343.571 63.1778 340.452 65.37 334.639 65.37C329.959 65.37 325.635 64.3093 322.445 61.1271L316.064 67.4914C321.027 72.5121 326.84 74.1385 334.497 74.1385C345.06 74.1385 353.213 68.6228 353.213 58.8643Z" fill="#333333"/>
<defs>
<filter id="filter0_d" x="0" y="0" width="465" height="181" filterUnits="userSpaceOnUse" color-interpolation-filters="sRGB">
<feFlood flood-opacity="0" result="BackgroundImageFix"/>
<feColorMatrix in="SourceAlpha" type="matrix" values="0 0 0 0 0 0 0 0 0 0 0 0 0 0 0 0 0 0 127 0" result="hardAlpha"/>
<feOffset dx="2" dy="5"/>
<feGaussianBlur stdDeviation="4"/>
<feColorMatrix type="matrix" values="0 0 0 0 0 0 0 0 0 0 0 0 0 0 0 0 0 0 0.25 0"/>
<feBlend mode="normal" in2="BackgroundImageFix" result="effect1_dropShadow"/>
<feBlend mode="normal" in="SourceGraphic" in2="effect1_dropShadow" result="shape"/>
</filter>
</defs>
</svg>
