<svg width="391" height="82" viewBox="0 0 391 82" fill="none" xmlns="http://www.w3.org/2000/svg">
<path fill-rule="evenodd" clip-rule="evenodd" d="M271.801 48.8633H258.728V23.9708H261.772V46.1441H271.801V48.8633ZM276.089 27.3178H273.183V23.9708H276.089V27.3178ZM276.089 48.8633H273.183V30.1767H276.089V48.8633ZM282.867 48.8633H279.962V32.4776H277.264V30.1767H279.962V27.9797C279.962 25.1558 281.173 23.6922 283.973 23.6922H286.083V26.2019H284.735C283.49 26.2019 282.867 26.69 282.867 27.9797V30.1767H286.049V32.4776H282.867V48.8633ZM298.568 38.6834V39.8692H288.815C288.815 42.7622 288.815 47.0505 292.377 47.0505C295.145 47.0505 295.525 44.1567 295.525 42.7273H298.43C298.43 44.7147 297.289 49.3514 292.204 49.3514C287.639 49.3514 285.772 46.214 285.772 39.7636C285.772 35.1269 286.671 29.6886 292.377 29.6886C298.05 29.6886 298.568 34.6388 298.568 38.6834ZM288.919 36.8707V37.5675H295.525V36.5563C295.525 34.465 294.903 31.9895 292.308 31.9895C289.265 31.9895 288.919 35.7547 288.919 36.8707ZM307.803 46.8418C311.503 46.8418 312.021 43.3551 312.125 40.3216H315.308C315.03 45.0282 313.197 49.3514 307.803 49.3514C300.782 49.3514 299.847 42.6924 299.847 36.4175C299.847 30.1418 300.989 23.4827 307.803 23.4827C312.817 23.4827 314.961 26.3416 315.1 31.2228H311.918C311.814 28.3988 310.95 25.9931 307.803 25.9931C303.583 25.9931 303.029 30.6648 303.029 36.4175C303.029 42.1701 303.583 46.8418 307.803 46.8418ZM319.284 48.8633H316.379V23.9708H319.284V32.3038H319.354C320.114 30.7696 322.155 29.6886 323.815 29.6886C328.589 29.6886 328.588 33.3319 328.588 35.5675V35.615V48.8633H325.683V35.9643C325.683 34.5348 325.579 32.1982 322.95 32.1982C321.394 32.1982 319.284 33.2792 319.284 35.9643V48.8633ZM336.508 49.3514C331.147 49.3514 329.833 44.7845 329.833 39.52C329.833 34.2554 331.147 29.6886 336.508 29.6886C341.868 29.6886 343.183 34.2554 343.183 39.52C343.183 44.7845 341.833 49.3514 336.508 49.3514ZM332.876 39.52C332.876 43.5646 333.465 47.0505 336.438 47.0505C339.516 47.0505 340.139 43.5646 340.139 39.52C340.139 35.4753 339.586 31.9895 336.438 31.9895C333.499 31.9895 332.876 35.4753 332.876 39.52ZM346.813 27.3178H343.908V23.9708H346.813V27.3178ZM346.813 48.8633H343.908V30.1767H346.813V48.8633ZM354.941 29.6886C360.024 29.6886 360.854 33.7324 360.854 35.8595H357.949C357.949 34.0459 357.223 31.9895 355.01 31.9895C353.212 31.9895 351.379 32.8958 351.379 39.7287C351.379 42.1352 351.413 47.0505 354.906 47.0505C357.396 47.0505 357.949 44.4012 357.949 42.3789H360.854C360.854 45.3076 359.402 49.3514 354.767 49.3514C350.202 49.3514 348.335 46.214 348.335 39.7636C348.335 35.1269 349.234 29.6886 354.941 29.6886ZM374.377 38.6834V39.8692H364.624C364.624 42.7622 364.624 47.0505 368.186 47.0505C370.953 47.0505 371.334 44.1567 371.334 42.7273H374.239C374.239 44.7147 373.098 49.3514 368.014 49.3514C363.449 49.3514 361.58 46.214 361.58 39.7636C361.58 35.1269 362.479 29.6886 368.186 29.6886C373.858 29.6886 374.377 34.6388 374.377 38.6834ZM364.728 36.8707V37.5675H371.334V36.5563C371.334 34.465 370.711 31.9895 368.117 31.9895C365.074 31.9895 364.728 35.7547 364.728 36.8707ZM381.121 29.6886C386.516 29.6886 386.758 33.4538 386.758 35.6499H383.853C383.853 33.2792 383.23 31.9895 381.121 31.9895C380.187 31.9895 378.112 32.2331 378.112 34.8483C378.112 36.8314 379.915 37.3823 381.919 37.9947C382.17 38.0713 382.424 38.1488 382.677 38.2302C384.891 38.962 387.207 39.7636 387.207 43.4948C387.207 47.3989 384.684 49.3514 381.225 49.3514C374.931 49.3514 374.861 44.6448 374.861 42.7273H377.766C377.766 44.9933 378.354 47.0505 381.225 47.0505C382.159 47.0505 384.303 46.5973 384.303 43.948C384.303 41.6161 382.304 40.9688 380.244 40.302C380.087 40.251 379.929 40.1998 379.771 40.1478L379.612 40.0936C377.416 39.3456 375.206 38.593 375.206 34.8483C375.206 31.3616 377.904 29.6886 381.121 29.6886ZM211.519 48.8634H205.708V39.0669L199.448 23.971H205.881L208.649 33.2103H208.718L211.553 23.971H217.779L211.519 39.0669V48.8634ZM230.022 39.3804C230.022 45.0283 228.777 49.3515 222.31 49.3515C215.461 49.3515 214.597 45.1331 214.597 39.4852C214.597 33.8373 215.843 29.5141 222.31 29.5141C229.123 29.5141 230.022 33.7325 230.022 39.3804ZM222.345 45.6561C224.074 45.6561 224.419 44.087 224.419 39.4503C224.419 34.7786 224.074 33.2103 222.345 33.2103C220.684 33.2103 220.2 34.8485 220.2 39.4153C220.2 44.0171 220.684 45.6561 222.345 45.6561ZM240.086 30.0022H245.689V48.8634H240.294V46.6324H240.224C239.429 48.3055 237.803 49.3515 235.729 49.3515C232.547 49.3515 230.852 47.7475 230.852 44.1219V30.0022H236.455V42.8671C236.455 44.2267 237.008 45.0283 238.08 45.0283C239.153 45.0283 240.086 44.1918 240.086 42.3441V30.0022ZM252.744 48.8634H247.141V30.0022H252.537V32.6523H252.606C253.332 30.9784 254.75 29.5141 257.102 29.5141H257.516C257.655 29.5141 257.826 29.5486 257.998 29.5833L258.001 29.5839V34.8834C257.448 34.7786 256.998 34.7437 256.445 34.7437C254.197 34.7437 252.744 35.6501 252.744 38.1605V48.8634Z" fill="white"/>
<g filter="url(#filter0_d)">
<rect x="6" y="3" width="179.793" height="66" rx="5" fill="#333333"/>
</g>
<rect x="10.7314" y="7.71429" width="28.3884" height="28.2857" fill="white"/>
<path d="M32.201 25.0911H28.1982C27.7724 26.8166 26.6936 27.948 24.7916 27.948C23.7128 27.948 22.8612 27.6086 22.265 26.9014C21.4418 26.0246 21.2714 25.1194 21.2714 21.216C21.2714 17.3126 21.4418 16.4074 22.265 15.5306C22.8612 14.8234 23.7128 14.484 24.7916 14.484C26.6936 14.484 27.7724 15.6154 28.1982 17.3408H32.201C31.5196 13.2394 28.6524 10.9766 24.7632 10.9766C22.6057 10.9766 20.7888 11.712 19.3126 13.1828C18.4326 14.0597 17.8932 15.0497 17.6661 16.2094C17.439 17.3408 17.3254 19.0097 17.3254 21.216C17.3254 23.4223 17.439 25.0911 17.6661 26.2226C17.8932 27.354 18.4326 28.3723 19.3126 29.2491C20.7888 30.72 22.6057 31.4554 24.7632 31.4554C28.624 31.4554 31.5196 29.1926 32.201 25.0911Z" fill="#333333"/>
<rect x="10.7314" y="36" width="28.3884" height="28.2857" fill="#333333"/>
<rect x="39.1199" y="36" width="28.3884" height="28.2857" fill="#333333"/>
<rect x="152.673" y="7.71429" width="28.3884" height="28.2857" fill="#333333"/>
<rect x="39.1199" y="7.71429" width="28.3884" height="28.2857" fill="white"/>
<path d="M61.2115 31.2857L56.6977 22.602C58.6565 21.8949 60.3882 20.1412 60.3882 17.3126C60.3882 13.9466 57.9468 11.1463 53.8305 11.1463H45.9102V31.2857H49.8561V23.2526H52.695L56.641 31.2857H61.2115ZM56.4422 17.3126C56.4422 18.8683 55.3067 19.9714 53.575 19.9714H49.8561V14.6537H53.575C55.3067 14.6537 56.4422 15.7569 56.4422 17.3126Z" fill="#333333"/>
<rect x="124.285" y="36" width="28.3884" height="28.2857" fill="white"/>
<path d="M146.377 59.5714L141.863 50.8877C143.822 50.1806 145.553 48.4269 145.553 45.5983C145.553 42.2323 143.112 39.432 138.996 39.432H131.075V59.5714H135.021V51.5383H137.86L141.806 59.5714H146.377ZM141.607 45.5983C141.607 47.154 140.472 48.2571 138.74 48.2571H135.021V42.9394H138.74C140.472 42.9394 141.607 44.0426 141.607 45.5983Z" fill="#333333"/>
<rect x="67.5083" y="7.71429" width="28.3884" height="28.2857" fill="white"/>
<path d="M88.702 21.216C88.702 17.7368 88.7304 15.2194 86.6864 13.1828C85.267 11.7686 83.5353 10.9766 81.2358 10.9766C78.9364 10.9766 77.1763 11.7686 75.7569 13.1828C73.7129 15.2194 73.7697 17.7368 73.7697 21.216C73.7697 24.6951 73.7129 27.2126 75.7569 29.2491C77.1763 30.6634 78.9364 31.4554 81.2358 31.4554C83.5353 31.4554 85.267 30.6634 86.6864 29.2491C88.7304 27.2126 88.702 24.6951 88.702 21.216ZM84.756 21.216C84.756 25.0911 84.5289 26.0246 83.7624 26.8731C83.1946 27.5237 82.3146 27.948 81.2358 27.948C80.1571 27.948 79.2486 27.5237 78.6809 26.8731C77.9144 26.0246 77.7157 25.0911 77.7157 21.216C77.7157 17.3408 77.9144 16.4074 78.6809 15.5588C79.2486 14.9083 80.1571 14.484 81.2358 14.484C82.3146 14.484 83.1946 14.9083 83.7624 15.5588C84.5289 16.4074 84.756 17.3408 84.756 21.216Z" fill="#333333"/>
<rect x="95.8965" y="36" width="28.3884" height="28.2857" fill="white"/>
<path d="M117.09 49.5017C117.09 46.0226 117.119 43.5051 115.075 41.4686C113.655 40.0543 111.923 39.2623 109.624 39.2623C107.325 39.2623 105.564 40.0543 104.145 41.4686C102.101 43.5051 102.158 46.0226 102.158 49.5017C102.158 52.9808 102.101 55.4983 104.145 57.5348C105.564 58.9491 107.325 59.7411 109.624 59.7411C111.923 59.7411 113.655 58.9491 115.075 57.5348C117.119 55.4983 117.09 52.9808 117.09 49.5017ZM113.144 49.5017C113.144 53.3768 112.917 54.3103 112.151 55.1588C111.583 55.8094 110.703 56.2337 109.624 56.2337C108.545 56.2337 107.637 55.8094 107.069 55.1588C106.303 54.3103 106.104 53.3768 106.104 49.5017C106.104 45.6266 106.303 44.6931 107.069 43.8446C107.637 43.194 108.545 42.7697 109.624 42.7697C110.703 42.7697 111.583 43.194 112.151 43.8446C112.917 44.6931 113.144 45.6266 113.144 49.5017Z" fill="#333333"/>
<rect x="67.5083" y="36" width="28.3884" height="28.2857" fill="white"/>
<path d="M93.6533 39.432H89.537L86.3859 52.1323L82.6954 39.432H79.743L76.0525 52.1323L72.9298 39.432H68.8135L74.2073 59.5714H77.5003L81.2192 47.352L84.9381 59.5714H88.2311L93.6533 39.432Z" fill="#333333"/>
<rect x="152.673" y="36" width="28.3884" height="28.2857" fill="white"/>
<path d="M174.071 49.4169C174.071 46.3903 174.298 43.6183 172.027 41.3554C170.693 40.026 168.791 39.432 166.69 39.432H159.394V59.5714H166.69C168.791 59.5714 170.693 58.9774 172.027 57.648C174.298 55.3851 174.071 52.4434 174.071 49.4169ZM170.125 49.4169C170.125 52.4717 170.012 53.9143 169.273 54.8194C168.592 55.6397 167.684 56.064 166.321 56.064H163.34V42.9394H166.321C167.684 42.9394 168.592 43.3637 169.273 44.184C170.012 45.0891 170.125 46.362 170.125 49.4169Z" fill="#333333"/>
<rect x="95.8965" y="7.71429" width="28.3884" height="28.2857" fill="white"/>
<path d="M116.646 25.3457C116.646 23.5637 116.163 22.0928 115.085 21.0746C114.233 20.2826 113.069 19.7734 111.224 19.5189L108.839 19.1794C108.016 19.0663 107.363 18.7551 106.966 18.3874C106.54 17.9914 106.369 17.454 106.369 16.9448C106.369 15.5588 107.391 14.3991 109.492 14.3991C110.826 14.3991 112.359 14.5688 113.637 15.7851L116.135 13.3243C114.403 11.6554 112.388 10.9766 109.606 10.9766C105.234 10.9766 102.565 13.494 102.565 17.0863C102.565 18.7834 103.048 20.0846 104.013 21.0463C104.922 21.9231 106.199 22.4606 107.931 22.7151L110.372 23.0546C111.309 23.196 111.763 23.394 112.161 23.7617C112.586 24.1577 112.785 24.7517 112.785 25.4588C112.785 27.0711 111.536 27.948 109.208 27.948C107.335 27.948 105.603 27.5237 104.325 26.2508L101.771 28.7966C103.758 30.8048 106.086 31.4554 109.151 31.4554C113.381 31.4554 116.646 29.2491 116.646 25.3457Z" fill="#333333"/>
<rect x="124.285" y="7.71429" width="28.3884" height="28.2857" fill="white"/>
<path d="M145.034 25.3457C145.034 23.5637 144.552 22.0928 143.473 21.0746C142.621 20.2826 141.458 19.7734 139.612 19.5189L137.228 19.1794C136.404 19.0663 135.751 18.7551 135.354 18.3874C134.928 17.9914 134.758 17.454 134.758 16.9448C134.758 15.5588 135.78 14.3991 137.881 14.3991C139.215 14.3991 140.748 14.5688 142.025 15.7851L144.523 13.3243C142.792 11.6554 140.776 10.9766 137.994 10.9766C133.622 10.9766 130.954 13.494 130.954 17.0863C130.954 18.7834 131.436 20.0846 132.402 21.0463C133.31 21.9231 134.588 22.4606 136.319 22.7151L138.761 23.0546C139.697 23.196 140.152 23.394 140.549 23.7617C140.975 24.1577 141.174 24.7517 141.174 25.4588C141.174 27.0711 139.925 27.948 137.597 27.948C135.723 27.948 133.991 27.5237 132.714 26.2508L130.159 28.7966C132.146 30.8048 134.474 31.4554 137.54 31.4554C141.77 31.4554 145.034 29.2491 145.034 25.3457Z" fill="#333333"/>
<defs>
<filter id="filter0_d" x="0" y="0" width="195.793" height="82" filterUnits="userSpaceOnUse" color-interpolation-filters="sRGB">
<feFlood flood-opacity="0" result="BackgroundImageFix"/>
<feColorMatrix in="SourceAlpha" type="matrix" values="0 0 0 0 0 0 0 0 0 0 0 0 0 0 0 0 0 0 127 0"/>
<feOffset dx="2" dy="5"/>
<feGaussianBlur stdDeviation="4"/>
<feColorMatrix type="matrix" values="0 0 0 0 0 0 0 0 0 0 0 0 0 0 0 0 0 0 0.25 0"/>
<feBlend mode="normal" in2="BackgroundImageFix" result="effect1_dropShadow"/>
<feBlend mode="normal" in="SourceGraphic" in2="effect1_dropShadow" result="shape"/>
</filter>
</defs>
</svg>
