<svg width="30" height="30" viewBox="0 0 30 30" fill="none" xmlns="http://www.w3.org/2000/svg">
<path d="M27.6984 12.4762H25.0301C24.7766 11.4064 24.3527 10.3843 23.7745 9.4492L25.6626 7.56111C25.8101 7.41371 25.9271 7.23869 26.0069 7.04607C26.0867 6.85345 26.1278 6.64699 26.1278 6.43849C26.1278 6.22999 26.0867 6.02353 26.0069 5.83091C25.9271 5.63828 25.8101 5.46327 25.6626 5.31587L24.5404 4.19365C24.2428 3.89608 23.8391 3.72891 23.4182 3.72891C22.9973 3.72891 22.5936 3.89608 22.296 4.19365L20.4079 6.08174C19.4726 5.50398 18.4506 5.08033 17.3809 4.82698V2.15873C17.3809 1.73775 17.2137 1.33401 16.916 1.03634C16.6183 0.738659 16.2146 0.571426 15.7936 0.571426H14.2063C13.7853 0.571426 13.3816 0.738659 13.0839 1.03634C12.7862 1.33401 12.619 1.73775 12.619 2.15873V4.82698C11.5492 5.08045 10.5271 5.50439 9.59201 6.08254L7.70471 4.19444C7.40705 3.89687 7.00338 3.7297 6.58249 3.7297C6.16159 3.7297 5.75793 3.89687 5.46026 4.19444L4.33725 5.31666C4.03972 5.61446 3.87252 6.01816 3.87237 6.43912C3.87222 6.86008 4.03913 7.2639 4.33646 7.5619L6.22455 9.45C5.6468 10.385 5.22313 11.4067 4.96979 12.4762H2.30153C1.88056 12.4762 1.47682 12.6434 1.17914 12.9411C0.881466 13.2388 0.714233 13.6425 0.714233 14.0635L0.714233 15.6508C0.714233 16.0718 0.881466 16.4755 1.17914 16.7732C1.47682 17.0709 1.88056 17.2381 2.30153 17.2381H4.96979C5.22341 18.3076 5.64734 19.3294 6.22534 20.2643L4.33725 22.1524C3.7182 22.7714 3.7182 23.7778 4.33804 24.3976L5.46026 25.5198C6.07931 26.1389 7.08487 26.1389 7.70471 25.5198L9.5928 23.6317C10.5278 24.2102 11.5499 24.6342 12.6198 24.8873V27.5556C12.6198 27.9765 12.787 28.3803 13.0847 28.6779C13.3824 28.9756 13.7861 29.1429 14.2071 29.1429H15.7944C16.2154 29.1429 16.6191 28.9756 16.9168 28.6779C17.2145 28.3803 17.3817 27.9765 17.3817 27.5556V24.8873C18.4512 24.6337 19.473 24.2098 20.4079 23.6317L22.296 25.5198C22.5936 25.8174 22.9973 25.9846 23.4182 25.9846C23.8391 25.9846 24.2428 25.8174 24.5404 25.5198L25.6626 24.3976C25.8101 24.2502 25.9271 24.0752 26.0069 23.8826C26.0867 23.69 26.1278 23.4835 26.1278 23.275C26.1278 23.0665 26.0867 22.86 26.0069 22.6674C25.9271 22.4748 25.8101 22.2998 25.6626 22.1524L23.7745 20.2643C24.353 19.3293 24.777 18.3072 25.0301 17.2373H27.6984C28.1193 17.2373 28.5231 17.0701 28.8208 16.7724C29.1184 16.4747 29.2857 16.071 29.2857 15.65V14.0627C29.2854 13.6419 29.1181 13.2383 28.8205 12.9408C28.5228 12.6433 28.1192 12.4762 27.6984 12.4762ZM14.9999 21.2063C13.316 21.2063 11.7011 20.5374 10.5104 19.3467C9.31967 18.156 8.65074 16.5411 8.65074 14.8571C8.65074 13.1732 9.31967 11.5583 10.5104 10.3676C11.7011 9.17687 13.316 8.50793 14.9999 8.50793C16.6839 8.50793 18.2988 9.17687 19.4895 10.3676C20.6802 11.5583 21.3492 13.1732 21.3492 14.8571C21.3492 16.5411 20.6802 18.156 19.4895 19.3467C18.2988 20.5374 16.6839 21.2063 14.9999 21.2063Z" fill="white"/>
</svg>
