<svg width="61" height="55" viewBox="0 0 61 55" fill="none" xmlns="http://www.w3.org/2000/svg">
<path opacity="0.05" d="M61 5.89886L30.9264 5.13954L46.6132 32.6287L61 5.89886ZM51.5151 11.4392L46.4622 20.8216L40.9433 11.1504L51.5151 11.4392ZM41.6731 35.5143C38.1222 29.2918 30.2911 27.1688 24.1407 30.7614C17.9904 34.354 15.8921 42.277 19.443 48.4996C22.9939 54.7221 30.825 56.8451 36.9753 53.2525C43.1257 49.6599 45.224 41.7369 41.6731 35.5143ZM24.383 45.614C23.4375 43.957 23.1812 41.9879 23.6707 40.1398C24.1601 38.2917 25.3552 36.7161 26.9929 35.7594C28.6306 34.8028 30.5769 34.5435 32.4035 35.0387C34.2302 35.5339 35.7876 36.743 36.7331 38.3999C37.6786 40.0569 37.9349 42.026 37.4454 43.8741C36.956 45.7222 35.7609 47.2979 34.1232 48.2545C32.4855 49.2111 30.5392 49.4704 28.7126 48.9752C26.8859 48.48 25.3285 47.2709 24.383 45.614ZM0 11.5425L11.4085 31.5346L31.1687 19.9921L19.7602 0L0 11.5425ZM17.6723 7.88365L23.3765 17.8797L13.4964 23.6509L7.79217 13.6549L17.6723 7.88365Z" fill="black"/>
</svg>
