<svg width="26" height="26" viewBox="0 0 26 26" fill="none" xmlns="http://www.w3.org/2000/svg">
<path d="M18.6457 0.714233C19.6068 0.714233 20.3853 1.35861 20.3853 2.14965V4.68502L7.92376 14.4255V7.88974C7.92376 7.09714 8.70231 6.45432 9.66185 6.45432L18.6457 0.714233Z" fill="white"/>
<path d="M24.2593 4.33397L2.41612 21.7181L3.7782 23.4296L25.6214 6.04554L24.2593 4.33397Z" fill="white"/>
<path d="M6.29013 8.45142V16.0997L4.04496 17.7239H3.44271C1.34264 17.7239 0.142822 16.1636 0.142822 13.8873V12.2896C0.142822 10.1427 1.44093 8.45142 3.44271 8.45142H6.29013Z" fill="white"/>
<path d="M10.8522 20.3856L18.7454 25.5547C19.6597 25.5547 20.3993 24.9306 20.3993 24.1583V12.9901L10.8522 20.3856Z" fill="white"/>
</svg>
