<svg width="29" height="30" viewBox="0 0 29 30" fill="none" xmlns="http://www.w3.org/2000/svg">
<path d="M26.1072 7.78453C25.2534 8.15284 24.3243 8.4179 23.3673 8.52114C24.3609 7.93084 25.1049 6.99826 25.4599 5.89837C24.5275 6.45303 23.5061 6.84196 22.4409 7.04792C21.9957 6.57199 21.4573 6.19285 20.8592 5.93411C20.261 5.67537 19.616 5.54258 18.9644 5.54402C16.3276 5.54402 14.2071 7.6813 14.2071 10.3041C14.2071 10.6724 14.2517 11.0407 14.3243 11.395C10.3762 11.1886 6.85498 9.30239 4.51402 6.41455C4.08747 7.14311 3.86395 7.97266 3.8667 8.8169C3.8667 10.4687 4.70654 11.9252 5.98723 12.7817C5.2325 12.752 4.49545 12.5446 3.83601 12.1763V12.2349C3.83601 14.5479 5.47105 16.4648 7.65018 16.9056C7.24103 17.0119 6.82012 17.0663 6.39739 17.0675C6.08768 17.0675 5.79471 17.0368 5.49895 16.9949C6.10163 18.8811 7.85665 20.2511 9.9465 20.2957C8.31145 21.5764 6.26346 22.3297 4.03969 22.3297C3.64069 22.3297 3.27239 22.3158 2.89014 22.2711C4.99951 23.6244 7.5023 24.4056 10.1976 24.4056C18.9476 24.4056 23.7356 17.1567 23.7356 10.8649C23.7356 10.6584 23.7356 10.4519 23.7216 10.2455C24.6479 9.56746 25.4599 8.72761 26.1072 7.78453Z" fill="white"/>
</svg>
