<svg width="450" height="330" viewBox="0 0 450 330" fill="none" xmlns="http://www.w3.org/2000/svg">
<path fill-rule="evenodd" clip-rule="evenodd" d="M95.0374 100.434H110.704V97.2804H98.685V71.5661H95.0374V100.434ZM112.36 75.4476H115.842V71.5661H112.36V75.4476ZM112.36 100.434H115.842V78.763H112.36V100.434ZM120.483 100.434H123.965V81.4313H127.778V78.763H123.965V76.2152C123.965 74.7195 124.711 74.1534 126.203 74.1534H127.819V71.243H125.29C121.934 71.243 120.483 72.9403 120.483 76.2152V78.763H117.251V81.4313H120.483V100.434ZM142.781 90.0034V88.6282C142.781 83.9377 142.159 78.1969 135.362 78.1969C128.523 78.1969 127.445 84.5037 127.445 89.8809C127.445 97.3614 129.683 101 135.154 101C141.247 101 142.614 95.6226 142.614 93.3179H139.134C139.134 94.9756 138.678 98.3315 135.362 98.3315C131.093 98.3315 131.093 93.3584 131.093 90.0034H142.781ZM131.218 87.3341V86.526C131.218 85.2318 131.632 80.8653 135.279 80.8653C138.387 80.8653 139.134 83.7361 139.134 86.1614V87.3341H131.218ZM159.026 90.528C158.901 94.0459 158.281 98.0894 153.846 98.0894C148.79 98.0894 148.125 92.6717 148.125 86.0004C148.125 79.3291 148.79 73.9114 153.846 73.9114C157.617 73.9114 158.653 76.7012 158.778 79.9761H162.591C162.425 74.3154 159.855 71 153.846 71C145.681 71 144.313 78.7225 144.313 86.0004C144.313 93.2774 145.433 101 153.846 101C160.311 101 162.508 95.9862 162.84 90.528H159.026ZM164.124 100.434H167.606V85.4748C167.606 82.361 170.133 81.1073 171.999 81.1073C175.148 81.1073 175.273 83.8171 175.273 85.4748V100.434H178.754V85.0698C178.754 82.4825 178.796 78.1969 173.035 78.1969C171.046 78.1969 168.6 79.4506 167.689 81.2298H167.606V71.5661H164.124V100.434ZM180.246 89.5984C180.246 95.7036 181.821 101 188.245 101C194.627 101 196.244 95.7036 196.244 89.5984C196.244 83.4931 194.669 78.1969 188.245 78.1969C181.821 78.1969 180.246 83.4931 180.246 89.5984ZM188.161 98.3315C184.598 98.3315 183.893 94.289 183.893 89.5984C183.893 84.9078 184.639 80.8653 188.161 80.8653C191.933 80.8653 192.597 84.9078 192.597 89.5984C192.597 94.289 191.85 98.3315 188.161 98.3315ZM197.113 75.4476H200.595V71.5661H197.113V75.4476ZM197.113 100.434H200.595V78.763H197.113V100.434ZM217.421 85.3533C217.421 82.8865 216.426 78.1969 210.334 78.1969C203.495 78.1969 202.418 84.5037 202.418 89.8809C202.418 97.3614 204.656 101 210.126 101C215.681 101 217.421 96.3102 217.421 92.9138H213.939C213.939 95.2591 213.277 98.3315 210.292 98.3315C206.107 98.3315 206.065 92.6312 206.065 89.8404C206.065 81.9164 208.263 80.8653 210.417 80.8653C213.069 80.8653 213.939 83.2501 213.939 85.3533H217.421ZM233.626 90.0034V88.6282C233.626 83.9377 233.004 78.1969 226.207 78.1969C219.368 78.1969 218.291 84.5037 218.291 89.8809C218.291 97.3614 220.53 101 226 101C232.092 101 233.461 95.6226 233.461 93.3179H229.979C229.979 94.9756 229.522 98.3315 226.207 98.3315C221.938 98.3315 221.938 93.3584 221.938 90.0034H233.626ZM222.063 87.3341V86.526C222.063 85.2318 222.477 80.8653 226.124 80.8653C229.233 80.8653 229.979 83.7361 229.979 86.1614V87.3341H222.063ZM248.463 85.1103C248.463 82.5635 248.172 78.1969 241.707 78.1969C237.853 78.1969 234.619 80.1372 234.619 84.1807C234.619 88.6282 237.397 89.4364 240.09 90.3265C242.744 91.1751 245.521 91.8222 245.521 94.7335C245.521 97.8059 242.95 98.3315 241.831 98.3315C238.391 98.3315 237.687 95.9457 237.687 93.3179H234.206C234.206 95.5416 234.289 101 241.831 101C245.976 101 249 98.7356 249 94.2079C249 89.8809 246.225 88.9513 243.572 88.1027C240.836 87.2531 238.102 86.768 238.102 84.1807C238.102 81.1478 240.588 80.8653 241.707 80.8653C244.235 80.8653 244.981 82.361 244.981 85.1103H248.463Z" fill="black"/>
<path fill-rule="evenodd" clip-rule="evenodd" d="M31.502 100.434H38.4652V89.0729L45.9662 71.5662H38.5057L35.1081 82.281H35.0251L31.7086 71.5662H24L31.502 89.0729V100.434ZM51.3962 101C59.1463 101 60.638 95.9863 60.638 89.4365C60.638 82.8866 59.5605 77.9945 51.3962 77.9945C43.6461 77.9945 42.1534 83.0082 42.1534 89.558C42.1534 96.1078 43.1894 101 51.3962 101ZM53.9239 89.5175C53.9239 94.8947 53.5097 96.7144 51.4377 96.7144C49.4478 96.7144 48.8675 94.8137 48.8675 89.477C48.8675 84.1808 49.4478 82.281 51.4377 82.281C53.5097 82.281 53.9239 84.0998 53.9239 89.5175ZM79.4122 78.5606H72.6981V92.8734C72.6981 95.0162 71.58 95.9863 70.294 95.9863C69.0098 95.9863 68.3465 95.0567 68.3465 93.48V78.5606H61.6324V94.9352C61.6324 99.1397 63.6639 101 67.4766 101C69.9628 101 71.9112 99.7868 72.8641 97.8465H72.9472V100.434H79.4122V78.5606ZM81.153 100.434H87.8671V88.0218C87.8671 85.1104 89.6079 84.0593 92.3016 84.0593C92.9649 84.0593 93.5037 84.0998 94.167 84.2213V78.0755C93.9594 78.035 93.7528 77.9945 93.5857 77.9945H93.0895C90.2712 77.9945 88.5719 79.6927 87.702 81.634H87.619V78.5606H81.153V100.434Z" fill="#ED1B33"/>
<g filter="url(#filter0_d)">
<rect x="24.322" y="111" width="401.356" height="148" rx="5" fill="#333333"/>
</g>
<path d="M97.8838 121.571H161.256V185H97.8838V121.571Z" fill="white"/>
<path fill-rule="evenodd" clip-rule="evenodd" d="M96.6296 120.317H162.51V186.254H96.6296V120.317ZM99.1381 122.826V183.746H160.002V122.826H99.1381Z" fill="#333333"/>
<path d="M145.614 161.464H136.678C135.728 165.334 133.319 167.871 129.074 167.871C126.665 167.871 124.764 167.11 123.433 165.524C121.596 163.558 121.215 161.528 121.215 152.775C121.215 144.022 121.596 141.992 123.433 140.026C124.764 138.44 126.665 137.679 129.074 137.679C133.319 137.679 135.728 140.216 136.678 144.085H145.614C144.093 134.888 137.692 129.814 129.01 129.814C124.194 129.814 120.138 131.463 116.843 134.761C114.878 136.727 113.674 138.947 113.167 141.548C112.66 144.085 112.407 147.827 112.407 152.775C112.407 157.722 112.66 161.464 113.167 164.002C113.674 166.539 114.878 168.822 116.843 170.788C120.138 174.087 124.194 175.736 129.01 175.736C137.629 175.736 144.093 170.662 145.614 161.464Z" fill="#333333"/>
<rect x="34.8838" y="185" width="63.372" height="63.4286" fill="#333333"/>
<rect x="98.2559" y="185" width="63.372" height="63.4286" fill="#333333"/>
<rect x="351.744" y="121.571" width="63.372" height="63.4286" fill="#333333"/>
<path d="M161.256 121.571H224.628V185H161.256V121.571Z" fill="white"/>
<path fill-rule="evenodd" clip-rule="evenodd" d="M160.001 120.317H225.882V186.254H160.001V120.317ZM162.51 122.826V183.746H223.373V122.826H162.51Z" fill="#333333"/>
<path d="M210.53 176.229L200.454 156.756C204.827 155.171 208.692 151.238 208.692 144.895C208.692 137.347 203.242 131.068 194.053 131.068H176.373V176.229H185.181V158.215H191.518L200.327 176.229H210.53ZM199.884 144.895C199.884 148.384 197.349 150.858 193.483 150.858H185.181V138.933H193.483C197.349 138.933 199.884 141.407 199.884 144.895Z" fill="#333333"/>
<path d="M161.372 185H224.744V248.429H161.372V185Z" fill="white"/>
<path fill-rule="evenodd" clip-rule="evenodd" d="M160.118 183.746H225.998V249.683H160.118V183.746ZM162.626 186.254V247.174H223.49V186.254H162.626Z" fill="#333333"/>
<path d="M209.92 238.941L199.844 219.468C204.217 217.883 208.082 213.95 208.082 207.607C208.082 200.059 202.632 193.78 193.443 193.78H175.763V238.941H184.571V220.927H190.909L199.717 238.941H209.92ZM199.274 207.607C199.274 211.096 196.739 213.569 192.873 213.569H184.571V201.645H192.873C196.739 201.645 199.274 204.119 199.274 207.607Z" fill="#333333"/>
<path d="M224.628 121.571H288V185H224.628V121.571Z" fill="white"/>
<path fill-rule="evenodd" clip-rule="evenodd" d="M223.374 120.317H289.254V186.254H223.374V120.317ZM225.882 122.826V183.746H286.746V122.826H225.882Z" fill="#333333"/>
<path d="M272.418 152.775C272.418 144.973 272.482 139.328 267.919 134.761C264.75 131.59 260.885 129.814 255.752 129.814C250.619 129.814 246.689 131.59 243.521 134.761C238.958 139.328 239.085 144.973 239.085 152.775C239.085 160.576 238.958 166.222 243.521 170.788C246.689 173.96 250.619 175.736 255.752 175.736C260.885 175.736 264.75 173.96 267.919 170.788C272.482 166.222 272.418 160.576 272.418 152.775ZM263.61 152.775C263.61 161.464 263.103 163.558 261.392 165.46C260.124 166.919 258.16 167.871 255.752 167.871C253.344 167.871 251.316 166.919 250.048 165.46C248.337 163.558 247.894 161.464 247.894 152.775C247.894 144.085 248.337 141.992 250.048 140.089C251.316 138.63 253.344 137.679 255.752 137.679C258.16 137.679 260.124 138.63 261.392 140.089C263.103 141.992 263.61 144.085 263.61 152.775Z" fill="#333333"/>
<path d="M98 185H161.372V248.429H98V185Z" fill="white"/>
<path fill-rule="evenodd" clip-rule="evenodd" d="M96.7456 183.746H162.626V249.683H96.7456V183.746ZM99.2541 186.254V247.174H160.118V186.254H99.2541Z" fill="#333333"/>
<path d="M146.385 216.741C146.385 208.939 146.448 203.294 141.885 198.727C138.717 195.556 134.851 193.78 129.718 193.78C124.585 193.78 120.656 195.556 117.487 198.727C112.924 203.294 113.051 208.939 113.051 216.741C113.051 224.543 112.924 230.188 117.487 234.755C120.656 237.926 124.585 239.702 129.718 239.702C134.851 239.702 138.717 237.926 141.885 234.755C146.448 230.188 146.385 224.543 146.385 216.741ZM137.576 216.741C137.576 225.431 137.069 227.524 135.358 229.427C134.091 230.885 132.126 231.837 129.718 231.837C127.31 231.837 125.282 230.885 124.014 229.427C122.303 227.524 121.86 225.431 121.86 216.741C121.86 208.051 122.303 205.958 124.014 204.055C125.282 202.596 127.31 201.645 129.718 201.645C132.126 201.645 134.091 202.596 135.358 204.055C137.069 205.958 137.576 208.051 137.576 216.741Z" fill="#333333"/>
<path d="M34.6277 185H97.9997V248.429H34.6277V185Z" fill="white"/>
<path fill-rule="evenodd" clip-rule="evenodd" d="M33.3735 183.746H99.254V249.683H33.3735V183.746ZM35.882 186.254V247.174H96.7455V186.254H35.882Z" fill="#333333"/>
<path d="M94.5013 193.78H85.3123L78.278 222.259L70.0397 193.78H63.449L55.2106 222.259L48.2397 193.78H39.0508L51.0915 238.941H58.4426L66.7443 211.54L75.0461 238.941H82.3972L94.5013 193.78Z" fill="#333333"/>
<path d="M224.744 185H288.116V248.429H224.744V185Z" fill="white"/>
<path fill-rule="evenodd" clip-rule="evenodd" d="M223.49 183.746H289.37V249.683H223.49V183.746ZM225.998 186.254V247.174H286.862V186.254H225.998Z" fill="#333333"/>
<path d="M272.492 216.17C272.492 209.383 272.999 203.167 267.929 198.093C264.951 195.112 260.705 193.78 256.015 193.78H239.729V238.941H256.015C260.705 238.941 264.951 237.609 267.929 234.628C272.999 229.553 272.492 222.957 272.492 216.17ZM263.683 216.17C263.683 223.02 263.43 226.255 261.782 228.285C260.261 230.124 258.233 231.076 255.192 231.076H248.537V201.645H255.192C258.233 201.645 260.261 202.596 261.782 204.436C263.43 206.465 263.683 209.32 263.683 216.17Z" fill="#333333"/>
<path d="M288 121.571H351.372V185H288V121.571Z" fill="white"/>
<path fill-rule="evenodd" clip-rule="evenodd" d="M286.746 120.317H352.626V186.254H286.746V120.317ZM289.254 122.826V183.746H350.118V122.826H289.254Z" fill="#333333"/>
<path d="M336.258 162.035C336.258 158.039 335.18 154.741 332.772 152.458C330.871 150.682 328.273 149.54 324.154 148.969L318.83 148.208C316.993 147.954 315.535 147.256 314.648 146.432C313.697 145.544 313.317 144.339 313.317 143.197C313.317 140.089 315.598 137.488 320.288 137.488C323.266 137.488 326.689 137.869 329.54 140.596L335.117 135.078C331.251 131.336 326.752 129.814 320.541 129.814C310.782 129.814 304.825 135.459 304.825 143.514C304.825 147.32 305.903 150.238 308.057 152.394C310.085 154.36 312.937 155.566 316.802 156.136L322.252 156.898C324.344 157.215 325.358 157.659 326.245 158.483C327.196 159.371 327.639 160.703 327.639 162.289C327.639 165.904 324.851 167.871 319.654 167.871C315.472 167.871 311.606 166.919 308.754 164.065L303.051 169.774C307.487 174.277 312.683 175.736 319.527 175.736C328.97 175.736 336.258 170.788 336.258 162.035Z" fill="#333333"/>
<path d="M351.372 121.571H414.744V185H351.372V121.571Z" fill="white"/>
<path fill-rule="evenodd" clip-rule="evenodd" d="M350.118 120.317H415.998V186.254H350.118V120.317ZM352.626 122.826V183.746H413.49V122.826H352.626Z" fill="#333333"/>
<path d="M400.224 162.035C400.224 158.039 399.147 154.741 396.739 152.458C394.837 150.682 392.239 149.54 388.12 148.969L382.797 148.208C380.959 147.954 379.501 147.256 378.614 146.432C377.664 145.544 377.283 144.339 377.283 143.197C377.283 140.089 379.565 137.488 384.254 137.488C387.233 137.488 390.655 137.869 393.507 140.596L399.083 135.078C395.218 131.336 390.718 129.814 384.508 129.814C374.748 129.814 368.792 135.459 368.792 143.514C368.792 147.32 369.869 150.238 372.023 152.394C374.051 154.36 376.903 155.566 380.769 156.136L386.219 156.898C388.31 157.215 389.324 157.659 390.211 158.483C391.162 159.371 391.605 160.703 391.605 162.289C391.605 165.904 388.817 167.871 383.621 167.871C379.438 167.871 375.572 166.919 372.721 164.065L367.017 169.774C371.453 174.277 376.65 175.736 383.494 175.736C392.936 175.736 400.224 170.788 400.224 162.035Z" fill="#333333"/>
<defs>
<filter id="filter0_d" x="18.322" y="108" width="417.356" height="164" filterUnits="userSpaceOnUse" color-interpolation-filters="sRGB">
<feFlood flood-opacity="0" result="BackgroundImageFix"/>
<feColorMatrix in="SourceAlpha" type="matrix" values="0 0 0 0 0 0 0 0 0 0 0 0 0 0 0 0 0 0 127 0"/>
<feOffset dx="2" dy="5"/>
<feGaussianBlur stdDeviation="4"/>
<feColorMatrix type="matrix" values="0 0 0 0 0 0 0 0 0 0 0 0 0 0 0 0 0 0 0.25 0"/>
<feBlend mode="normal" in2="BackgroundImageFix" result="effect1_dropShadow"/>
<feBlend mode="normal" in="SourceGraphic" in2="effect1_dropShadow" result="shape"/>
</filter>
</defs>
</svg>
