<svg width="165" height="23" viewBox="0 0 165 23" fill="none" xmlns="http://www.w3.org/2000/svg">
<path fill-rule="evenodd" clip-rule="evenodd" d="M52.0939 22.3041H63.5825V19.9146H54.7688V0.428954H52.0939V22.3041ZM64.7974 3.37025H67.3506V0.428954H64.7974V3.37025ZM64.7974 22.3041H67.3506V5.88259H64.7974V22.3041ZM70.7541 22.3041H73.3073V7.90459H76.1033V5.88259H73.3073V3.95193C73.3073 2.81853 73.8546 2.38957 74.9485 2.38957H76.1338V0.184151H74.2794C71.8183 0.184151 70.7541 1.47028 70.7541 3.95193V5.88259H68.3836V7.90459H70.7541V22.3041ZM87.1055 14.4003V13.3582C87.1055 9.80383 86.6495 5.45364 81.665 5.45364C76.6499 5.45364 75.8598 10.2328 75.8598 14.3075C75.8598 19.976 77.501 22.7331 81.5127 22.7331C85.9811 22.7331 86.9837 18.6584 86.9837 16.9119H84.4313C84.4313 18.1681 84.0971 20.7111 81.665 20.7111C78.5347 20.7111 78.5347 16.9426 78.5347 14.4003H87.1055ZM78.6261 12.3776V11.7652C78.6261 10.7845 78.9298 7.47564 81.6041 7.47564C83.8839 7.47564 84.4313 9.6511 84.4313 11.489V12.3776H78.6261ZM99.0189 14.7978C98.9276 17.4636 98.4723 20.5277 95.2203 20.5277C91.5123 20.5277 91.0252 16.4223 91.0252 11.3669C91.0252 6.31154 91.5123 2.20615 95.2203 2.20615C97.9859 2.20615 98.7456 4.32023 98.8369 6.80188H101.633C101.511 2.51234 99.6271 0 95.2203 0C89.2324 0 88.2291 5.8519 88.2291 11.3669C88.2291 16.8812 89.0505 22.7331 95.2203 22.7331C99.9613 22.7331 101.572 18.9339 101.816 14.7978H99.0189ZM102.757 22.3041H105.311V10.9687C105.311 8.60904 107.164 7.65906 108.532 7.65906C110.842 7.65906 110.933 9.71248 110.933 10.9687V22.3041H113.486V10.6617C113.486 8.70112 113.517 5.45364 109.292 5.45364C107.833 5.45364 106.04 6.40362 105.371 7.75186H105.311V0.428954H102.757V22.3041ZM114.58 14.0934C114.58 18.7198 115.735 22.7331 120.446 22.7331C125.126 22.7331 126.312 18.7198 126.312 14.0934C126.312 9.46695 125.157 5.45364 120.446 5.45364C115.735 5.45364 114.58 9.46695 114.58 14.0934ZM120.385 20.7111C117.772 20.7111 117.254 17.6478 117.254 14.0934C117.254 10.539 117.802 7.47564 120.385 7.47564C123.151 7.47564 123.637 10.539 123.637 14.0934C123.637 17.6478 123.09 20.7111 120.385 20.7111ZM126.949 3.37025H129.503V0.428954H126.949V3.37025ZM126.949 22.3041H129.503V5.88259H126.949V22.3041ZM141.842 10.8766C141.842 9.0073 141.112 5.45364 136.645 5.45364C131.63 5.45364 130.839 10.2328 130.839 14.3075C130.839 19.976 132.481 22.7331 136.492 22.7331C140.566 22.7331 141.842 19.1794 141.842 16.6057H139.288C139.288 18.3829 138.803 20.7111 136.614 20.7111C133.545 20.7111 133.514 16.3916 133.514 14.2768C133.514 8.27216 135.126 7.47564 136.705 7.47564C138.65 7.47564 139.288 9.2828 139.288 10.8766H141.842ZM153.725 14.4003V13.3582C153.725 9.80383 153.269 5.45364 148.285 5.45364C143.27 5.45364 142.48 10.2328 142.48 14.3075C142.48 19.976 144.121 22.7331 148.133 22.7331C152.601 22.7331 153.604 18.6584 153.604 16.9119H151.051C151.051 18.1681 150.716 20.7111 148.285 20.7111C145.154 20.7111 145.154 16.9426 145.154 14.4003H153.725ZM145.246 12.3776V11.7652C145.246 10.7845 145.55 7.47564 148.224 7.47564C150.504 7.47564 151.051 9.6511 151.051 11.489V12.3776H145.246ZM164.606 10.6924C164.606 8.7625 164.393 5.45364 159.652 5.45364C156.825 5.45364 154.454 6.92392 154.454 9.98798C154.454 13.3582 156.491 13.9706 158.466 14.6451C160.412 15.2882 162.448 15.7785 162.448 17.9846C162.448 20.3128 160.563 20.7111 159.743 20.7111C157.22 20.7111 156.703 18.9032 156.703 16.9119H154.151C154.151 18.597 154.212 22.7331 159.743 22.7331C162.782 22.7331 165 21.0173 165 17.5864C165 14.3075 162.965 13.603 161.019 12.96C159.013 12.3162 157.008 11.9486 157.008 9.98798C157.008 7.68975 158.831 7.47564 159.652 7.47564C161.505 7.47564 162.052 8.60904 162.052 10.6924H164.606Z" fill="black"/>
<path fill-rule="evenodd" clip-rule="evenodd" d="M5.5012 22.3043H10.6076V13.6952L16.1083 0.429081H10.6373L8.14572 8.54851H8.08483L5.65271 0.429081H-0.000244141L5.5012 13.6952V22.3043ZM20.0903 22.7332C25.7737 22.7332 26.8676 18.934 26.8676 13.9707C26.8676 9.00743 26.0774 5.3003 20.0903 5.3003C14.4069 5.3003 13.3123 9.09951 13.3123 14.0628C13.3123 19.0261 14.072 22.7332 20.0903 22.7332ZM21.9439 14.0321C21.9439 18.1068 21.6402 19.4857 20.1207 19.4857C18.6615 19.4857 18.2359 18.0454 18.2359 14.0014C18.2359 9.9881 18.6615 8.54851 20.1207 8.54851C21.6402 8.54851 21.9439 9.92672 21.9439 14.0321ZM40.6353 5.72926H35.7117V16.5751C35.7117 18.1989 34.8918 18.934 33.9486 18.934C33.007 18.934 32.5205 18.2296 32.5205 17.0348V5.72926H27.5969V18.1375C27.5969 21.3236 29.0866 22.7332 31.8826 22.7332C33.7058 22.7332 35.1346 21.8139 35.8334 20.3437H35.8943V22.3043H40.6353V5.72926ZM41.9119 22.3043H46.8356V12.8987C46.8356 10.6926 48.1122 9.89603 50.0876 9.89603C50.574 9.89603 50.9691 9.92672 51.4555 10.0188V5.36169C51.3033 5.33099 51.1518 5.3003 51.0293 5.3003H50.6654C48.5986 5.3003 47.3525 6.58716 46.7145 8.05818H46.6536V5.72926H41.9119V22.3043Z" fill="#ED1B33"/>
</svg>
