<svg width="41" height="41" viewBox="0 0 41 41" fill="none" xmlns="http://www.w3.org/2000/svg">
<path d="M17.0657 31.865H22.0655V36.8647H17.0657V31.865ZM20.3989 3.53308C29.3151 3.89973 33.1983 12.8993 27.8985 19.6489C26.5153 21.3155 24.2821 22.4155 23.1821 23.8154C22.0655 25.1987 22.0655 26.8652 22.0655 28.5318H17.0657C17.0657 25.7486 17.0657 23.3988 18.1824 21.7322C19.2823 20.0656 21.5155 19.0823 22.8988 17.9824C26.9319 14.2492 25.932 8.96614 20.3989 8.53283C19.0729 8.53283 17.8012 9.05959 16.8636 9.99722C15.9259 10.9349 15.3992 12.2066 15.3992 13.5326H10.3994C10.3994 10.8805 11.4529 8.33714 13.3282 6.46187C15.2035 4.5866 17.7469 3.53308 20.3989 3.53308Z" fill="white"/>
</svg>
