<svg width="60" height="60" viewBox="0 0 60 60" fill="none" xmlns="http://www.w3.org/2000/svg">
<path d="M29.5899 44.6484L14.5899 50.3906C13.8985 50.6484 13.1719 50.1211 13.2071 49.3828L14.0274 33.3398C14.0391 33.0938 13.9571 32.8477 13.8047 32.6484L3.70314 20.1562C3.23439 19.582 3.51564 18.7266 4.23049 18.5273L19.7461 14.3555C19.9922 14.2852 20.2031 14.1328 20.3321 13.9219L29.0977 0.46875C29.4961 -0.152344 30.4102 -0.152344 30.8086 0.46875L39.5742 13.9336C39.7149 14.1445 39.9258 14.2969 40.1602 14.3672L55.6758 18.5391C56.3907 18.7266 56.6719 19.5938 56.2032 20.168L46.1133 32.6602C45.961 32.8594 45.8789 33.1055 45.8906 33.3516L46.711 49.3945C46.7461 50.1328 46.0196 50.6602 45.3281 50.4023L30.3281 44.6602C30.0821 44.5664 29.8242 44.5664 29.5899 44.6484Z" fill="#FFB636"/>
<path d="M53.4492 6.05825L48.6445 1.25356C48.5039 1.11293 48.3164 1.05434 48.1289 1.07778C47.9414 1.10121 47.7656 1.2184 47.6719 1.38246L42.7149 11.1442C42.5742 11.3903 42.6211 11.6832 42.8203 11.8825C42.9375 11.9997 43.1016 12.0582 43.2539 12.0582C43.3594 12.0582 43.4649 12.0348 43.5586 11.9762L53.3086 7.0309C53.4727 6.93715 53.5899 6.77309 53.6133 6.57387C53.6485 6.38637 53.5781 6.19887 53.4492 6.05825Z" fill="#FFD469"/>
<path d="M17.4726 11.1559L12.5156 1.39418C12.4218 1.23012 12.2578 1.11293 12.0585 1.08949C11.871 1.06606 11.6718 1.12465 11.5429 1.26528L6.73824 6.06996C6.59761 6.21059 6.53902 6.39809 6.56246 6.58559C6.58589 6.77309 6.70308 6.94887 6.86714 7.04262L16.6289 11.9997C16.7226 12.0582 16.8281 12.0817 16.9335 12.0817C17.0976 12.0817 17.25 12.0231 17.3671 11.9059C17.5664 11.695 17.6015 11.3903 17.4726 11.1559Z" fill="#FFD469"/>
<path d="M33.9609 59.2031L30.5625 48.7969C30.5391 48.6914 30.4805 48.5977 30.4102 48.5273C30.293 48.4102 30.1406 48.3516 29.9766 48.3516C29.6953 48.3516 29.4609 48.5391 29.3789 48.8086L25.9805 59.2148C25.9336 59.4023 25.9688 59.6015 26.0859 59.7539C26.2031 59.9062 26.3789 60 26.5781 60H33.3633C33.5508 60 33.7383 59.9062 33.8555 59.7539C33.9844 59.5898 34.0195 59.3906 33.9609 59.2031Z" fill="#FFD469"/>
</svg>
