<svg width="120" height="50" viewBox="0 0 120 50" fill="none" xmlns="http://www.w3.org/2000/svg">
<rect width="50" height="50" rx="10" fill="#D1941C"/>
<rect width="50" height="45" rx="10" fill="#FAB837"/>
<path d="M25.5952 15.119C25.4374 15.119 25.286 15.1818 25.1743 15.2934C25.0627 15.405 25 15.5564 25 15.7143C25 15.8721 25.0627 16.0236 25.1743 16.1352C25.286 16.2468 25.4374 16.3095 25.5952 16.3095C26.8845 16.3095 27.9333 17.3583 27.9333 18.6476C27.9333 18.8055 27.996 18.9569 28.1077 19.0685C28.2193 19.1801 28.3707 19.2429 28.5286 19.2429C28.6864 19.2429 28.8378 19.1801 28.9495 19.0685C29.0611 18.9569 29.1238 18.8055 29.1238 18.6476C29.1225 17.7122 28.7504 16.8154 28.0889 16.1539C27.4275 15.4925 26.5307 15.1203 25.5952 15.119ZM25.5952 9.7619C20.6714 9.7619 16.6667 13.7667 16.6667 18.6905C16.6667 20.4595 17.1905 22.169 18.1833 23.6488L18.2786 23.8095C20.4512 26.9119 20.8333 27.8929 20.8333 28.8095V32.3809C20.8333 32.6967 20.9588 32.9995 21.182 33.2227C21.4053 33.446 21.7081 33.5714 22.0238 33.5714H24.4048C24.4048 33.8809 24.5357 34.1905 24.75 34.4167C24.9762 34.6309 25.2857 34.7619 25.5952 34.7619C25.9048 34.7619 26.2143 34.6309 26.4405 34.4167C26.6548 34.1905 26.7857 33.8809 26.7857 33.5714H29.1667C29.4824 33.5714 29.7852 33.446 30.0085 33.2227C30.2317 32.9995 30.3571 32.6967 30.3571 32.3809V28.8095C30.3571 27.8786 30.7369 26.8929 32.8952 23.8107C33.9542 22.3133 34.5232 20.5245 34.5238 18.6905C34.5238 13.7667 30.519 9.7619 25.5952 9.7619ZM27.9762 31.1905H23.2143V30H27.9762V31.1905ZM30.9464 22.444C29.2012 24.9357 28.3952 26.3595 28.1071 27.619H26.7857V25.2381C26.7857 24.9224 26.6603 24.6196 26.437 24.3963C26.2138 24.173 25.911 24.0476 25.5952 24.0476C25.2795 24.0476 24.9767 24.173 24.7534 24.3963C24.5302 24.6196 24.4048 24.9224 24.4048 25.2381V27.619H23.0798C22.794 26.3929 22.0107 25 20.3345 22.5952L20.2429 22.4417C19.4658 21.3451 19.0482 20.0344 19.0476 18.6905C19.0476 15.0798 21.9845 12.1429 25.5952 12.1429C29.206 12.1429 32.1429 15.0798 32.1429 18.6905C32.1417 20.0353 31.7237 21.3466 30.9464 22.444Z" fill="white"/>
<rect x="70" width="50" height="50" rx="10" fill="#D1941C"/>
<rect x="70" width="50" height="45" rx="10" fill="#FAB837"/>
<g clip-path="url(#clip0)">
<path d="M94.2061 22.8572H98.7377C100.881 22.8572 102.805 21.24 102.93 19.0734C102.964 18.4846 102.869 17.8954 102.653 17.3478C102.436 16.8003 102.103 16.3079 101.677 15.9058C102.041 15.2145 102.197 14.4304 102.126 13.6502C101.939 11.5353 100.024 10 97.9263 10H94.2061C93.9957 10 93.7938 10.0847 93.645 10.2354C93.4961 10.3861 93.4125 10.5905 93.4125 10.8036V22.0536C93.4125 22.2667 93.4961 22.4711 93.645 22.6218C93.7938 22.7725 93.9957 22.8572 94.2061 22.8572ZM96.1902 12.8125H98.1743C98.49 12.8125 98.7928 12.9395 99.016 13.1655C99.2393 13.3916 99.3647 13.6982 99.3647 14.0179C99.3647 14.3376 99.2393 14.6441 99.016 14.8702C98.7928 15.0962 98.49 15.2232 98.1743 15.2232H96.1902V12.8125ZM96.1902 17.6339H98.9679C99.2836 17.6339 99.5864 17.7609 99.8097 17.987C100.033 18.213 100.158 18.5196 100.158 18.8393C100.158 19.159 100.033 19.4656 99.8097 19.6916C99.5864 19.9177 99.2836 20.0447 98.9679 20.0447H96.1902V17.6339ZM88.4087 11.1175C88.3062 10.793 88.1045 10.5099 87.8328 10.3091C87.561 10.1082 87.2333 9.99998 86.8968 10H85.6429C85.3065 9.99998 84.9787 10.1082 84.707 10.3091C84.4353 10.5099 84.2336 10.793 84.1311 11.1175L80.7438 21.8392C80.7111 21.9584 80.7062 22.0838 80.7293 22.2053C80.7523 22.3269 80.8028 22.4414 80.8768 22.5399C80.9508 22.6385 81.0463 22.7184 81.1558 22.7734C81.2653 22.8284 81.3859 22.8571 81.5081 22.8572H82.7447C82.9183 22.8572 83.0871 22.7996 83.2252 22.6932C83.3633 22.5868 83.4632 22.4374 83.5096 22.2681L84.1018 20.4465H88.438L89.0302 22.2681C89.0765 22.4374 89.1764 22.5868 89.3146 22.6932C89.4527 22.7996 89.6215 22.8572 89.7951 22.8572H91.0316C91.1539 22.8572 91.2746 22.8286 91.3841 22.7736C91.4937 22.7186 91.5892 22.6387 91.6633 22.5401C91.7373 22.4416 91.7879 22.327 91.811 22.2054C91.8341 22.0838 91.8291 21.9585 91.7965 21.8392L88.4087 11.1175ZM85.1474 17.2322L86.2699 13.7818L87.3924 17.2322H85.1474ZM109.055 23.8858L106.813 21.6106C106.74 21.5356 106.652 21.476 106.556 21.4353C106.46 21.3946 106.357 21.3737 106.253 21.3737C106.148 21.3737 106.045 21.3946 105.949 21.4353C105.853 21.476 105.766 21.5356 105.692 21.6106L98.1777 29.2195L95.4293 26.4321C95.3561 26.357 95.2688 26.2974 95.1726 26.2568C95.0765 26.2161 94.9733 26.1951 94.8691 26.1951C94.7648 26.1951 94.6617 26.2161 94.5655 26.2568C94.4693 26.2974 94.3821 26.357 94.3088 26.4321L92.0619 28.7072C91.9136 28.8578 91.8303 29.0618 91.8303 29.2745C91.8303 29.4871 91.9136 29.6911 92.0619 29.8417L97.6172 35.4773C97.6905 35.5524 97.7778 35.612 97.874 35.6527C97.9703 35.6933 98.0735 35.7143 98.1777 35.7143C98.282 35.7143 98.3852 35.6933 98.4814 35.6527C98.5777 35.612 98.6649 35.5524 98.7382 35.4773L109.055 25.0203C109.204 24.8695 109.287 24.6655 109.286 24.4528C109.286 24.2402 109.203 24.0362 109.054 23.8858H109.055Z" fill="white"/>
</g>
<defs>
<clipPath id="clip0">
<rect width="28.5714" height="28.5714" fill="white" transform="translate(80.7143 8.57141)"/>
</clipPath>
</defs>
</svg>
