<svg width="24" height="24" viewBox="0 0 24 24" fill="none" xmlns="http://www.w3.org/2000/svg">
<path fill-rule="evenodd" clip-rule="evenodd" d="M12 2.25C12.4142 2.25 12.75 2.58579 12.75 3V4C12.75 4.41421 12.4142 4.75 12 4.75C11.5858 4.75 11.25 4.41421 11.25 4V3C11.25 2.58579 11.5858 2.25 12 2.25ZM5.10567 5.10567C5.39856 4.81278 5.87344 4.81278 6.16633 5.10567L6.87333 5.81267C7.16622 6.10556 7.16622 6.58044 6.87333 6.87333C6.58044 7.16622 6.10556 7.16622 5.81267 6.87333L5.10567 6.16633C4.81278 5.87344 4.81278 5.39856 5.10567 5.10567ZM18.8943 5.10567C19.1872 5.39856 19.1872 5.87344 18.8943 6.16633L18.1873 6.87333C17.8944 7.16622 17.4196 7.16622 17.1267 6.87333C16.8338 6.58044 16.8338 6.10556 17.1267 5.81267L17.8337 5.10567C18.1266 4.81278 18.6014 4.81278 18.8943 5.10567ZM12 7.75093C11.1595 7.75093 10.3378 8.00016 9.63894 8.46711C8.94006 8.93405 8.39532 9.59775 8.07362 10.3743C7.75191 11.1508 7.66768 12.0053 7.83158 12.8297C7.99545 13.6539 8.40003 14.4111 8.99415 15.0055C8.99424 15.0056 8.99407 15.0054 8.99415 15.0055L9.54185 15.5522C9.75486 15.7652 9.94269 15.9998 10.1023 16.25H13.8976C14.0581 15.9986 14.2457 15.7647 14.4576 15.5527L15.0056 15.0057C15.5999 14.4113 16.0045 13.654 16.1684 12.8297C16.3323 12.0053 16.2481 11.1508 15.9264 10.3743C15.6047 9.59775 15.0599 8.93406 14.3611 8.46711C13.6622 8.00016 12.8405 7.75093 12 7.75093ZM13.3131 17.75H10.6868C10.7286 17.9858 10.75 18.2263 10.75 18.469V19C10.75 19.3315 10.8817 19.6495 11.1161 19.8839C11.3505 20.1183 11.6685 20.25 12 20.25C12.3315 20.25 12.6495 20.1183 12.8839 19.8839C13.1183 19.6495 13.25 19.3315 13.25 19V18.4691C13.25 18.4691 13.25 18.4691 13.25 18.4691C13.25 18.2275 13.2712 17.9868 13.3131 17.75ZM8.80563 7.21988C9.75118 6.58813 10.8628 6.25093 12 6.25093C13.1372 6.25093 14.2488 6.58813 15.1944 7.21988C16.1399 7.85163 16.8769 8.74957 17.3122 9.80015C17.7474 10.8507 17.8614 12.0068 17.6396 13.1221C17.4179 14.2375 16.8704 15.262 16.0664 16.0663L15.5184 16.6133C15.2747 16.857 15.0815 17.1463 14.9496 17.4647C14.8178 17.7831 14.75 18.1243 14.75 18.4689V19C14.75 19.7293 14.4603 20.4288 13.9445 20.9445C13.4288 21.4603 12.7293 21.75 12 21.75C11.2707 21.75 10.5712 21.4603 10.0555 20.9445C9.53973 20.4288 9.25 19.7293 9.25 19V18.469C9.25 18.0784 9.16278 17.6965 8.9994 17.3498C8.99115 17.3342 8.98344 17.3182 8.97628 17.302C8.85094 17.0494 8.68467 16.8164 8.48188 16.6135C8.48181 16.6135 8.48195 16.6136 8.48188 16.6135L7.93415 16.0668C7.13015 15.2626 6.58212 14.2375 6.36037 13.1221C6.13863 12.0068 6.25259 10.8507 6.68784 9.80015C7.12309 8.74957 7.86008 7.85163 8.80563 7.21988ZM2.25 12C2.25 11.5858 2.58579 11.25 3 11.25H4C4.41421 11.25 4.75 11.5858 4.75 12C4.75 12.4142 4.41421 12.75 4 12.75H3C2.58579 12.75 2.25 12.4142 2.25 12ZM19.25 12C19.25 11.5858 19.5858 11.25 20 11.25H21C21.4142 11.25 21.75 11.5858 21.75 12C21.75 12.4142 21.4142 12.75 21 12.75H20C19.5858 12.75 19.25 12.4142 19.25 12Z" fill="white"/>
</svg>
