<svg width="30" height="30" viewBox="0 0 30 30" fill="none" xmlns="http://www.w3.org/2000/svg">
<path d="M27.6984 12.4761H25.0302C24.7767 11.4062 24.3528 10.3842 23.7746 9.44907L25.6627 7.56097C25.8102 7.41357 25.9271 7.23856 26.007 7.04594C26.0868 6.85331 26.1278 6.64685 26.1278 6.43835C26.1278 6.22985 26.0868 6.02339 26.007 5.83077C25.9271 5.63815 25.8102 5.46314 25.6627 5.31573L24.5405 4.19351C24.2428 3.89594 23.8392 3.72877 23.4183 3.72877C22.9974 3.72877 22.5937 3.89594 22.296 4.19351L20.4079 6.08161C19.4727 5.50385 18.4507 5.08019 17.381 4.82684V2.15859C17.381 1.73761 17.2137 1.33388 16.916 1.0362C16.6184 0.738522 16.2146 0.571289 15.7937 0.571289H14.2064C13.7854 0.571289 13.3816 0.738522 13.084 1.0362C12.7863 1.33388 12.6191 1.73761 12.6191 2.15859V4.82684C11.5493 5.08032 10.5272 5.50425 9.59207 6.0824L7.70477 4.1943C7.40711 3.89673 7.00344 3.72956 6.58255 3.72956C6.16165 3.72956 5.75799 3.89673 5.46033 4.1943L4.33731 5.31653C4.03978 5.61432 3.87258 6.01802 3.87243 6.43898C3.87228 6.85994 4.03919 7.26376 4.33652 7.56176L6.22461 9.44986C5.64686 10.3848 5.2232 11.4066 4.96985 12.4761H2.3016C1.88062 12.4761 1.47688 12.6433 1.1792 12.941C0.881528 13.2386 0.714294 13.6424 0.714294 14.0634L0.714294 15.6507C0.714294 16.0716 0.881528 16.4754 1.1792 16.773C1.47688 17.0707 1.88062 17.238 2.3016 17.238H4.96985C5.22347 18.3075 5.6474 19.3292 6.22541 20.2641L4.33731 22.1522C3.71826 22.7713 3.71826 23.7776 4.3381 24.3975L5.46033 25.5197C6.07937 26.1387 7.08493 26.1387 7.70477 25.5197L9.59287 23.6316C10.5278 24.2101 11.5499 24.634 12.6198 24.8872V27.5554C12.6198 27.9764 12.7871 28.3801 13.0848 28.6778C13.3824 28.9755 13.7862 29.1427 14.2072 29.1427H15.7945C16.2154 29.1427 16.6192 28.9755 16.9168 28.6778C17.2145 28.3801 17.3818 27.9764 17.3818 27.5554V24.8872C18.4513 24.6335 19.473 24.2096 20.4079 23.6316L22.296 25.5197C22.5937 25.8173 22.9974 25.9844 23.4183 25.9844C23.8392 25.9844 24.2428 25.8173 24.5405 25.5197L25.6627 24.3975C25.8102 24.2501 25.9271 24.0751 26.007 23.8824C26.0868 23.6898 26.1278 23.4834 26.1278 23.2749C26.1278 23.0664 26.0868 22.8599 26.007 22.6673C25.9271 22.4747 25.8102 22.2996 25.6627 22.1522L23.7746 20.2641C24.3531 19.3292 24.777 18.3071 25.0302 17.2372H27.6984C28.1194 17.2372 28.5231 17.0699 28.8208 16.7723C29.1185 16.4746 29.2857 16.0708 29.2857 15.6499V14.0626C29.2855 13.6417 29.1182 13.2382 28.8205 12.9407C28.5229 12.6432 28.1193 12.4761 27.6984 12.4761ZM15 21.2062C13.3161 21.2062 11.7011 20.5373 10.5104 19.3466C9.31973 18.1559 8.6508 16.5409 8.6508 14.857C8.6508 13.1731 9.31973 11.5581 10.5104 10.3674C11.7011 9.17673 13.3161 8.5078 15 8.5078C16.6839 8.5078 18.2989 9.17673 19.4896 10.3674C20.6803 11.5581 21.3492 13.1731 21.3492 14.857C21.3492 16.5409 20.6803 18.1559 19.4896 19.3466C18.2989 20.5373 16.6839 21.2062 15 21.2062Z" fill="white"/>
</svg>
