<svg width="24" height="24" viewBox="0 0 24 24" fill="none" xmlns="http://www.w3.org/2000/svg">
<path fill-rule="evenodd" clip-rule="evenodd" d="M14.5288 4.12201L4.53193 14.1189C4.48565 14.1657 4.45923 14.2293 4.45923 14.2951C4.45923 14.3609 4.48519 14.4241 4.53147 14.4709L8.31068 18.2501H11.0994L19.8781 9.47136C19.9243 9.42457 19.9508 9.36091 19.9508 9.29511C19.9508 9.22931 19.9249 9.16618 19.8786 9.11939L14.8813 4.12201C14.8345 4.07574 14.7709 4.04932 14.705 4.04932C14.6392 4.04932 14.5756 4.07574 14.5288 4.12201ZM13.2207 18.2501L20.9404 10.5304L20.9419 10.5289C21.2679 10.201 21.4508 9.75743 21.4508 9.29511C21.4508 8.83278 21.2679 8.38924 20.9419 8.06136L15.9404 3.05978L15.9388 3.0582C15.6109 2.73226 15.1673 2.54932 14.705 2.54932C14.2427 2.54932 13.7992 2.73226 13.4713 3.0582L13.4697 3.05978L3.46969 13.0598L3.46812 13.0614C3.14218 13.3892 2.95923 13.8328 2.95923 14.2951C2.95923 14.7574 3.14218 15.201 3.46812 15.5289L3.46969 15.5304L7.46969 19.5304C7.61034 19.6711 7.80111 19.7501 8.00002 19.7501H19C19.4142 19.7501 19.75 19.4143 19.75 19.0001C19.75 18.5859 19.4142 18.2501 19 18.2501H13.2207Z" fill="white"/>
<path fill-rule="evenodd" clip-rule="evenodd" d="M11.1697 5.46978C11.4626 5.17689 11.9375 5.17689 12.2304 5.46978L18.5304 11.7698C18.8232 12.0627 18.8232 12.5375 18.5304 12.8304C18.2375 13.1233 17.7626 13.1233 17.4697 12.8304L11.1697 6.53044C10.8768 6.23755 10.8768 5.76267 11.1697 5.46978Z" fill="white"/>
</svg>
