<svg width="40" height="40" viewBox="0 0 40 40" fill="none" xmlns="http://www.w3.org/2000/svg">
<path d="M27.904 3C29.2495 3 30.3395 3.90213 30.3395 5.00958V8.5591L12.8933 22.1958V13.0457C12.8933 11.9361 13.9833 11.0361 15.3266 11.0361L27.904 3Z" fill="white"/>
<path d="M35.7631 8.06763L5.18262 32.4054L7.08953 34.8016L37.6701 10.4638L35.7631 8.06763Z" fill="white"/>
<path d="M10.6062 13.8321V24.5396L7.46299 26.8135H6.61984C3.67974 26.8135 2 24.6292 2 21.4422V19.2055C2 16.1999 3.81736 13.8321 6.61984 13.8321H10.6062Z" fill="white"/>
<path d="M16.9932 30.5399L28.0437 37.7766C29.3237 37.7766 30.359 36.9029 30.359 35.8216V20.1863L16.9932 30.5399Z" fill="white"/>
</svg>
