<svg width="24" height="24" viewBox="0 0 24 24" fill="none" xmlns="http://www.w3.org/2000/svg">
<path d="M18.6667 19.9998H4.00002V5.33312H12.8134L14.1467 3.99978H4.00002C3.6464 3.99978 3.30726 4.14026 3.05721 4.39031C2.80716 4.64035 2.66669 4.97949 2.66669 5.33312V19.9998C2.66669 20.3534 2.80716 20.6925 3.05721 20.9426C3.30726 21.1926 3.6464 21.3331 4.00002 21.3331H18.6667C19.0203 21.3331 19.3594 21.1926 19.6095 20.9426C19.8595 20.6925 20 20.3534 20 19.9998V9.99978L18.6667 11.3331V19.9998Z" fill="white"/>
<path d="M22.3534 3.89313L20.1067 1.64647C20.007 1.54649 19.8885 1.46716 19.7581 1.41304C19.6277 1.35891 19.4879 1.33105 19.3467 1.33105C19.2055 1.33105 19.0657 1.35891 18.9353 1.41304C18.8049 1.46716 18.6864 1.54649 18.5867 1.64647L9.44669 10.8398L8.70669 14.0465C8.67517 14.2019 8.67848 14.3624 8.7164 14.5164C8.75431 14.6704 8.82589 14.8141 8.92597 14.9371C9.02606 15.0602 9.15217 15.1595 9.29523 15.228C9.4383 15.2964 9.59476 15.3324 9.75336 15.3331C9.83533 15.3422 9.91805 15.3422 10 15.3331L13.2334 14.6198L22.3534 5.41313C22.4533 5.31343 22.5327 5.19497 22.5868 5.06456C22.6409 4.93414 22.6688 4.79433 22.6688 4.65313C22.6688 4.51193 22.6409 4.37212 22.5868 4.24171C22.5327 4.11129 22.4533 3.99284 22.3534 3.89313ZM12.54 13.3865L10.1 13.9265L10.6667 11.5065L17.5467 4.5798L19.4267 6.4598L12.54 13.3865ZM20.18 5.70647L18.3 3.82647L19.3334 2.77313L21.2267 4.66647L20.18 5.70647Z" fill="white"/>
</svg>
