<svg width="24" height="24" viewBox="0 0 24 24" fill="none" xmlns="http://www.w3.org/2000/svg">
<path d="M18.6666 19.9998H3.99996V5.33312H12.8133L14.1466 3.99978H3.99996C3.64634 3.99978 3.3072 4.14026 3.05715 4.39031C2.8071 4.64035 2.66663 4.97949 2.66663 5.33312V19.9998C2.66663 20.3534 2.8071 20.6925 3.05715 20.9426C3.3072 21.1926 3.64634 21.3331 3.99996 21.3331H18.6666C19.0202 21.3331 19.3594 21.1926 19.6094 20.9426C19.8595 20.6925 20 20.3534 20 19.9998V9.99978L18.6666 11.3331V19.9998Z" fill="#208EBC"/>
<path d="M22.3533 3.89313L20.1066 1.64647C20.0069 1.54649 19.8885 1.46716 19.7581 1.41304C19.6276 1.35891 19.4878 1.33105 19.3466 1.33105C19.2054 1.33105 19.0656 1.35891 18.9352 1.41304C18.8048 1.46716 18.6863 1.54649 18.5866 1.64647L9.44663 10.8398L8.70663 14.0465C8.67511 14.2019 8.67842 14.3624 8.71634 14.5164C8.75425 14.6704 8.82583 14.8141 8.92591 14.9371C9.026 15.0602 9.15211 15.1595 9.29517 15.228C9.43824 15.2964 9.5947 15.3324 9.7533 15.3331C9.83527 15.3422 9.91799 15.3422 9.99996 15.3331L13.2333 14.6198L22.3533 5.41313C22.4533 5.31343 22.5326 5.19497 22.5867 5.06456C22.6409 4.93414 22.6687 4.79433 22.6687 4.65313C22.6687 4.51193 22.6409 4.37212 22.5867 4.24171C22.5326 4.11129 22.4533 3.99284 22.3533 3.89313ZM12.54 13.3865L10.1 13.9265L10.6666 11.5065L17.5466 4.5798L19.4266 6.4598L12.54 13.3865ZM20.18 5.70647L18.3 3.82647L19.3333 2.77313L21.2266 4.66647L20.18 5.70647Z" fill="#208EBC"/>
</svg>
