<svg width="60" height="60" viewBox="0 0 60 60" fill="none" xmlns="http://www.w3.org/2000/svg">
<path d="M29.5899 44.6484L14.5899 50.3906C13.8985 50.6484 13.1719 50.1211 13.2071 49.3828L14.0274 33.3398C14.0391 33.0938 13.9571 32.8477 13.8047 32.6484L3.70314 20.1562C3.23439 19.582 3.51564 18.7266 4.23049 18.5273L19.7461 14.3555C19.9922 14.2852 20.2031 14.1328 20.3321 13.9219L29.0977 0.46875C29.4961 -0.152344 30.4102 -0.152344 30.8086 0.46875L39.5742 13.9336C39.7149 14.1445 39.9258 14.2969 40.1602 14.3672L55.6758 18.5391C56.3907 18.7266 56.6719 19.5938 56.2032 20.168L46.1133 32.6602C45.961 32.8594 45.8789 33.1055 45.8906 33.3516L46.711 49.3945C46.7461 50.1328 46.0196 50.6602 45.3281 50.4023L30.3281 44.6602C30.0821 44.5664 29.8242 44.5664 29.5899 44.6484Z" fill="#BDBDBD"/>
</svg>
