<svg width="30" height="30" viewBox="0 0 30 30" fill="none" xmlns="http://www.w3.org/2000/svg">
<path d="M26.6072 7.6668C25.7534 8.0351 24.8243 8.30017 23.8673 8.4034C24.8609 7.8131 25.6049 6.88052 25.9599 5.78063C25.0275 6.33529 24.0061 6.72423 22.9409 6.93019C22.4957 6.45426 21.9573 6.07511 21.3592 5.81637C20.761 5.55763 20.116 5.42484 19.4644 5.42628C16.8276 5.42628 14.7071 7.56356 14.7071 10.1863C14.7071 10.5546 14.7517 10.9229 14.8243 11.2773C10.8762 11.0708 7.35498 9.18465 5.01402 6.29682C4.58747 7.02538 4.36395 7.85493 4.3667 8.69916C4.3667 10.3509 5.20654 11.8074 6.48723 12.664C5.7325 12.6343 4.99545 12.4268 4.33601 12.0585V12.1171C4.33601 14.4302 5.97105 16.347 8.15018 16.7879C7.74103 16.8942 7.32012 16.9485 6.89739 16.9497C6.58768 16.9497 6.29471 16.919 5.99895 16.8772C6.60163 18.7633 8.35665 20.1333 10.4465 20.178C8.81145 21.4587 6.76346 22.212 4.53969 22.212C4.14069 22.212 3.77239 22.1981 3.39014 22.1534C5.49951 23.5066 8.0023 24.2879 10.6976 24.2879C19.4476 24.2879 24.2356 17.039 24.2356 10.7472C24.2356 10.5407 24.2356 10.3342 24.2216 10.1277C25.1479 9.44972 25.9599 8.60988 26.6072 7.6668Z" fill="white"/>
</svg>
